<?xml version="1.0" encoding="UTF-8" standalone="no"?>
<!-- Created with Inkscape (http://www.inkscape.org/) -->

<svg
   version="1.1"
   id="svg1"
   width="317.836"
   height="124.42"
   viewBox="0 0 317.836 124.42"
   xmlns="http://www.w3.org/2000/svg"
   xmlns:svg="http://www.w3.org/2000/svg">
  <defs
     id="defs1" />
  <g
     id="g96"
     transform="translate(-1646.5666)">
    <g
       id="g97"
       aria-label="ˆz&#10;n&#10;1&#10;(t)"
       transform="matrix(1.3333333,0,0,1.3333333,1653.78,21.813333)">
      <path
         id="path97"
         d="m 2.4972266,-6.9146875 -1.3359375,1.359375 0.1757812,0.1757813 1.1601563,-1.0195313 1.1367187,1.0195313 0.1875,-0.1757813 z m 0,0"
         style="fill:#ffffff;fill-opacity:1;fill-rule:nonzero;stroke:none" />
      <path
         id="path98"
         d="M 0.72476562,-0.83265625 C 1.2638281,-1.406875 1.5567969,-1.6529687 1.9083594,-1.9576562 c 0,-0.011719 0.6210937,-0.5390625 0.984375,-0.9023438 0.9375,-0.9257812 1.1601562,-1.40625 1.1601562,-1.4414062 0,-0.1054688 -0.09375,-0.1054688 -0.1054687,-0.1054688 -0.070312,0 -0.1054688,0.023437 -0.1523438,0.1171875 -0.3046875,0.46875 -0.5039062,0.6328125 -0.75,0.6328125 -0.234375,0 -0.3515625,-0.1523437 -0.5039062,-0.3164062 -0.1875,-0.234375 -0.3632813,-0.4335938 -0.6914063,-0.4335938 -0.75,0 -1.20703123,0.9257813 -1.20703123,1.1367188 0,0.046875 0.0351563,0.1171875 0.1171875,0.1171875 0.09375,0 0.1171875,-0.058594 0.140625,-0.1171875 0.18750003,-0.4570313 0.76171873,-0.46875 0.84375003,-0.46875 0.2109375,0 0.3984375,0.070312 0.6210937,0.1523437 0.3984375,0.1523438 0.515625,0.1523438 0.7734375,0.1523438 -0.3632812,0.421875 -1.1953125,1.1367187 -1.3828125,1.3007812 l -0.90234373,0.8320313 c -0.6796875,0.6679687 -1.01953125,1.24218745 -1.01953125,1.31249995 0,0.09375 0.09375,0.09375 0.1171875,0.09375 0.08203125,0 0.09375,-0.01171875 0.15234375,-0.12890625 0.234375,-0.33984375 0.52734375,-0.609375 0.85546875,-0.609375 0.22265628,0 0.32812498,0.0820313 0.57421878,0.375 0.1640625,0.2109375 0.3515625,0.36328125 0.6328125,0.36328125 0.984375,0 1.5703125,-1.26562495 1.5703125,-1.53515625 0,-0.046875 -0.046875,-0.09375 -0.1171875,-0.09375 -0.09375,0 -0.1171875,0.058594 -0.140625,0.1289063 -0.234375,0.6445312 -0.8671875,0.8320312 -1.1953125,0.8320312 -0.1992188,0 -0.3867188,-0.0585938 -0.5859375,-0.12890625 -0.3398438,-0.12890625 -0.4921875,-0.1640625 -0.70312503,-0.1640625 -0.0234375,0 -0.17578125,0 -0.26953125,0.0234375 z m 0,0"
         style="fill:#ffffff;fill-opacity:1;fill-rule:nonzero;stroke:none" />
      <path
         id="path99"
         d="m 5.3273047,-4.0494531 c -0.035156,0.082031 -0.070312,0.2578125 -0.070312,0.28125 0,0.1523437 0.1171875,0.2226562 0.234375,0.2226562 0.1289062,0 0.234375,-0.09375 0.2695312,-0.1523437 0.035156,-0.058594 0.09375,-0.2929688 0.1289063,-0.4335938 0.035156,-0.1289062 0.1054687,-0.4570312 0.1523437,-0.6328125 0.035156,-0.1523437 0.082031,-0.3046875 0.1171875,-0.4570312 0.082031,-0.2929688 0.09375,-0.3515625 0.2929688,-0.6328125 0.1992187,-0.28125 0.5273437,-0.6445313 1.0429687,-0.6445313 0.4101563,0 0.4101563,0.3632813 0.4101563,0.4921875 0,0.421875 -0.2929688,1.1953125 -0.4101563,1.4882813 -0.070312,0.1875 -0.1054687,0.2578125 -0.1054687,0.375 0,0.3632812 0.3046875,0.5976562 0.6679687,0.5976562 0.6914063,0 1.0078125,-0.9609375 1.0078125,-1.0664062 0,-0.09375 -0.09375,-0.09375 -0.1171875,-0.09375 -0.09375,0 -0.1054687,0.046875 -0.1289062,0.1171875 -0.1640625,0.5625 -0.46875,0.84375 -0.7382813,0.84375 -0.1523437,0 -0.1757812,-0.09375 -0.1757812,-0.2460938 0,-0.1523437 0.035156,-0.2460937 0.1523437,-0.5625 0.09375,-0.2109375 0.375,-0.9492187 0.375,-1.3476562 0,-0.6679688 -0.5390625,-0.7851563 -0.9023437,-0.7851563 -0.5859375,0 -0.9726563,0.3515625 -1.1835938,0.6328125 -0.046875,-0.4804687 -0.4570312,-0.6328125 -0.75,-0.6328125 -0.2929687,0 -0.4570312,0.2109375 -0.5507812,0.375 -0.1523438,0.2578125 -0.2460938,0.65625 -0.2460938,0.6914063 0,0.082031 0.09375,0.082031 0.1171875,0.082031 0.09375,0 0.1054688,-0.011719 0.1523438,-0.1992187 0.1054687,-0.421875 0.234375,-0.7617188 0.515625,-0.7617188 0.1757812,0 0.2226562,0.1523438 0.2226562,0.3398438 0,0.140625 -0.058594,0.3984375 -0.1054687,0.5859375 -0.046875,0.1875 -0.1171875,0.46875 -0.1523438,0.6210937 z m 0,0"
         style="fill:#ffffff;fill-opacity:1;fill-rule:nonzero;stroke:none" />
      <path
         id="path100"
         d="m 6.3673437,-1.9576562 c 0,-0.1875 -0.011719,-0.1992188 -0.2109375,-0.1992188 -0.4453125,0.4335938 -1.078125,0.4453125 -1.359375,0.4453125 v 0.2460938 c 0.1640625,0 0.6210938,0 1.0078125,-0.1875 v 3.5507812 c 0,0.234375 0,0.328125 -0.6914062,0.328125 H 4.8439062 v 0.2460938 c 0.1289063,-0.011719 0.984375,-0.023437 1.2421875,-0.023437 0.2109375,0 1.0898438,0.011719 1.2421875,0.023437 V 2.2259375 H 7.0704687 c -0.703125,0 -0.703125,-0.09375 -0.703125,-0.328125 z m 0,0"
         style="fill:#ffffff;fill-opacity:1;fill-rule:nonzero;stroke:none" />
      <path
         id="path101"
         d="m 13.187656,2.39 c 0,-0.035156 0,-0.046875 -0.164062,-0.2226562 -1.242188,-1.2539063 -1.570313,-3.1289063 -1.570313,-4.6640625 0,-1.7226563 0.386719,-3.4570313 1.605469,-4.7109375 0.128906,-0.1171875 0.128906,-0.1289063 0.128906,-0.1640625 0,-0.070312 -0.03516,-0.1054688 -0.09375,-0.1054688 -0.105468,0 -0.996093,0.6796875 -1.582031,1.9453125 -0.515625,1.1015625 -0.632812,2.203125 -0.632812,3.0351563 0,0.7851562 0.117187,1.99218745 0.65625,3.11718745 0.597656,1.21875005 1.453125,1.87500005 1.558593,1.87500005 0.05859,0 0.09375,-0.035156 0.09375,-0.1054688 z m 0,0"
         style="fill:#ffffff;fill-opacity:1;fill-rule:nonzero;stroke:none" />
      <path
         id="path102"
         d="m 15.821445,-3.985 h 0.9375 c 0.199219,0 0.304688,0 0.304688,-0.1992187 0,-0.1054688 -0.105469,-0.1054688 -0.28125,-0.1054688 h -0.878906 c 0.363281,-1.4179687 0.410156,-1.6171875 0.410156,-1.6757812 0,-0.1757813 -0.117188,-0.2695313 -0.292969,-0.2695313 -0.02344,0 -0.304687,0.011719 -0.398437,0.3515625 l -0.386719,1.59375 h -0.9375 c -0.199219,0 -0.292969,0 -0.292969,0.1875 0,0.1171875 0.07031,0.1171875 0.269531,0.1171875 h 0.878907 c -0.714844,2.8242188 -0.75,3 -0.75,3.17578125 0,0.5390625 0.375,0.9140625 0.914062,0.9140625 1.007813,0 1.582031,-1.45312495 1.582031,-1.53515625 0,-0.09375 -0.08203,-0.09375 -0.117187,-0.09375 -0.09375,0 -0.105469,0.023437 -0.152344,0.140625 -0.433594,1.03125 -0.960937,1.27734375 -1.300781,1.27734375 -0.199219,0 -0.304688,-0.12890625 -0.304688,-0.45703125 0,-0.24609375 0.02344,-0.31640625 0.05859,-0.4804687 z m 0,0"
         style="fill:#ffffff;fill-opacity:1;fill-rule:nonzero;stroke:none" />
      <path
         id="path103"
         d="m 20.251133,-2.4967187 c 0,-0.7734375 -0.117188,-1.9804688 -0.65625,-3.1054688 -0.597656,-1.21875 -1.464844,-1.875 -1.558594,-1.875 -0.05859,0 -0.105469,0.046875 -0.105469,0.1054688 0,0.035156 0,0.046875 0.199219,0.234375 0.972656,0.984375 1.535156,2.5664062 1.535156,4.640625 0,1.71093745 -0.363281,3.4570312 -1.59375,4.7226562 C 17.93082,2.343125 17.93082,2.3548438 17.93082,2.39 c 0,0.058594 0.04687,0.1054688 0.105469,0.1054688 0.09375,0 0.996094,-0.6796875 1.582031,-1.94531255 0.503907,-1.1015625 0.632813,-2.20312495 0.632813,-3.04687495 z m 0,0"
         style="fill:#ffffff;fill-opacity:1;fill-rule:nonzero;stroke:none" />
    </g>
    <path
       id="path104"
       d="M 85.32817,13.67075 H 35.6329 c -2.20094,0 -3.9851,-1.78417 -3.9851,-3.98511 V -9.68564 c 0,-2.20094 1.78416,-3.98511 3.9851,-3.98511 h 49.69527 c 2.20094,0 3.98511,1.78417 3.98511,3.98511 V 9.68564 c 0,2.20094 -1.78417,3.98511 -3.98511,3.98511 z"
       style="fill:#4c4c4c;fill-opacity:1;fill-rule:nonzero;stroke:#ffffff;stroke-width:0.3985;stroke-linecap:butt;stroke-linejoin:miter;stroke-miterlimit:10;stroke-dasharray:none;stroke-opacity:1"
       transform="matrix(1.3333333,0,0,-1.3333333,1667.5427,18.493333)" />
    <path
       id="path105"
       d="m 2.2618125,-3.1521953 h 1.6875 c 1.1953125,0 2.2617187,-0.796875 2.2617187,-1.7929688 0,-0.984375 -0.984375,-1.8632812 -2.34375,-1.8632812 H 0.35165625 v 0.3164062 h 0.234375 c 0.77343745,0 0.78515625,0.1054688 0.78515625,0.46875 v 5.25000004 c 0,0.3515625 -0.011719,0.46875 -0.78515625,0.46875 h -0.234375 V 1.484375e-4 C 0.70321875,-0.03500781 1.4297812,-0.03500781 1.8165,-0.03500781 c 0.375,0 1.125,0 1.4765625,0.0351562475 V -0.30453906 H 3.0469687 c -0.7617187,0 -0.7851562,-0.1171875 -0.7851562,-0.46875 z m -0.035156,-0.2578125 v -2.6835938 c 0,-0.328125 0.023437,-0.3984375 0.4921875,-0.3984375 h 0.890625 c 1.5820313,0 1.5820313,1.0546875 1.5820313,1.546875 0,0.4570313 0,1.5351563 -1.5820313,1.5351563 z m 6.2167969,0.1054687 v -1.1015625 l -1.3828125,0.1171875 v 0.3046875 c 0.6914063,0 0.7734375,0.070312 0.7734375,0.5625 v 2.66015629 c 0,0.45703125 -0.1054687,0.45703125 -0.7734375,0.45703125 V 1.484375e-4 C 7.4473594,-0.01157031 7.9161094,-0.03500781 8.1973594,-0.03500781 c 0.3984375,0 0.8671875,0 1.265625,0.0351562475 V -0.30453906 H 9.2520469 c -0.7382813,0 -0.7617188,-0.1171875 -0.7617188,-0.46875 V -2.3084453 c 0,-0.984375 0.421875,-1.875 1.1835938,-1.875 0.058594,0 0.082031,0 0.1054687,0.011719 -0.035156,0.011719 -0.234375,0.1289063 -0.234375,0.3867188 0,0.28125 0.2109375,0.4335937 0.4335938,0.4335937 0.1757816,0 0.4218746,-0.1289062 0.4218746,-0.4453125 0,-0.3164062 -0.304687,-0.609375 -0.7265621,-0.609375 -0.7382813,0 -1.0898438,0.6679688 -1.2304685,1.1015622 z m 3.3515626,0.796875 c 0.05859,-1.4882812 0.902343,-1.734375 1.242187,-1.734375 1.019531,0 1.125,1.3476563 1.125,1.734375 z m -0.01172,0.2109375 h 2.789062 c 0.210938,0 0.246094,0 0.246094,-0.2109375 0,-0.984375 -0.539062,-1.9570312 -1.78125,-1.9570312 -1.160156,0 -2.074219,1.03125 -2.074219,2.2734375 0,1.33593749 1.042969,2.29687499 2.191407,2.29687499 1.21875,0 1.664062,-1.1015625 1.664062,-1.28906249 0,-0.1054688 -0.08203,-0.1171875 -0.128906,-0.1171875 -0.09375,0 -0.117188,0.058594 -0.128906,0.140625 -0.351563,1.01953124 -1.253907,1.01953124 -1.347657,1.01953124 -0.503906,0 -0.902343,-0.29296875 -1.125,-0.66796875 C 11.783297,-1.2889141 11.783297,-1.9451641 11.783296,-2.2967266 Z m 6.082031,0.4335938 V -2.4373516 H 15.21689 v 0.5742188 z M -11.419828,8.2062031 v -0.65625 l -1.429688,0.1171875 v 0.3046875 c 0.703125,0 0.773438,0.058594 0.773438,0.4921875 v 4.6640624 c 0,0.457031 -0.105469,0.457031 -0.773438,0.457031 v 0.304688 c 0.339844,-0.01172 0.855469,-0.03516 1.113282,-0.03516 0.269531,0 0.773437,0.02344 1.125,0.03516 v -0.304688 c -0.667969,0 -0.773438,0 -0.773438,-0.457031 v -1.757812 c 0.04687,0.152343 0.46875,0.691406 1.21875,0.691406 1.1835939,0 2.2265626,-0.972656 2.2265626,-2.2617189 0,-1.265625 -0.9726562,-2.25 -2.0859376,-2.25 -0.773437,0 -1.195312,0.4453125 -1.394531,0.65625 z m 0.03516,2.6132809 V 8.6046406 c 0.28125,-0.515625 0.773438,-0.796875 1.277344,-0.796875 0.7265624,0 1.3359374,0.8671875 1.3359374,1.9921875 0,1.2070309 -0.6914063,2.0507809 -1.4296874,2.0507809 -0.398438,0 -0.773438,-0.199218 -1.042969,-0.609375 -0.140625,-0.210937 -0.140625,-0.222656 -0.140625,-0.421875 z M -5.9325234,8.6515156 V 7.5499531 l -1.3828125,0.1171875 v 0.3046875 c 0.6914062,0 0.7734375,0.070312 0.7734375,0.5625 v 2.6601559 c 0,0.457032 -0.1054688,0.457032 -0.7734375,0.457032 v 0.304687 c 0.3867187,-0.01172 0.8554687,-0.03516 1.1367187,-0.03516 0.3984375,0 0.8671875,0 1.265625,0.03516 v -0.304687 h -0.2109375 c -0.7382812,0 -0.7617187,-0.117188 -0.7617187,-0.46875 V 9.6476094 c 0,-0.984375 0.421875,-1.875 1.1835937,-1.875 0.058594,0 0.082031,0 0.1054688,0.011719 -0.035156,0.011719 -0.234375,0.1289063 -0.234375,0.3867188 0,0.28125 0.2109375,0.4335937 0.4335937,0.4335937 0.1757813,0 0.421875,-0.1289062 0.421875,-0.4453125 0,-0.3164062 -0.3046875,-0.609375 -0.7265625,-0.609375 -0.7382812,0 -1.0898437,0.6679688 -1.2304687,1.1015622 z m 6.92578121,1.171875 c 0,-1.2773437 -0.99609375,-2.3320312 -2.19140621,-2.3320312 -1.2539063,0 -2.2148438,1.0898437 -2.2148438,2.3320312 0,1.2890624 1.03125,2.2382814 2.203125,2.2382814 1.20703126,0 2.20312501,-0.972656 2.20312501,-2.2382814 z M -1.1981484,11.815578 c -0.4335938,0 -0.8671875,-0.210937 -1.1367188,-0.667969 -0.2578125,-0.433593 -0.2578125,-1.042968 -0.2578125,-1.4062496 0,-0.3867188 0,-0.9257813 0.2460938,-1.359375 0.2695312,-0.4570313 0.7382812,-0.6679688 1.1367187,-0.6679688 0.43359376,0 0.86718751,0.2226563 1.12500001,0.6445313 0.2578125,0.4335937 0.2578125,1.0078125 0.2578125,1.3828125 0,0.3632816 0,0.9023436 -0.22265625,1.3359376 -0.22265625,0.445312 -0.65625,0.738281 -1.14843746,0.738281 z M 2.7276328,9.7882344 c 0,-1.6289063 0.8203125,-2.0507813 1.3476563,-2.0507813 0.09375,0 0.7148437,0.011719 1.0664062,0.375 -0.4101562,0.023437 -0.46875,0.328125 -0.46875,0.4570313 0,0.2578125 0.1875,0.4570312 0.4570313,0.4570312 0.2578125,0 0.4570312,-0.1640625 0.4570312,-0.46875 0,-0.6796875 -0.75,-1.0664062 -1.5234375,-1.0664062 -1.2421875,0 -2.15625,1.078125 -2.15625,2.3085937 0,1.2773439 0.984375,2.2617189 2.1445313,2.2617189 1.3359375,0 1.6523437,-1.195313 1.6523437,-1.289063 0,-0.105468 -0.1054687,-0.105468 -0.1289062,-0.105468 -0.09375,0 -0.1171875,0.04687 -0.1289063,0.105468 -0.2929687,0.925782 -0.9375,1.042969 -1.3125,1.042969 -0.5273437,0 -1.40625,-0.421875 -1.40625,-2.0273436 z M 7.1075156,9.4483906 c 0.058594,-1.4882812 0.9023438,-1.734375 1.2421875,-1.734375 1.0195313,0 1.125,1.3476563 1.125,1.734375 z m -0.011719,0.2109375 h 2.7890625 c 0.2109379,0 0.2460939,0 0.2460939,-0.2109375 0,-0.984375 -0.5390627,-1.9570312 -1.7812502,-1.9570312 -1.1601562,0 -2.0742187,1.03125 -2.0742187,2.2734375 0,1.3359371 1.0429687,2.2968751 2.1914062,2.2968751 1.21875,0 1.6640627,-1.101563 1.6640627,-1.289063 0,-0.105468 -0.08203,-0.117187 -0.128906,-0.117187 -0.09375,0 -0.1171879,0.05859 -0.1289067,0.140625 -0.3515625,1.019531 -1.2539062,1.019531 -1.3476562,1.019531 -0.5039063,0 -0.9023438,-0.292969 -1.125,-0.667969 C 7.0957969,10.667141 7.0957969,10.010891 7.0957966,9.6593281 Z m 5.3994144,0.3632809 c 0.222656,0.03516 1.03125,0.199219 1.03125,0.914063 0,0.515625 -0.351563,0.914062 -1.125,0.914062 -0.832031,0 -1.195313,-0.574218 -1.382813,-1.417968 -0.03516,-0.128907 -0.03516,-0.175782 -0.140625,-0.175782 -0.128906,0 -0.128906,0.07031 -0.128906,0.257813 v 1.3125 c 0,0.164062 0,0.234375 0.105469,0.234375 0.05859,0 0.07031,0 0.257812,-0.199219 0.01172,-0.01172 0.01172,-0.03516 0.199219,-0.222656 0.433594,0.421875 0.878906,0.421875 1.089844,0.421875 1.148437,0 1.605469,-0.667969 1.605469,-1.382813 0,-0.527343 -0.292969,-0.8203121 -0.421875,-0.9492184 -0.328125,-0.3164062 -0.714844,-0.3984375 -1.136719,-0.46875 -0.550781,-0.1171875 -1.21875,-0.2460937 -1.21875,-0.8203125 0,-0.3515625 0.257812,-0.7617187 1.113281,-0.7617187 1.101563,0 1.148438,0.9023437 1.171875,1.2070312 0,0.09375 0.09375,0.09375 0.117188,0.09375 0.128906,0 0.128906,-0.046875 0.128906,-0.2460937 V 7.7374531 c 0,-0.1757812 0,-0.2460937 -0.117188,-0.2460937 -0.04687,0 -0.07031,0 -0.199218,0.1171875 -0.02344,0.046875 -0.128907,0.1289062 -0.164063,0.1640625 -0.375,-0.28125 -0.785156,-0.28125 -0.9375,-0.28125 -1.21875,0 -1.59375,0.6679687 -1.59375,1.2304687 0,0.3398438 0.164063,0.6210938 0.433594,0.84375 0.316406,0.2578125 0.597656,0.3164063 1.3125,0.4570309 z m 3.928711,0 c 0.222656,0.03516 1.03125,0.199219 1.03125,0.914063 0,0.515625 -0.351563,0.914062 -1.125,0.914062 -0.832031,0 -1.195313,-0.574218 -1.382813,-1.417968 -0.03516,-0.128907 -0.03516,-0.175782 -0.140625,-0.175782 -0.128906,0 -0.128906,0.07031 -0.128906,0.257813 v 1.3125 c 0,0.164062 0,0.234375 0.105469,0.234375 0.05859,0 0.07031,0 0.257812,-0.199219 0.01172,-0.01172 0.01172,-0.03516 0.199219,-0.222656 0.433594,0.421875 0.878906,0.421875 1.089844,0.421875 1.148437,0 1.605469,-0.667969 1.605469,-1.382813 0,-0.527343 -0.292969,-0.8203121 -0.421875,-0.9492184 -0.328125,-0.3164062 -0.714844,-0.3984375 -1.136719,-0.46875 -0.550781,-0.1171875 -1.21875,-0.2460937 -1.21875,-0.8203125 0,-0.3515625 0.257812,-0.7617187 1.113281,-0.7617187 1.101563,0 1.148438,0.9023437 1.171875,1.2070312 0,0.09375 0.09375,0.09375 0.117188,0.09375 0.128906,0 0.128906,-0.046875 0.128906,-0.2460937 V 7.7374531 c 0,-0.1757812 0,-0.2460937 -0.117188,-0.2460937 -0.04687,0 -0.07031,0 -0.199218,0.1171875 -0.02344,0.046875 -0.128907,0.1289062 -0.164063,0.1640625 -0.375,-0.28125 -0.785156,-0.28125 -0.9375,-0.28125 -1.21875,0 -1.59375,0.6679687 -1.59375,1.2304687 0,0.3398438 0.164063,0.6210938 0.433594,0.84375 0.316406,0.2578125 0.597656,0.3164063 1.3125,0.4570309 z m 3.615234,-2.4726559 -1.394531,0.1171875 v 0.3046875 c 0.65625,0 0.738281,0.058594 0.738281,0.5507813 v 2.6718746 c 0,0.457032 -0.105469,0.457032 -0.773437,0.457032 v 0.304687 c 0.316406,-0.01172 0.855468,-0.03516 1.101562,-0.03516 0.339844,0 0.691406,0.02344 1.03125,0.03516 v -0.304687 c -0.65625,0 -0.703125,-0.05859 -0.703125,-0.445313 z m 0.04687,-1.734375 c 0,-0.3164062 -0.246094,-0.5273437 -0.527344,-0.5273437 -0.316406,0 -0.527343,0.2695312 -0.527343,0.5273437 0,0.2695313 0.210937,0.5273438 0.527343,0.5273438 0.28125,0 0.527344,-0.1992188 0.527344,-0.5273438 z m 2.0625,2.71875 v 2.6601559 c 0,0.457032 -0.117187,0.457032 -0.785156,0.457032 v 0.304687 c 0.351562,-0.01172 0.855469,-0.03516 1.125,-0.03516 0.257812,0 0.785156,0.02344 1.113281,0.03516 v -0.304687 c -0.65625,0 -0.773437,0 -0.773437,-0.457032 V 9.3663594 c 0,-1.03125 0.714843,-1.59375 1.347656,-1.59375 0.621094,0 0.738281,0.5390625 0.738281,1.1015625 v 2.3203121 c 0,0.457032 -0.117187,0.457032 -0.773437,0.457032 v 0.304687 c 0.339843,-0.01172 0.855468,-0.03516 1.125,-0.03516 0.257812,0 0.773437,0.02344 1.113281,0.03516 v -0.304687 c -0.515625,0 -0.773438,0 -0.785156,-0.304688 V 9.4483906 c 0,-0.8554687 0,-1.171875 -0.304688,-1.5234375 -0.140625,-0.1757812 -0.46875,-0.375 -1.042969,-0.375 -0.726562,0 -1.195312,0.4335938 -1.476562,1.0546875 V 7.5499531 l -1.40625,0.1171875 v 0.3046875 c 0.703125,0 0.785156,0.070312 0.785156,0.5625 z m 6.650391,1.7109379 c -0.867188,0 -0.867188,-0.9960941 -0.867188,-1.2304691 0,-0.2695313 0.01172,-0.5859375 0.152344,-0.8320313 0.08203,-0.1171875 0.316406,-0.3984375 0.714844,-0.3984375 0.867187,0 0.867187,0.9960938 0.867187,1.21875 0,0.2695313 -0.01172,0.5976563 -0.164062,0.84375 -0.08203,0.1171875 -0.304688,0.3984379 -0.703125,0.3984379 z m -1.160156,0.386718 c 0,-0.03516 0,-0.269531 0.175781,-0.46875 0.386719,0.28125 0.796875,0.304688 0.984375,0.304688 0.925781,0 1.605469,-0.6796876 1.605469,-1.4531251 0,-0.3632813 -0.152344,-0.7382813 -0.398438,-0.9609375 0.351563,-0.3398438 0.714844,-0.3867188 0.890625,-0.3867188 0.02344,0 0.07031,0 0.105469,0 -0.117188,0.046875 -0.164063,0.1523438 -0.164063,0.2695313 0,0.1757812 0.128907,0.2929687 0.292969,0.2929687 0.09375,0 0.28125,-0.070312 0.28125,-0.2929687 0,-0.1757813 -0.117187,-0.4921875 -0.503906,-0.4921875 -0.199219,0 -0.632813,0.058594 -1.054688,0.46875 -0.421875,-0.328125 -0.84375,-0.3632813 -1.054687,-0.3632813 -0.925781,0 -1.617188,0.6914063 -1.617188,1.453125 0,0.4453125 0.222657,0.8203125 0.46875,1.0312499 -0.128906,0.152344 -0.304687,0.480469 -0.304687,0.820313 0,0.316406 0.128906,0.691406 0.433594,0.890625 -0.597657,0.175781 -0.914063,0.597656 -0.914063,0.996093 0,0.714844 0.984375,1.265625 2.203125,1.265625 1.171875,0 2.203125,-0.503906 2.203125,-1.289062 0,-0.339844 -0.140625,-0.855469 -0.644531,-1.125 -0.527344,-0.28125 -1.101563,-0.28125 -1.710938,-0.28125 -0.246093,0 -0.679687,0 -0.75,-0.01172 -0.316406,-0.04687 -0.527343,-0.351562 -0.527343,-0.667968 z m 1.441406,3.152344 c -1.007813,0 -1.699219,-0.515625 -1.699219,-1.042969 0,-0.457031 0.375,-0.820312 0.820313,-0.855468 h 0.585937 c 0.855469,0 1.96875,0 1.96875,0.855468 0,0.539063 -0.703125,1.042969 -1.675781,1.042969 z m 0,0"
       style="fill:#ffffff;fill-opacity:1;fill-rule:nonzero;stroke:none"
       aria-label="Pre-&#10;processing"
       transform="matrix(1.3333333,0,0,1.3333333,1735.8947,13.769333)" />
    <path
       id="path106"
       d="m 149.06145,12.7575 h -38.35631 c -2.20093,0 -3.98511,-1.78416 -3.98511,-3.9851 V -8.7724 c 0,-2.20094 1.78418,-3.9851 3.98511,-3.9851 h 38.35631 c 2.20094,0 3.9851,1.78416 3.9851,3.9851 V 8.7724 c 0,2.20094 -1.78416,3.9851 -3.9851,3.9851 z"
       style="fill:#4c4c4c;fill-opacity:1;fill-rule:nonzero;stroke:#ffffff;stroke-width:0.3985;stroke-linecap:butt;stroke-linejoin:miter;stroke-miterlimit:10;stroke-dasharray:none;stroke-opacity:1"
       transform="matrix(1.3333333,0,0,-1.3333333,1678.9813,29.932013)" />
    <path
       id="path107"
       d="m 149.06145,12.7575 h -38.35631 c -2.20093,0 -3.98511,-1.78416 -3.98511,-3.9851 V -8.7724 c 0,-2.20094 1.78418,-3.9851 3.98511,-3.9851 h 38.35631 c 2.20094,0 3.9851,1.78416 3.9851,3.9851 V 8.7724 c 0,2.20094 -1.78416,3.9851 -3.9851,3.9851 z"
       style="fill:#4c4c4c;fill-opacity:1;fill-rule:nonzero;stroke:#ffffff;stroke-width:0.3985;stroke-linecap:butt;stroke-linejoin:miter;stroke-miterlimit:10;stroke-dasharray:none;stroke-opacity:1"
       transform="matrix(1.3333333,0,0,-1.3333333,1673.262,24.212667)" />
    <path
       id="path108"
       d="m 149.06145,12.7575 h -38.35631 c -2.20093,0 -3.98511,-1.78416 -3.98511,-3.9851 V -8.7724 c 0,-2.20094 1.78418,-3.9851 3.98511,-3.9851 h 38.35631 c 2.20094,0 3.9851,1.78416 3.9851,3.9851 V 8.7724 c 0,2.20094 -1.78416,3.9851 -3.9851,3.9851 z"
       style="fill:#4c4c4c;fill-opacity:1;fill-rule:nonzero;stroke:#ffffff;stroke-width:0.3985;stroke-linecap:butt;stroke-linejoin:miter;stroke-miterlimit:10;stroke-dasharray:none;stroke-opacity:1"
       transform="matrix(1.3333333,0,0,-1.3333333,1667.5427,18.493333)" />
    <path
       id="path109"
       d="M 3.4815234,-3.8685781 2.2041797,-4.1732656 c -0.6210938,-0.1523438 -1.0078125,-0.6914063 -1.0078125,-1.265625 0,-0.703125 0.5390625,-1.3007813 1.3125,-1.3007813 1.6640625,0 1.8867187,1.6289063 1.9453125,2.0742188 0.011719,0.058594 0.011719,0.1171875 0.1171875,0.1171875 0.1289062,0 0.1289062,-0.046875 0.1289062,-0.234375 v -2.0039063 c 0,-0.1640625 0,-0.234375 -0.1054687,-0.234375 -0.070312,0 -0.082031,0.011719 -0.1523438,0.1289063 l -0.3515625,0.5625 c -0.2929687,-0.28125 -0.703125,-0.6914063 -1.59375,-0.6914063 -1.1015625,0 -1.93359371,0.8789063 -1.93359371,1.9335938 0,0.8203125 0.52734371,1.546875 1.30078121,1.8164062 0.1054688,0.046875 0.6210938,0.1640625 1.3125,0.328125 0.2695313,0.070312 0.5742188,0.140625 0.84375,0.515625 0.2109375,0.2578125 0.3164063,0.5859375 0.3164063,0.9140625 0,0.70312503 -0.5039063,1.41796878 -1.3359375,1.41796878 -0.2929688,0 -1.0429688,-0.046875 -1.5703125,-0.5390625 C 0.84480469,-1.1615469 0.82136719,-1.8060781 0.80964844,-2.1576406 c -0.0117188,-0.1054688 -0.09375,-0.1054688 -0.1171875,-0.1054688 -0.12890625,0 -0.12890625,0.070312 -0.12890625,0.2460938 v 1.99218748 c 0,0.17578125 0,0.24609375 0.10546875,0.24609375 0.0703125,0 0.0820313,-0.0234375 0.15234375,-0.12890625 0,-0.01171875 0.0234375,-0.046875 0.35156251,-0.57421875 0.3164062,0.33984375 0.9492187,0.703125 1.8398437,0.703125 1.1601563,0 1.9570313,-0.984375 1.9570313,-2.07421873 0,-0.9960938 -0.65625,-1.8164063 -1.4882813,-2.015625 z m 3.8115235,-0.5390625 -1.3945313,0.1171875 v 0.3046875 c 0.65625,0 0.7382813,0.058594 0.7382813,0.5507812 v 2.67187503 c 0,0.45703125 -0.1054688,0.45703125 -0.7734375,0.45703125 v 0.3046875 c 0.3164062,-0.01171875 0.8554687,-0.03515625 1.1015625,-0.03515625 0.3398437,0 0.6914062,0.0234375 1.03125,0.03515625 v -0.3046875 c -0.65625,0 -0.703125,-0.0585938 -0.703125,-0.4453125 z m 0.046875,-1.734375 c 0,-0.3164063 -0.2460938,-0.5273438 -0.5273438,-0.5273438 -0.3164062,0 -0.5273437,0.2695313 -0.5273437,0.5273438 0,0.2695312 0.2109375,0.5273437 0.5273437,0.5273437 0.28125,0 0.5273438,-0.1992187 0.5273438,-0.5273437 z m 3.1787111,4.4296875 c -0.8671877,0 -0.8671877,-0.9960938 -0.8671877,-1.2304688 0,-0.2695312 0.011719,-0.5859375 0.1523438,-0.8320312 0.082031,-0.1171875 0.3164059,-0.3984375 0.7148439,-0.3984375 0.867187,0 0.867187,0.9960937 0.867187,1.21875 0,0.2695312 -0.01172,0.5976562 -0.164062,0.84375 -0.08203,0.1171875 -0.304688,0.3984375 -0.703125,0.3984375 z m -1.1601564,0.3867187 c 0,-0.035156 0,-0.2695312 0.1757812,-0.46875 0.3867188,0.28125 0.7968752,0.3046875 0.9843752,0.3046875 0.925781,0 1.605469,-0.6796875 1.605469,-1.453125 0,-0.3632812 -0.152344,-0.7382812 -0.398438,-0.9609375 0.351563,-0.3398437 0.714844,-0.3867187 0.890625,-0.3867187 0.02344,0 0.07031,0 0.105469,0 -0.117188,0.046875 -0.164063,0.1523437 -0.164063,0.2695312 0,0.1757813 0.128907,0.2929688 0.292969,0.2929688 0.09375,0 0.28125,-0.070312 0.28125,-0.2929688 0,-0.1757812 -0.117187,-0.4921875 -0.503906,-0.4921875 -0.199219,0 -0.632813,0.058594 -1.054688,0.46875 -0.421875,-0.328125 -0.84375,-0.3632812 -1.054687,-0.3632812 -0.9257814,0 -1.6171877,0.6914062 -1.6171877,1.453125 0,0.4453125 0.2226563,0.8203125 0.46875,1.03125 -0.1289062,0.1523437 -0.3046875,0.4804687 -0.3046875,0.8203125 0,0.31640623 0.1289063,0.69140623 0.4335938,0.89062498 -0.5976563,0.17578125 -0.9140625,0.59765625 -0.9140625,0.99609375 0,0.71484377 0.984375,1.26562497 2.2031249,1.26562497 1.171875,0 2.203125,-0.5039062 2.203125,-1.28906247 0,-0.33984375 -0.140625,-0.85546875 -0.644531,-1.125 -0.527344,-0.28125 -1.101563,-0.28125 -1.710938,-0.28125 -0.246093,0 -0.6796872,0 -0.7499997,-0.0117188 C 9.5694141,-0.70451562 9.3584766,-1.0092031 9.3584766,-1.3256094 Z m 1.4414064,3.1523438 c -1.0078127,0 -1.6992189,-0.515625 -1.6992189,-1.04296877 0,-0.45703125 0.375,-0.8203125 0.8203125,-0.85546875 h 0.5859374 c 0.855469,0 1.96875,0 1.96875,0.85546875 0,0.53906247 -0.703125,1.04296877 -1.675781,1.04296877 z m 3.585937,-5.25 v 2.66015623 c 0,0.45703125 -0.117187,0.45703125 -0.785156,0.45703125 v 0.3046875 c 0.351563,-0.01171875 0.855469,-0.03515625 1.125,-0.03515625 0.257813,0 0.785156,0.0234375 1.113281,0.03515625 v -0.3046875 c -0.65625,0 -0.773437,0 -0.773437,-0.45703125 V -2.5912344 c 0,-1.03125 0.714844,-1.59375 1.347656,-1.59375 0.621094,0 0.738281,0.5390625 0.738281,1.1015625 v 2.32031253 c 0,0.45703125 -0.117187,0.45703125 -0.773437,0.45703125 v 0.3046875 c 0.339844,-0.01171875 0.855469,-0.03515625 1.125,-0.03515625 0.257812,0 0.773437,0.0234375 1.113281,0.03515625 v -0.3046875 c -0.515625,0 -0.773437,0 -0.785156,-0.3046875 V -2.5092031 c 0,-0.8554688 0,-1.171875 -0.304688,-1.5234375 -0.140625,-0.1757813 -0.46875,-0.375 -1.042968,-0.375 -0.726563,0 -1.195313,0.4335937 -1.476563,1.0546875 v -1.0546875 l -1.40625,0.1171875 v 0.3046875 c 0.703125,0 0.785156,0.070312 0.785156,0.5625 z m 7.749024,2.66015623 c 0.03516,0.3984375 0.304687,0.8203125 0.773437,0.8203125 0.210938,0 0.820313,-0.140625 0.820313,-0.94921875 V -1.4427969 H 23.4825 v 0.55078128 c 0,0.5859375 -0.246094,0.64453125 -0.363281,0.64453125 -0.328125,0 -0.363281,-0.45703125 -0.363281,-0.50390625 V -2.7435781 c 0,-0.4101563 0,-0.8085938 -0.363282,-1.171875 -0.386718,-0.3867188 -0.878906,-0.5507813 -1.359375,-0.5507813 -0.820312,0 -1.511718,0.46875 -1.511718,1.125 0,0.3046875 0.199218,0.46875 0.457031,0.46875 0.28125,0 0.46875,-0.1992187 0.46875,-0.4570312 0,-0.1171875 -0.05859,-0.4453125 -0.515625,-0.4570313 0.269531,-0.3515625 0.761719,-0.4570312 1.078125,-0.4570312 0.492187,0 1.054687,0.3867187 1.054687,1.2773437 v 0.3632813 c -0.503906,0.035156 -1.207031,0.058594 -1.828125,0.3632812 -0.75,0.3398438 -0.996093,0.8554688 -0.996093,1.28906253 0,0.80859375 0.960937,1.0546875 1.59375,1.0546875 0.65625,0 1.113281,-0.3984375 1.300781,-0.8671875 z m -0.07031,-1.62890623 v 0.9960937 c 0,0.94921878 -0.714843,1.28906253 -1.160156,1.28906253 -0.492187,0 -0.902344,-0.3515625 -0.902344,-0.85546875 0,-0.53906248 0.421875,-1.37109378 2.0625,-1.42968748 z m 3.495117,-4.5234375 -1.429687,0.1054687 v 0.3164063 c 0.703125,0 0.773437,0.070312 0.773437,0.5507812 v 5.17968753 c 0,0.45703125 -0.105468,0.45703125 -0.773437,0.45703125 v 0.3046875 c 0.328125,-0.01171875 0.855469,-0.03515625 1.101562,-0.03515625 0.257813,0 0.738282,0.0234375 1.113282,0.03515625 v -0.3046875 c -0.667969,0 -0.785157,0 -0.785157,-0.45703125 z M -2.0321484,7.6656016 V 6.5054453 c 0,-0.8789062 0.4804687,-1.359375 0.9140625,-1.359375 0.035156,0 0.17578121,0 0.32812496,0.070312 -0.1171875,0.046875 -0.29296876,0.1757813 -0.29296876,0.421875 0,0.234375 0.15234376,0.4335938 0.42187501,0.4335938 0.29296875,0 0.43359375,-0.1992188 0.43359375,-0.4453125 0,-0.3632813 -0.36328125,-0.6914063 -0.89062496,-0.6914063 -0.703125,0 -1.546875,0.5273438 -1.546875,1.5820313 v 1.1484375 h -0.7851563 v 0.3046875 h 0.7851563 v 3.2226554 c 0,0.457032 -0.1054688,0.457032 -0.7734375,0.457032 v 0.304687 c 0.3867187,-0.01172 0.8554687,-0.03516 1.1367187,-0.03516 0.3984375,0 0.8671875,0 1.265625,0.03516 v -0.304687 h -0.2109375 c -0.7382812,0 -0.7617187,-0.117188 -0.7617187,-0.46875 V 7.9702891 h 1.13671871 V 7.6656016 Z m 2.41113278,1.78125 c 0.0585938,-1.4882813 0.90234372,-1.734375 1.24218752,-1.734375 1.0195312,0 1.125,1.3476562 1.125,1.734375 z M 0.36726563,9.6577891 H 3.1563281 c 0.2109375,0 0.2460938,0 0.2460938,-0.2109375 0,-0.984375 -0.5390625,-1.9570313 -1.78125,-1.9570313 -1.16015627,0 -2.07421877,1.03125 -2.07421877,2.2734375 0,1.3359372 1.04296875,2.2968752 2.19140627,2.2968752 1.21875,0 1.6640625,-1.101563 1.6640625,-1.289063 0,-0.105468 -0.082031,-0.117187 -0.1289063,-0.117187 -0.09375,0 -0.1171875,0.05859 -0.1289062,0.140625 -0.3515625,1.019531 -1.2539063,1.019531 -1.3476563,1.019531 -0.5039062,0 -0.90234372,-0.292969 -1.12499997,-0.667969 -0.3046875,-0.480468 -0.3046875,-1.136718 -0.3046875,-1.4882809 z M 7.0117969,11.192945 c 0.035156,0.398438 0.3046875,0.820313 0.7734375,0.820313 0.2109375,0 0.8203125,-0.140625 0.8203125,-0.949219 V 10.513258 H 8.3594531 v 0.550781 c 0,0.585938 -0.2460937,0.644531 -0.3632812,0.644531 -0.328125,0 -0.3632813,-0.457031 -0.3632813,-0.503906 V 9.2124766 c 0,-0.4101563 0,-0.8085938 -0.3632812,-1.171875 C 6.8828906,7.6538828 6.3907031,7.4898203 5.9102344,7.4898203 c -0.8203125,0 -1.5117188,0.46875 -1.5117188,1.125 0,0.3046875 0.1992188,0.46875 0.4570313,0.46875 0.28125,0 0.46875,-0.1992187 0.46875,-0.4570312 0,-0.1171875 -0.058594,-0.4453125 -0.515625,-0.4570313 0.2695312,-0.3515625 0.7617187,-0.4570312 1.078125,-0.4570312 0.4921875,0 1.0546875,0.3867187 1.0546875,1.2773437 v 0.3632813 c -0.5039063,0.035156 -1.2070313,0.058594 -1.828125,0.3632812 -0.75,0.3398442 -0.9960938,0.8554692 -0.9960938,1.2890622 0,0.808594 0.9609375,1.054688 1.59375,1.054688 0.65625,0 1.1132813,-0.398438 1.3007813,-0.867188 z M 6.9414844,9.5640391 v 0.9960939 c 0,0.949219 -0.7148438,1.289062 -1.1601563,1.289062 -0.4921875,0 -0.9023437,-0.351562 -0.9023437,-0.855468 0,-0.539063 0.421875,-1.3710942 2.0625,-1.4296879 z m 3.4570316,-1.59375 h 1.429687 V 7.6656016 H 10.398516 V 5.8257578 h -0.246094 c -0.01172,0.8203125 -0.3164064,1.8867188 -1.2890626,1.921875 v 0.2226563 h 0.84375 v 2.7539059 c 0,1.21875 0.9257816,1.335938 1.2890626,1.335938 0.703125,0 0.984375,-0.703125 0.984375,-1.335938 v -0.574218 h -0.246094 v 0.550781 c 0,0.738281 -0.304687,1.113281 -0.667969,1.113281 -0.667968,0 -0.667968,-0.902344 -0.667968,-1.078125 z m 6.041015,3.1992189 v 0.890625 l 1.441407,-0.105469 v -0.304687 c -0.703125,0 -0.785157,-0.07031 -0.785157,-0.5625 V 7.5484141 l -1.453125,0.1171875 v 0.3046875 c 0.691407,0 0.773438,0.070313 0.773438,0.5625 V 10.30232 c 0,0.867188 -0.480469,1.546875 -1.207031,1.546875 -0.832032,0 -0.878907,-0.46875 -0.878907,-0.996093 V 7.5484141 l -1.464843,0.1171875 v 0.3046875 c 0.785156,0 0.785156,0.035156 0.785156,0.9140625 v 1.5000004 c 0,0.773437 0,1.675781 1.511719,1.675781 0.550781,0 0.996093,-0.269531 1.277343,-0.890625 z M 19.750078,8.6499766 V 7.5484141 l -1.382812,0.1171875 v 0.3046875 c 0.691406,0 0.773437,0.070313 0.773437,0.5625 v 2.6601559 c 0,0.457032 -0.105469,0.457032 -0.773437,0.457032 v 0.304687 c 0.386718,-0.01172 0.855468,-0.03516 1.136718,-0.03516 0.398438,0 0.867188,0 1.265625,0.03516 v -0.304687 h -0.210937 c -0.738281,0 -0.761719,-0.117188 -0.761719,-0.46875 V 9.6460703 c 0,-0.984375 0.421875,-1.875 1.183594,-1.875 0.05859,0 0.08203,0 0.105469,0.011719 -0.03516,0.011719 -0.234375,0.1289062 -0.234375,0.3867187 0,0.28125 0.210937,0.4335938 0.433593,0.4335938 0.175782,0 0.421875,-0.1289063 0.421875,-0.4453125 0,-0.3164063 -0.304687,-0.609375 -0.726562,-0.609375 -0.738281,0 -1.089844,0.6679687 -1.230469,1.1015623 z m 3.351563,0.796875 c 0.05859,-1.4882813 0.902343,-1.734375 1.242187,-1.734375 1.019531,0 1.125,1.3476562 1.125,1.734375 z m -0.01172,0.2109375 h 2.789062 c 0.210938,0 0.246094,0 0.246094,-0.2109375 0,-0.984375 -0.539062,-1.9570313 -1.78125,-1.9570313 -1.160156,0 -2.074219,1.03125 -2.074219,2.2734375 0,1.3359372 1.042969,2.2968752 2.191407,2.2968752 1.21875,0 1.664062,-1.101563 1.664062,-1.289063 0,-0.105468 -0.08203,-0.117187 -0.128906,-0.117187 -0.09375,0 -0.117188,0.05859 -0.128906,0.140625 -0.351563,1.019531 -1.253907,1.019531 -1.347657,1.019531 -0.503906,0 -0.902343,-0.292969 -1.125,-0.667969 -0.304687,-0.480468 -0.304687,-1.136718 -0.304687,-1.4882809 z m 5.399414,0.3632809 c 0.222656,0.03516 1.03125,0.199219 1.03125,0.914063 0,0.515625 -0.351563,0.914062 -1.125,0.914062 -0.832031,0 -1.195313,-0.574218 -1.382813,-1.417968 -0.03516,-0.128907 -0.03516,-0.175782 -0.140625,-0.175782 -0.128906,0 -0.128906,0.07031 -0.128906,0.257813 v 1.3125 c 0,0.164062 0,0.234375 0.105469,0.234375 0.05859,0 0.07031,0 0.257812,-0.199219 0.01172,-0.01172 0.01172,-0.03516 0.199219,-0.222656 0.433594,0.421875 0.878906,0.421875 1.089844,0.421875 1.148437,0 1.605469,-0.667969 1.605469,-1.382813 0,-0.527343 -0.292969,-0.8203122 -0.421875,-0.9492184 C 29.251054,9.4116953 28.864335,9.3296641 28.44246,9.2593516 27.891679,9.1421641 27.22371,9.0132578 27.22371,8.4390391 c 0,-0.3515625 0.257812,-0.7617188 1.113281,-0.7617188 1.101563,0 1.148438,0.9023438 1.171875,1.2070313 0,0.09375 0.09375,0.09375 0.117188,0.09375 0.128906,0 0.128906,-0.046875 0.128906,-0.2460938 V 7.7359141 c 0,-0.1757813 0,-0.2460938 -0.117188,-0.2460938 -0.04687,0 -0.07031,0 -0.199218,0.1171875 -0.02344,0.046875 -0.128907,0.1289063 -0.164063,0.1640625 -0.375,-0.28125 -0.785156,-0.28125 -0.9375,-0.28125 -1.21875,0 -1.59375,0.6679688 -1.59375,1.2304688 0,0.3398437 0.164063,0.6210937 0.433594,0.84375 0.316406,0.2578125 0.597656,0.3164062 1.3125,0.4570309 z m 0,0"
       style="fill:#ffffff;fill-opacity:1;fill-rule:nonzero;stroke:none"
       aria-label="Signal&#10;features"
       transform="matrix(1.3333333,0,0,1.3333333,1823.0067,15.134667)" />
    <g
       id="g109"
       aria-label="ˆz&#10;n&#10;M&#10;(t)"
       transform="matrix(1.3333333,0,0,1.3333333,1651.792,93.617333)">
      <path
         id="path110"
         d="m 2.4970156,-6.9141719 -1.3359375,1.359375 0.1757813,0.1757813 1.1601562,-1.0195313 1.1367188,1.0195313 0.1875,-0.1757813 z m 0,0"
         style="fill:#ffffff;fill-opacity:1;fill-rule:nonzero;stroke:none" />
      <path
         id="path111"
         d="M 0.72748437,-0.83214062 C 1.2665469,-1.4063594 1.5595156,-1.6524531 1.9110781,-1.9571406 c 0,-0.011719 0.6210938,-0.5390625 0.984375,-0.9023438 0.9375,-0.9257812 1.1601563,-1.40625 1.1601563,-1.4414062 0,-0.1054688 -0.09375,-0.1054688 -0.1054688,-0.1054688 -0.070312,0 -0.1054687,0.023437 -0.1523437,0.1171875 -0.3046875,0.46875 -0.5039063,0.6328125 -0.75,0.6328125 -0.234375,0 -0.3515625,-0.1523437 -0.5039063,-0.3164062 -0.1875,-0.234375 -0.3632812,-0.4335938 -0.6914062,-0.4335938 -0.75,0 -1.20703128,0.9257813 -1.20703128,1.1367188 0,0.046875 0.0351563,0.1171875 0.1171875,0.1171875 0.09375,0 0.1171875,-0.058594 0.140625,-0.1171875 0.18749998,-0.4570313 0.76171878,-0.46875 0.84374998,-0.46875 0.2109375,0 0.3984375,0.070312 0.6210938,0.1523437 0.3984375,0.1523438 0.515625,0.1523438 0.7734375,0.1523438 -0.3632813,0.421875 -1.1953125,1.1367187 -1.3828125,1.3007812 l -0.90234378,0.8320313 c -0.6796875,0.66796873 -1.01953125,1.24218748 -1.01953125,1.31249998 0,0.09375 0.09375,0.09375 0.1171875,0.09375 0.08203125,0 0.09375,-0.01171875 0.15234375,-0.12890625 0.234375,-0.33984375 0.52734375,-0.609375 0.85546875,-0.609375 0.22265623,0 0.32812503,0.0820313 0.57421873,0.375 0.1640625,0.2109375 0.3515625,0.36328125 0.6328125,0.36328125 0.984375,0 1.5703125,-1.26562498 1.5703125,-1.53515628 0,-0.046875 -0.046875,-0.09375 -0.1171875,-0.09375 -0.09375,0 -0.1171875,0.058594 -0.140625,0.1289063 -0.234375,0.64453123 -0.8671875,0.83203123 -1.1953125,0.83203123 -0.1992187,0 -0.3867187,-0.0585938 -0.5859375,-0.12890625 -0.3398437,-0.12890625 -0.4921875,-0.1640625 -0.70312498,-0.1640625 -0.0234375,0 -0.17578125,0 -0.26953125,0.0234375 z m 0,0"
         style="fill:#ffffff;fill-opacity:1;fill-rule:nonzero;stroke:none" />
      <path
         id="path112"
         d="m 5.3270937,-4.0489375 c -0.035156,0.082031 -0.070312,0.2578125 -0.070312,0.28125 0,0.1523438 0.1171875,0.2226563 0.234375,0.2226563 0.1289063,0 0.234375,-0.09375 0.2695313,-0.1523438 0.035156,-0.058594 0.09375,-0.2929687 0.1289062,-0.4335937 C 5.92475,-4.259875 5.9950625,-4.588 6.0419375,-4.7637812 6.0770935,-4.916125 6.1239685,-5.0684687 6.159125,-5.2208125 6.241156,-5.5137812 6.252875,-5.572375 6.4520937,-5.853625 c 0.1992188,-0.28125 0.5273438,-0.6445312 1.0429688,-0.6445312 0.4101562,0 0.4101562,0.3632812 0.4101562,0.4921875 0,0.421875 -0.2929687,1.1953125 -0.4101562,1.4882812 -0.070312,0.1875 -0.1054688,0.2578125 -0.1054688,0.375 0,0.3632813 0.3046875,0.5976563 0.6679688,0.5976563 0.6914063,0 1.0078125,-0.9609375 1.0078125,-1.0664063 0,-0.09375 -0.09375,-0.09375 -0.1171875,-0.09375 -0.09375,0 -0.1054687,0.046875 -0.1289062,0.1171875 -0.1640625,0.5625 -0.46875,0.84375 -0.7382813,0.84375 -0.1523438,0 -0.1757813,-0.09375 -0.1757813,-0.2460937 0,-0.1523438 0.035156,-0.2460938 0.1523438,-0.5625 0.09375,-0.2109375 0.375,-0.9492188 0.375,-1.3476563 0,-0.6679687 -0.5390625,-0.7851562 -0.9023438,-0.7851562 -0.5859375,0 -0.9726562,0.3515625 -1.1835937,0.6328125 -0.046875,-0.4804688 -0.4570313,-0.6328125 -0.75,-0.6328125 -0.2929688,0 -0.4570313,0.2109375 -0.5507813,0.375 C 4.8935,-6.0528437 4.79975,-5.6544062 4.79975,-5.61925 c 0,0.082031 0.09375,0.082031 0.1171875,0.082031 0.09375,0 0.1054687,-0.011719 0.1523437,-0.1992188 0.1054688,-0.421875 0.234375,-0.7617187 0.515625,-0.7617187 0.1757813,0 0.2226563,0.1523437 0.2226563,0.3398437 0,0.140625 -0.058594,0.3984375 -0.1054688,0.5859375 -0.046875,0.1875 -0.1171875,0.46875 -0.1523437,0.6210938 z m 5.8212893,2.5986328 c 0.07031,-0.2578125 0.08203,-0.3164062 0.597656,-0.3164062 0.152344,0 0.234375,0 0.234375,-0.140625 0,-0.1054688 -0.08203,-0.1054688 -0.210937,-0.1054688 h -0.9375 c -0.210938,0 -0.210938,0 -0.304688,0.140625 L 7.8319766,2.1004766 7.1405703,-1.8253047 c -0.035156,-0.1875 -0.035156,-0.1875 -0.234375,-0.1875 H 5.8983828 c -0.1289062,0 -0.2226562,0 -0.2226562,0.1523438 0,0.09375 0.082031,0.09375 0.234375,0.09375 0.1171875,0 0.140625,0 0.2695312,0.011719 0.140625,0.011719 0.1523438,0.035156 0.1523438,0.1054688 0,0 0,0.046875 -0.035156,0.1523437 L 5.4179141,1.9950078 c -0.058594,0.2460938 -0.1640625,0.4804688 -0.7148438,0.5039063 -0.058594,0 -0.1523437,0 -0.1523437,0.1523437 0,0 0.011719,0.09375 0.1054687,0.09375 0.2109375,0 0.5039063,-0.023437 0.7265625,-0.023437 0.1640625,0 0.5742188,0.023437 0.7382813,0.023437 0.035156,0 0.140625,0 0.140625,-0.1523437 0,-0.09375 -0.09375,-0.09375 -0.1523438,-0.09375 C 5.6640078,2.4754766 5.6640078,2.2996953 5.6640078,2.2059453 c 0,-0.035156 0,-0.070312 0.023437,-0.1757812 l 0.9257813,-3.7148438 h 0.011719 l 0.7382813,4.2421875 c 0.023437,0.1289063 0.035156,0.1875 0.140625,0.1875 0.1054687,0 0.1523437,-0.082031 0.2109375,-0.1523437 l 2.9179691,-4.3476563 0.01172,0.011719 -0.9843756,3.9492187 c -0.058594,0.234375 -0.070312,0.2929688 -0.609375,0.2929688 -0.1289063,0 -0.2109375,0 -0.2109375,0.1523437 0,0 0,0.09375 0.1054687,0.09375 0.140625,0 0.2929688,-0.023437 0.4335938,-0.023437 0.140625,0 0.3046875,0 0.4453125,0 0.1992191,0 0.6914061,0.023437 0.8789061,0.023437 0.04687,0 0.152344,0 0.152344,-0.1523437 0,-0.09375 -0.08203,-0.09375 -0.222656,-0.09375 -0.01172,0 -0.140625,0 -0.269531,-0.023437 -0.152344,-0.011719 -0.152344,-0.035156 -0.152344,-0.1054688 0,-0.035156 0.01172,-0.1054687 0.02344,-0.1523437 z m 0,0"
         style="fill:#ffffff;fill-opacity:1;fill-rule:nonzero;stroke:none" />
      <path
         id="path113"
         d="m 16.169867,2.3905156 c 0,-0.035156 0,-0.046875 -0.164062,-0.2226562 -1.242188,-1.25390627 -1.570313,-3.12890627 -1.570313,-4.6640625 0,-1.7226563 0.386719,-3.4570313 1.605469,-4.7109375 0.128906,-0.1171875 0.128906,-0.1289063 0.128906,-0.1640625 0,-0.070312 -0.03516,-0.1054688 -0.09375,-0.1054688 -0.105469,0 -0.996094,0.6796875 -1.582031,1.9453125 -0.515625,1.1015625 -0.632813,2.203125 -0.632813,3.0351563 0,0.7851562 0.117188,1.99218748 0.65625,3.11718748 0.597657,1.21875002 1.453125,1.87500002 1.558594,1.87500002 0.05859,0 0.09375,-0.035156 0.09375,-0.1054688 z m 0,0"
         style="fill:#ffffff;fill-opacity:1;fill-rule:nonzero;stroke:none" />
      <path
         id="path114"
         d="m 18.803656,-3.9844844 h 0.9375 c 0.199219,0 0.304688,0 0.304688,-0.1992187 0,-0.1054688 -0.105469,-0.1054688 -0.28125,-0.1054688 h -0.878907 c 0.363282,-1.4179687 0.410157,-1.6171875 0.410157,-1.6757812 0,-0.1757813 -0.117188,-0.2695313 -0.292969,-0.2695313 -0.02344,0 -0.304688,0.011719 -0.398438,0.3515625 l -0.386718,1.59375 h -0.9375 c -0.199219,0 -0.292969,0 -0.292969,0.1875 0,0.1171875 0.07031,0.1171875 0.269531,0.1171875 h 0.878906 c -0.714843,2.8242188 -0.75,3.00000003 -0.75,3.17578128 0,0.5390625 0.375,0.9140625 0.914063,0.9140625 1.007812,0 1.582031,-1.45312498 1.582031,-1.53515628 0,-0.09375 -0.08203,-0.09375 -0.117187,-0.09375 -0.09375,0 -0.105469,0.023437 -0.152344,0.140625 -0.433594,1.03125003 -0.960938,1.27734378 -1.300781,1.27734378 -0.199219,0 -0.304688,-0.12890625 -0.304688,-0.45703125 0,-0.24609375 0.02344,-0.31640625 0.05859,-0.48046873 z m 0,0"
         style="fill:#ffffff;fill-opacity:1;fill-rule:nonzero;stroke:none" />
      <path
         id="path115"
         d="m 23.233344,-2.4962031 c 0,-0.7734375 -0.117188,-1.9804688 -0.65625,-3.1054688 -0.597657,-1.21875 -1.464844,-1.875 -1.558594,-1.875 -0.05859,0 -0.105469,0.046875 -0.105469,0.1054688 0,0.035156 0,0.046875 0.199219,0.234375 0.972656,0.984375 1.535156,2.5664062 1.535156,4.640625 0,1.71093748 -0.363281,3.45703123 -1.59375,4.7226562 -0.140625,0.1171875 -0.140625,0.1289063 -0.140625,0.1640625 0,0.058594 0.04687,0.1054688 0.105469,0.1054688 0.09375,0 0.996094,-0.6796875 1.582031,-1.94531252 0.503906,-1.1015625 0.632813,-2.20312498 0.632813,-3.04687498 z m 0,0"
         style="fill:#ffffff;fill-opacity:1;fill-rule:nonzero;stroke:none" />
    </g>
    <path
       id="path116"
       d="M 86.81921,-40.30927 H 37.12395 c -2.20095,0 -3.98511,-1.78416 -3.98511,-3.9851 v -19.37131 c 0,-2.20094 1.78416,-3.98511 3.98511,-3.98511 h 49.69526 c 2.20095,0 3.98511,1.78417 3.98511,3.98511 v 19.37131 c 0,2.20094 -1.78416,3.9851 -3.98511,3.9851 z"
       style="fill:#4c4c4c;fill-opacity:1;fill-rule:nonzero;stroke:#ffffff;stroke-width:0.3985;stroke-linecap:butt;stroke-linejoin:miter;stroke-miterlimit:10;stroke-dasharray:none;stroke-opacity:1"
       transform="matrix(1.3333333,0,0,-1.3333333,1667.5427,18.493333)" />
    <path
       id="path117"
       d="m 2.2620234,-3.1527031 h 1.6875 c 1.1953125,0 2.2617188,-0.796875 2.2617188,-1.7929688 0,-0.984375 -0.984375,-1.8632812 -2.34375,-1.8632812 H 0.35186719 v 0.3164062 h 0.234375 c 0.77343751,0 0.78515621,0.1054688 0.78515621,0.46875 v 5.25000003 c 0,0.3515625 -0.011719,0.46875 -0.78515621,0.46875 h -0.234375 V -3.59375e-4 C 0.70342969,-0.03551562 1.4299922,-0.03551562 1.8167109,-0.03551562 c 0.375,0 1.125,0 1.4765625,0.035156245 V -0.30504687 H 3.0471797 c -0.7617188,0 -0.7851563,-0.1171875 -0.7851563,-0.46875 z m -0.035156,-0.2578125 v -2.6835938 c 0,-0.328125 0.023437,-0.3984375 0.4921875,-0.3984375 h 0.890625 c 1.5820312,0 1.5820312,1.0546875 1.5820312,1.546875 0,0.4570313 0,1.5351563 -1.5820312,1.5351563 z m 6.2167969,0.1054687 v -1.1015625 l -1.3828125,0.1171875 v 0.3046875 c 0.6914062,0 0.7734375,0.070312 0.7734375,0.5625 v 2.66015628 c 0,0.45703125 -0.1054688,0.45703125 -0.7734375,0.45703125 V -3.59375e-4 C 7.4475703,-0.01207812 7.9163203,-0.03551562 8.1975703,-0.03551562 c 0.3984375,0 0.8671875,0 1.265625,0.035156245 V -0.30504687 H 9.2522578 c -0.7382812,0 -0.7617187,-0.1171875 -0.7617187,-0.46875 V -2.3089531 c 0,-0.984375 0.421875,-1.875 1.1835937,-1.875 0.058594,0 0.082031,0 0.1054688,0.011719 -0.035156,0.011719 -0.234375,0.1289063 -0.234375,0.3867188 0,0.28125 0.2109375,0.4335937 0.4335937,0.4335937 0.1757817,0 0.4218747,-0.1289062 0.4218747,-0.4453125 0,-0.3164062 -0.304687,-0.609375 -0.7265622,-0.609375 -0.7382812,0 -1.0898437,0.6679688 -1.2304685,1.1015622 z m 3.3515627,0.796875 c 0.05859,-1.4882812 0.902343,-1.734375 1.242187,-1.734375 1.019531,0 1.125,1.3476563 1.125,1.734375 z m -0.01172,0.2109375 h 2.789062 c 0.210938,0 0.246094,0 0.246094,-0.2109375 0,-0.984375 -0.539062,-1.9570312 -1.78125,-1.9570312 -1.160156,0 -2.074219,1.03125 -2.074219,2.2734375 0,1.33593748 1.042969,2.29687498 2.191407,2.29687498 1.21875,0 1.664062,-1.1015625 1.664062,-1.28906248 0,-0.1054688 -0.08203,-0.1171875 -0.128906,-0.1171875 -0.09375,0 -0.117188,0.058594 -0.128906,0.140625 -0.351563,1.01953123 -1.253907,1.01953123 -1.347657,1.01953123 -0.503906,0 -0.902343,-0.29296875 -1.125,-0.66796875 C 11.783508,-1.2894219 11.783508,-1.9456719 11.783507,-2.2972344 Z m 6.082031,0.4335938 v -0.5742188 h -2.648437 v 0.5742188 z M -11.419617,8.2056953 v -0.65625 l -1.429688,0.1171875 v 0.3046875 c 0.703125,0 0.773438,0.058594 0.773438,0.4921875 V 13.12757 c 0,0.457032 -0.105469,0.457032 -0.773438,0.457032 v 0.304687 c 0.339844,-0.01172 0.855469,-0.03516 1.113282,-0.03516 0.269531,0 0.773437,0.02344 1.125,0.03516 v -0.304687 c -0.667969,0 -0.773438,0 -0.773438,-0.457032 v -1.757812 c 0.04687,0.152344 0.46875,0.691406 1.21875,0.691406 1.1835938,0 2.2265626,-0.972656 2.2265626,-2.2617187 0,-1.265625 -0.9726563,-2.25 -2.0859376,-2.25 -0.773437,0 -1.195312,0.4453125 -1.394531,0.65625 z m 0.03516,2.6132817 V 8.6041328 c 0.28125,-0.515625 0.773438,-0.796875 1.277344,-0.796875 0.7265623,0 1.3359373,0.8671875 1.3359373,1.9921875 0,1.2070317 -0.6914062,2.0507817 -1.4296873,2.0507817 -0.398438,0 -0.773438,-0.199219 -1.042969,-0.609375 -0.140625,-0.210938 -0.140625,-0.222657 -0.140625,-0.421875 z M -5.9323125,8.6510078 V 7.5494453 L -7.315125,7.6666328 v 0.3046875 c 0.6914063,0 0.7734375,0.070312 0.7734375,0.5625 v 2.6601567 c 0,0.457031 -0.1054687,0.457031 -0.7734375,0.457031 v 0.304687 c 0.3867188,-0.01172 0.8554688,-0.03516 1.1367188,-0.03516 0.3984375,0 0.8671875,0 1.265625,0.03516 v -0.304687 h -0.2109375 c -0.7382813,0 -0.7617188,-0.117188 -0.7617188,-0.46875 V 9.6471016 c 0,-0.984375 0.421875,-1.875 1.1835938,-1.875 0.058594,0 0.082031,0 0.1054687,0.011719 -0.035156,0.011719 -0.234375,0.1289063 -0.234375,0.3867188 0,0.28125 0.2109375,0.4335937 0.4335938,0.4335937 0.1757812,0 0.421875,-0.1289062 0.421875,-0.4453125 0,-0.3164062 -0.3046875,-0.609375 -0.7265625,-0.609375 -0.7382813,0 -1.0898438,0.6679688 -1.2304688,1.1015622 z m 6.92578125,1.171875 c 0,-1.2773437 -0.99609375,-2.3320312 -2.19140625,-2.3320312 -1.2539062,0 -2.2148437,1.0898437 -2.2148437,2.3320312 0,1.2890622 1.03125,2.2382812 2.203125,2.2382812 1.2070312,0 2.20312495,-0.972656 2.20312495,-2.2382812 z M -1.1979375,11.81507 c -0.4335937,0 -0.8671875,-0.210937 -1.1367187,-0.667968 -0.2578125,-0.433594 -0.2578125,-1.042969 -0.2578125,-1.4062504 0,-0.3867188 0,-0.9257813 0.2460937,-1.359375 0.2695313,-0.4570313 0.7382813,-0.6679688 1.1367188,-0.6679688 0.4335937,0 0.86718745,0.2226563 1.12499995,0.6445313 0.2578125,0.4335937 0.2578125,1.0078125 0.2578125,1.3828125 0,0.3632814 0,0.9023434 -0.22265625,1.3359374 -0.22265625,0.445313 -0.65625,0.738281 -1.1484375,0.738281 z M 2.7278438,9.7877266 c 0,-1.6289063 0.8203125,-2.0507813 1.3476562,-2.0507813 0.09375,0 0.7148438,0.011719 1.0664063,0.375 -0.4101563,0.023437 -0.46875,0.328125 -0.46875,0.4570313 0,0.2578125 0.1875,0.4570312 0.4570312,0.4570312 0.2578125,0 0.4570313,-0.1640625 0.4570313,-0.46875 0,-0.6796875 -0.75,-1.0664062 -1.5234375,-1.0664062 -1.2421875,0 -2.15625,1.078125 -2.15625,2.3085937 0,1.2773437 0.984375,2.2617187 2.1445312,2.2617187 1.3359375,0 1.6523438,-1.195312 1.6523438,-1.289062 0,-0.105469 -0.1054688,-0.105469 -0.1289063,-0.105469 -0.09375,0 -0.1171875,0.04687 -0.1289062,0.105469 -0.2929688,0.925781 -0.9375,1.042968 -1.3125,1.042968 -0.5273438,0 -1.40625,-0.421875 -1.40625,-2.0273434 z M 7.1077266,9.4478828 c 0.058594,-1.4882812 0.9023437,-1.734375 1.2421875,-1.734375 1.0195312,0 1.125,1.3476563 1.125,1.734375 z m -0.011719,0.2109375 h 2.7890625 c 0.2109379,0 0.2460939,0 0.2460939,-0.2109375 0,-0.984375 -0.5390626,-1.9570312 -1.7812501,-1.9570312 -1.1601563,0 -2.0742188,1.03125 -2.0742188,2.2734375 0,1.3359379 1.0429688,2.2968749 2.1914063,2.2968749 1.21875,0 1.6640626,-1.101562 1.6640626,-1.289062 0,-0.105469 -0.08203,-0.117188 -0.128906,-0.117188 -0.09375,0 -0.1171879,0.05859 -0.1289066,0.140625 -0.3515625,1.019531 -1.2539063,1.019531 -1.3476563,1.019531 -0.5039062,0 -0.9023437,-0.292968 -1.125,-0.667968 C 7.0960078,10.666633 7.0960078,10.010383 7.0960076,9.6588203 Z m 5.3994144,0.3632817 c 0.222656,0.03516 1.03125,0.199218 1.03125,0.914062 0,0.515625 -0.351563,0.914063 -1.125,0.914063 -0.832031,0 -1.195313,-0.574219 -1.382813,-1.417969 -0.03516,-0.128906 -0.03516,-0.175781 -0.140625,-0.175781 -0.128906,0 -0.128906,0.07031 -0.128906,0.257812 v 1.3125 c 0,0.164063 0,0.234375 0.105469,0.234375 0.05859,0 0.07031,0 0.257812,-0.199219 0.01172,-0.01172 0.01172,-0.03516 0.199219,-0.222656 0.433594,0.421875 0.878906,0.421875 1.089844,0.421875 1.148437,0 1.605469,-0.667969 1.605469,-1.382812 0,-0.527344 -0.292969,-0.8203129 -0.421875,-0.9492192 -0.328125,-0.3164062 -0.714844,-0.3984375 -1.136719,-0.46875 -0.550781,-0.1171875 -1.21875,-0.2460937 -1.21875,-0.8203125 0,-0.3515625 0.257812,-0.7617187 1.113281,-0.7617187 1.101563,0 1.148438,0.9023437 1.171875,1.2070312 0,0.09375 0.09375,0.09375 0.117188,0.09375 0.128906,0 0.128906,-0.046875 0.128906,-0.2460937 V 7.7369453 c 0,-0.1757812 0,-0.2460937 -0.117188,-0.2460937 -0.04687,0 -0.07031,0 -0.199218,0.1171875 -0.02344,0.046875 -0.128907,0.1289062 -0.164063,0.1640625 -0.375,-0.28125 -0.785156,-0.28125 -0.9375,-0.28125 -1.21875,0 -1.59375,0.6679687 -1.59375,1.2304687 0,0.3398438 0.164063,0.6210938 0.433594,0.84375 0.316406,0.2578125 0.597656,0.3164063 1.3125,0.4570317 z m 3.928711,0 c 0.222656,0.03516 1.03125,0.199218 1.03125,0.914062 0,0.515625 -0.351563,0.914063 -1.125,0.914063 -0.832031,0 -1.195313,-0.574219 -1.382813,-1.417969 -0.03516,-0.128906 -0.03516,-0.175781 -0.140625,-0.175781 -0.128906,0 -0.128906,0.07031 -0.128906,0.257812 v 1.3125 c 0,0.164063 0,0.234375 0.105469,0.234375 0.05859,0 0.07031,0 0.257812,-0.199219 0.01172,-0.01172 0.01172,-0.03516 0.199219,-0.222656 0.433594,0.421875 0.878906,0.421875 1.089844,0.421875 1.148437,0 1.605469,-0.667969 1.605469,-1.382812 0,-0.527344 -0.292969,-0.8203129 -0.421875,-0.9492192 -0.328125,-0.3164062 -0.714844,-0.3984375 -1.136719,-0.46875 -0.550781,-0.1171875 -1.21875,-0.2460937 -1.21875,-0.8203125 0,-0.3515625 0.257812,-0.7617187 1.113281,-0.7617187 1.101563,0 1.148438,0.9023437 1.171875,1.2070312 0,0.09375 0.09375,0.09375 0.117188,0.09375 0.128906,0 0.128906,-0.046875 0.128906,-0.2460937 V 7.7369453 c 0,-0.1757812 0,-0.2460937 -0.117188,-0.2460937 -0.04687,0 -0.07031,0 -0.199218,0.1171875 -0.02344,0.046875 -0.128907,0.1289062 -0.164063,0.1640625 -0.375,-0.28125 -0.785156,-0.28125 -0.9375,-0.28125 -1.21875,0 -1.59375,0.6679687 -1.59375,1.2304687 0,0.3398438 0.164063,0.6210938 0.433594,0.84375 0.316406,0.2578125 0.597656,0.3164063 1.3125,0.4570317 z m 3.612305,-2.4726567 -1.394532,0.1171875 v 0.3046875 c 0.65625,0 0.738282,0.058594 0.738282,0.5507813 v 2.6718754 c 0,0.457031 -0.105469,0.457031 -0.773438,0.457031 v 0.304687 c 0.316406,-0.01172 0.855469,-0.03516 1.101563,-0.03516 0.339843,0 0.691406,0.02344 1.03125,0.03516 v -0.304687 c -0.65625,0 -0.703125,-0.05859 -0.703125,-0.445313 z m 0.04687,-1.734375 c 0,-0.3164062 -0.246094,-0.5273437 -0.527344,-0.5273437 -0.316406,0 -0.527344,0.2695312 -0.527344,0.5273437 0,0.2695313 0.210938,0.5273438 0.527344,0.5273438 0.28125,0 0.527344,-0.1992188 0.527344,-0.5273438 z m 2.065429,2.71875 v 2.6601567 c 0,0.457031 -0.117187,0.457031 -0.785156,0.457031 v 0.304687 c 0.351562,-0.01172 0.855469,-0.03516 1.125,-0.03516 0.257812,0 0.785156,0.02344 1.113281,0.03516 v -0.304687 c -0.65625,0 -0.773437,0 -0.773437,-0.457031 V 9.3658516 c 0,-1.03125 0.714843,-1.59375 1.347656,-1.59375 0.621094,0 0.738281,0.5390625 0.738281,1.1015625 v 2.3203129 c 0,0.457031 -0.117187,0.457031 -0.773437,0.457031 v 0.304687 c 0.339843,-0.01172 0.855468,-0.03516 1.125,-0.03516 0.257812,0 0.773437,0.02344 1.113281,0.03516 v -0.304687 c -0.515625,0 -0.773438,0 -0.785156,-0.304688 V 9.4478828 c 0,-0.8554687 0,-1.171875 -0.304688,-1.5234375 -0.140625,-0.1757812 -0.46875,-0.375 -1.042969,-0.375 -0.726562,0 -1.195312,0.4335938 -1.476562,1.0546875 V 7.5494453 l -1.40625,0.1171875 v 0.3046875 c 0.703125,0 0.785156,0.070312 0.785156,0.5625 z m 6.650391,1.7109377 c -0.867188,0 -0.867188,-0.9960939 -0.867188,-1.2304689 0,-0.2695313 0.01172,-0.5859375 0.152344,-0.8320313 0.08203,-0.1171875 0.316406,-0.3984375 0.714844,-0.3984375 0.867187,0 0.867187,0.9960938 0.867187,1.21875 0,0.2695313 -0.01172,0.5976563 -0.164062,0.84375 -0.08203,0.1171875 -0.304688,0.3984377 -0.703125,0.3984377 z m -1.160156,0.386719 c 0,-0.03516 0,-0.269532 0.175781,-0.46875 0.386719,0.28125 0.796875,0.304687 0.984375,0.304687 0.925781,0 1.605469,-0.6796874 1.605469,-1.4531249 0,-0.3632813 -0.152344,-0.7382813 -0.398438,-0.9609375 0.351563,-0.3398438 0.714844,-0.3867188 0.890625,-0.3867188 0.02344,0 0.07031,0 0.105469,0 -0.117188,0.046875 -0.164063,0.1523438 -0.164063,0.2695313 0,0.1757812 0.128907,0.2929687 0.292969,0.2929687 0.09375,0 0.28125,-0.070312 0.28125,-0.2929687 0,-0.1757813 -0.117187,-0.4921875 -0.503906,-0.4921875 -0.199219,0 -0.632813,0.058594 -1.054688,0.46875 -0.421875,-0.328125 -0.84375,-0.3632813 -1.054687,-0.3632813 -0.925781,0 -1.617188,0.6914063 -1.617188,1.453125 0,0.4453125 0.222657,0.8203125 0.46875,1.0312497 -0.128906,0.152344 -0.304687,0.480469 -0.304687,0.820313 0,0.316406 0.128906,0.691406 0.433594,0.890625 -0.597657,0.175781 -0.914063,0.597656 -0.914063,0.996094 0,0.714843 0.984375,1.265625 2.203125,1.265625 1.171875,0 2.203125,-0.503907 2.203125,-1.289063 0,-0.339844 -0.140625,-0.855469 -0.644531,-1.125 -0.527344,-0.28125 -1.101563,-0.28125 -1.710938,-0.28125 -0.246093,0 -0.679687,0 -0.75,-0.01172 -0.316406,-0.04687 -0.527343,-0.351562 -0.527343,-0.667968 z m 1.441406,3.152343 c -1.007813,0 -1.699219,-0.515625 -1.699219,-1.042968 0,-0.457032 0.375,-0.820313 0.820313,-0.855469 h 0.585937 c 0.855469,0 1.96875,0 1.96875,0.855469 0,0.539062 -0.703125,1.042968 -1.675781,1.042968 z m 0,0"
       style="fill:#ffffff;fill-opacity:1;fill-rule:nonzero;stroke:none"
       aria-label="Pre-&#10;processing"
       transform="matrix(1.3333333,0,0,1.3333333,1737.8827,85.742667)" />
    <path
       id="path118"
       d="M 150.55249,-41.22252 H 112.1962 c -2.20095,0 -3.98511,-1.78416 -3.98511,-3.98511 v -17.54481 c 0,-2.20094 1.78416,-3.98511 3.98511,-3.98511 h 38.35629 c 2.20094,0 3.98511,1.78417 3.98511,3.98511 v 17.54481 c 0,2.20095 -1.78417,3.98511 -3.98511,3.98511 z"
       style="fill:#4c4c4c;fill-opacity:1;fill-rule:nonzero;stroke:#ffffff;stroke-width:0.3985;stroke-linecap:butt;stroke-linejoin:miter;stroke-miterlimit:10;stroke-dasharray:none;stroke-opacity:1"
       transform="matrix(1.3333333,0,0,-1.3333333,1678.9813,29.932013)" />
    <path
       id="path119"
       d="M 150.55249,-41.22252 H 112.1962 c -2.20095,0 -3.98511,-1.78416 -3.98511,-3.98511 v -17.54481 c 0,-2.20094 1.78416,-3.98511 3.98511,-3.98511 h 38.35629 c 2.20094,0 3.98511,1.78417 3.98511,3.98511 v 17.54481 c 0,2.20095 -1.78417,3.98511 -3.98511,3.98511 z"
       style="fill:#4c4c4c;fill-opacity:1;fill-rule:nonzero;stroke:#ffffff;stroke-width:0.3985;stroke-linecap:butt;stroke-linejoin:miter;stroke-miterlimit:10;stroke-dasharray:none;stroke-opacity:1"
       transform="matrix(1.3333333,0,0,-1.3333333,1673.262,24.212667)" />
    <path
       id="path120"
       d="M 150.55249,-41.22252 H 112.1962 c -2.20095,0 -3.98511,-1.78416 -3.98511,-3.98511 v -17.54481 c 0,-2.20094 1.78416,-3.98511 3.98511,-3.98511 h 38.35629 c 2.20094,0 3.98511,1.78417 3.98511,3.98511 v 17.54481 c 0,2.20095 -1.78417,3.98511 -3.98511,3.98511 z"
       style="fill:#4c4c4c;fill-opacity:1;fill-rule:nonzero;stroke:#ffffff;stroke-width:0.3985;stroke-linecap:butt;stroke-linejoin:miter;stroke-miterlimit:10;stroke-dasharray:none;stroke-opacity:1"
       transform="matrix(1.3333333,0,0,-1.3333333,1667.5427,18.493333)" />
    <path
       id="path121"
       d="M 3.4817344,-3.8661562 2.2043906,-4.1708437 C 1.5832969,-4.3231875 1.1965781,-4.86225 1.1965781,-5.4364687 c 0,-0.703125 0.5390625,-1.3007813 1.3125,-1.3007813 1.6640625,0 1.8867188,1.6289063 1.9453125,2.0742188 0.011719,0.058594 0.011719,0.1171875 0.1171875,0.1171875 0.1289063,0 0.1289063,-0.046875 0.1289063,-0.234375 V -6.784125 c 0,-0.1640625 0,-0.234375 -0.1054688,-0.234375 -0.070312,0 -0.082031,0.011719 -0.1523437,0.1289063 l -0.3515625,0.5625 C 3.7981406,-6.6083437 3.3879844,-7.0185 2.4973594,-7.0185 c -1.1015625,0 -1.93359378,0.8789063 -1.93359378,1.9335938 0,0.8203125 0.52734378,1.546875 1.30078128,1.8164062 0.1054687,0.046875 0.6210937,0.1640625 1.3125,0.328125 0.2695312,0.070312 0.5742187,0.140625 0.84375,0.515625 0.2109375,0.2578125 0.3164062,0.5859375 0.3164062,0.9140625 0,0.703125 -0.5039062,1.41796875 -1.3359375,1.41796875 -0.2929687,0 -1.0429687,-0.046875 -1.5703125,-0.5390625 C 0.84501562,-1.159125 0.82157812,-1.8036562 0.80985937,-2.1552187 c -0.0117188,-0.1054688 -0.09375,-0.1054688 -0.1171875,-0.1054688 -0.12890625,0 -0.12890625,0.070312 -0.12890625,0.2460938 v 1.99218745 c 0,0.17578125 0,0.24609375 0.10546875,0.24609375 0.0703125,0 0.0820313,-0.0234375 0.15234375,-0.12890625 0,-0.01171875 0.0234375,-0.046875 0.35156248,-0.57421875 0.3164063,0.33984375 0.9492188,0.703125 1.8398438,0.703125 1.1601562,0 1.9570312,-0.984375 1.9570312,-2.0742187 0,-0.9960938 -0.65625,-1.8164063 -1.4882812,-2.015625 z m 3.8115234,-0.5390625 -1.3945312,0.1171875 v 0.3046875 c 0.65625,0 0.7382812,0.058594 0.7382812,0.5507812 v 2.671875 c 0,0.45703125 -0.1054687,0.45703125 -0.7734375,0.45703125 v 0.3046875 C 6.1799766,-0.0106875 6.7190391,-0.034125 6.9651328,-0.034125 c 0.3398438,0 0.6914063,0.0234375 1.03125,0.03515625 v -0.3046875 c -0.65625,0 -0.703125,-0.0585938 -0.703125,-0.4453125 z m 0.046875,-1.734375 c 0,-0.3164063 -0.2460937,-0.5273438 -0.5273437,-0.5273438 -0.3164063,0 -0.5273438,0.2695313 -0.5273438,0.5273438 0,0.2695312 0.2109375,0.5273437 0.5273438,0.5273437 0.28125,0 0.5273437,-0.1992187 0.5273437,-0.5273437 z m 3.1787112,4.4296875 c -0.8671878,0 -0.8671878,-0.9960938 -0.8671878,-1.2304688 0,-0.2695312 0.011719,-0.5859375 0.1523438,-0.8320312 0.082031,-0.1171875 0.316406,-0.3984375 0.714844,-0.3984375 0.867187,0 0.867187,0.9960937 0.867187,1.21875 0,0.2695312 -0.01172,0.5976562 -0.164062,0.84375 -0.08203,0.1171875 -0.304688,0.3984375 -0.703125,0.3984375 z m -1.1601565,0.3867187 c 0,-0.035156 0,-0.2695312 0.1757812,-0.46875 0.3867188,0.28125 0.7968753,0.3046875 0.9843753,0.3046875 0.925781,0 1.605468,-0.6796875 1.605468,-1.453125 0,-0.3632812 -0.152343,-0.7382812 -0.398437,-0.9609375 0.351562,-0.3398437 0.714844,-0.3867187 0.890625,-0.3867187 0.02344,0 0.07031,0 0.105469,0 -0.117188,0.046875 -0.164063,0.1523437 -0.164063,0.2695312 0,0.1757813 0.128906,0.2929688 0.292969,0.2929688 0.09375,0 0.28125,-0.070312 0.28125,-0.2929688 0,-0.1757812 -0.117188,-0.4921875 -0.503906,-0.4921875 -0.199219,0 -0.632813,0.058594 -1.054688,0.46875 -0.421875,-0.328125 -0.84375,-0.3632812 -1.054687,-0.3632812 -0.9257815,0 -1.6171878,0.6914062 -1.6171878,1.453125 0,0.4453125 0.2226563,0.8203125 0.46875,1.03125 C 9.2415,-1.7685 9.0657187,-1.440375 9.0657187,-1.1005312 c 0,0.3164062 0.1289063,0.6914062 0.4335938,0.89062495 C 8.9016562,-0.034125 8.58525,0.38775 8.58525,0.7861875 c 0,0.7148438 0.984375,1.265625 2.203125,1.265625 1.171875,0 2.203125,-0.5039062 2.203125,-1.2890625 0,-0.33984375 -0.140625,-0.85546875 -0.644531,-1.125 -0.527344,-0.28125 -1.101563,-0.28125 -1.710938,-0.28125 -0.246094,0 -0.6796873,0 -0.7499998,-0.0117188 C 9.569625,-0.70209375 9.3586875,-1.0067812 9.3586875,-1.3231875 Z m 1.4414065,3.1523438 c -1.0078128,0 -1.699219,-0.515625 -1.699219,-1.0429688 0,-0.45703125 0.375,-0.8203125 0.8203125,-0.85546875 h 0.5859375 c 0.855469,0 1.96875,0 1.96875,0.85546875 0,0.5390625 -0.703125,1.0429688 -1.675781,1.0429688 z m 3.585937,-5.25 v 2.6601562 c 0,0.45703125 -0.117187,0.45703125 -0.785156,0.45703125 v 0.3046875 c 0.351562,-0.01171875 0.855469,-0.03515625 1.125,-0.03515625 0.257812,0 0.785156,0.0234375 1.113281,0.03515625 v -0.3046875 c -0.65625,0 -0.773437,0 -0.773437,-0.45703125 v -1.828125 c 0,-1.03125 0.714843,-1.59375 1.347656,-1.59375 0.621094,0 0.738281,0.5390625 0.738281,1.1015625 v 2.3203125 c 0,0.45703125 -0.117187,0.45703125 -0.773437,0.45703125 v 0.3046875 c 0.339843,-0.01171875 0.855468,-0.03515625 1.125,-0.03515625 0.257812,0 0.773437,0.0234375 1.113281,0.03515625 v -0.3046875 c -0.515625,0 -0.773438,0 -0.785156,-0.3046875 V -2.5067812 c 0,-0.8554688 0,-1.171875 -0.304688,-1.5234375 -0.140625,-0.1757813 -0.46875,-0.375 -1.042969,-0.375 -0.726562,0 -1.195312,0.4335937 -1.476562,1.0546875 v -1.0546875 l -1.40625,0.1171875 v 0.3046875 c 0.703125,0 0.785156,0.070312 0.785156,0.5625 z m 7.749024,2.6601562 c 0.03516,0.3984375 0.304687,0.8203125 0.773437,0.8203125 0.210938,0 0.820313,-0.140625 0.820313,-0.94921875 V -1.440375 h -0.246094 v 0.55078125 c 0,0.5859375 -0.246094,0.64453125 -0.363281,0.64453125 -0.328125,0 -0.363282,-0.45703125 -0.363282,-0.50390625 V -2.7411562 c 0,-0.4101563 0,-0.8085938 -0.363281,-1.171875 -0.386719,-0.3867188 -0.878906,-0.5507813 -1.359375,-0.5507813 -0.820312,0 -1.511719,0.46875 -1.511719,1.125 0,0.3046875 0.199219,0.46875 0.457032,0.46875 0.28125,0 0.46875,-0.1992187 0.46875,-0.4570312 0,-0.1171875 -0.05859,-0.4453125 -0.515625,-0.4570313 0.269531,-0.3515625 0.761718,-0.4570312 1.078125,-0.4570312 0.492187,0 1.054687,0.3867187 1.054687,1.2773437 v 0.3632813 c -0.503906,0.035156 -1.207031,0.058594 -1.828125,0.3632812 -0.75,0.3398438 -0.996094,0.8554688 -0.996094,1.2890625 0,0.80859375 0.960938,1.0546875 1.59375,1.0546875 0.65625,0 1.113282,-0.3984375 1.300782,-0.8671875 z m -0.07031,-1.6289062 V -1.3935 c 0,0.94921875 -0.714844,1.2890625 -1.160156,1.2890625 -0.492188,0 -0.902344,-0.3515625 -0.902344,-0.85546875 0,-0.53906245 0.421875,-1.37109375 2.0625,-1.42968745 z m 3.495117,-4.5234375 -1.429687,0.1054687 v 0.3164063 c 0.703125,0 0.773437,0.070312 0.773437,0.5507812 v 5.1796875 c 0,0.45703125 -0.105468,0.45703125 -0.773437,0.45703125 v 0.3046875 C 24.4583,-0.0106875 24.985644,-0.034125 25.231737,-0.034125 c 0.257813,0 0.738282,0.0234375 1.113282,0.03515625 v -0.3046875 c -0.667969,0 -0.785157,0 -0.785157,-0.45703125 z M -2.0319375,7.6650938 V 6.5049375 c 0,-0.8789062 0.4804687,-1.359375 0.9140625,-1.359375 0.035156,0 0.17578125,0 0.328125,0.070312 -0.1171875,0.046875 -0.2929688,0.1757813 -0.2929688,0.421875 0,0.234375 0.1523438,0.4335938 0.42187505,0.4335938 0.29296875,0 0.43359375,-0.1992188 0.43359375,-0.4453125 0,-0.3632813 -0.36328125,-0.6914063 -0.890625,-0.6914063 -0.703125,0 -1.546875,0.5273438 -1.546875,1.5820313 v 1.148438 H -3.4499063 V 7.9697813 H -2.66475 v 3.2226567 c 0,0.457031 -0.1054688,0.457031 -0.7734375,0.457031 v 0.304687 c 0.3867187,-0.01172 0.8554687,-0.03516 1.1367187,-0.03516 0.3984375,0 0.8671875,0 1.265625,0.03516 v -0.304687 h -0.2109375 c -0.7382812,0 -0.7617187,-0.117188 -0.7617187,-0.46875 V 7.9697813 h 1.13671875 V 7.6650938 Z m 2.4140625,1.78125 c 0.0585938,-1.4882813 0.9023437,-1.734375 1.2421875,-1.734375 1.0195312,0 1.125,1.3476562 1.125,1.734375 z M 0.37040625,9.6572813 H 3.1594687 c 0.2109375,0 0.2460938,0 0.2460938,-0.2109375 0,-0.984375 -0.5390625,-1.9570313 -1.78125,-1.9570313 -1.16015625,0 -2.07421875,1.03125 -2.07421875,2.2734375 0,1.335938 1.04296875,2.296875 2.19140625,2.296875 1.21875,0 1.6640625,-1.101562 1.6640625,-1.289062 0,-0.105469 -0.082031,-0.117188 -0.1289063,-0.117188 -0.09375,0 -0.1171875,0.05859 -0.1289062,0.140625 -0.3515625,1.019531 -1.2539063,1.019531 -1.3476563,1.019531 -0.5039062,0 -0.9023437,-0.292968 -1.12499995,-0.667968 -0.3046875,-0.480469 -0.3046875,-1.136719 -0.3046875,-1.4882817 z M 7.0120078,11.192438 c 0.035156,0.398437 0.3046875,0.820312 0.7734375,0.820312 0.2109375,0 0.8203125,-0.140625 0.8203125,-0.949219 V 10.51275 H 8.3596641 v 0.550781 c 0,0.585938 -0.2460938,0.644532 -0.3632813,0.644532 -0.328125,0 -0.3632812,-0.457032 -0.3632812,-0.503907 V 9.2119688 c 0,-0.4101563 0,-0.8085938 -0.3632813,-1.171875 C 6.8831016,7.653375 6.3909141,7.4893125 5.9104453,7.4893125 c -0.8203125,0 -1.5117187,0.46875 -1.5117187,1.125 0,0.3046875 0.1992187,0.46875 0.4570312,0.46875 0.28125,0 0.46875,-0.1992187 0.46875,-0.4570312 0,-0.1171875 -0.058594,-0.4453125 -0.515625,-0.4570313 0.2695313,-0.3515625 0.7617188,-0.4570312 1.078125,-0.4570312 0.4921875,0 1.0546875,0.3867187 1.0546875,1.2773437 V 9.3525938 C 6.4377891,9.38775 5.7346641,9.4111875 5.1135703,9.715875 c -0.75,0.339844 -0.9960937,0.855469 -0.9960937,1.289063 0,0.808593 0.9609375,1.054687 1.59375,1.054687 0.65625,0 1.1132812,-0.398437 1.3007812,-0.867187 z M 6.9416953,9.5635313 v 0.9960937 c 0,0.949219 -0.7148437,1.289063 -1.1601562,1.289063 -0.4921875,0 -0.9023438,-0.351563 -0.9023438,-0.855469 0,-0.539063 0.421875,-1.371094 2.0625,-1.4296877 z m 3.4570317,-1.59375 h 1.429687 V 7.6650938 H 10.398727 V 5.82525 H 10.152633 C 10.140914,6.6455625 9.8362266,7.7119688 8.8635703,7.747125 v 0.2226563 h 0.84375 v 2.7539067 c 0,1.21875 0.9257817,1.335937 1.2890627,1.335937 0.703125,0 0.984375,-0.703125 0.984375,-1.335937 v -0.574219 h -0.246094 v 0.550781 c 0,0.738281 -0.304687,1.113281 -0.667969,1.113281 -0.667968,0 -0.667968,-0.902343 -0.667968,-1.078125 z M 16.442672,11.169 v 0.890625 l 1.441406,-0.105469 v -0.304687 c -0.703125,0 -0.785156,-0.07031 -0.785156,-0.5625 V 7.5479063 l -1.453125,0.1171875 v 0.3046875 c 0.691406,0 0.773437,0.070312 0.773437,0.5625 v 1.7695317 c 0,0.867187 -0.480468,1.546875 -1.207031,1.546875 -0.832031,0 -0.878906,-0.46875 -0.878906,-0.996094 V 7.5479063 l -1.464844,0.1171875 v 0.3046875 c 0.785156,0 0.785156,0.035156 0.785156,0.9140625 v 1.5000002 c 0,0.773437 0,1.675781 1.511719,1.675781 0.550781,0 0.996094,-0.269531 1.277344,-0.890625 z M 19.750289,8.6494688 V 7.5479063 l -1.382812,0.1171875 v 0.3046875 c 0.691406,0 0.773437,0.070312 0.773437,0.5625 v 2.6601567 c 0,0.457031 -0.105469,0.457031 -0.773437,0.457031 v 0.304687 c 0.386718,-0.01172 0.855468,-0.03516 1.136718,-0.03516 0.398438,0 0.867188,0 1.265625,0.03516 v -0.304687 h -0.210937 c -0.738281,0 -0.761719,-0.117188 -0.761719,-0.46875 V 9.6455625 c 0,-0.984375 0.421875,-1.875 1.183594,-1.875 0.05859,0 0.08203,0 0.105469,0.011719 C 21.05107,7.794 20.851852,7.9111875 20.851852,8.169 c 0,0.28125 0.210937,0.4335938 0.433593,0.4335938 0.175782,0 0.421875,-0.1289063 0.421875,-0.4453125 0,-0.3164063 -0.304687,-0.609375 -0.726562,-0.609375 -0.738281,0 -1.089844,0.6679687 -1.230469,1.1015625 z m 3.351563,0.796875 c 0.05859,-1.4882813 0.902343,-1.734375 1.242187,-1.734375 1.019531,0 1.125,1.3476562 1.125,1.734375 z m -0.01172,0.2109375 h 2.789062 c 0.210938,0 0.246094,0 0.246094,-0.2109375 0,-0.984375 -0.539062,-1.9570313 -1.78125,-1.9570313 -1.160156,0 -2.074219,1.03125 -2.074219,2.2734375 0,1.335938 1.042969,2.296875 2.191407,2.296875 1.21875,0 1.664062,-1.101562 1.664062,-1.289062 0,-0.105469 -0.08203,-0.117188 -0.128906,-0.117188 -0.09375,0 -0.117188,0.05859 -0.128906,0.140625 -0.351563,1.019531 -1.253907,1.019531 -1.347657,1.019531 -0.503906,0 -0.902343,-0.292968 -1.125,-0.667968 -0.304687,-0.480469 -0.304687,-1.136719 -0.304687,-1.4882817 z m 5.399414,0.3632817 c 0.222656,0.03516 1.03125,0.199218 1.03125,0.914062 0,0.515625 -0.351563,0.914063 -1.125,0.914063 -0.832031,0 -1.195313,-0.574219 -1.382813,-1.417969 -0.03516,-0.128906 -0.03516,-0.175781 -0.140625,-0.175781 -0.128906,0 -0.128906,0.07031 -0.128906,0.257812 v 1.3125 c 0,0.164063 0,0.234375 0.105469,0.234375 0.05859,0 0.07031,0 0.257812,-0.199219 0.01172,-0.01172 0.01172,-0.03516 0.199219,-0.222656 0.433594,0.421875 0.878906,0.421875 1.089844,0.421875 1.148437,0 1.605469,-0.667969 1.605469,-1.382812 0,-0.527344 -0.292969,-0.820313 -0.421875,-0.9492192 C 29.251265,9.4111875 28.864546,9.3291563 28.442671,9.2588438 27.89189,9.1416563 27.223921,9.01275 27.223921,8.4385313 c 0,-0.3515625 0.257812,-0.7617188 1.113281,-0.7617188 1.101563,0 1.148438,0.9023438 1.171875,1.2070313 0,0.09375 0.09375,0.09375 0.117188,0.09375 0.128906,0 0.128906,-0.046875 0.128906,-0.2460938 V 7.7354063 c 0,-0.1757813 0,-0.2460938 -0.117188,-0.2460938 -0.04687,0 -0.07031,0 -0.199218,0.1171875 -0.02344,0.046875 -0.128907,0.1289063 -0.164063,0.1640625 -0.375,-0.28125 -0.785156,-0.28125 -0.9375,-0.28125 -1.21875,0 -1.59375,0.6679688 -1.59375,1.2304688 0,0.3398437 0.164063,0.6210937 0.433594,0.84375 0.316406,0.2578125 0.597656,0.3164062 1.3125,0.4570317 z m 0,0"
       style="fill:#ffffff;fill-opacity:1;fill-rule:nonzero;stroke:none"
       aria-label="Signal&#10;features"
       transform="matrix(1.3333333,0,0,1.3333333,1824.9947,87.108)" />
    <path
       id="path122"
       d="M 218.46399,-20.40974 H 180.1077 c -2.20095,0 -3.98511,-1.78417 -3.98511,-3.98511 v -6.20317 c 0,-2.20095 1.78416,-3.98511 3.98511,-3.98511 h 38.35629 c 2.20094,0 3.98511,1.78416 3.98511,3.98511 v 6.20317 c 0,2.20094 -1.78417,3.98511 -3.98511,3.98511 z"
       style="fill:#006600;fill-opacity:1;fill-rule:nonzero;stroke:#ffffff;stroke-width:0.3985;stroke-linecap:butt;stroke-linejoin:miter;stroke-miterlimit:10;stroke-dasharray:none;stroke-opacity:1"
       transform="matrix(1.3333333,0,0,-1.3333333,1667.5427,18.493333)" />
    <path
       id="path123"
       d="m 0.35141406,-6.8100391 v 0.3164063 h 0.234375 c 0.77343754,0 0.78515624,0.1054687 0.78515624,0.46875 v 5.24999999 c 0,0.3515625 -0.011719,0.46875 -0.78515624,0.46875 h -0.234375 v 0.3046875 H 3.9959453 c 1.6757813,0 3.046875,-1.47656249 3.046875,-3.35156249 0,-1.8867188 -1.3476562,-3.4570313 -3.046875,-3.4570313 z m 2.36718754,6.50390629 c -0.46875,0 -0.4921875,-0.0703125 -0.4921875,-0.3984375 V -6.0951953 c 0,-0.328125 0.023437,-0.3984375 0.4921875,-0.3984375 h 0.9960937 c 0.6210938,0 1.3007813,0.2109375 1.8164063,0.9257812 0.421875,0.5859375 0.515625,1.4414063 0.515625,2.2148438 0,1.1132812 -0.1875,1.7109375 -0.5507813,2.1914062 -0.1992187,0.26953129 -0.7617187,0.85546879 -1.7695312,0.85546879 z M 8.7244609,-2.5092578 c 0.058594,-1.4882813 0.9023438,-1.734375 1.2421875,-1.734375 1.0195316,0 1.1249996,1.3476562 1.1249996,1.734375 z m -0.011719,0.2109375 h 2.7890631 c 0.210937,0 0.246093,0 0.246093,-0.2109375 0,-0.984375 -0.539062,-1.9570313 -1.7812499,-1.9570313 -1.1601562,0 -2.0742187,1.03125 -2.0742187,2.2734375 0,1.33593754 1.0429687,2.29687504 2.1914066,2.29687504 1.21875,0 1.664062,-1.1015625 1.664062,-1.28906254 0,-0.1054687 -0.08203,-0.1171875 -0.128906,-0.1171875 -0.09375,0 -0.117187,0.058594 -0.128906,0.140625 -0.351563,1.01953129 -1.253906,1.01953129 -1.347656,1.01953129 -0.5039069,0 -0.9023444,-0.29296875 -1.1250006,-0.66796875 C 8.7127422,-1.2905078 8.7127422,-1.9467578 8.7127419,-2.2983203 Z m 5.0478521,-1.6875 h 1.429687 V -4.2905078 H 13.760594 V -6.1303516 H 13.5145 c -0.01172,0.8203125 -0.316406,1.8867188 -1.289063,1.921875 v 0.2226563 h 0.84375 v 2.7539062 c 0,1.21875004 0.925782,1.33593754 1.289063,1.33593754 0.703125,0 0.984375,-0.703125 0.984375,-1.33593754 v -0.5742187 h -0.246094 v 0.5507812 c 0,0.73828129 -0.304687,1.11328129 -0.667969,1.11328129 -0.667968,0 -0.667968,-0.90234379 -0.667968,-1.07812499 z m 3.263672,1.4765625 c 0.05859,-1.4882813 0.902343,-1.734375 1.242187,-1.734375 1.019531,0 1.125,1.3476562 1.125,1.734375 z m -0.01172,0.2109375 h 2.789062 c 0.210938,0 0.246094,0 0.246094,-0.2109375 0,-0.984375 -0.539062,-1.9570313 -1.78125,-1.9570313 -1.160156,0 -2.074219,1.03125 -2.074219,2.2734375 0,1.33593754 1.042969,2.29687504 2.191407,2.29687504 1.21875,0 1.664062,-1.1015625 1.664062,-1.28906254 0,-0.1054687 -0.08203,-0.1171875 -0.128906,-0.1171875 -0.09375,0 -0.117188,0.058594 -0.128906,0.140625 -0.351563,1.01953129 -1.253907,1.01953129 -1.347657,1.01953129 -0.503906,0 -0.902343,-0.29296875 -1.125,-0.66796875 C 17.012547,-1.2905078 17.012547,-1.9467578 17.012547,-2.2983203 Z m 4.488281,0.1289062 c 0,-1.6289062 0.820313,-2.0507812 1.347656,-2.0507812 0.09375,0 0.714844,0.011719 1.066407,0.375 -0.410157,0.023437 -0.46875,0.328125 -0.46875,0.4570312 0,0.2578125 0.1875,0.4570313 0.457031,0.4570313 0.257812,0 0.457031,-0.1640625 0.457031,-0.46875 0,-0.6796875 -0.75,-1.0664063 -1.523437,-1.0664063 -1.242188,0 -2.15625,1.078125 -2.15625,2.3085938 0,1.27734374 0.984375,2.26171874 2.144531,2.26171874 1.335937,0 1.652344,-1.19531254 1.652344,-1.28906254 0,-0.1054687 -0.105469,-0.1054687 -0.128907,-0.1054687 -0.09375,0 -0.117187,0.046875 -0.128906,0.1054687 -0.292969,0.92578129 -0.9375,1.04296879 -1.3125,1.04296879 -0.527344,0 -1.40625,-0.421875 -1.40625,-2.02734379 z m 4.989258,-1.8164062 h 1.429687 v -0.3046875 h -1.429687 v -1.8398438 h -0.246094 c -0.01172,0.8203125 -0.316406,1.8867188 -1.289062,1.921875 v 0.2226563 h 0.84375 v 2.7539062 c 0,1.21875004 0.925781,1.33593754 1.289062,1.33593754 0.703125,0 0.984375,-0.703125 0.984375,-1.33593754 v -0.5742187 h -0.246094 v 0.5507812 c 0,0.73828129 -0.304687,1.11328129 -0.667968,1.11328129 -0.667969,0 -0.667969,-0.90234379 -0.667969,-1.07812499 z m 3.908203,-0.421875 -1.394531,0.1171875 v 0.3046875 c 0.65625,0 0.738281,0.058594 0.738281,0.5507812 v 2.67187504 c 0,0.45703125 -0.105469,0.45703125 -0.773437,0.45703125 v 0.3046875 c 0.316406,-0.01171875 0.855468,-0.03515625 1.101562,-0.03515625 0.339844,0 0.691406,0.0234375 1.03125,0.03515625 v -0.3046875 c -0.65625,0 -0.703125,-0.0585938 -0.703125,-0.4453125 z m 0.04687,-1.734375 c 0,-0.3164063 -0.246094,-0.5273438 -0.527344,-0.5273438 -0.316406,0 -0.527343,0.2695313 -0.527343,0.5273438 0,0.2695312 0.210937,0.5273437 0.527343,0.5273437 0.28125,0 0.527344,-0.1992187 0.527344,-0.5273437 z m 5.651367,4.0078125 c 0,-1.2773438 -0.996094,-2.3320313 -2.191406,-2.3320313 -1.253906,0 -2.214844,1.0898438 -2.214844,2.3320313 0,1.28906249 1.03125,2.23828124 2.203125,2.23828124 1.207031,0 2.203125,-0.97265625 2.203125,-2.23828124 z m -2.191406,1.99218749 c -0.433594,0 -0.867188,-0.2109375 -1.136719,-0.66796875 -0.257812,-0.43359374 -0.257812,-1.04296874 -0.257812,-1.40625004 0,-0.3867187 0,-0.9257812 0.246093,-1.359375 0.269532,-0.4570312 0.738282,-0.6679687 1.136719,-0.6679687 0.433594,0 0.867188,0.2226562 1.125,0.6445312 0.257813,0.4335938 0.257813,1.0078125 0.257813,1.3828125 0,0.3632813 0,0.9023438 -0.222657,1.33593754 -0.222656,0.4453125 -0.65625,0.73828125 -1.148437,0.73828125 z m 3.585937,-3.28124999 v 2.66015624 c 0,0.45703125 -0.117187,0.45703125 -0.785156,0.45703125 v 0.3046875 c 0.351563,-0.01171875 0.855469,-0.03515625 1.125,-0.03515625 0.257813,0 0.785156,0.0234375 1.113281,0.03515625 v -0.3046875 c -0.65625,0 -0.773437,0 -0.773437,-0.45703125 V -2.5912891 c 0,-1.03125 0.714844,-1.59375 1.347656,-1.59375 0.621094,0 0.738281,0.5390625 0.738281,1.1015625 v 2.32031254 c 0,0.45703125 -0.117187,0.45703125 -0.773437,0.45703125 v 0.3046875 c 0.339844,-0.01171875 0.855469,-0.03515625 1.125,-0.03515625 0.257812,0 0.773437,0.0234375 1.113281,0.03515625 v -0.3046875 c -0.515625,0 -0.773437,0 -0.785156,-0.3046875 V -2.5092578 c 0,-0.8554688 0,-1.171875 -0.304688,-1.5234375 -0.140625,-0.1757813 -0.46875,-0.375 -1.042968,-0.375 -0.726563,0 -1.195313,0.4335937 -1.476563,1.0546875 v -1.0546875 l -1.40625,0.1171875 v 0.3046875 c 0.703125,0 0.785156,0.070312 0.785156,0.5625 z m 0,0"
       style="fill:#ffffff;fill-opacity:1;fill-rule:nonzero;stroke:none"
       aria-label="Detection"
       transform="matrix(1.3333333,0,0,1.3333333,1906.7973,59.693333)" />
    <path
       id="path124"
       d="M 14.44028,0 H 30.99026"
       style="fill:none;stroke:#ffffff;stroke-width:0.3985;stroke-linecap:butt;stroke-linejoin:miter;stroke-miterlimit:10;stroke-dasharray:none;stroke-opacity:1"
       transform="matrix(1.3333333,0,0,-1.3333333,1667.5427,18.493333)" />
    <path
       id="path125"
       d="M -1.19551,1.59401 C -1.09587,0.99626 0,0.09961 0.29886,0 0,-0.09961 -1.09587,-0.99626 -1.19551,-1.59401"
       style="fill:none;stroke:#ffffff;stroke-width:0.31879;stroke-linecap:round;stroke-linejoin:round;stroke-miterlimit:10;stroke-dasharray:none;stroke-opacity:1"
       transform="matrix(1.3333333,0,0,-1.3333333,1708.863,18.493333)" />
    <path
       id="path126"
       d="m 89.51253,0 h 16.54999"
       style="fill:none;stroke:#ffffff;stroke-width:0.3985;stroke-linecap:butt;stroke-linejoin:miter;stroke-miterlimit:10;stroke-dasharray:none;stroke-opacity:1"
       transform="matrix(1.3333333,0,0,-1.3333333,1667.5427,18.493333)" />
    <path
       id="path127"
       d="M -1.19551,1.59401 C -1.09587,0.99626 0,0.09961 0.29886,0 0,-0.09961 -1.09587,-0.99626 -1.19551,-1.59401"
       style="fill:none;stroke:#ffffff;stroke-width:0.31879;stroke-linecap:round;stroke-linejoin:round;stroke-miterlimit:10;stroke-dasharray:none;stroke-opacity:1"
       transform="matrix(1.3333333,0,0,-1.3333333,1808.9594,18.493333)" />
    <path
       id="path128"
       d="m 153.2458,-9.24895 27.2283,-10.79269"
       style="fill:none;stroke:#ffffff;stroke-width:0.3985;stroke-linecap:butt;stroke-linejoin:miter;stroke-miterlimit:10;stroke-dasharray:none;stroke-opacity:1"
       transform="matrix(1.3333333,0,0,-1.3333333,1667.5427,18.493333)" />
    <path
       id="path129"
       d="M -1.19551,1.59401 C -1.09587,0.99626 0,0.09961 0.29886,0 0,-0.09961 -1.09587,-0.99626 -1.19551,-1.59401"
       style="fill:none;stroke:#ffffff;stroke-width:0.31879;stroke-linecap:round;stroke-linejoin:round;stroke-miterlimit:10;stroke-dasharray:none;stroke-opacity:1"
       transform="matrix(1.2394667,0.49126667,0.49126667,-1.2394667,1908.1748,45.21552)" />
    <path
       id="path130"
       d="M 15.93134,-53.98003 H 32.48131"
       style="fill:none;stroke:#ffffff;stroke-width:0.3985;stroke-linecap:butt;stroke-linejoin:miter;stroke-miterlimit:10;stroke-dasharray:none;stroke-opacity:1"
       transform="matrix(1.3333333,0,0,-1.3333333,1667.5427,18.493333)" />
    <path
       id="path131"
       d="M -1.19551,1.59401 C -1.09587,0.99626 0,0.09961 0.29886,0 0,-0.09961 -1.09587,-0.99626 -1.19551,-1.59401"
       style="fill:none;stroke:#ffffff;stroke-width:0.31879;stroke-linecap:round;stroke-linejoin:round;stroke-miterlimit:10;stroke-dasharray:none;stroke-opacity:1"
       transform="matrix(1.3333333,0,0,-1.3333333,1710.8511,90.466707)" />
    <path
       id="path132"
       d="m 91.00359,-53.98003 h 16.54997"
       style="fill:none;stroke:#ffffff;stroke-width:0.3985;stroke-linecap:butt;stroke-linejoin:miter;stroke-miterlimit:10;stroke-dasharray:none;stroke-opacity:1"
       transform="matrix(1.3333333,0,0,-1.3333333,1667.5427,18.493333)" />
    <path
       id="path133"
       d="M -1.19551,1.59401 C -1.09587,0.99626 0,0.09961 0.29886,0 0,-0.09961 -1.09587,-0.99626 -1.19551,-1.59401"
       style="fill:none;stroke:#ffffff;stroke-width:0.31879;stroke-linecap:round;stroke-linejoin:round;stroke-miterlimit:10;stroke-dasharray:none;stroke-opacity:1"
       transform="matrix(1.3333333,0,0,-1.3333333,1810.9474,90.466707)" />
    <path
       id="path134"
       d="m 154.73686,-44.87152 25.44171,9.92265"
       style="fill:none;stroke:#ffffff;stroke-width:0.3985;stroke-linecap:butt;stroke-linejoin:miter;stroke-miterlimit:10;stroke-dasharray:none;stroke-opacity:1"
       transform="matrix(1.3333333,0,0,-1.3333333,1667.5427,18.493333)" />
    <path
       id="path135"
       d="M -1.19551,1.59401 C -1.09587,0.99626 0,0.09961 0.29886,0 0,-0.09961 -1.09587,-0.99626 -1.19551,-1.59401"
       style="fill:none;stroke:#ffffff;stroke-width:0.31879;stroke-linecap:round;stroke-linejoin:round;stroke-miterlimit:10;stroke-dasharray:none;stroke-opacity:1"
       transform="matrix(1.2421467,-0.48444,-0.48444,-1.2421467,1907.7808,65.09184)" />
    <path
       id="path136"
       d="m 1.9088359,-0.528125 c 0,-0.29296875 -0.234375,-0.5273437 -0.5273437,-0.5273437 -0.28125,0 -0.52734376,0.23437495 -0.52734376,0.5273437 0,0.29296875 0.24609376,0.52734375 0.52734376,0.52734375 0.2929687,0 0.5273437,-0.234375 0.5273437,-0.52734375 z m 0,3.9873047 c 0,-0.2929688 -0.234375,-0.5273438 -0.5273437,-0.5273438 -0.28125,0 -0.52734376,0.234375 -0.52734376,0.5273438 0,0.2929687 0.24609376,0.5273437 0.52734376,0.5273437 0.2929687,0 0.5273437,-0.234375 0.5273437,-0.5273437 z m 0,3.984375 c 0,-0.2929688 -0.234375,-0.5273438 -0.5273437,-0.5273438 -0.28125,0 -0.52734376,0.234375 -0.52734376,0.5273438 0,0.2929687 0.24609376,0.5273437 0.52734376,0.5273437 0.2929687,0 0.5273437,-0.234375 0.5273437,-0.5273437 z m 0,0"
       style="fill:#ffffff;fill-opacity:1;fill-rule:nonzero;stroke:none"
       aria-label=".&#10;.&#10;."
       transform="matrix(1.3333333,0,0,1.3333333,1665.6973,53.766667)" />
    <path
       id="path137"
       d="m 149.06145,12.7575 h -38.35631 c -2.20093,0 -3.98511,-1.78416 -3.98511,-3.9851 V -8.7724 c 0,-2.20094 1.78418,-3.9851 3.98511,-3.9851 h 38.35631 c 2.20094,0 3.9851,1.78416 3.9851,3.9851 V 8.7724 c 0,2.20094 -1.78416,3.9851 -3.9851,3.9851 z"
       style="fill:#4c4c4c;fill-opacity:1;fill-rule:nonzero;stroke:#ffffff;stroke-width:0.3985;stroke-linecap:butt;stroke-linejoin:miter;stroke-miterlimit:10;stroke-dasharray:none;stroke-opacity:1"
       transform="matrix(1.3333333,0,0,-1.3333333,1678.9813,29.932013)" />
    <path
       id="path138"
       d="m 149.06145,12.7575 h -38.35631 c -2.20093,0 -3.98511,-1.78416 -3.98511,-3.9851 V -8.7724 c 0,-2.20094 1.78418,-3.9851 3.98511,-3.9851 h 38.35631 c 2.20094,0 3.9851,1.78416 3.9851,3.9851 V 8.7724 c 0,2.20094 -1.78416,3.9851 -3.9851,3.9851 z"
       style="fill:#4c4c4c;fill-opacity:1;fill-rule:nonzero;stroke:#ffffff;stroke-width:0.3985;stroke-linecap:butt;stroke-linejoin:miter;stroke-miterlimit:10;stroke-dasharray:none;stroke-opacity:1"
       transform="matrix(1.3333333,0,0,-1.3333333,1673.262,24.212667)" />
    <path
       id="path139"
       d="m 149.06145,12.7575 h -38.35631 c -2.20093,0 -3.98511,-1.78416 -3.98511,-3.9851 V -8.7724 c 0,-2.20094 1.78418,-3.9851 3.98511,-3.9851 h 38.35631 c 2.20094,0 3.9851,1.78416 3.9851,3.9851 V 8.7724 c 0,2.20094 -1.78416,3.9851 -3.9851,3.9851 z"
       style="fill:#4c4c4c;fill-opacity:1;fill-rule:nonzero;stroke:#ffffff;stroke-width:0.3985;stroke-linecap:butt;stroke-linejoin:miter;stroke-miterlimit:10;stroke-dasharray:none;stroke-opacity:1"
       transform="matrix(1.3333333,0,0,-1.3333333,1667.5427,18.493333)" />
    <path
       id="path140"
       d="M 3.4815234,-3.8685781 2.2041797,-4.1732656 c -0.6210938,-0.1523438 -1.0078125,-0.6914063 -1.0078125,-1.265625 0,-0.703125 0.5390625,-1.3007813 1.3125,-1.3007813 1.6640625,0 1.8867187,1.6289063 1.9453125,2.0742188 0.011719,0.058594 0.011719,0.1171875 0.1171875,0.1171875 0.1289062,0 0.1289062,-0.046875 0.1289062,-0.234375 v -2.0039063 c 0,-0.1640625 0,-0.234375 -0.1054687,-0.234375 -0.070312,0 -0.082031,0.011719 -0.1523438,0.1289063 l -0.3515625,0.5625 c -0.2929687,-0.28125 -0.703125,-0.6914063 -1.59375,-0.6914063 -1.1015625,0 -1.93359371,0.8789063 -1.93359371,1.9335938 0,0.8203125 0.52734371,1.546875 1.30078121,1.8164062 0.1054688,0.046875 0.6210938,0.1640625 1.3125,0.328125 0.2695313,0.070312 0.5742188,0.140625 0.84375,0.515625 0.2109375,0.2578125 0.3164063,0.5859375 0.3164063,0.9140625 0,0.70312503 -0.5039063,1.41796878 -1.3359375,1.41796878 -0.2929688,0 -1.0429688,-0.046875 -1.5703125,-0.5390625 C 0.84480469,-1.1615469 0.82136719,-1.8060781 0.80964844,-2.1576406 c -0.0117188,-0.1054688 -0.09375,-0.1054688 -0.1171875,-0.1054688 -0.12890625,0 -0.12890625,0.070312 -0.12890625,0.2460938 v 1.99218748 c 0,0.17578125 0,0.24609375 0.10546875,0.24609375 0.0703125,0 0.0820313,-0.0234375 0.15234375,-0.12890625 0,-0.01171875 0.0234375,-0.046875 0.35156251,-0.57421875 0.3164062,0.33984375 0.9492187,0.703125 1.8398437,0.703125 1.1601563,0 1.9570313,-0.984375 1.9570313,-2.07421873 0,-0.9960938 -0.65625,-1.8164063 -1.4882813,-2.015625 z m 3.8115235,-0.5390625 -1.3945313,0.1171875 v 0.3046875 c 0.65625,0 0.7382813,0.058594 0.7382813,0.5507812 v 2.67187503 c 0,0.45703125 -0.1054688,0.45703125 -0.7734375,0.45703125 v 0.3046875 c 0.3164062,-0.01171875 0.8554687,-0.03515625 1.1015625,-0.03515625 0.3398437,0 0.6914062,0.0234375 1.03125,0.03515625 v -0.3046875 c -0.65625,0 -0.703125,-0.0585938 -0.703125,-0.4453125 z m 0.046875,-1.734375 c 0,-0.3164063 -0.2460938,-0.5273438 -0.5273438,-0.5273438 -0.3164062,0 -0.5273437,0.2695313 -0.5273437,0.5273438 0,0.2695312 0.2109375,0.5273437 0.5273437,0.5273437 0.28125,0 0.5273438,-0.1992187 0.5273438,-0.5273437 z m 3.1787111,4.4296875 c -0.8671877,0 -0.8671877,-0.9960938 -0.8671877,-1.2304688 0,-0.2695312 0.011719,-0.5859375 0.1523438,-0.8320312 0.082031,-0.1171875 0.3164059,-0.3984375 0.7148439,-0.3984375 0.867187,0 0.867187,0.9960937 0.867187,1.21875 0,0.2695312 -0.01172,0.5976562 -0.164062,0.84375 -0.08203,0.1171875 -0.304688,0.3984375 -0.703125,0.3984375 z m -1.1601564,0.3867187 c 0,-0.035156 0,-0.2695312 0.1757812,-0.46875 0.3867188,0.28125 0.7968752,0.3046875 0.9843752,0.3046875 0.925781,0 1.605469,-0.6796875 1.605469,-1.453125 0,-0.3632812 -0.152344,-0.7382812 -0.398438,-0.9609375 0.351563,-0.3398437 0.714844,-0.3867187 0.890625,-0.3867187 0.02344,0 0.07031,0 0.105469,0 -0.117188,0.046875 -0.164063,0.1523437 -0.164063,0.2695312 0,0.1757813 0.128907,0.2929688 0.292969,0.2929688 0.09375,0 0.28125,-0.070312 0.28125,-0.2929688 0,-0.1757812 -0.117187,-0.4921875 -0.503906,-0.4921875 -0.199219,0 -0.632813,0.058594 -1.054688,0.46875 -0.421875,-0.328125 -0.84375,-0.3632812 -1.054687,-0.3632812 -0.9257814,0 -1.6171877,0.6914062 -1.6171877,1.453125 0,0.4453125 0.2226563,0.8203125 0.46875,1.03125 -0.1289062,0.1523437 -0.3046875,0.4804687 -0.3046875,0.8203125 0,0.31640623 0.1289063,0.69140623 0.4335938,0.89062498 -0.5976563,0.17578125 -0.9140625,0.59765625 -0.9140625,0.99609375 0,0.71484377 0.984375,1.26562497 2.2031249,1.26562497 1.171875,0 2.203125,-0.5039062 2.203125,-1.28906247 0,-0.33984375 -0.140625,-0.85546875 -0.644531,-1.125 -0.527344,-0.28125 -1.101563,-0.28125 -1.710938,-0.28125 -0.246093,0 -0.6796872,0 -0.7499997,-0.0117188 C 9.5694141,-0.70451562 9.3584766,-1.0092031 9.3584766,-1.3256094 Z m 1.4414064,3.1523438 c -1.0078127,0 -1.6992189,-0.515625 -1.6992189,-1.04296877 0,-0.45703125 0.375,-0.8203125 0.8203125,-0.85546875 h 0.5859374 c 0.855469,0 1.96875,0 1.96875,0.85546875 0,0.53906247 -0.703125,1.04296877 -1.675781,1.04296877 z m 3.585937,-5.25 v 2.66015623 c 0,0.45703125 -0.117187,0.45703125 -0.785156,0.45703125 v 0.3046875 c 0.351563,-0.01171875 0.855469,-0.03515625 1.125,-0.03515625 0.257813,0 0.785156,0.0234375 1.113281,0.03515625 v -0.3046875 c -0.65625,0 -0.773437,0 -0.773437,-0.45703125 V -2.5912344 c 0,-1.03125 0.714844,-1.59375 1.347656,-1.59375 0.621094,0 0.738281,0.5390625 0.738281,1.1015625 v 2.32031253 c 0,0.45703125 -0.117187,0.45703125 -0.773437,0.45703125 v 0.3046875 c 0.339844,-0.01171875 0.855469,-0.03515625 1.125,-0.03515625 0.257812,0 0.773437,0.0234375 1.113281,0.03515625 v -0.3046875 c -0.515625,0 -0.773437,0 -0.785156,-0.3046875 V -2.5092031 c 0,-0.8554688 0,-1.171875 -0.304688,-1.5234375 -0.140625,-0.1757813 -0.46875,-0.375 -1.042968,-0.375 -0.726563,0 -1.195313,0.4335937 -1.476563,1.0546875 v -1.0546875 l -1.40625,0.1171875 v 0.3046875 c 0.703125,0 0.785156,0.070312 0.785156,0.5625 z m 7.749024,2.66015623 c 0.03516,0.3984375 0.304687,0.8203125 0.773437,0.8203125 0.210938,0 0.820313,-0.140625 0.820313,-0.94921875 V -1.4427969 H 23.4825 v 0.55078128 c 0,0.5859375 -0.246094,0.64453125 -0.363281,0.64453125 -0.328125,0 -0.363281,-0.45703125 -0.363281,-0.50390625 V -2.7435781 c 0,-0.4101563 0,-0.8085938 -0.363282,-1.171875 -0.386718,-0.3867188 -0.878906,-0.5507813 -1.359375,-0.5507813 -0.820312,0 -1.511718,0.46875 -1.511718,1.125 0,0.3046875 0.199218,0.46875 0.457031,0.46875 0.28125,0 0.46875,-0.1992187 0.46875,-0.4570312 0,-0.1171875 -0.05859,-0.4453125 -0.515625,-0.4570313 0.269531,-0.3515625 0.761719,-0.4570312 1.078125,-0.4570312 0.492187,0 1.054687,0.3867187 1.054687,1.2773437 v 0.3632813 c -0.503906,0.035156 -1.207031,0.058594 -1.828125,0.3632812 -0.75,0.3398438 -0.996093,0.8554688 -0.996093,1.28906253 0,0.80859375 0.960937,1.0546875 1.59375,1.0546875 0.65625,0 1.113281,-0.3984375 1.300781,-0.8671875 z m -0.07031,-1.62890623 v 0.9960937 c 0,0.94921878 -0.714843,1.28906253 -1.160156,1.28906253 -0.492187,0 -0.902344,-0.3515625 -0.902344,-0.85546875 0,-0.53906248 0.421875,-1.37109378 2.0625,-1.42968748 z m 3.495117,-4.5234375 -1.429687,0.1054687 v 0.3164063 c 0.703125,0 0.773437,0.070312 0.773437,0.5507812 v 5.17968753 c 0,0.45703125 -0.105468,0.45703125 -0.773437,0.45703125 v 0.3046875 c 0.328125,-0.01171875 0.855469,-0.03515625 1.101562,-0.03515625 0.257813,0 0.738282,0.0234375 1.113282,0.03515625 v -0.3046875 c -0.667969,0 -0.785157,0 -0.785157,-0.45703125 z M -2.0321484,7.6656016 V 6.5054453 c 0,-0.8789062 0.4804687,-1.359375 0.9140625,-1.359375 0.035156,0 0.17578121,0 0.32812496,0.070312 -0.1171875,0.046875 -0.29296876,0.1757813 -0.29296876,0.421875 0,0.234375 0.15234376,0.4335938 0.42187501,0.4335938 0.29296875,0 0.43359375,-0.1992188 0.43359375,-0.4453125 0,-0.3632813 -0.36328125,-0.6914063 -0.89062496,-0.6914063 -0.703125,0 -1.546875,0.5273438 -1.546875,1.5820313 v 1.1484375 h -0.7851563 v 0.3046875 h 0.7851563 v 3.2226554 c 0,0.457032 -0.1054688,0.457032 -0.7734375,0.457032 v 0.304687 c 0.3867187,-0.01172 0.8554687,-0.03516 1.1367187,-0.03516 0.3984375,0 0.8671875,0 1.265625,0.03516 v -0.304687 h -0.2109375 c -0.7382812,0 -0.7617187,-0.117188 -0.7617187,-0.46875 V 7.9702891 h 1.13671871 V 7.6656016 Z m 2.41113278,1.78125 c 0.0585938,-1.4882813 0.90234372,-1.734375 1.24218752,-1.734375 1.0195312,0 1.125,1.3476562 1.125,1.734375 z M 0.36726563,9.6577891 H 3.1563281 c 0.2109375,0 0.2460938,0 0.2460938,-0.2109375 0,-0.984375 -0.5390625,-1.9570313 -1.78125,-1.9570313 -1.16015627,0 -2.07421877,1.03125 -2.07421877,2.2734375 0,1.3359372 1.04296875,2.2968752 2.19140627,2.2968752 1.21875,0 1.6640625,-1.101563 1.6640625,-1.289063 0,-0.105468 -0.082031,-0.117187 -0.1289063,-0.117187 -0.09375,0 -0.1171875,0.05859 -0.1289062,0.140625 -0.3515625,1.019531 -1.2539063,1.019531 -1.3476563,1.019531 -0.5039062,0 -0.90234372,-0.292969 -1.12499997,-0.667969 -0.3046875,-0.480468 -0.3046875,-1.136718 -0.3046875,-1.4882809 z M 7.0117969,11.192945 c 0.035156,0.398438 0.3046875,0.820313 0.7734375,0.820313 0.2109375,0 0.8203125,-0.140625 0.8203125,-0.949219 V 10.513258 H 8.3594531 v 0.550781 c 0,0.585938 -0.2460937,0.644531 -0.3632812,0.644531 -0.328125,0 -0.3632813,-0.457031 -0.3632813,-0.503906 V 9.2124766 c 0,-0.4101563 0,-0.8085938 -0.3632812,-1.171875 C 6.8828906,7.6538828 6.3907031,7.4898203 5.9102344,7.4898203 c -0.8203125,0 -1.5117188,0.46875 -1.5117188,1.125 0,0.3046875 0.1992188,0.46875 0.4570313,0.46875 0.28125,0 0.46875,-0.1992187 0.46875,-0.4570312 0,-0.1171875 -0.058594,-0.4453125 -0.515625,-0.4570313 0.2695312,-0.3515625 0.7617187,-0.4570312 1.078125,-0.4570312 0.4921875,0 1.0546875,0.3867187 1.0546875,1.2773437 v 0.3632813 c -0.5039063,0.035156 -1.2070313,0.058594 -1.828125,0.3632812 -0.75,0.3398442 -0.9960938,0.8554692 -0.9960938,1.2890622 0,0.808594 0.9609375,1.054688 1.59375,1.054688 0.65625,0 1.1132813,-0.398438 1.3007813,-0.867188 z M 6.9414844,9.5640391 v 0.9960939 c 0,0.949219 -0.7148438,1.289062 -1.1601563,1.289062 -0.4921875,0 -0.9023437,-0.351562 -0.9023437,-0.855468 0,-0.539063 0.421875,-1.3710942 2.0625,-1.4296879 z m 3.4570316,-1.59375 h 1.429687 V 7.6656016 H 10.398516 V 5.8257578 h -0.246094 c -0.01172,0.8203125 -0.3164064,1.8867188 -1.2890626,1.921875 v 0.2226563 h 0.84375 v 2.7539059 c 0,1.21875 0.9257816,1.335938 1.2890626,1.335938 0.703125,0 0.984375,-0.703125 0.984375,-1.335938 v -0.574218 h -0.246094 v 0.550781 c 0,0.738281 -0.304687,1.113281 -0.667969,1.113281 -0.667968,0 -0.667968,-0.902344 -0.667968,-1.078125 z m 6.041015,3.1992189 v 0.890625 l 1.441407,-0.105469 v -0.304687 c -0.703125,0 -0.785157,-0.07031 -0.785157,-0.5625 V 7.5484141 l -1.453125,0.1171875 v 0.3046875 c 0.691407,0 0.773438,0.070313 0.773438,0.5625 V 10.30232 c 0,0.867188 -0.480469,1.546875 -1.207031,1.546875 -0.832032,0 -0.878907,-0.46875 -0.878907,-0.996093 V 7.5484141 l -1.464843,0.1171875 v 0.3046875 c 0.785156,0 0.785156,0.035156 0.785156,0.9140625 v 1.5000004 c 0,0.773437 0,1.675781 1.511719,1.675781 0.550781,0 0.996093,-0.269531 1.277343,-0.890625 z M 19.750078,8.6499766 V 7.5484141 l -1.382812,0.1171875 v 0.3046875 c 0.691406,0 0.773437,0.070313 0.773437,0.5625 v 2.6601559 c 0,0.457032 -0.105469,0.457032 -0.773437,0.457032 v 0.304687 c 0.386718,-0.01172 0.855468,-0.03516 1.136718,-0.03516 0.398438,0 0.867188,0 1.265625,0.03516 v -0.304687 h -0.210937 c -0.738281,0 -0.761719,-0.117188 -0.761719,-0.46875 V 9.6460703 c 0,-0.984375 0.421875,-1.875 1.183594,-1.875 0.05859,0 0.08203,0 0.105469,0.011719 -0.03516,0.011719 -0.234375,0.1289062 -0.234375,0.3867187 0,0.28125 0.210937,0.4335938 0.433593,0.4335938 0.175782,0 0.421875,-0.1289063 0.421875,-0.4453125 0,-0.3164063 -0.304687,-0.609375 -0.726562,-0.609375 -0.738281,0 -1.089844,0.6679687 -1.230469,1.1015623 z m 3.351563,0.796875 c 0.05859,-1.4882813 0.902343,-1.734375 1.242187,-1.734375 1.019531,0 1.125,1.3476562 1.125,1.734375 z m -0.01172,0.2109375 h 2.789062 c 0.210938,0 0.246094,0 0.246094,-0.2109375 0,-0.984375 -0.539062,-1.9570313 -1.78125,-1.9570313 -1.160156,0 -2.074219,1.03125 -2.074219,2.2734375 0,1.3359372 1.042969,2.2968752 2.191407,2.2968752 1.21875,0 1.664062,-1.101563 1.664062,-1.289063 0,-0.105468 -0.08203,-0.117187 -0.128906,-0.117187 -0.09375,0 -0.117188,0.05859 -0.128906,0.140625 -0.351563,1.019531 -1.253907,1.019531 -1.347657,1.019531 -0.503906,0 -0.902343,-0.292969 -1.125,-0.667969 -0.304687,-0.480468 -0.304687,-1.136718 -0.304687,-1.4882809 z m 5.399414,0.3632809 c 0.222656,0.03516 1.03125,0.199219 1.03125,0.914063 0,0.515625 -0.351563,0.914062 -1.125,0.914062 -0.832031,0 -1.195313,-0.574218 -1.382813,-1.417968 -0.03516,-0.128907 -0.03516,-0.175782 -0.140625,-0.175782 -0.128906,0 -0.128906,0.07031 -0.128906,0.257813 v 1.3125 c 0,0.164062 0,0.234375 0.105469,0.234375 0.05859,0 0.07031,0 0.257812,-0.199219 0.01172,-0.01172 0.01172,-0.03516 0.199219,-0.222656 0.433594,0.421875 0.878906,0.421875 1.089844,0.421875 1.148437,0 1.605469,-0.667969 1.605469,-1.382813 0,-0.527343 -0.292969,-0.8203122 -0.421875,-0.9492184 C 29.251054,9.4116953 28.864335,9.3296641 28.44246,9.2593516 27.891679,9.1421641 27.22371,9.0132578 27.22371,8.4390391 c 0,-0.3515625 0.257812,-0.7617188 1.113281,-0.7617188 1.101563,0 1.148438,0.9023438 1.171875,1.2070313 0,0.09375 0.09375,0.09375 0.117188,0.09375 0.128906,0 0.128906,-0.046875 0.128906,-0.2460938 V 7.7359141 c 0,-0.1757813 0,-0.2460938 -0.117188,-0.2460938 -0.04687,0 -0.07031,0 -0.199218,0.1171875 -0.02344,0.046875 -0.128907,0.1289063 -0.164063,0.1640625 -0.375,-0.28125 -0.785156,-0.28125 -0.9375,-0.28125 -1.21875,0 -1.59375,0.6679688 -1.59375,1.2304688 0,0.3398437 0.164063,0.6210937 0.433594,0.84375 0.316406,0.2578125 0.597656,0.3164062 1.3125,0.4570309 z m 0,0"
       style="fill:#ffffff;fill-opacity:1;fill-rule:nonzero;stroke:none"
       aria-label="Signal&#10;features"
       transform="matrix(1.3333333,0,0,1.3333333,1823.0067,15.134667)" />
  </g>
</svg>
