<?xml version="1.0" encoding="UTF-8" standalone="no"?>
<!-- Created with Inkscape (http://www.inkscape.org/) -->

<svg
   version="1.1"
   id="svg1"
   width="412.04266"
   height="62.729332"
   viewBox="0 0 412.04266 62.729332"
   xmlns="http://www.w3.org/2000/svg"
   xmlns:svg="http://www.w3.org/2000/svg">
  <defs
     id="defs1">
    <clipPath
       clipPathUnits="userSpaceOnUse"
       id="clipPath16">
      <path
         d="M 0,0 H 298.87544 V 40.20679 H 0 Z"
         transform="translate(-2.5000001e-6)"
         id="path16" />
    </clipPath>
    <clipPath
       clipPathUnits="userSpaceOnUse"
       id="clipPath23">
      <path
         d="M 0,0 H 298.87544 V 40.20679 H 0 Z"
         transform="matrix(1,0,0,-1,-103.67101,31.966001)"
         id="path23" />
    </clipPath>
    <clipPath
       clipPathUnits="userSpaceOnUse"
       id="clipPath31">
      <path
         d="M 0,0 H 298.87544 V 40.20679 H 0 Z"
         transform="matrix(1,0,0,-1,-36.655001,15.785)"
         id="path31" />
    </clipPath>
  </defs>
  <g
     id="g10"
     style="display:inline"
     transform="translate(-432.04267)">
    <path
       id="path15"
       d="m 38.03868,18.2936 c 0,0 0.31409,0.0099 0.43472,0.01403 0.12062,0.0041 0.31409,0.01117 0.43471,0.01567 0.12064,0.0045 0.31412,0.01209 0.43474,0.01677 0.12062,0.0047 0.31409,0.01244 0.43472,0.01709 0.12063,0.0046 0.3141,0.01215 0.43473,0.01645 0.12062,0.0043 0.31408,0.01102 0.43472,0.01463 0.12062,0.0036 0.3141,0.009 0.43472,0.01153 0.12064,0.0026 0.31409,0.0059 0.43472,0.007 0.12062,0.0011 0.31409,0.0017 0.43471,9.6e-4 0.12064,-7.6e-4 0.3141,-0.0035 0.43474,-0.0065 0.12062,-0.003 0.31409,-0.0097 0.43471,-0.01524 0.12063,-0.0056 0.31408,-0.01666 0.43472,-0.02507 0.12062,-0.0084 0.3141,-0.02422 0.43472,-0.03557 0.12064,-0.01134 0.31409,-0.03202 0.43473,-0.04627 0.12061,-0.01426 0.3141,-0.03962 0.43472,-0.05659 0.12064,-0.01699 0.31409,-0.04654 0.43472,-0.06583 0.12062,-0.0193 0.3141,-0.05228 0.43473,-0.07324 0.12063,-0.02097 0.31408,-0.05617 0.43472,-0.07796 0.12062,-0.0218 0.3141,-0.05766 0.43472,-0.07922 0.12064,-0.02156 0.3141,-0.05617 0.43472,-0.07622 0.12062,-0.02005 0.31409,-0.05124 0.43473,-0.06834 0.12062,-0.01712 0.3141,-0.04241 0.43472,-0.05507 0.12063,-0.01267 0.31409,-0.02959 0.43473,-0.03621 0.12061,-0.0066 0.31408,-0.01253 0.4347,-0.01164 0.12064,8.8e-4 0.3141,0.0083 0.43474,0.01803 0.12062,0.0098 0.3141,0.03263 0.43472,0.05239 0.12064,0.01974 0.31409,0.05954 0.43472,0.08998 0.12062,0.03045 0.31409,0.08813 0.43471,0.12954 0.12064,0.04142 0.31411,0.11695 0.43474,0.16901 0.12062,0.05208 0.31409,0.14452 0.43471,0.20627 0.12063,0.06175 0.31408,0.16902 0.43472,0.2388 0.12062,0.06978 0.3141,0.1887 0.43472,0.26415 0.12064,0.07542 0.31409,0.20155 0.43472,0.27953 0.12063,0.07799 0.31411,0.20575 0.43473,0.28261 0.12064,0.07686 0.3141,0.19989 0.43472,0.27141 0.12062,0.0715 0.3141,0.18254 0.43474,0.244 0.12062,0.06147 0.31409,0.15227 0.43471,0.19907 0.12062,0.0468 0.3141,0.11079 0.43474,0.13823 0.12062,0.02743 0.31408,0.05582 0.4347,0.05963 0.12064,0.0038 0.31409,-0.0086 0.43473,-0.03215 0.12062,-0.02351 0.3141,-0.08369 0.43472,-0.13737 0.12064,-0.05368 0.31409,-0.16428 0.43472,-0.24953 0.12062,-0.08525 0.31409,-0.24791 0.43471,-0.36492 0.12064,-0.11701 0.3141,-0.33129 0.43474,-0.47841 0.12062,-0.1471 0.3141,-0.40812 0.43472,-0.58187 0.12064,-0.17374 0.31409,-0.47521 0.43472,-0.67037 0.12062,-0.19514 0.31409,-0.52658 0.43471,-0.73622 0.12064,-0.20965 0.3141,-0.55931 0.43474,-0.77481 0.12062,-0.21548 0.31409,-0.56708 0.43471,-0.77838 0.12064,-0.2113 0.31408,-0.54849 0.43472,-0.74458 0.12062,-0.19609 0.3141,-0.49939 0.43472,-0.66881 0.12064,-0.1694 0.3141,-0.42092 0.43473,-0.55223 0.12062,-0.13133 0.3141,-0.31194 0.43473,-0.39437 0.12062,-0.08242 0.31409,-0.17567 0.43471,-0.19981 0.12064,-0.02414 0.3141,-0.01578 0.43474,0.02577 0.12062,0.04155 0.31409,0.16148 0.43471,0.27368 0.12063,0.11219 0.3141,0.35003 0.43474,0.53499 0.12062,0.18495 0.31408,0.54186 0.4347,0.7981 0.12064,0.25624 0.31409,0.72665 0.43473,1.04883 0.12061,0.32217 0.3141,0.89433 0.43472,1.27328 0.12064,0.37897 0.31409,1.03499 0.43472,1.45798 0.12062,0.423 0.31409,1.1396 0.43471,1.59076 0.12064,0.45114 0.3141,1.20048 0.43474,1.66083 0.12062,0.46033 0.31408,1.20851 0.43471,1.65704 0.12063,0.44853 0.3141,1.16112 0.43473,1.57576 0.12062,0.41466 0.31409,1.0543 0.43471,1.41276 0.12064,0.35848 0.31412,0.88964 0.43474,1.1709 0.12062,0.28125 0.31409,0.67128 0.43473,0.85623 0.12061,0.18496 0.31408,0.40422 0.4347,0.47683 0.12064,0.0726 0.3141,0.09747 0.43474,0.04652 0.12062,-0.05096 0.31409,-0.23329 0.43471,-0.41383 0.12063,-0.18055 0.3141,-0.57672 0.43473,-0.88748 0.12062,-0.31077 0.31409,-0.917 0.43471,-1.35232 0.12064,-0.43533 0.31409,-1.23783 0.43472,-1.78528 0.12063,-0.54743 0.31411,-1.51927 0.43473,-2.16032 0.12063,-0.64105 0.3141,-1.74902 0.43474,-2.45994 0.12062,-0.71093 0.31408,-1.91158 0.4347,-2.6639 0.12064,-0.75232 0.31409,-1.99663 0.43472,-2.75833 0.12063,-0.76169 0.31411,-1.99445 0.43473,-2.73146 0.12064,-0.737 0.31409,-1.90266 0.43472,-2.5804 0.12062,-0.67773 0.31409,-1.71913 0.43471,-2.30423 0.12064,-0.58511 0.3141,-1.4507 0.43474,-1.9129 0.12062,-0.46221 0.31408,-1.10489 0.4347,-1.41842 0.12064,-0.3135 0.31411,-0.69636 0.43473,-0.84115 0.12062,-0.1448 0.3141,-0.23905 0.43474,-0.2025 0.12062,0.03655 0.3141,0.24362 0.43472,0.46591 0.12064,0.22229 0.31409,0.73203 0.43472,1.13627 0.12062,0.40423 0.31409,1.20394 0.43471,1.77728 0.12064,0.57335 0.3141,1.63357 0.43474,2.35507 0.12062,0.72148 0.31409,2.00331 0.43471,2.84497 0.12063,0.84166 0.3141,2.29398 0.43473,3.22121 0.12062,0.92723 0.31409,2.48834 0.43471,3.46165 0.12064,0.97333 0.31409,2.57602 0.43472,3.55345 0.12063,0.97742 0.31411,2.55254 0.43473,3.49117 0.12064,0.93863 0.31408,2.41603 0.43472,3.27392 0.12062,0.8579 0.3141,2.17083 0.43472,2.90925 0.12064,0.7384 0.31409,1.82704 0.43473,2.4127 0.12062,0.58565 0.3141,1.40228 0.43472,1.80836 0.12063,0.40607 0.3141,0.91098 0.43472,1.11835 0.12063,0.20737 0.31409,0.37607 0.43473,0.37634 0.12062,2.8e-4 0.3141,-0.16754 0.43472,-0.37434 0.12063,-0.20679 0.31408,-0.7106 0.43472,-1.11615 0.12062,-0.40556 0.31409,-1.22163 0.43471,-1.80693 0.12063,-0.58528 0.3141,-1.67342 0.43474,-2.41145 0.12061,-0.73804 0.31408,-2.05024 0.43471,-2.90784 0.12063,-0.85761 0.3141,-2.33478 0.43473,-3.27325 0.12062,-0.93848 0.31409,-2.51339 0.43471,-3.49069 0.12064,-0.97733 0.31409,-2.57984 0.43472,-3.55318 0.12062,-0.97336 0.3141,-2.53472 0.43473,-3.46212 0.12063,-0.9274 0.31408,-2.37994 0.43472,-3.222 0.12062,-0.84205 0.31409,-2.125 0.43471,-2.84701 0.12063,-0.72202 0.3141,-1.78322 0.43473,-2.35683 0.12063,-0.57359 0.31409,-1.3728 0.43471,-1.77728 0.12064,-0.40448 0.3141,-0.91521 0.43472,-1.13797 0.12062,-0.22275 0.31411,-0.43053 0.43473,-0.46756 0.12063,-0.03703 0.3141,0.05652 0.43472,0.20058 0.12062,0.14404 0.3141,0.52484 0.43474,0.83769 0.12062,0.31286 0.31409,0.95535 0.43471,1.41723 0.12063,0.4619 0.31408,1.32685 0.43472,1.91182 0.12062,0.58498 0.3141,1.6268 0.43472,2.30436 0.12064,0.67755 0.31409,1.8422 0.43473,2.57905 0.12062,0.73686 0.31408,1.96999 0.4347,2.73171 0.12064,0.76173 0.3141,2.00599 0.43474,2.75837 0.12062,0.75237 0.31409,1.95314 0.43471,2.66428 0.12063,0.71114 0.31409,1.81975 0.43472,2.46107 0.12062,0.64133 0.3141,1.61368 0.43472,2.16126 0.12064,0.54758 0.31409,1.34985 0.43473,1.78531 0.12062,0.43544 0.3141,1.04185 0.43472,1.35315 0.12064,0.31131 0.31409,0.70942 0.43472,0.89055 0.12062,0.18113 0.31409,0.3639 0.43471,0.41497 0.12064,0.05106 0.31412,0.02565 0.43474,-0.04687 0.12062,-0.07253 0.31409,-0.29152 0.43472,-0.47591 0.12062,-0.1844 0.31409,-0.57223 0.43471,-0.85321 0.12064,-0.28099 0.3141,-0.81344 0.43474,-1.17198 0.12062,-0.35855 0.31408,-0.99766 0.43471,-1.41217 0.12063,-0.41449 0.31408,-1.12686 0.43472,-1.57529 0.12062,-0.44842 0.3141,-1.1965 0.43472,-1.6567 0.12064,-0.46021 0.31409,-1.2091 0.43472,-1.66022 0.12062,-0.45114 0.3141,-1.16815 0.43473,-1.59133 0.12063,-0.42315 0.31408,-1.07959 0.43472,-1.45861 0.12062,-0.37905 0.31409,-0.95096 0.43471,-1.27323 0.12064,-0.32225 0.3141,-0.79297 0.43474,-1.04939 0.12062,-0.25641 0.31408,-0.61328 0.4347,-0.79864 0.12064,-0.18537 0.31409,-0.42464 0.43473,-0.53728 0.12062,-0.11266 0.3141,-0.23285 0.43472,-0.27463 0.12063,-0.04178 0.3141,-0.05054 0.43472,-0.02654 0.12063,0.02402 0.31409,0.11702 0.43473,0.19957 0.12062,0.08254 0.3141,0.26406 0.43472,0.39548 0.12062,0.13141 0.31408,0.38246 0.43472,0.55177 0.12062,0.1693 0.3141,0.47248 0.43472,0.66851 0.12064,0.19602 0.31409,0.53309 0.43473,0.74435 0.12061,0.21124 0.31408,0.56284 0.43471,0.7782 0.12063,0.21537 0.3141,0.56444 0.43473,0.77407 0.12062,0.20963 0.31409,0.54165 0.43471,0.7369 0.12064,0.19525 0.31409,0.49663 0.43472,0.67041 0.12062,0.17377 0.3141,0.43491 0.43473,0.58206 0.12063,0.14716 0.31408,0.36154 0.43472,0.47861 0.12062,0.11707 0.31409,0.27986 0.43471,0.36519 0.12063,0.08534 0.3141,0.19604 0.43473,0.2498 0.12063,0.05376 0.31409,0.11409 0.43471,0.13768 0.12064,0.02358 0.3141,0.0361 0.43474,0.03236 0.12062,-0.0037 0.31409,-0.03201 0.43471,-0.05938 0.12063,-0.02738 0.3141,-0.09133 0.43472,-0.13802 0.12062,-0.04669 0.3141,-0.13714 0.43474,-0.19851 0.12062,-0.06138 0.31409,-0.17243 0.43471,-0.24392 0.12063,-0.07147 0.31408,-0.1945 0.43472,-0.27134 0.12062,-0.07684 0.3141,-0.20461 0.43472,-0.28261 0.12064,-0.07801 0.31409,-0.20415 0.43473,-0.27959 0.12062,-0.07542 0.31408,-0.19437 0.4347,-0.26416 0.12064,-0.06979 0.31411,-0.17715 0.43474,-0.23892 0.12062,-0.06177 0.31409,-0.15426 0.43471,-0.20633 0.12063,-0.05208 0.3141,-0.12769 0.43474,-0.16914 0.12062,-0.04146 0.31408,-0.09917 0.4347,-0.12966 0.12064,-0.03047 0.31409,-0.0703 0.43473,-0.09009 0.12062,-0.01977 0.3141,-0.04269 0.43472,-0.05249 0.12064,-0.0098 0.31409,-0.01722 0.43472,-0.01812 0.12062,-9e-4 0.31409,0.005 0.43471,0.01157 0.12064,0.0066 0.31412,0.02349 0.43474,0.03613 0.12062,0.01263 0.31409,0.03793 0.43472,0.05503 0.12062,0.01709 0.31409,0.04828 0.43471,0.06834 0.12064,0.02004 0.3141,0.05462 0.43474,0.07618 0.12062,0.02156 0.31408,0.05742 0.43471,0.07922 0.12063,0.0218 0.3141,0.057 0.43473,0.07798 0.12063,0.02098 0.31409,0.05395 0.43471,0.07324 0.12064,0.01928 0.31409,0.04887 0.43472,0.06587 0.12062,0.01698 0.3141,0.04234 0.43473,0.05663 0.12063,0.01426 0.31408,0.03494 0.43472,0.04629 0.12062,0.01137 0.31409,0.02719 0.43471,0.0356 0.12064,0.0084 0.3141,0.0195 0.43474,0.0251 0.12062,0.0056 0.31408,0.01227 0.4347,0.01527 0.12064,0.003 0.31409,0.0058 0.43473,0.0065 0.12062,7.6e-4 0.3141,1.5e-4 0.43472,-9.5e-4 0.12064,-0.0011 0.31409,-0.0044 0.43472,-0.0069 0.12063,-0.0025 0.3141,-0.0079 0.43473,-0.01151 0.12063,-0.0036 0.3141,-0.01033 0.43472,-0.01463 0.12062,-0.0043 0.31408,-0.01181 0.43472,-0.01645 0.12062,-0.0047 0.3141,-0.01241 0.43472,-0.01709 0.12064,-0.0047 0.31409,-0.01227 0.43473,-0.01677 0.12061,-0.0045 0.31408,-0.01157 0.43471,-0.01569 0.12063,-0.0041 0.43473,-0.01402 0.43473,-0.01402"
       style="fill:none;stroke:#ff8000;stroke-width:0.3985;stroke-linecap:butt;stroke-linejoin:miter;stroke-miterlimit:10;stroke-dasharray:none;stroke-opacity:1"
       transform="matrix(1.3333333,0,0,-1.3333333,441.16267,53.609333)"
       clip-path="url(#clipPath16)" />
    <g
       id="g16"
       aria-label="z&#10;1&#10;i&#10;(t)"
       transform="matrix(1.3333333,0,0,1.3333333,579.39067,10.988)"
       clip-path="url(#clipPath23)">
      <path
         id="path17"
         d="M 1.3239609,-0.83182031 C 1.8630234,-1.4060391 2.1559922,-1.6521328 2.5075547,-1.9568203 c 0,-0.011719 0.6210937,-0.5390625 0.984375,-0.9023438 0.9375,-0.9257812 1.1601562,-1.40625 1.1601562,-1.4414062 0,-0.1054688 -0.09375,-0.1054688 -0.1054687,-0.1054688 -0.070312,0 -0.1054688,0.023437 -0.1523438,0.1171875 -0.3046875,0.46875 -0.5039062,0.6328125 -0.75,0.6328125 -0.234375,0 -0.3515625,-0.1523437 -0.5039062,-0.3164062 -0.1875,-0.234375 -0.3632813,-0.4335938 -0.6914063,-0.4335938 -0.75,0 -1.2070312,0.9257813 -1.2070312,1.1367188 0,0.046875 0.035156,0.1171875 0.1171875,0.1171875 0.09375,0 0.1171875,-0.058594 0.140625,-0.1171875 0.1875,-0.4570313 0.7617187,-0.46875 0.84375,-0.46875 0.2109375,0 0.3984375,0.070312 0.6210937,0.1523437 0.3984375,0.1523438 0.515625,0.1523438 0.7734375,0.1523438 -0.3632812,0.421875 -1.1953125,1.1367187 -1.3828125,1.3007812 l -0.9023437,0.8320313 c -0.67968751,0.66796874 -1.01953126,1.24218749 -1.01953126,1.31249999 0,0.09375 0.09375,0.09375 0.1171875,0.09375 0.0820313,0 0.09375,-0.01171875 0.15234375,-0.12890625 0.234375,-0.33984375 0.52734371,-0.609375 0.85546871,-0.609375 0.2226563,0 0.328125,0.0820313 0.5742188,0.375 0.1640625,0.2109375 0.3515625,0.36328125 0.6328125,0.36328125 0.984375,0 1.5703125,-1.26562499 1.5703125,-1.53515629 0,-0.046875 -0.046875,-0.09375 -0.1171875,-0.09375 -0.09375,0 -0.1171875,0.058594 -0.140625,0.1289063 -0.234375,0.64453124 -0.8671875,0.83203124 -1.1953125,0.83203124 -0.1992188,0 -0.3867188,-0.0585938 -0.5859375,-0.12890625 -0.3398438,-0.12890625 -0.4921875,-0.1640625 -0.703125,-0.1640625 -0.023437,0 -0.1757813,0 -0.2695313,0.0234375 z m 0,0"
         style="fill:#ff8000;fill-opacity:1;fill-rule:nonzero;stroke:none" />
      <path
         id="path18"
         d="m 7.4030625,-8.0447109 c 0,-0.1875 -0.011719,-0.1992188 -0.2109375,-0.1992188 C 6.7468125,-7.8103359 6.114,-7.7986172 5.83275,-7.7986172 v 0.2460938 c 0.1640625,0 0.6210938,0 1.0078125,-0.1875 v 3.5507812 c 0,0.234375 0,0.328125 -0.6914062,0.328125 H 5.879625 v 0.2460938 c 0.1289063,-0.011719 0.984375,-0.023437 1.2421875,-0.023437 0.2109375,0 1.0898438,0.011719 1.2421875,0.023437 V -3.8611172 H 8.1061875 c -0.703125,0 -0.703125,-0.09375 -0.703125,-0.328125 z m 0,0"
         style="fill:#ff8000;fill-opacity:1;fill-rule:nonzero;stroke:none" />
      <path
         id="path19"
         d="m 6.8932969,-1.7663906 c 0,-0.1054688 -0.082031,-0.2578125 -0.28125,-0.2578125 -0.1875,0 -0.3867188,0.1757812 -0.3867188,0.375 0,0.1171875 0.082031,0.2695312 0.2695313,0.2695312 0.2109375,0 0.3984375,-0.1992187 0.3984375,-0.3867187 z M 5.4636094,1.7726719 c -0.023437,0.09375 -0.058594,0.1757812 -0.058594,0.2929687 0,0.328125 0.28125,0.5976563 0.6679688,0.5976563 0.6914062,0 0.9960937,-0.9609375 0.9960937,-1.0664063 0,-0.09375 -0.082031,-0.09375 -0.1054687,-0.09375 -0.1054688,0 -0.1054688,0.046875 -0.140625,0.1171875 -0.1523438,0.5625 -0.4570313,0.84375 -0.7382813,0.84375 -0.140625,0 -0.1757812,-0.082031 -0.1757812,-0.2460937 0,-0.1523438 0.058594,-0.2929688 0.1171875,-0.4453125 0.070312,-0.1875 0.140625,-0.375 0.2226562,-0.5507813 0.058594,-0.1640625 0.3164063,-0.80859373 0.3398438,-0.89062498 0.023437,-0.0703125 0.046875,-0.15234375 0.046875,-0.22265625 0,-0.328125 -0.28125,-0.5859375 -0.6679688,-0.5859375 -0.6914062,0 -1.0078125,0.94921875 -1.0078125,1.06640625 0,0.0820313 0.09375,0.0820313 0.1171875,0.0820313 0.09375,0 0.1054688,-0.0351563 0.1289063,-0.10546875 0.1757812,-0.59765625 0.4804687,-0.85546875 0.7382812,-0.85546875 0.1171875,0 0.1757813,0.0585938 0.1757813,0.24609375 0,0.1640625 -0.035156,0.26953125 -0.2109375,0.703125 z m 0,0"
         style="fill:#ff8000;fill-opacity:1;fill-rule:nonzero;stroke:none" />
      <path
         id="path20"
         d="m 12.834703,2.3908359 c 0,-0.035156 0,-0.046875 -0.164062,-0.2226562 -1.242188,-1.25390626 -1.570313,-3.12890626 -1.570313,-4.6640625 0,-1.7226563 0.386719,-3.4570313 1.605469,-4.7109375 0.128906,-0.1171875 0.128906,-0.1289063 0.128906,-0.1640625 0,-0.070312 -0.03516,-0.1054688 -0.09375,-0.1054688 -0.105469,0 -0.996094,0.6796875 -1.582031,1.9453125 -0.515625,1.1015625 -0.632813,2.203125 -0.632813,3.0351563 0,0.7851562 0.117188,1.99218749 0.65625,3.11718749 0.597657,1.21875001 1.453125,1.87500001 1.558594,1.87500001 0.05859,0 0.09375,-0.035156 0.09375,-0.1054688 z m 0,0"
         style="fill:#ff8000;fill-opacity:1;fill-rule:nonzero;stroke:none" />
      <path
         id="path21"
         d="m 15.465563,-3.9841641 h 0.9375 c 0.199218,0 0.304687,0 0.304687,-0.1992187 0,-0.1054688 -0.105469,-0.1054688 -0.28125,-0.1054688 h -0.878906 c 0.363281,-1.4179687 0.410156,-1.6171875 0.410156,-1.6757812 0,-0.1757813 -0.117187,-0.2695313 -0.292969,-0.2695313 -0.02344,0 -0.304687,0.011719 -0.398437,0.3515625 l -0.386719,1.59375 h -0.9375 c -0.199219,0 -0.292969,0 -0.292969,0.1875 0,0.1171875 0.07031,0.1171875 0.269532,0.1171875 h 0.878906 c -0.714844,2.8242188 -0.75,3.00000004 -0.75,3.17578129 0,0.5390625 0.375,0.9140625 0.914062,0.9140625 1.007813,0 1.582032,-1.45312499 1.582032,-1.53515629 0,-0.09375 -0.08203,-0.09375 -0.117188,-0.09375 -0.09375,0 -0.105469,0.023437 -0.152344,0.140625 -0.433593,1.03125004 -0.960937,1.27734379 -1.300781,1.27734379 -0.199219,0 -0.304687,-0.12890625 -0.304687,-0.45703125 0,-0.24609375 0.02344,-0.31640625 0.05859,-0.48046874 z m 0,0"
         style="fill:#ff8000;fill-opacity:1;fill-rule:nonzero;stroke:none" />
      <path
         id="path22"
         d="m 19.89525,-2.4958828 c 0,-0.7734375 -0.117187,-1.9804688 -0.65625,-3.1054688 -0.597656,-1.21875 -1.464844,-1.875 -1.558594,-1.875 -0.05859,0 -0.105468,0.046875 -0.105468,0.1054688 0,0.035156 0,0.046875 0.199218,0.234375 0.972657,0.984375 1.535157,2.5664062 1.535157,4.640625 0,1.71093749 -0.363282,3.45703124 -1.59375,4.7226562 -0.140625,0.1171875 -0.140625,0.1289063 -0.140625,0.1640625 0,0.058594 0.04687,0.1054688 0.105468,0.1054688 0.09375,0 0.996094,-0.6796875 1.582032,-1.94531251 0.503906,-1.1015625 0.632812,-2.20312499 0.632812,-3.04687499 z m 0,0"
         style="fill:#ff8000;fill-opacity:1;fill-rule:nonzero;stroke:none" />
    </g>
    <path
       id="path30"
       d="m 1.5811719,-7.1134062 c 0,-0.1757813 0,-0.3632813 -0.1992188,-0.3632813 -0.1992187,0 -0.1992187,0.1875 -0.1992187,0.3632813 v 9.2460937 c 0,0.1757813 0,0.3632813 0.1992187,0.3632813 0.1992188,0 0.1992188,-0.1875 0.1992188,-0.3632813 z m 0,0"
       style="fill:#ffffff;fill-opacity:1;fill-rule:nonzero;stroke:none"
       aria-label="|"
       transform="matrix(1.3333333,0,0,1.3333333,490.036,32.562667)"
       clip-path="url(#clipPath31)" />
  </g>
</svg>
