<?xml version="1.0" encoding="UTF-8" standalone="no"?>
<!-- Created with Inkscape (http://www.inkscape.org/) -->

<svg
   version="1.1"
   id="svg1"
   width="412.04266"
   height="62.729332"
   viewBox="0 0 412.04266 62.729332"
   xmlns="http://www.w3.org/2000/svg"
   xmlns:svg="http://www.w3.org/2000/svg">
  <defs
     id="defs1">
    <clipPath
       clipPathUnits="userSpaceOnUse"
       id="clipPath2">
      <path
         d="M 0,0 H 298.87544 V 40.20679 H 0 Z"
         id="path2" />
    </clipPath>
    <clipPath
       clipPathUnits="userSpaceOnUse"
       id="clipPath4">
      <path
         d="M 0,0 H 298.87544 V 40.20679 H 0 Z"
         id="path4" />
    </clipPath>
    <clipPath
       clipPathUnits="userSpaceOnUse"
       id="clipPath10">
      <path
         d="M 0,0 H 298.87544 V 40.20679 H 0 Z"
         transform="matrix(1,0,0,-1,-11.962,23.095001)"
         id="path10" />
    </clipPath>
  </defs>
  <g
     id="g1">
    <path
       id="path1"
       d="m 27.17049,18.27806 c 0,0 0.49076,3.5e-4 0.67926,4.3e-4 0.18849,7e-5 0.49078,1.7e-4 0.67925,1.7e-4 0.1885,0 0.49078,-1.3e-4 0.67927,-2.8e-4 0.18849,-1.5e-4 0.49078,-5.5e-4 0.67927,-9e-4 0.18849,-3.5e-4 0.49076,-0.0011 0.67925,-0.0017 0.18849,-5.8e-4 0.49078,-0.0018 0.67927,-0.0026 0.1885,-8.2e-4 0.49077,-0.0024 0.67926,-0.0034 0.18848,-0.001 0.49077,-0.0029 0.67926,-0.0041 0.1885,-0.0012 0.49077,-0.0032 0.67926,-0.0044 0.1885,-0.0012 0.49079,-0.0031 0.67928,-0.0041 0.18848,-9.6e-4 0.49075,-0.0024 0.67924,-0.0029 0.1885,-4.9e-4 0.49079,-9.4e-4 0.67928,-6.7e-4 0.18849,2.7e-4 0.49077,0.0013 0.67925,0.0027 0.18849,0.0014 0.49078,0.0044 0.67927,0.0071 0.18849,0.0027 0.49077,0.0082 0.67926,0.01236 0.18849,0.0042 0.49078,0.01218 0.67926,0.01778 0.18849,0.0056 0.49077,0.01592 0.67926,0.02267 0.18849,0.0067 0.49078,0.01868 0.67928,0.02593 0.18848,0.0073 0.49075,0.01957 0.67924,0.0264 0.18849,0.0068 0.49079,0.0177 0.67928,0.02288 0.18849,0.0052 0.49076,0.01234 0.67926,0.01439 0.18847,0.002 0.49077,0.0029 0.67926,3.5e-4 0.18849,-0.0026 0.49077,-0.01048 0.67926,-0.01904 0.18849,-0.0086 0.49078,-0.02728 0.67926,-0.04273 0.18849,-0.01544 0.49077,-0.04614 0.67926,-0.06863 0.18849,-0.02251 0.49078,-0.06487 0.67927,-0.09355 0.18849,-0.02869 0.49077,-0.08048 0.67925,-0.11327 0.18849,-0.03279 0.49078,-0.08961 0.67927,-0.12312 0.1885,-0.0335 0.49077,-0.08878 0.67927,-0.11838 0.18849,-0.02959 0.49078,-0.0748 0.67926,-0.09499 0.18849,-0.02018 0.49076,-0.04565 0.67926,-0.05061 0.18848,-0.005 0.49078,-8.1e-4 0.67927,0.01488 0.18848,0.0157 0.49075,0.05786 0.67925,0.09822 0.18849,0.04036 0.49078,0.12602 0.67927,0.19273 0.18849,0.06671 0.49077,0.19663 0.67926,0.28809 0.18848,0.09144 0.49077,0.2604 0.67926,0.37108 0.18849,0.11067 0.49077,0.30644 0.67926,0.42662 0.18849,0.12019 0.49079,0.32354 0.67926,0.43966 0.18849,0.11614 0.49077,0.30173 0.67926,0.39734 0.18849,0.09563 0.49079,0.23482 0.67928,0.29189 0.18849,0.05707 0.49077,0.11758 0.67924,0.11946 0.18849,0.0019 0.49079,-0.03927 0.67928,-0.10582 0.18849,-0.06653 0.49077,-0.23125 0.67926,-0.3738 0.18849,-0.14255 0.49077,-0.43631 0.67926,-0.65364 0.18849,-0.21733 0.49077,-0.632 0.67926,-0.91279 0.18849,-0.28081 0.49078,-0.7887 0.67927,-1.11099 0.18848,-0.3223 0.49076,-0.88009 0.67925,-1.21203 0.18849,-0.33192 0.49079,-0.87849 0.67928,-1.18042 0.18849,-0.30192 0.49076,-0.7666 0.67926,-0.99571 0.18847,-0.22909 0.49076,-0.5408 0.67925,-0.65564 0.1885,-0.11483 0.49077,-0.20603 0.67927,-0.17206 0.18849,0.03399 0.49078,0.21263 0.67926,0.41698 0.18849,0.20435 0.49077,0.67751 0.67926,1.05583 0.18849,0.37835 0.49078,1.13626 0.67927,1.67099 0.18849,0.53473 0.49077,1.53156 0.67924,2.18305 0.1885,0.65147 0.49079,1.80403 0.67928,2.51243 0.18849,0.70842 0.49077,1.90305 0.67926,2.59333 0.18848,0.69027 0.49077,1.79292 0.67926,2.38176 0.1885,0.58883 0.49077,1.45617 0.67926,1.86218 0.1885,0.40599 0.49079,0.90938 0.67928,1.06399 0.18848,0.15462 0.49075,0.19446 0.67924,0.05048 0.1885,-0.14399 0.49079,-0.62932 0.67928,-1.08835 0.18849,-0.45901 0.49077,-1.46593 0.67924,-2.22008 0.1885,-0.75415 0.49079,-2.22258 0.67928,-3.2154 0.18849,-0.99285 0.49077,-2.79871 0.67926,-3.94034 0.18849,-1.14165 0.49078,-3.11238 0.67926,-4.28784 0.18849,-1.17546 0.49077,-3.10329 0.67926,-4.18416 0.18849,-1.08086 0.49078,-2.7468 0.67928,-3.60599 0.18849,-0.85921 0.49075,-2.05885 0.67924,-2.58656 0.18849,-0.52771 0.49078,-1.09915 0.67928,-1.21683 0.18849,-0.11768 0.49077,0.04034 0.67926,0.36864 0.18848,0.32827 0.49077,1.23663 0.67926,1.99749 0.18849,0.76085 0.49077,2.35613 0.67926,3.48632 0.18849,1.13019 0.49078,3.26793 0.67927,4.65942 0.18848,1.39148 0.49076,3.85825 0.67925,5.36951 0.18849,1.51124 0.49078,4.05063 0.67927,5.52263 0.1885,1.47198 0.49077,3.81251 0.67925,5.08645 0.18849,1.27394 0.49078,3.15851 0.67927,4.09531 0.1885,0.93681 0.49077,2.16112 0.67926,2.65665 0.18849,0.49551 0.49079,0.91478 0.67926,0.91478 0.1885,0 0.49077,-0.41927 0.67926,-0.91478 0.1885,-0.49553 0.49079,-1.71984 0.67928,-2.65665 0.18848,-0.9368 0.49075,-2.82137 0.67925,-4.09531 0.18849,-1.27394 0.49078,-3.61447 0.67927,-5.08645 0.18849,-1.472 0.49077,-4.01139 0.67926,-5.52263 0.18848,-1.51126 0.49077,-3.97803 0.67926,-5.36951 0.18849,-1.39149 0.49077,-3.52923 0.67926,-4.65942 0.18849,-1.13019 0.49079,-2.72547 0.67926,-3.48632 0.18849,-0.76086 0.49077,-1.66922 0.67926,-1.99749 0.18849,-0.3283 0.49079,-0.48632 0.67928,-0.36864 0.18849,0.11768 0.49077,0.68912 0.67924,1.21683 0.18849,0.52771 0.49079,1.72735 0.67928,2.58656 0.18849,0.85919 0.49077,2.52513 0.67926,3.60599 0.18849,1.08087 0.49078,3.0087 0.67926,4.18416 0.18849,1.17546 0.49077,3.14619 0.67926,4.28784 0.18849,1.14163 0.49079,2.94749 0.67927,3.94034 0.18848,0.99282 0.49076,2.46125 0.67925,3.2154 0.18849,0.75415 0.49078,1.76107 0.67927,2.22008 0.1885,0.45903 0.49077,0.94436 0.67927,1.08835 0.18847,0.14398 0.49076,0.10414 0.67926,-0.05048 0.18849,-0.15461 0.49077,-0.658 0.67926,-1.06399 0.18849,-0.40601 0.49078,-1.27335 0.67926,-1.86218 0.18849,-0.58884 0.49076,-1.69149 0.67925,-2.38176 0.1885,-0.69028 0.49079,-1.88491 0.67928,-2.59333 0.18849,-0.7084 0.49077,-1.86096 0.67925,-2.51243 0.18849,-0.65149 0.49078,-1.64832 0.67927,-2.18305 0.1885,-0.53473 0.49077,-1.29264 0.67926,-1.67099 0.18849,-0.37832 0.49077,-0.85148 0.67926,-1.05583 0.18849,-0.20435 0.49077,-0.38299 0.67926,-0.41698 0.18849,-0.03397 0.49079,0.05723 0.67928,0.17206 0.18848,0.11484 0.49075,0.42655 0.67924,0.65564 0.1885,0.22911 0.49079,0.69379 0.67928,0.99571 0.18849,0.30193 0.49077,0.8485 0.67926,1.18042 0.18848,0.33194 0.49077,0.88973 0.67926,1.21203 0.18849,0.32229 0.49077,0.83018 0.67926,1.11099 0.18849,0.28079 0.49078,0.69546 0.67926,0.91279 0.18849,0.21733 0.49077,0.51109 0.67926,0.65364 0.18849,0.14255 0.49078,0.30727 0.67928,0.3738 0.18849,0.06655 0.49076,0.10771 0.67924,0.10582 0.1885,-0.0019 0.49078,-0.06239 0.67928,-0.11946 0.18849,-0.05707 0.49076,-0.19626 0.67926,-0.29189 0.18847,-0.09561 0.49076,-0.2812 0.67926,-0.39734 0.18849,-0.11612 0.49077,-0.31947 0.67926,-0.43966 0.18849,-0.12018 0.49078,-0.31595 0.67927,-0.42662 0.18848,-0.11068 0.49076,-0.27964 0.67925,-0.37108 0.18849,-0.09146 0.49078,-0.22138 0.67927,-0.28809 0.18849,-0.06671 0.49077,-0.15237 0.67925,-0.19273 0.18849,-0.04036 0.49078,-0.08252 0.67927,-0.09822 0.1885,-0.01569 0.49077,-0.01984 0.67926,-0.01488 0.1885,0.005 0.49079,0.03043 0.67927,0.05061 0.18849,0.02019 0.49076,0.0654 0.67925,0.09499 0.1885,0.0296 0.49079,0.08488 0.67928,0.11838 0.18849,0.03351 0.49075,0.09033 0.67924,0.12312 0.1885,0.03279 0.49079,0.08458 0.67928,0.11327 0.18849,0.02868 0.49077,0.07104 0.67926,0.09355 0.18848,0.02249 0.49077,0.05319 0.67926,0.06863 0.18849,0.01545 0.49077,0.03417 0.67926,0.04273 0.18849,0.0086 0.49078,0.01645 0.67927,0.01904 0.18848,0.0026 0.49076,0.0017 0.67925,-3.5e-4 0.18849,-0.0021 0.49079,-0.0092 0.67928,-0.01439 0.18849,-0.0052 0.49077,-0.01605 0.67924,-0.02288 0.18849,-0.0068 0.49079,-0.01914 0.67928,-0.0264 0.18849,-0.0072 0.49077,-0.0192 0.67926,-0.02593 0.18849,-0.0068 0.49078,-0.01706 0.67926,-0.02267 0.18849,-0.0056 0.49077,-0.0136 0.67926,-0.01778 0.18849,-0.0042 0.49078,-0.0097 0.67927,-0.01236 0.18848,-0.0027 0.49076,-0.0058 0.67925,-0.0071 0.18849,-0.0013 0.49078,-0.0024 0.67927,-0.0027 0.1885,-2.7e-4 0.49078,1.8e-4 0.67926,6.7e-4 0.18848,4.9e-4 0.49077,0.002 0.67926,0.0029 0.1885,9.6e-4 0.49077,0.0029 0.67926,0.0041 0.1885,0.0012 0.49079,0.0032 0.67927,0.0044 0.18849,0.0012 0.49076,0.0031 0.67926,0.0041 0.18849,10e-4 0.49078,0.0026 0.67927,0.0034 0.1885,8.2e-4 0.49077,0.002 0.67925,0.0026 0.18849,5.6e-4 0.49078,0.0013 0.67927,0.0017 0.18849,3.5e-4 0.49077,7.5e-4 0.67926,9e-4 0.18849,1.5e-4 0.49079,2.8e-4 0.67926,2.8e-4 0.18849,0 0.49077,-10e-5 0.67926,-1.7e-4 0.1885,-8e-5 0.49079,-3.1e-4 0.67928,-4.3e-4 0.18847,-1.2e-4 0.49075,-4.1e-4 0.67924,-5.5e-4 0.18849,-1.4e-4 0.49078,-4.1e-4 0.67928,-5.5e-4 0.18849,-1.4e-4 0.49077,-3.8e-4 0.67926,-5e-4 0.18848,-1.2e-4 0.49077,-3.1e-4 0.67926,-3.8e-4 0.18849,-8e-5 0.49077,-2e-4 0.67926,-2.6e-4 0.18849,-6e-5 0.49078,-1.5e-4 0.67926,-1.9e-4 0.18849,-3e-5 0.49077,-7e-5 0.67926,-7e-5 0.18849,0 0.49078,-3e-5 0.67928,-3e-5 0.18849,0 0.49076,3e-5 0.67924,3e-5 0.18849,0 0.49078,4e-5 0.67928,4e-5 0.18849,0 0.49076,5e-5 0.67926,5e-5 0.18849,0 0.49076,6e-5 0.67926,6e-5 0.18849,0 0.49076,5e-5 0.67926,5e-5 0.18849,0 0.49078,3e-5 0.67927,3e-5 0.18848,0 0.49075,3e-5 0.67925,3e-5 0.18849,0 0.49078,0 0.67927,0 0.18849,0 0.49077,10e-6 0.67926,10e-6 0.18848,0 0.49077,0 0.67927,0 0.18848,0 0.49076,0 0.67925,0 0.1885,0 0.49079,-10e-6 0.67926,-10e-6 0.18849,0 0.49077,0 0.67926,0 0.1885,0 0.49079,0 0.67928,0 0.18849,0 0.49077,0 0.67925,0 0.18849,0 0.49078,0 0.67927,0 0.18849,0 0.49077,0 0.67926,0 0.18847,0 0.49077,0 0.67926,0 0.18849,0 0.49077,0 0.67926,0 0.18849,0 0.49078,0 0.67928,0 0.18847,0 0.49075,0 0.67924,0 0.18849,0 0.49078,0 0.67928,0 0.18849,0 0.49077,0 0.67924,0 0.18849,0 0.49079,0 0.67928,0 0.18849,0 0.49077,0 0.67926,0 0.18849,0 0.49078,0 0.67926,0 0.18849,0 0.49077,0 0.67926,0 0.18849,0 0.49078,0 0.67927,0 0.1885,0 0.49076,0 0.67925,0 0.18849,0 0.49078,0 0.67927,0 0.1885,0 0.49077,0 0.67926,0 0.18848,0 0.67926,0 0.67926,0"
       style="fill:none;stroke:#ffffff;stroke-width:0.3985;stroke-linecap:butt;stroke-linejoin:miter;stroke-miterlimit:10;stroke-dasharray:none;stroke-opacity:1"
       transform="matrix(1.3333333,0,0,-1.3333333,9.12,53.609333)"
       clip-path="url(#clipPath2)" />
    <path
       id="path3"
       d="m 163.02296,18.27806 c 0,0 0.49077,3.5e-4 0.67926,4.3e-4 0.1885,7e-5 0.49079,1.7e-4 0.67928,1.7e-4 0.18848,0 0.49075,-1.3e-4 0.67925,-2.8e-4 0.18849,-1.5e-4 0.49078,-5.5e-4 0.67927,-9e-4 0.18849,-3.5e-4 0.49077,-0.0011 0.67925,-0.0017 0.18849,-5.8e-4 0.49078,-0.0018 0.67927,-0.0026 0.18849,-8.2e-4 0.49077,-0.0024 0.67926,-0.0034 0.1885,-0.001 0.49079,-0.0029 0.67926,-0.0041 0.18849,-0.0012 0.49077,-0.0032 0.67926,-0.0044 0.18849,-0.0012 0.49078,-0.0031 0.67928,-0.0041 0.18847,-9.6e-4 0.49075,-0.0024 0.67924,-0.0029 0.18849,-4.9e-4 0.49079,-9.4e-4 0.67928,-6.7e-4 0.18849,2.7e-4 0.49077,0.0013 0.67926,0.0027 0.18847,0.0014 0.49077,0.0044 0.67926,0.0071 0.18849,0.0027 0.49076,0.0082 0.67926,0.01236 0.18849,0.0042 0.49078,0.01218 0.67926,0.01778 0.18849,0.0056 0.49077,0.01592 0.67926,0.02267 0.18849,0.0067 0.49078,0.01868 0.67928,0.02593 0.18849,0.0073 0.49076,0.01957 0.67924,0.0264 0.18849,0.0068 0.49078,0.0177 0.67928,0.02288 0.18848,0.0052 0.49076,0.01234 0.67926,0.01439 0.18849,0.002 0.49076,0.0029 0.67926,3.5e-4 0.18849,-0.0026 0.49076,-0.01048 0.67926,-0.01904 0.18849,-0.0086 0.49078,-0.02728 0.67927,-0.04273 0.18848,-0.01544 0.49075,-0.04614 0.67925,-0.06863 0.18849,-0.02251 0.49078,-0.06487 0.67927,-0.09355 0.18849,-0.02869 0.49077,-0.08048 0.67926,-0.11327 0.18848,-0.03279 0.49077,-0.08961 0.67926,-0.12312 0.18849,-0.0335 0.49077,-0.08878 0.67926,-0.11838 0.18849,-0.02959 0.49079,-0.0748 0.67926,-0.09499 0.18849,-0.02018 0.49077,-0.04565 0.67927,-0.05061 0.18849,-0.005 0.49078,-8.1e-4 0.67927,0.01488 0.18849,0.0157 0.49077,0.05786 0.67924,0.09822 0.18849,0.04036 0.49079,0.12602 0.67928,0.19273 0.18849,0.06671 0.49077,0.19663 0.67926,0.28809 0.18849,0.09144 0.49077,0.2604 0.67926,0.37108 0.18849,0.11067 0.49077,0.30644 0.67926,0.42662 0.18849,0.12019 0.49078,0.32354 0.67928,0.43966 0.18847,0.11614 0.49075,0.30173 0.67924,0.39734 0.18849,0.09563 0.49078,0.23482 0.67928,0.29189 0.18849,0.05707 0.49076,0.11758 0.67926,0.11946 0.18847,0.0019 0.49077,-0.03927 0.67926,-0.10582 0.18849,-0.06653 0.49077,-0.23125 0.67926,-0.3738 0.18849,-0.14255 0.49078,-0.43631 0.67925,-0.65364 0.1885,-0.21733 0.49078,-0.632 0.67927,-0.91279 0.18849,-0.28081 0.49078,-0.7887 0.67927,-1.11099 0.18849,-0.3223 0.49077,-0.88009 0.67925,-1.21203 0.18849,-0.33192 0.49078,-0.87849 0.67927,-1.18042 0.1885,-0.30192 0.49077,-0.7666 0.67926,-0.99571 0.18848,-0.22909 0.49077,-0.5408 0.67926,-0.65564 0.1885,-0.11483 0.49077,-0.20603 0.67926,-0.17206 0.1885,0.03399 0.49079,0.21263 0.67928,0.41698 0.18848,0.20435 0.49075,0.67751 0.67924,1.05583 0.1885,0.37835 0.49079,1.13626 0.67928,1.67099 0.18849,0.53473 0.49077,1.53156 0.67925,2.18305 0.18849,0.65147 0.49078,1.80403 0.67927,2.51243 0.18849,0.70842 0.49077,1.90305 0.67926,2.59333 0.18849,0.69027 0.49078,1.79292 0.67926,2.38176 0.18849,0.58883 0.49077,1.45617 0.67926,1.86218 0.18849,0.40599 0.49079,0.90938 0.67928,1.06399 0.18849,0.15462 0.49075,0.19446 0.67924,0.05048 0.18849,-0.14399 0.49079,-0.62932 0.67928,-1.08835 0.18849,-0.45901 0.49076,-1.46593 0.67926,-2.22008 0.18847,-0.75415 0.49077,-2.22258 0.67926,-3.2154 0.18849,-0.99285 0.49077,-2.79871 0.67926,-3.94034 0.18849,-1.14165 0.49078,-3.11238 0.67928,-4.28784 0.18847,-1.17546 0.49075,-3.10329 0.67924,-4.18416 0.18849,-1.08086 0.49078,-2.7468 0.67927,-3.60599 0.18849,-0.85921 0.49077,-2.05885 0.67925,-2.58656 0.18849,-0.52771 0.49078,-1.09915 0.67927,-1.21683 0.1885,-0.11768 0.49077,0.04034 0.67927,0.36864 0.18849,0.32827 0.49078,1.23663 0.67926,1.99749 0.18849,0.76085 0.49076,2.35613 0.67926,3.48632 0.18848,1.13019 0.49078,3.26793 0.67927,4.65942 0.18848,1.39148 0.49075,3.85825 0.67925,5.36951 0.18849,1.51124 0.49078,4.05063 0.67927,5.52263 0.18849,1.47198 0.49077,3.81251 0.67926,5.08645 0.18848,1.27394 0.49077,3.15851 0.67926,4.09531 0.18849,0.93681 0.49077,2.16112 0.67927,2.65665 0.18848,0.49551 0.49078,0.91478 0.67925,0.91478 0.18849,0 0.49077,-0.41927 0.67926,-0.91478 0.18849,-0.49553 0.49079,-1.71984 0.67928,-2.65665 0.18849,-0.9368 0.49077,-2.82137 0.67924,-4.09531 0.1885,-1.27394 0.49079,-3.61447 0.67928,-5.08645 0.18849,-1.472 0.49077,-4.01139 0.67926,-5.52263 0.18849,-1.51126 0.49077,-3.97803 0.67926,-5.36951 0.18849,-1.39149 0.49077,-3.52923 0.67926,-4.65942 0.18849,-1.13019 0.49078,-2.72547 0.67928,-3.48632 0.18847,-0.76086 0.49075,-1.66922 0.67924,-1.99749 0.18849,-0.3283 0.49079,-0.48632 0.67928,-0.36864 0.18849,0.11768 0.49076,0.68912 0.67926,1.21683 0.18847,0.52771 0.49076,1.72735 0.67925,2.58656 0.1885,0.85919 0.49077,2.52513 0.67927,3.60599 0.18849,1.08087 0.49078,3.0087 0.67926,4.18416 0.18849,1.17546 0.49077,3.14619 0.67926,4.28784 0.18849,1.14163 0.49078,2.94749 0.67927,3.94034 0.18849,0.99282 0.49077,2.46125 0.67924,3.2154 0.1885,0.75415 0.49079,1.76107 0.67928,2.22008 0.18849,0.45903 0.49077,0.94436 0.67926,1.08835 0.1885,0.14398 0.49077,0.10414 0.67926,-0.05048 0.1885,-0.15461 0.49077,-0.658 0.67926,-1.06399 0.1885,-0.40601 0.49079,-1.27335 0.67928,-1.86218 0.18848,-0.58884 0.49076,-1.69149 0.67924,-2.38176 0.1885,-0.69028 0.49079,-1.88491 0.67928,-2.59333 0.18849,-0.7084 0.49077,-1.86096 0.67926,-2.51243 0.18848,-0.65149 0.49077,-1.64832 0.67926,-2.18305 0.18849,-0.53473 0.49077,-1.29264 0.67926,-1.67099 0.18849,-0.37832 0.49078,-0.85148 0.67926,-1.05583 0.1885,-0.20435 0.49077,-0.38299 0.67926,-0.41698 0.18849,-0.03397 0.49078,0.05723 0.67928,0.17206 0.18849,0.11484 0.49076,0.42655 0.67924,0.65564 0.18849,0.22911 0.49079,0.69379 0.67928,0.99571 0.18849,0.30193 0.49077,0.8485 0.67926,1.18042 0.18848,0.33194 0.49077,0.88973 0.67926,1.21203 0.18849,0.32229 0.49077,0.83018 0.67926,1.11099 0.18849,0.28079 0.49078,0.69546 0.67927,0.91279 0.18848,0.21733 0.49076,0.51109 0.67925,0.65364 0.18849,0.14255 0.49078,0.30727 0.67927,0.3738 0.1885,0.06655 0.49077,0.10771 0.67925,0.10582 0.18849,-0.0019 0.49078,-0.06239 0.67927,-0.11946 0.1885,-0.05707 0.49077,-0.19626 0.67926,-0.29189 0.18849,-0.09561 0.49079,-0.2812 0.67926,-0.39734 0.1885,-0.11612 0.49077,-0.31947 0.67927,-0.43966 0.18849,-0.12018 0.49078,-0.31595 0.67927,-0.42662 0.18849,-0.11068 0.49075,-0.27964 0.67925,-0.37108 0.18849,-0.09146 0.49078,-0.22138 0.67927,-0.28809 0.18849,-0.06671 0.49077,-0.15237 0.67926,-0.19273 0.18848,-0.04036 0.49077,-0.08252 0.67926,-0.09822 0.18849,-0.01569 0.49077,-0.01984 0.67926,-0.01488 0.18849,0.005 0.49079,0.03043 0.67928,0.05061 0.18847,0.02019 0.49075,0.0654 0.67924,0.09499 0.18849,0.0296 0.49079,0.08488 0.67928,0.11838 0.18849,0.03351 0.49077,0.09033 0.67924,0.12312 0.18849,0.03279 0.49079,0.08458 0.67928,0.11327 0.18849,0.02868 0.49077,0.07104 0.67926,0.09355 0.18849,0.02249 0.49078,0.05319 0.67926,0.06863 0.18849,0.01545 0.49077,0.03417 0.67926,0.04273 0.18849,0.0086 0.49079,0.01645 0.67927,0.01904 0.18848,0.0026 0.49076,0.0017 0.67925,-3.5e-4 0.18849,-0.0021 0.49078,-0.0092 0.67927,-0.01439 0.1885,-0.0052 0.49077,-0.01605 0.67927,-0.02288 0.18847,-0.0068 0.49076,-0.01914 0.67926,-0.0264 0.18849,-0.0072 0.49077,-0.0192 0.67926,-0.02593 0.18849,-0.0068 0.49078,-0.01706 0.67926,-0.02267 0.18849,-0.0056 0.49076,-0.0136 0.67925,-0.01778 0.1885,-0.0042 0.49079,-0.0097 0.67928,-0.01236 0.18849,-0.0027 0.49077,-0.0058 0.67925,-0.0071 0.18849,-0.0013 0.49078,-0.0024 0.67927,-0.0027 0.1885,-2.7e-4 0.49077,1.8e-4 0.67926,6.7e-4 0.18849,4.9e-4 0.49077,0.002 0.67926,0.0029 0.18849,9.6e-4 0.49077,0.0029 0.67926,0.0041 0.1885,0.0012 0.49079,0.0032 0.67928,0.0044 0.18848,0.0012 0.49075,0.0031 0.67924,0.0041 0.1885,10e-4 0.49079,0.0026 0.67928,0.0034 0.18849,8.2e-4 0.49077,0.002 0.67926,0.0026 0.18848,5.6e-4 0.49077,0.0013 0.67926,0.0017 0.18849,3.5e-4 0.49077,7.5e-4 0.67926,9e-4 0.18849,1.5e-4 0.49078,2.8e-4 0.67926,2.8e-4 0.18849,0 0.49077,-10e-5 0.67926,-1.7e-4 0.18849,-8e-5 0.49078,-3.1e-4 0.67928,-4.3e-4 0.18849,-1.2e-4 0.49076,-4.1e-4 0.67924,-5.5e-4 0.1885,-1.4e-4 0.49078,-4.1e-4 0.67928,-5.5e-4 0.18849,-1.4e-4 0.49076,-3.8e-4 0.67926,-5e-4 0.18847,-1.2e-4 0.49076,-3.1e-4 0.67926,-3.8e-4 0.18849,-8e-5 0.49077,-2e-4 0.67926,-2.6e-4 0.18849,-6e-5 0.49078,-1.5e-4 0.67927,-1.9e-4 0.18848,-3e-5 0.49076,-7e-5 0.67925,-7e-5 0.18849,0 0.49078,-3e-5 0.67927,-3e-5 0.1885,0 0.49077,3e-5 0.67926,3e-5 0.18848,0 0.49077,4e-5 0.67926,4e-5 0.1885,0 0.49077,5e-5 0.67926,5e-5 0.1885,0 0.49079,6e-5 0.67927,6e-5 0.18849,0 0.49076,5e-5 0.67925,5e-5 0.1885,0 0.49079,3e-5 0.67928,3e-5 0.18849,0 0.49077,3e-5 0.67925,3e-5 0.18849,0 0.49078,0 0.67927,0 0.18849,0 0.49077,10e-6 0.67926,10e-6 0.18848,0 0.49077,0 0.67926,0 0.18849,0 0.49077,0 0.67926,0 0.18849,0 0.49079,-10e-6 0.67927,-10e-6 0.18848,0 0.49076,0 0.67925,0 0.18849,0 0.49079,0 0.67928,0 0.18849,0 0.49077,0 0.67924,0 0.18849,0 0.49079,0 0.67928,0 0.18849,0 0.49077,0 0.67926,0 0.18849,0 0.49078,0 0.67926,0 0.18849,0 0.49077,0 0.67926,0 0.18849,0 0.49078,0 0.67927,0 0.1885,0 0.49076,0 0.67925,0 0.18849,0 0.49078,0 0.67927,0 0.1885,0 0.49078,0 0.67926,0 0.18848,0 0.49077,0 0.67927,0 0.18849,0 0.49076,0 0.67925,0 0.1885,0 0.49079,0 0.67928,0 0.18848,0 0.49075,0 0.67925,0 0.18849,0 0.49078,0 0.67927,0 0.1885,0 0.49077,0 0.67925,0 0.18849,0 0.49078,0 0.67927,0 0.18849,0 0.49077,0 0.67926,0 0.18849,0 0.67926,0 0.67926,0"
       style="fill:none;stroke:#ffffff;stroke-width:0.3985;stroke-linecap:butt;stroke-linejoin:miter;stroke-miterlimit:10;stroke-dasharray:none;stroke-opacity:1"
       transform="matrix(1.3333333,0,0,-1.3333333,9.12,53.609333)"
       clip-path="url(#clipPath4)" />
    <g
       id="g4"
       aria-label="y&#10;i&#10;(t)"
       transform="matrix(1.3333333,0,0,1.3333333,25.069333,22.816)"
       clip-path="url(#clipPath10)">
      <path
         id="path5"
         d="m 4.8405781,-3.7965703 c 0.046875,-0.140625 0.046875,-0.1523438 0.046875,-0.2226563 0,-0.1875 -0.140625,-0.2695312 -0.2929687,-0.2695312 -0.1054688,0 -0.2578125,0.058594 -0.3515625,0.1992187 -0.023437,0.058594 -0.09375,0.3632813 -0.140625,0.5390625 -0.070312,0.2578125 -0.140625,0.5273438 -0.1992188,0.796875 l -0.4453125,1.79296879 c -0.035156,0.15234375 -0.46875,0.85546875 -1.125,0.85546875 -0.5039062,0 -0.6210937,-0.4453125 -0.6210937,-0.80859375 0,-0.45703129 0.1757812,-1.07812499 0.515625,-1.95703129 0.1523437,-0.4101562 0.1992187,-0.515625 0.1992187,-0.7148437 0,-0.4453125 -0.328125,-0.8203125 -0.8203125,-0.8203125 -0.94921872,0 -1.31249997,1.453125 -1.31249997,1.5351562 0,0.1054688 0.09375,0.1054688 0.1171875,0.1054688 0.09375,0 0.10546875,-0.023437 0.15234375,-0.1875 0.26953125,-0.9375 0.66796872,-1.2304688 1.00781252,-1.2304688 0.082031,0 0.2578125,0 0.2578125,0.3164063 0,0.2460937 -0.1054688,0.515625 -0.1757813,0.703125 -0.3984375,1.0546875 -0.5742187,1.6171875 -0.5742187,2.0859375 0,0.89062499 0.6210937,1.18359374 1.21875,1.18359374 0.3867187,0 0.7265625,-0.1640625 0.9960937,-0.4453125 -0.1289062,0.515625 -0.2460937,1.0078125 -0.6445312,1.53515626 -0.2578125,0.3398437 -0.6328125,0.6328125 -1.0898438,0.6328125 -0.140625,0 -0.59765622,-0.035156 -0.76171872,-0.421875 0.1640625,0 0.29296872,0 0.43359372,-0.1171875 0.09375,-0.09375 0.1992188,-0.2226563 0.1992188,-0.41015626 0,-0.31640625 -0.2695313,-0.3515625 -0.375,-0.3515625 -0.22265627,0 -0.55078127,0.1640625 -0.55078127,0.64453126 0,0.5039062 0.43359375,0.8671875 1.05468747,0.8671875 1.0195313,0 2.0507813,-0.9023438 2.3320313,-2.02734376 z m 0,0"
         style="fill:#ffffff;fill-opacity:1;fill-rule:nonzero;stroke:none" />
      <path
         id="path6"
         d="m 7.1462422,-2.8649297 c 0,-0.1054687 -0.082031,-0.2578125 -0.28125,-0.2578125 -0.1875,0 -0.3867188,0.1757813 -0.3867188,0.375 0,0.1171875 0.082031,0.2695313 0.2695313,0.2695313 0.2109375,0 0.3984375,-0.1992188 0.3984375,-0.3867188 z M 5.7165547,0.67413281 c -0.023437,0.09375 -0.058594,0.17578125 -0.058594,0.29296875 0,0.32812504 0.28125,0.59765624 0.6679688,0.59765624 0.6914062,0 0.9960937,-0.96093749 0.9960937,-1.06640624 0,-0.09375 -0.082031,-0.09375 -0.1054687,-0.09375 -0.1054688,0 -0.1054688,0.046875 -0.140625,0.1171875 C 6.9235859,1.0842891 6.6188984,1.3655391 6.3376484,1.3655391 c -0.140625,0 -0.1757812,-0.082031 -0.1757812,-0.2460938 0,-0.15234374 0.058594,-0.29296874 0.1171875,-0.44531249 0.070312,-0.1875 0.140625,-0.375 0.2226562,-0.55078125 0.058594,-0.1640625 0.3164063,-0.80859375 0.3398438,-0.890625 0.023437,-0.0703125 0.046875,-0.15234375 0.046875,-0.22265625 0,-0.32812501 -0.28125,-0.58593751 -0.6679688,-0.58593751 -0.6914062,0 -1.0078125,0.94921876 -1.0078125,1.06640626 0,0.0820313 0.09375,0.0820313 0.1171875,0.0820313 0.09375,0 0.1054688,-0.0351563 0.1289063,-0.10546875 0.1757812,-0.59765631 0.4804687,-0.85546881 0.7382812,-0.85546881 0.1171875,0 0.1757813,0.058594 0.1757813,0.2460938 0,0.16406251 -0.035156,0.26953126 -0.2109375,0.70312501 z m 0,0"
         style="fill:#ffffff;fill-opacity:1;fill-rule:nonzero;stroke:none" />
      <path
         id="path7"
         d="m 11.493898,2.3909297 c 0,-0.035156 0,-0.046875 -0.164062,-0.2226563 -1.242188,-1.25390621 -1.5703126,-3.12890621 -1.5703126,-4.6640625 0,-1.7226562 0.3867186,-3.4570312 1.6054686,-4.7109375 0.128906,-0.1171875 0.128906,-0.1289062 0.128906,-0.1640625 0,-0.070312 -0.03516,-0.1054687 -0.09375,-0.1054687 -0.105468,0 -0.996093,0.6796875 -1.5820308,1.9453125 -0.515625,1.1015625 -0.6328125,2.203125 -0.6328125,3.0351562 0,0.7851563 0.1171875,1.99218754 0.65625,3.11718754 0.5976563,1.21874996 1.4531253,1.87499996 1.5585933,1.87499996 0.05859,0 0.09375,-0.035156 0.09375,-0.1054687 z m 0,0"
         style="fill:#ffffff;fill-opacity:1;fill-rule:nonzero;stroke:none" />
      <path
         id="path8"
         d="m 14.127688,-3.9840703 h 0.9375 c 0.199218,0 0.304687,0 0.304687,-0.1992188 0,-0.1054687 -0.105469,-0.1054687 -0.28125,-0.1054687 h -0.878906 c 0.363281,-1.4179688 0.410156,-1.6171875 0.410156,-1.6757813 0,-0.1757812 -0.117187,-0.2695312 -0.292969,-0.2695312 -0.02344,0 -0.304687,0.011719 -0.398437,0.3515625 l -0.386719,1.59375 h -0.9375 c -0.199219,0 -0.292969,0 -0.292969,0.1875 0,0.1171875 0.07031,0.1171875 0.269532,0.1171875 h 0.878906 c -0.714844,2.8242187 -0.75,2.99999999 -0.75,3.17578124 0,0.5390625 0.375,0.9140625 0.914062,0.9140625 1.007813,0 1.582032,-1.45312504 1.582032,-1.53515624 0,-0.09375 -0.08203,-0.09375 -0.117188,-0.09375 -0.09375,0 -0.105469,0.023437 -0.152344,0.140625 -0.433593,1.03124999 -0.960937,1.27734374 -1.300781,1.27734374 -0.199219,0 -0.304687,-0.12890625 -0.304687,-0.45703125 0,-0.24609375 0.02344,-0.31640625 0.05859,-0.48046879 z m 0,0"
         style="fill:#ffffff;fill-opacity:1;fill-rule:nonzero;stroke:none" />
      <path
         id="path9"
         d="m 18.557375,-2.4957891 c 0,-0.7734375 -0.117188,-1.9804687 -0.65625,-3.1054687 -0.597656,-1.21875 -1.464844,-1.875 -1.558594,-1.875 -0.05859,0 -0.105469,0.046875 -0.105469,0.1054687 0,0.035156 0,0.046875 0.199219,0.234375 0.972656,0.984375 1.535156,2.5664063 1.535156,4.640625 0,1.71093754 -0.363281,3.45703129 -1.59375,4.7226563 -0.140625,0.1171875 -0.140625,0.1289062 -0.140625,0.1640625 0,0.058594 0.04687,0.1054687 0.105469,0.1054687 0.09375,0 0.996094,-0.6796875 1.582031,-1.94531246 0.503907,-1.1015625 0.632813,-2.20312504 0.632813,-3.04687504 z m 0,0"
         style="fill:#ffffff;fill-opacity:1;fill-rule:nonzero;stroke:none" />
    </g>
  </g>
</svg>
