<?xml version="1.0" encoding="UTF-8" standalone="no"?>
<!-- Created with Inkscape (http://www.inkscape.org/) -->

<svg
   version="1.1"
   id="svg1"
   width="1537.3333"
   height="865.33331"
   viewBox="0 0 1537.3333 865.33331"
   xmlns="http://www.w3.org/2000/svg"
   xmlns:svg="http://www.w3.org/2000/svg">
  <defs
     id="defs1" />
  <g
     id="g1">
    <path
       id="path1"
       d="M 0,0 H 1153 V 649 H 0 Z"
       style="fill:#ffffff;fill-opacity:1;fill-rule:nonzero;stroke:none"
       transform="scale(1.3333333)" />
    <path
       id="path2"
       d="M 118.602,53.332 H 1153 V 555.105 H 118.602 Z"
       style="fill:#ffffff;fill-opacity:1;fill-rule:nonzero;stroke:none"
       transform="scale(1.3333333)" />
    <path
       id="path3"
       d="M 249.594,555.105 V 53.332"
       style="fill:none;stroke:#1a1a1a;stroke-width:6.00926;stroke-linecap:butt;stroke-linejoin:bevel;stroke-miterlimit:1;stroke-dasharray:6.00926, 6.00926;stroke-dashoffset:0;stroke-opacity:0.25098"
       transform="scale(1.3324347,1.3333333)" />
    <path
       id="path4"
       d="M 326.173,555.105 V 53.332"
       style="fill:none;stroke:#1a1a1a;stroke-width:6.00926;stroke-linecap:butt;stroke-linejoin:bevel;stroke-miterlimit:1;stroke-dasharray:6.00926, 6.00926;stroke-dashoffset:0;stroke-opacity:0.25098"
       transform="scale(1.3324347,1.3333333)" />
    <path
       id="path5"
       d="M 380.503,555.105 V 53.332"
       style="fill:none;stroke:#1a1a1a;stroke-width:6.00926;stroke-linecap:butt;stroke-linejoin:bevel;stroke-miterlimit:1;stroke-dasharray:6.00926, 6.00926;stroke-dashoffset:0;stroke-opacity:0.25098"
       transform="scale(1.3324347,1.3333333)" />
    <path
       id="path6"
       d="M 422.648,555.105 V 53.332"
       style="fill:none;stroke:#1a1a1a;stroke-width:6.00926;stroke-linecap:butt;stroke-linejoin:bevel;stroke-miterlimit:1;stroke-dasharray:6.00926, 6.00926;stroke-dashoffset:0;stroke-opacity:0.25098"
       transform="scale(1.3324347,1.3333333)" />
    <path
       id="path7"
       d="M 457.082,555.105 V 53.332"
       style="fill:none;stroke:#1a1a1a;stroke-width:6.00926;stroke-linecap:butt;stroke-linejoin:bevel;stroke-miterlimit:1;stroke-dasharray:6.00926, 6.00926;stroke-dashoffset:0;stroke-opacity:0.25098"
       transform="scale(1.3324347,1.3333333)" />
    <path
       id="path8"
       d="M 486.195,555.105 V 53.332"
       style="fill:none;stroke:#1a1a1a;stroke-width:6.00926;stroke-linecap:butt;stroke-linejoin:bevel;stroke-miterlimit:1;stroke-dasharray:6.00926, 6.00926;stroke-dashoffset:0;stroke-opacity:0.25098"
       transform="scale(1.3324347,1.3333333)" />
    <path
       id="path9"
       d="M 511.415,555.105 V 53.332"
       style="fill:none;stroke:#1a1a1a;stroke-width:6.00926;stroke-linecap:butt;stroke-linejoin:bevel;stroke-miterlimit:1;stroke-dasharray:6.00926, 6.00926;stroke-dashoffset:0;stroke-opacity:0.25098"
       transform="scale(1.3324347,1.3333333)" />
    <path
       id="path10"
       d="M 533.661,555.105 V 53.332"
       style="fill:none;stroke:#1a1a1a;stroke-width:6.00926;stroke-linecap:butt;stroke-linejoin:bevel;stroke-miterlimit:1;stroke-dasharray:6.00926, 6.00926;stroke-dashoffset:0;stroke-opacity:0.25098"
       transform="scale(1.3324347,1.3333333)" />
    <path
       id="path11"
       d="M 761.048,555.105 V 53.332"
       style="fill:none;stroke:#1a1a1a;stroke-width:6.00926;stroke-linecap:butt;stroke-linejoin:bevel;stroke-miterlimit:1;stroke-dasharray:6.00926, 6.00926;stroke-dashoffset:0;stroke-opacity:0.25098"
       transform="scale(1.3324347,1.3333333)" />
    <path
       id="path12"
       d="M 815.378,555.105 V 53.332"
       style="fill:none;stroke:#1a1a1a;stroke-width:6.00926;stroke-linecap:butt;stroke-linejoin:bevel;stroke-miterlimit:1;stroke-dasharray:6.00926, 6.00926;stroke-dashoffset:0;stroke-opacity:0.25098"
       transform="scale(1.3324347,1.3333333)" />
    <path
       id="path13"
       d="M 891.957,555.105 V 53.332"
       style="fill:none;stroke:#1a1a1a;stroke-width:6.00926;stroke-linecap:butt;stroke-linejoin:bevel;stroke-miterlimit:1;stroke-dasharray:6.00926, 6.00926;stroke-dashoffset:0;stroke-opacity:0.25098"
       transform="scale(1.3324347,1.3333333)" />
    <path
       id="path14"
       d="M 921.07,555.105 V 53.332"
       style="fill:none;stroke:#1a1a1a;stroke-width:6.00926;stroke-linecap:butt;stroke-linejoin:bevel;stroke-miterlimit:1;stroke-dasharray:6.00926, 6.00926;stroke-dashoffset:0;stroke-opacity:0.25098"
       transform="scale(1.3324347,1.3333333)" />
    <path
       id="path15"
       d="M 946.29,555.105 V 53.332"
       style="fill:none;stroke:#1a1a1a;stroke-width:6.00926;stroke-linecap:butt;stroke-linejoin:bevel;stroke-miterlimit:1;stroke-dasharray:6.00926, 6.00926;stroke-dashoffset:0;stroke-opacity:0.25098"
       transform="scale(1.3324347,1.3333333)" />
    <path
       id="path16"
       d="M 968.536,555.105 V 53.332"
       style="fill:none;stroke:#1a1a1a;stroke-width:6.00926;stroke-linecap:butt;stroke-linejoin:bevel;stroke-miterlimit:1;stroke-dasharray:6.00926, 6.00926;stroke-dashoffset:0;stroke-opacity:0.25098"
       transform="scale(1.3324347,1.3333333)" />
    <path
       id="path17"
       d="M 118.682,555.105 H 1153.778"
       style="fill:none;stroke:#262626;stroke-width:6.00926;stroke-linecap:square;stroke-linejoin:round;stroke-miterlimit:10;stroke-dasharray:none;stroke-opacity:1"
       transform="scale(1.3324347,1.3333333)" />
    <path
       id="path18"
       d="M 118.682,53.332 H 1153.778"
       style="fill:none;stroke:#262626;stroke-width:6.00926;stroke-linecap:square;stroke-linejoin:round;stroke-miterlimit:10;stroke-dasharray:none;stroke-opacity:1"
       transform="scale(1.3324347,1.3333333)" />
    <path
       id="path19"
       d="M 118.682,555.105 V 544.754"
       style="fill:none;stroke:#262626;stroke-width:6.00926;stroke-linecap:square;stroke-linejoin:round;stroke-miterlimit:10;stroke-dasharray:none;stroke-opacity:1"
       transform="scale(1.3324347,1.3333333)" />
    <path
       id="path20"
       d="M 553.557,555.105 V 544.754"
       style="fill:none;stroke:#262626;stroke-width:6.00926;stroke-linecap:square;stroke-linejoin:round;stroke-miterlimit:10;stroke-dasharray:none;stroke-opacity:1"
       transform="scale(1.3324347,1.3333333)" />
    <path
       id="path21"
       d="M 684.469,555.105 V 544.754"
       style="fill:none;stroke:#262626;stroke-width:6.00926;stroke-linecap:square;stroke-linejoin:round;stroke-miterlimit:10;stroke-dasharray:none;stroke-opacity:1"
       transform="scale(1.3324347,1.3333333)" />
    <path
       id="path22"
       d="M 857.523,555.105 V 544.754"
       style="fill:none;stroke:#262626;stroke-width:6.00926;stroke-linecap:square;stroke-linejoin:round;stroke-miterlimit:10;stroke-dasharray:none;stroke-opacity:1"
       transform="scale(1.3324347,1.3333333)" />
    <path
       id="path23"
       d="M 988.432,555.105 V 544.754"
       style="fill:none;stroke:#262626;stroke-width:6.00926;stroke-linecap:square;stroke-linejoin:round;stroke-miterlimit:10;stroke-dasharray:none;stroke-opacity:1"
       transform="scale(1.3324347,1.3333333)" />
    <path
       id="path24"
       d="M 1119.344,555.105 V 544.754"
       style="fill:none;stroke:#262626;stroke-width:6.00926;stroke-linecap:square;stroke-linejoin:round;stroke-miterlimit:10;stroke-dasharray:none;stroke-opacity:1"
       transform="scale(1.3324347,1.3333333)" />
    <path
       id="path25"
       d="M 118.682,53.332 V 63.684"
       style="fill:none;stroke:#262626;stroke-width:6.00926;stroke-linecap:square;stroke-linejoin:round;stroke-miterlimit:10;stroke-dasharray:none;stroke-opacity:1"
       transform="scale(1.3324347,1.3333333)" />
    <path
       id="path26"
       d="M 553.557,53.332 V 63.684"
       style="fill:none;stroke:#262626;stroke-width:6.00926;stroke-linecap:square;stroke-linejoin:round;stroke-miterlimit:10;stroke-dasharray:none;stroke-opacity:1"
       transform="scale(1.3324347,1.3333333)" />
    <path
       id="path27"
       d="M 684.469,53.332 V 63.684"
       style="fill:none;stroke:#262626;stroke-width:6.00926;stroke-linecap:square;stroke-linejoin:round;stroke-miterlimit:10;stroke-dasharray:none;stroke-opacity:1"
       transform="scale(1.3324347,1.3333333)" />
    <path
       id="path28"
       d="M 857.523,53.332 V 63.684"
       style="fill:none;stroke:#262626;stroke-width:6.00926;stroke-linecap:square;stroke-linejoin:round;stroke-miterlimit:10;stroke-dasharray:none;stroke-opacity:1"
       transform="scale(1.3324347,1.3333333)" />
    <path
       id="path29"
       d="M 988.432,53.332 V 63.684"
       style="fill:none;stroke:#262626;stroke-width:6.00926;stroke-linecap:square;stroke-linejoin:round;stroke-miterlimit:10;stroke-dasharray:none;stroke-opacity:1"
       transform="scale(1.3324347,1.3333333)" />
    <path
       id="path30"
       d="M 1119.344,53.332 V 63.684"
       style="fill:none;stroke:#262626;stroke-width:6.00926;stroke-linecap:square;stroke-linejoin:round;stroke-miterlimit:10;stroke-dasharray:none;stroke-opacity:1"
       transform="scale(1.3324347,1.3333333)" />
    <path
       id="path31"
       d="M 118.682,555.105 V 549.93"
       style="fill:none;stroke:#262626;stroke-width:6.00926;stroke-linecap:square;stroke-linejoin:round;stroke-miterlimit:10;stroke-dasharray:none;stroke-opacity:1"
       transform="scale(1.3324347,1.3333333)" />
    <path
       id="path32"
       d="M 249.594,555.105 V 549.93"
       style="fill:none;stroke:#262626;stroke-width:6.00926;stroke-linecap:square;stroke-linejoin:round;stroke-miterlimit:10;stroke-dasharray:none;stroke-opacity:1"
       transform="scale(1.3324347,1.3333333)" />
    <path
       id="path33"
       d="M 326.173,555.105 V 549.93"
       style="fill:none;stroke:#262626;stroke-width:6.00926;stroke-linecap:square;stroke-linejoin:round;stroke-miterlimit:10;stroke-dasharray:none;stroke-opacity:1"
       transform="scale(1.3324347,1.3333333)" />
    <path
       id="path34"
       d="M 380.503,555.105 V 549.93"
       style="fill:none;stroke:#262626;stroke-width:6.00926;stroke-linecap:square;stroke-linejoin:round;stroke-miterlimit:10;stroke-dasharray:none;stroke-opacity:1"
       transform="scale(1.3324347,1.3333333)" />
    <path
       id="path35"
       d="M 422.648,555.105 V 549.93"
       style="fill:none;stroke:#262626;stroke-width:6.00926;stroke-linecap:square;stroke-linejoin:round;stroke-miterlimit:10;stroke-dasharray:none;stroke-opacity:1"
       transform="scale(1.3324347,1.3333333)" />
    <path
       id="path36"
       d="M 457.082,555.105 V 549.93"
       style="fill:none;stroke:#262626;stroke-width:6.00926;stroke-linecap:square;stroke-linejoin:round;stroke-miterlimit:10;stroke-dasharray:none;stroke-opacity:1"
       transform="scale(1.3324347,1.3333333)" />
    <path
       id="path37"
       d="M 486.195,555.105 V 549.93"
       style="fill:none;stroke:#262626;stroke-width:6.00926;stroke-linecap:square;stroke-linejoin:round;stroke-miterlimit:10;stroke-dasharray:none;stroke-opacity:1"
       transform="scale(1.3324347,1.3333333)" />
    <path
       id="path38"
       d="M 511.415,555.105 V 549.93"
       style="fill:none;stroke:#262626;stroke-width:6.00926;stroke-linecap:square;stroke-linejoin:round;stroke-miterlimit:10;stroke-dasharray:none;stroke-opacity:1"
       transform="scale(1.3324347,1.3333333)" />
    <path
       id="path39"
       d="M 533.661,555.105 V 549.93"
       style="fill:none;stroke:#262626;stroke-width:6.00926;stroke-linecap:square;stroke-linejoin:round;stroke-miterlimit:10;stroke-dasharray:none;stroke-opacity:1"
       transform="scale(1.3324347,1.3333333)" />
    <path
       id="path40"
       d="M 553.557,555.105 V 549.93"
       style="fill:none;stroke:#262626;stroke-width:6.00926;stroke-linecap:square;stroke-linejoin:round;stroke-miterlimit:10;stroke-dasharray:none;stroke-opacity:1"
       transform="scale(1.3324347,1.3333333)" />
    <path
       id="path41"
       d="M 684.469,555.105 V 549.93"
       style="fill:none;stroke:#262626;stroke-width:6.00926;stroke-linecap:square;stroke-linejoin:round;stroke-miterlimit:10;stroke-dasharray:none;stroke-opacity:1"
       transform="scale(1.3324347,1.3333333)" />
    <path
       id="path42"
       d="M 761.048,555.105 V 549.93"
       style="fill:none;stroke:#262626;stroke-width:6.00926;stroke-linecap:square;stroke-linejoin:round;stroke-miterlimit:10;stroke-dasharray:none;stroke-opacity:1"
       transform="scale(1.3324347,1.3333333)" />
    <path
       id="path43"
       d="M 815.378,555.105 V 549.93"
       style="fill:none;stroke:#262626;stroke-width:6.00926;stroke-linecap:square;stroke-linejoin:round;stroke-miterlimit:10;stroke-dasharray:none;stroke-opacity:1"
       transform="scale(1.3324347,1.3333333)" />
    <path
       id="path44"
       d="M 857.523,555.105 V 549.93"
       style="fill:none;stroke:#262626;stroke-width:6.00926;stroke-linecap:square;stroke-linejoin:round;stroke-miterlimit:10;stroke-dasharray:none;stroke-opacity:1"
       transform="scale(1.3324347,1.3333333)" />
    <path
       id="path45"
       d="M 891.957,555.105 V 549.93"
       style="fill:none;stroke:#262626;stroke-width:6.00926;stroke-linecap:square;stroke-linejoin:round;stroke-miterlimit:10;stroke-dasharray:none;stroke-opacity:1"
       transform="scale(1.3324347,1.3333333)" />
    <path
       id="path46"
       d="M 921.07,555.105 V 549.93"
       style="fill:none;stroke:#262626;stroke-width:6.00926;stroke-linecap:square;stroke-linejoin:round;stroke-miterlimit:10;stroke-dasharray:none;stroke-opacity:1"
       transform="scale(1.3324347,1.3333333)" />
    <path
       id="path47"
       d="M 946.29,555.105 V 549.93"
       style="fill:none;stroke:#262626;stroke-width:6.00926;stroke-linecap:square;stroke-linejoin:round;stroke-miterlimit:10;stroke-dasharray:none;stroke-opacity:1"
       transform="scale(1.3324347,1.3333333)" />
    <path
       id="path48"
       d="M 968.536,555.105 V 549.93"
       style="fill:none;stroke:#262626;stroke-width:6.00926;stroke-linecap:square;stroke-linejoin:round;stroke-miterlimit:10;stroke-dasharray:none;stroke-opacity:1"
       transform="scale(1.3324347,1.3333333)" />
    <path
       id="path49"
       d="M 988.432,555.105 V 549.93"
       style="fill:none;stroke:#262626;stroke-width:6.00926;stroke-linecap:square;stroke-linejoin:round;stroke-miterlimit:10;stroke-dasharray:none;stroke-opacity:1"
       transform="scale(1.3324347,1.3333333)" />
    <path
       id="path50"
       d="M 1119.344,555.105 V 549.93"
       style="fill:none;stroke:#262626;stroke-width:6.00926;stroke-linecap:square;stroke-linejoin:round;stroke-miterlimit:10;stroke-dasharray:none;stroke-opacity:1"
       transform="scale(1.3324347,1.3333333)" />
    <path
       id="path51"
       d="m 118.682,53.332 v 5.176"
       style="fill:none;stroke:#262626;stroke-width:6.00926;stroke-linecap:square;stroke-linejoin:round;stroke-miterlimit:10;stroke-dasharray:none;stroke-opacity:1"
       transform="scale(1.3324347,1.3333333)" />
    <path
       id="path52"
       d="m 249.594,53.332 v 5.176"
       style="fill:none;stroke:#262626;stroke-width:6.00926;stroke-linecap:square;stroke-linejoin:round;stroke-miterlimit:10;stroke-dasharray:none;stroke-opacity:1"
       transform="scale(1.3324347,1.3333333)" />
    <path
       id="path53"
       d="m 326.173,53.332 v 5.176"
       style="fill:none;stroke:#262626;stroke-width:6.00926;stroke-linecap:square;stroke-linejoin:round;stroke-miterlimit:10;stroke-dasharray:none;stroke-opacity:1"
       transform="scale(1.3324347,1.3333333)" />
    <path
       id="path54"
       d="m 380.503,53.332 v 5.176"
       style="fill:none;stroke:#262626;stroke-width:6.00926;stroke-linecap:square;stroke-linejoin:round;stroke-miterlimit:10;stroke-dasharray:none;stroke-opacity:1"
       transform="scale(1.3324347,1.3333333)" />
    <path
       id="path55"
       d="m 422.648,53.332 v 5.176"
       style="fill:none;stroke:#262626;stroke-width:6.00926;stroke-linecap:square;stroke-linejoin:round;stroke-miterlimit:10;stroke-dasharray:none;stroke-opacity:1"
       transform="scale(1.3324347,1.3333333)" />
    <path
       id="path56"
       d="m 457.082,53.332 v 5.176"
       style="fill:none;stroke:#262626;stroke-width:6.00926;stroke-linecap:square;stroke-linejoin:round;stroke-miterlimit:10;stroke-dasharray:none;stroke-opacity:1"
       transform="scale(1.3324347,1.3333333)" />
    <path
       id="path57"
       d="m 486.195,53.332 v 5.176"
       style="fill:none;stroke:#262626;stroke-width:6.00926;stroke-linecap:square;stroke-linejoin:round;stroke-miterlimit:10;stroke-dasharray:none;stroke-opacity:1"
       transform="scale(1.3324347,1.3333333)" />
    <path
       id="path58"
       d="m 511.415,53.332 v 5.176"
       style="fill:none;stroke:#262626;stroke-width:6.00926;stroke-linecap:square;stroke-linejoin:round;stroke-miterlimit:10;stroke-dasharray:none;stroke-opacity:1"
       transform="scale(1.3324347,1.3333333)" />
    <path
       id="path59"
       d="m 533.661,53.332 v 5.176"
       style="fill:none;stroke:#262626;stroke-width:6.00926;stroke-linecap:square;stroke-linejoin:round;stroke-miterlimit:10;stroke-dasharray:none;stroke-opacity:1"
       transform="scale(1.3324347,1.3333333)" />
    <path
       id="path60"
       d="m 553.557,53.332 v 5.176"
       style="fill:none;stroke:#262626;stroke-width:6.00926;stroke-linecap:square;stroke-linejoin:round;stroke-miterlimit:10;stroke-dasharray:none;stroke-opacity:1"
       transform="scale(1.3324347,1.3333333)" />
    <path
       id="path61"
       d="m 684.469,53.332 v 5.176"
       style="fill:none;stroke:#262626;stroke-width:6.00926;stroke-linecap:square;stroke-linejoin:round;stroke-miterlimit:10;stroke-dasharray:none;stroke-opacity:1"
       transform="scale(1.3324347,1.3333333)" />
    <path
       id="path62"
       d="m 761.048,53.332 v 5.176"
       style="fill:none;stroke:#262626;stroke-width:6.00926;stroke-linecap:square;stroke-linejoin:round;stroke-miterlimit:10;stroke-dasharray:none;stroke-opacity:1"
       transform="scale(1.3324347,1.3333333)" />
    <path
       id="path63"
       d="m 815.378,53.332 v 5.176"
       style="fill:none;stroke:#262626;stroke-width:6.00926;stroke-linecap:square;stroke-linejoin:round;stroke-miterlimit:10;stroke-dasharray:none;stroke-opacity:1"
       transform="scale(1.3324347,1.3333333)" />
    <path
       id="path64"
       d="m 857.523,53.332 v 5.176"
       style="fill:none;stroke:#262626;stroke-width:6.00926;stroke-linecap:square;stroke-linejoin:round;stroke-miterlimit:10;stroke-dasharray:none;stroke-opacity:1"
       transform="scale(1.3324347,1.3333333)" />
    <path
       id="path65"
       d="m 891.957,53.332 v 5.176"
       style="fill:none;stroke:#262626;stroke-width:6.00926;stroke-linecap:square;stroke-linejoin:round;stroke-miterlimit:10;stroke-dasharray:none;stroke-opacity:1"
       transform="scale(1.3324347,1.3333333)" />
    <path
       id="path66"
       d="m 921.07,53.332 v 5.176"
       style="fill:none;stroke:#262626;stroke-width:6.00926;stroke-linecap:square;stroke-linejoin:round;stroke-miterlimit:10;stroke-dasharray:none;stroke-opacity:1"
       transform="scale(1.3324347,1.3333333)" />
    <path
       id="path67"
       d="m 946.29,53.332 v 5.176"
       style="fill:none;stroke:#262626;stroke-width:6.00926;stroke-linecap:square;stroke-linejoin:round;stroke-miterlimit:10;stroke-dasharray:none;stroke-opacity:1"
       transform="scale(1.3324347,1.3333333)" />
    <path
       id="path68"
       d="m 968.536,53.332 v 5.176"
       style="fill:none;stroke:#262626;stroke-width:6.00926;stroke-linecap:square;stroke-linejoin:round;stroke-miterlimit:10;stroke-dasharray:none;stroke-opacity:1"
       transform="scale(1.3324347,1.3333333)" />
    <path
       id="path69"
       d="m 988.432,53.332 v 5.176"
       style="fill:none;stroke:#262626;stroke-width:6.00926;stroke-linecap:square;stroke-linejoin:round;stroke-miterlimit:10;stroke-dasharray:none;stroke-opacity:1"
       transform="scale(1.3324347,1.3333333)" />
    <path
       id="path70"
       d="m 1119.344,53.332 v 5.176"
       style="fill:none;stroke:#262626;stroke-width:6.00926;stroke-linecap:square;stroke-linejoin:round;stroke-miterlimit:10;stroke-dasharray:none;stroke-opacity:1"
       transform="scale(1.3324347,1.3333333)" />
    <text
       id="text70"
       xml:space="preserve"
       transform="matrix(1.3333333,0,0,1.3342328,146.12674,794.42408)"><tspan
         style="font-variant:normal;font-weight:normal;font-size:32.028px;font-family:Helvetica;writing-mode:lr-tb;fill:#262626;fill-opacity:1;fill-rule:nonzero;stroke:none"
         x="0 425.57428 443.38675 556.38647 574.19897 729.3476 747.1601 851.15997 868.97241 886.78491 981.97076 999.7832 1017.5957"
         y="0"
         id="tspan70">1102050100200</tspan></text>
    <text
       id="text71"
       xml:space="preserve"
       transform="matrix(1.3333333,0,0,1.3342328,688.09746,853.84897)"><tspan
         style="font-variant:normal;font-weight:normal;font-size:35.2303px;font-family:Helvetica;writing-mode:lr-tb;fill:#262626;fill-opacity:1;fill-rule:nonzero;stroke:none"
         x="0 21.520073 33.252041 52.845455 72.438873 92.032288 111.6257 131.21912 148.83427 166.44942 176.23753 186.02563 211.46783 229.08299"
         y="0"
         id="tspan71">Frequency [Hz]</tspan></text>
    <path
       id="path71"
       d="M 118.682,555.105 V 53.332"
       style="fill:none;stroke:#262626;stroke-width:6.00926;stroke-linecap:square;stroke-linejoin:round;stroke-miterlimit:10;stroke-dasharray:none;stroke-opacity:1"
       transform="scale(1.3324347,1.3333333)" />
    <path
       id="path72"
       d="M 1153.778,555.105 V 53.332"
       style="fill:none;stroke:#262626;stroke-width:6.00926;stroke-linecap:square;stroke-linejoin:round;stroke-miterlimit:10;stroke-dasharray:none;stroke-opacity:1"
       transform="scale(1.3324347,1.3333333)" />
    <path
       id="path73"
       d="m 118.682,555.105 h 10.35"
       style="fill:none;stroke:#262626;stroke-width:6.00926;stroke-linecap:square;stroke-linejoin:round;stroke-miterlimit:10;stroke-dasharray:none;stroke-opacity:1"
       transform="scale(1.3324347,1.3333333)" />
    <path
       id="path74"
       d="m 118.682,304.219 h 10.35"
       style="fill:none;stroke:#262626;stroke-width:6.00926;stroke-linecap:square;stroke-linejoin:round;stroke-miterlimit:10;stroke-dasharray:none;stroke-opacity:1"
       transform="scale(1.3324347,1.3333333)" />
    <path
       id="path75"
       d="m 118.682,53.332 h 10.35"
       style="fill:none;stroke:#262626;stroke-width:6.00926;stroke-linecap:square;stroke-linejoin:round;stroke-miterlimit:10;stroke-dasharray:none;stroke-opacity:1"
       transform="scale(1.3324347,1.3333333)" />
    <path
       id="path76"
       d="m 1153.778,555.105 h -10.351"
       style="fill:none;stroke:#262626;stroke-width:6.00926;stroke-linecap:square;stroke-linejoin:round;stroke-miterlimit:10;stroke-dasharray:none;stroke-opacity:1"
       transform="scale(1.3324347,1.3333333)" />
    <path
       id="path77"
       d="m 1153.778,304.219 h -10.351"
       style="fill:none;stroke:#262626;stroke-width:6.00926;stroke-linecap:square;stroke-linejoin:round;stroke-miterlimit:10;stroke-dasharray:none;stroke-opacity:1"
       transform="scale(1.3324347,1.3333333)" />
    <path
       id="path78"
       d="m 1153.778,53.332 h -10.351"
       style="fill:none;stroke:#262626;stroke-width:6.00926;stroke-linecap:square;stroke-linejoin:round;stroke-miterlimit:10;stroke-dasharray:none;stroke-opacity:1"
       transform="scale(1.3324347,1.3333333)" />
    <text
       id="text78"
       xml:space="preserve"
       transform="matrix(1.3333333,0,0,1.3342328,122.9066,756.66589)"><tspan
         style="font-variant:normal;font-weight:normal;font-size:32.028px;font-family:Helvetica;writing-mode:lr-tb;fill:#262626;fill-opacity:1;fill-rule:nonzero;stroke:none"
         x="0"
         y="0"
         id="tspan78">0</tspan><tspan
         style="font-variant:normal;font-weight:normal;font-size:32.028px;font-family:Helvetica;writing-mode:lr-tb;fill:#262626;fill-opacity:1;fill-rule:nonzero;stroke:none"
         x="-45.039062 -27.226599 -18.328188 -0.5157243"
         y="-250.71745"
         id="tspan79">0.25</tspan><tspan
         style="font-variant:normal;font-weight:normal;font-size:32.028px;font-family:Helvetica;writing-mode:lr-tb;fill:#262626;fill-opacity:1;fill-rule:nonzero;stroke:none"
         x="-27.023424 -9.2109613 -0.3125495"
         y="-501.43491"
         id="tspan80">0.5</tspan></text>
    <text
       id="text80"
       xml:space="preserve"
       transform="matrix(0,-1.3333333,1.3324345,0,47.841483,510.28595)"><tspan
         style="font-variant:normal;font-weight:normal;font-size:35.2541px;font-family:Helvetica;writing-mode:lr-tb;fill:#262626;fill-opacity:1;fill-rule:nonzero;stroke:none"
         x="0 23.514189 52.881104 72.48774 80.320061 88.15239 97.947098 117.55373 137.16037"
         y="0"
         id="tspan81">Amplitude</tspan></text>
    <text
       id="text81"
       xml:space="preserve"
       transform="matrix(1.3333333,0,0,1.3342328,465.40444,51.278983)"><tspan
         style="font-variant:normal;font-weight:700;font-size:35.2303px;font-family:Helvetica;writing-mode:lr-tb;fill:#000000;fill-opacity:1;fill-rule:nonzero;stroke:none"
         x="0 25.442198 46.962269 68.482346 78.270454 99.790527 111.52249 121.3106 146.75279 168.27287 178.06097 209.38635 228.97977 238.76788 248.55598 270.07605 291.59613 313.11621 324.84818 344.44159 356.17355 375.76697 397.28705 416.88046 426.66858 436.45667 457.97675 467.76486 493.20706 512.80048 534.32056 553.91394"
         y="0"
         id="tspan82">DFT of Animal Footsteps in Kenya</tspan></text>
    <path
       id="path82"
       d="m 118.56,542.012 39.891,-0.02 130.912,-7.765 76.575,-9.774 54.334,-7.105 42.145,-0.02 34.434,8.168 29.113,12.715 25.22,9.254 22.242,-0.391 19.9,-0.484 18,-0.172 16.433,-0.086 15.12,1.035 13.993,0.082 13.033,-2.094 12.188,-4.695 11.449,-5.543 10.796,-5.433 10.21,-3.004 9.69,-0.645 9.213,0.86 8.788,1.968 8.392,4.293 8.041,5.387 7.708,3.859 7.407,-0.464 7.13,-2.083 6.868,-2.148 6.626,-1.527 6.402,-0.856 6.196,-0.375 5.996,0.071 5.809,0.781 5.64,1.226 5.473,0.387 5.32,-6.859 5.175,-24.364 5.039,-44.211 4.905,-47.632 4.781,-33.082 4.663,-5.957 4.55,22.386 4.444,40.11 4.343,41.656 4.245,28.273 4.151,9.957 4.062,2.684 3.975,0.094 3.893,-2.125 3.819,-1.824 3.737,-2.899 3.671,-4.777 3.596,-4.067 3.53,-1.187 3.467,2.566 3.401,4.383 3.342,2.559 3.287,-1.239 3.229,-0.433 3.174,-0.438 3.119,-3.695 3.072,-4.477 3.022,-5.589 2.975,-6.707 2.927,-6.231 2.885,-4.207 2.838,-1.312 2.799,1.8 2.759,4.309 2.717,2.683 2.678,0.891 2.642,-2.211 2.603,-5.18 2.572,-7.261 2.533,-8.363 2.502,-7.567 2.471,-6.851 2.435,-12.063 2.408,-17.984 2.376,-16.313 2.346,-9.566 2.318,-0.817 2.286,7.258 2.263,13.465 2.236,17.492 2.209,17.797 2.181,5.367 2.162,-2.918 2.134,-0.383 2.107,3.243 2.087,6.675 2.064,8.633 2.044,7.473 2.021,4.164 1.998,3.379 1.978,3.949 1.954,4.086 1.939,3.18 1.919,1.093 1.896,1.797 1.88,1.668 1.861,-2.074 1.841,-6.113 1.825,-8.34 1.806,-10.453 1.79,-10.59 1.775,-9.07 1.759,-5.969 1.74,-1.758 1.723,2.422 1.709,5.348 1.696,6.195 1.677,4.445 1.665,0.098 1.65,-4.535 1.634,-7.246 1.622,-6.907 1.606,-3.55 1.595,1.808 1.579,7.571 1.568,11.921 1.556,12.805 1.54,7.652 1.532,-1.132 1.517,-3.27 1.504,0.34 1.494,4.508 1.481,6.379 1.47,5.765 1.458,4.879 1.446,4.879 1.435,5.059 1.426,5.414 1.415,4.422 1.404,1.422 1.395,-5.383 1.384,-8.082 1.372,-6.239 1.364,-3.086 1.353,0.575 1.344,4.07 1.337,6.777 1.325,8.203 1.314,8.114 1.309,6.504 1.298,3.82 1.29,1.473 1.278,0.25 1.274,0.199 1.263,0.719 1.255,0.941 1.247,-0.059 1.239,-0.746 1.227,-0.207 1.224,0.485 1.215,0.164 1.208,-0.051 1.196,-0.188 1.192,-0.722 1.185,-1.313 1.176,-1.191 1.169,-0.055 1.165,1.344 1.153,1.887 1.149,1.644 1.142,0.719 1.133,-0.93 1.126,-2.082 1.122,-1.84 1.114,-1.437 1.11,-0.617 1.098,0.433 1.095,1.274 1.091,1.785 1.082,1.871 1.075,1.805 1.071,1.121 1.063,-0.543 1.06,-2.457 1.051,-2.453 1.048,-1.375 1.04,0.433 1.035,1.754 1.029,1.598 1.024,1.246 1.016,0.633 1.012,-0.129 1.009,-0.156 1.001,0.195 0.996,0.785 0.993,1.074 0.985,0.629"
       style="fill:none;stroke:#a2142f;stroke-width:6.00926;stroke-linecap:butt;stroke-linejoin:round;stroke-miterlimit:10;stroke-dasharray:none;stroke-opacity:1"
       transform="scale(1.3324347,1.3333333)" />
    <path
       id="path83"
       d="m 118.48,550.859 v 0.086 l 39.864,-0.007 130.824,-3.004 76.523,-4.372 54.297,-3.574 42.117,-1.156 34.411,1.969 29.093,4.613 25.203,5.469 22.227,1.308 19.887,0.114 17.988,-0.555 16.422,-0.344 15.109,0.957 13.985,-0.086 13.023,-1.777 12.18,-3.535 11.441,-1.52 10.789,-2.972 10.203,-1.102 9.684,0.785 9.207,0.207 8.781,-2.23 8.387,1.152 8.035,5.883 7.703,4.875 7.403,-0.813 7.125,-1.699 6.863,-2.48 6.621,-2 6.398,-0.164 6.192,0.758 5.992,0.632 5.805,1.235 5.636,2.715 5.469,1.046 5.317,-9.296 5.171,-14.832 5.036,-30.043 4.902,-31.641 4.777,-20.543 4.66,-2 4.547,16.141 4.442,26.265 4.34,27.465 4.242,19.25 4.148,5.883 4.059,4.152 3.972,1.653 3.891,-2.262 3.817,-0.207 3.734,-0.68 3.668,-3.047 3.594,-1.691 3.527,0.836 3.465,3.461 3.398,3.379 3.34,-0.926 3.285,-7.488 3.227,-1.235 3.172,3.172 3.117,-1.742 3.07,-0.328 3.02,-1.012 2.972,-3.371 2.926,-3.77 2.883,-2.308 2.836,-0.098 2.797,2.172 2.758,3.992 2.714,-1.16 2.676,-1.5 2.641,-1.656 2.601,-2.688 2.571,-5.078 2.531,-7.43 2.5,-4.542 2.469,-0.254 2.433,-11.11 2.407,-26.054 2.375,-21.79 2.343,-4.023 2.317,10.363 2.285,15.879 2.262,17.649 2.234,19.539 2.207,19.082 2.18,-5.11 2.16,-19.281 2.133,-8.355 2.105,2.062 2.086,7.86 2.063,9.406 2.042,4.668 2.02,-4.192 1.996,-4.918 1.977,1.75 1.953,7.981 1.937,7.859 1.918,2.407 1.895,4 1.879,3.792 1.859,-3.234 1.84,-9.715 1.824,-11.715 1.805,-15.019 1.789,-12.317 1.773,-6.156 1.758,-0.972 1.738,3.093 1.723,6.532 1.707,9.05 1.695,10.211 1.676,9.211 1.664,5.778 1.649,2.929 1.633,0.84 1.621,-1.316 1.605,-3.395 1.594,-4.426 1.578,-2.429 1.566,5.34 1.555,16.101 1.539,15.649 1.531,2.902 1.516,-4.02 1.504,-4.152 1.492,-2.578 1.481,-1.805 1.468,-1.929 1.457,-0.922 1.446,0.285 1.433,-0.918 1.426,-1.797 1.414,-1.684 1.402,2.504 1.395,-4.933 1.383,-5.953 1.371,-0.137 1.363,2.164 1.352,2.785 1.343,3.066 1.336,3.633 1.325,4.453 1.312,4.883 1.309,4.055 1.297,2 1.289,0.32 1.277,-0.609 1.273,-0.567 1.262,0.313 1.254,1.016 1.246,-0.305 1.238,-0.969 1.227,0.176 1.223,0.574 1.215,-1.547 1.207,-2.617 1.195,-0.879 1.191,0.945 1.184,0.125 1.176,-0.847 1.168,-0.383 1.164,0.66 1.152,0.598 1.148,1.281 1.141,2.309 1.133,0.828 1.125,-0.813 1.121,-0.601 1.113,-1.114 1.11,-1.339 1.097,-0.887 1.094,-0.035 1.09,1.015 1.082,0.977 1.074,0.141 1.07,-1.172 1.063,0.722 1.059,0.66 1.05,0.582 1.047,0.25 1.039,0.731 1.035,0.894 1.028,-0.246 1.023,0.243 1.016,0.507 1.012,-0.656 1.007,-0.992 1,-0.59 0.996,0.625 0.993,1.356 0.984,0.921 v -12.14 l -0.984,-0.336 -0.993,-0.789 -0.996,-0.949 -1,-0.981 -1.007,-0.68 -1.012,-0.398 -1.016,-0.758 -1.023,-2.25 -1.028,-3.441 -1.035,-2.617 -1.039,-0.133 -1.047,2.996 -1.05,5.496 -1.059,5.57 -1.063,1.809 -1.07,-3.41 -1.074,-3.473 -1.082,-2.769 -1.09,-2.555 -1.094,-2.582 -1.097,-1.754 -1.11,-0.102 -1.113,1.758 -1.121,3.086 -1.125,3.344 -1.133,2.687 -1.141,0.875 -1.148,-2.004 -1.152,-3.183 -1.164,-2.028 -1.168,-0.269 -1.176,1.535 -1.184,2.746 -1.191,2.395 -1.195,-0.5 -1.207,-2.52 -1.215,-1.875 -1.223,-0.394 -1.227,0.59 -1.238,0.523 -1.246,-0.184 -1.254,-0.867 -1.262,-1.133 -1.273,-0.961 -1.277,-1.113 -1.289,-2.617 -1.297,-5.645 -1.309,-8.949 -1.312,-11.351 -1.325,-11.953 -1.336,-9.918 -1.343,-5.075 -1.352,1.641 -1.363,8.332 -1.371,12.336 -1.383,10.215 -1.395,5.828 -1.402,-0.332 -1.414,-10.535 -1.426,-12.621 -1.433,-11.039 -1.446,-9.473 -1.457,-10.672 -1.468,-13.465 -1.481,-14.562 -1.492,-11.598 -1.504,-4.832 -1.516,2.523 -1.531,5.172 -1.539,0.344 -1.555,-9.508 -1.566,-18.511 -1.578,-17.571 -1.594,-8.035 -1.605,3.703 -1.621,12.496 -1.633,15.332 -1.649,12 -1.664,5.578 -1.676,0.329 -1.695,-2.184 -1.707,-1.641 -1.723,1.684 -1.738,6.605 -1.758,10.965 -1.773,11.989 -1.789,8.859 -1.805,5.891 -1.824,4.964 -1.84,2.516 -1.859,0.91 -1.879,0.453 -1.895,0.414 -1.918,0.215 -1.937,1.496 -1.953,-0.183 -1.977,-6.157 -1.996,-11.675 -2.02,-12.512 -2.042,-10.281 -2.063,-7.864 -2.086,-5.484 -2.105,-4.426 -2.133,-7.594 -2.16,-13.441 -2.18,-15.844 -2.207,-16.515 -2.234,-15.438 -2.262,-9.281 -2.285,1.359 -2.317,11.996 -2.343,15.11 -2.375,10.832 -2.407,9.914 -2.433,13.019 -2.469,13.446 -2.5,10.59 -2.531,9.3 -2.571,9.446 -2.601,7.672 -2.641,2.765 -2.676,-3.281 -2.714,-6.531 -2.758,-4.621 -2.797,-1.43 -2.836,2.527 -2.883,6.106 -2.926,8.687 -2.972,10.047 -3.02,10.168 -3.07,8.625 -3.117,5.649 -3.172,4.046 -3.227,-0.363 -3.285,-5.019 -3.34,-6.04 -3.398,-5.386 -3.465,-1.672 -3.527,3.207 -3.594,6.441 -3.668,6.512 -3.734,5.113 -3.817,3.442 -3.891,1.988 -3.972,1.469 -4.059,-1.211 -4.148,-14.035 -4.242,-37.297 -4.34,-55.848 -4.442,-53.953 -4.547,-28.637 -4.66,9.914 -4.777,45.621 -4.902,63.633 -5.036,58.375 -5.171,33.895 -5.317,4.422 -5.469,0.269 -5.636,0.27 -5.805,-0.332 -5.992,0.496 -6.192,1.504 -6.398,1.55 -6.621,1.051 -6.863,1.817 -7.125,2.461 -7.403,0.121 -7.703,-2.848 -8.035,-4.887 -8.387,-7.437 -8.781,-6.168 -9.207,-1.504 -9.684,2.066 -10.203,4.911 -10.789,7.894 -11.441,9.563 -12.18,5.859 -13.023,2.41 -13.985,-0.25 -15.109,-1.109 -16.422,-0.172 -17.988,-0.215 -19.887,1.082 -22.227,2.09 -25.203,-13.035 -29.093,-20.824 -34.411,-14.36 -42.117,-1.121 -54.297,10.637 -76.523,15.179 -130.824,12.524 -39.864,0.031 z"
       style="fill:#a2142f;fill-opacity:0.301961;fill-rule:nonzero;stroke:none"
       transform="scale(1.3333333)" />
    <path
       id="path84"
       d="m 118.56,531.074 39.891,-0.023 130.912,-8.164 76.575,-5.684 54.334,-0.484 42.145,4.449 34.434,5.367 29.113,1.137 25.22,-4.606 22.242,-8.48 19.9,-10.137 18,-8.383 16.433,-3.773 15.12,1.918 13.993,1.117 13.033,-9.789 12.188,-23.375 11.449,-28.945 10.796,-27.883 10.21,-20.918 9.69,-11.098 9.213,-1.593 8.788,5.285 8.392,8.761 8.041,1.844 7.708,-1.929 7.407,-11.239 7.13,-19.57 6.868,-15.363 6.626,-3.903 6.402,8.879 6.196,19.574 5.996,21.329 5.809,12.636 5.64,8.16 5.473,4.602 5.32,-4.105 5.175,-4.692 5.039,0.902 4.905,6.204 4.781,10.238 4.663,12.586 4.55,13.234 4.444,12.707 4.343,11.586 4.245,10.246 4.151,9.332 4.062,8.594 3.975,8.055 3.893,6.687 3.819,2.774 3.737,-0.407 3.671,-1.484 3.596,-0.867 3.53,-0.028 3.467,0.196 3.401,-1.356 3.342,-1.043 3.287,0.891 3.229,2.918 3.174,4.684 3.119,1.687 3.072,1.242 3.022,0.84 2.975,0.152 2.927,0.774 2.885,1.609 2.838,2.172 2.799,1.496 2.759,-0.316 2.717,-3.004 2.678,-4.266 2.642,-3.496 2.603,-1.207 2.572,1.434 2.533,3.504 2.502,5.222 2.471,4.352 2.435,-1.067 2.408,-1.886 2.376,-1.016 2.346,-0.297 2.318,-0.219 2.286,0.262 2.263,1.403 2.236,2.105 2.209,2.238 2.181,1.582 2.162,0.77 2.134,0.906 2.107,1.68 2.087,2.277 2.064,2.004 2.044,1.285 2.021,1.043 1.998,0.817 1.978,-0.563 1.954,-1.75 1.939,-1.336 1.919,-0.836 1.896,-0.578 1.88,-0.387 1.861,-0.183 1.841,-0.082 1.825,-0.348 1.806,-0.66 1.79,-0.402 1.775,0.425 1.759,1.407 1.74,1.972 1.723,2.039 1.709,1.715 1.696,1.414 1.677,1.223 1.665,0.695 1.65,0.11 1.634,0.015 1.622,0.375 1.606,0.399 1.595,-0.282 1.579,-0.679 1.568,-0.934 1.556,-0.918 1.54,-0.453 1.532,0.035 1.517,0.332 1.504,0.313 1.494,0.058 1.481,0.336 1.47,0.629 1.458,0.223 1.446,-0.344 1.435,-0.113 1.426,0.621 1.415,1.215 1.404,1.14 1.395,-0.777 1.384,-1.234 1.372,-0.5 1.364,0.171 1.353,0.45 h 1.344 l 1.337,-0.285 1.325,-0.383 1.314,-0.492 1.309,-0.567 1.298,-0.133 1.29,0.231 1.278,-0.153 1.274,-0.234 1.263,-0.371 1.255,-0.141 1.247,0.172 1.239,0.399 1.227,0.757 1.224,0.95 1.215,0.554 1.208,0.149 1.196,0.23 1.192,0.508 1.185,0.453 1.176,0.477 1.169,0.172 1.165,-0.379 1.153,-0.465 1.149,-0.125 1.142,0.262 1.133,0.539 1.126,0.527 1.122,0.145 1.114,-0.239 1.11,0.051 1.098,0.484 1.095,0.551 1.091,-1.25 1.082,-1.355 1.075,-0.836 1.071,-0.149 1.063,0.5 1.06,0.746 1.051,0.563 1.048,0.043 1.04,-0.27 1.035,-0.304 1.029,-0.223 1.024,-0.379 1.016,-0.445 1.012,-0.203 1.009,0.195 1.001,0.363 0.996,0.387 0.993,0.246 0.985,0.082"
       style="fill:none;stroke:#edb120;stroke-width:6.00926;stroke-linecap:butt;stroke-linejoin:round;stroke-miterlimit:10;stroke-dasharray:none;stroke-opacity:1"
       transform="scale(1.3324347,1.3333333)" />
    <path
       id="path85"
       d="m 158.344,512.336 -39.864,0.059 v 37.363 l 39.864,0.004 130.824,0.816 76.523,0.008 54.297,-0.219 42.117,0.192 34.411,-0.754 29.093,-3.352 25.203,-5.535 22.227,-6.762 19.887,-7.515 17.988,-5.114 16.422,-0.215 15.109,7.075 13.985,4.258 13.023,-8.797 12.18,-21.914 11.441,-22.426 10.789,-20.836 10.203,-13.68 9.684,-1.969 9.207,7.661 8.781,8.472 8.387,3.059 8.035,-20.82 7.703,-0.665 7.403,9.098 7.125,-9.211 6.863,-17.195 6.621,-17.363 6.398,-9.864 6.192,12.594 5.992,22.426 5.805,7.293 5.636,21.508 5.469,22.679 5.317,-3.968 5.171,-13.825 5.036,-7.058 4.902,1.047 4.777,7.117 4.66,10.226 4.547,11.719 4.442,12.238 4.34,10.817 4.242,7.437 4.148,4.614 4.059,2.734 3.972,3.754 3.891,5.996 3.817,2.672 3.734,-0.156 3.668,-0.473 3.594,1.805 3.527,3.664 3.465,3.32 3.398,-1.535 3.34,-2.953 3.285,-1.094 3.227,1.332 3.172,4.371 3.117,-1.891 3.07,-1.144 3.02,-1.055 2.972,-3.332 2.926,-2.375 2.883,0.707 2.836,3.563 2.797,2.41 2.758,-0.629 2.714,-4.023 2.676,-2.34 2.641,1.539 2.601,3.14 2.571,2.106 2.531,0.266 2.5,2.226 2.469,4.109 2.433,-2.683 2.407,-2.442 2.375,-1.043 2.343,0.016 2.317,-0.238 2.285,-0.496 2.262,0.054 2.234,0.641 2.207,2.367 2.18,2.883 2.16,1.359 2.133,0.371 2.105,0.684 2.086,1.692 2.063,1.558 2.042,0.344 2.02,-0.086 1.996,0.113 1.977,-1.148 1.953,-2.188 1.937,-0.457 1.918,0.738 1.895,0.946 1.879,0.777 1.859,0.41 1.84,-0.05 1.824,-0.719 1.805,-1.114 1.789,-0.769 1.773,-0.219 1.758,0.141 1.738,0.176 1.723,0.496 1.707,0.777 1.695,0.762 1.676,0.519 1.664,0.012 h 1.649 l 1.633,0.41 1.488,0.797 h 18.851 l 1.168,-0.57 1.446,-0.235 1.433,0.348 1.426,0.008 1.414,-0.785 1.402,-0.16 1.395,0.089 1.383,0.391 1.371,0.398 1.363,0.305 0.59,0.211 h 27.934 l 0.375,-0.187 1.164,-0.598 1.152,-0.274 1.148,0.051 1.141,0.153 1.133,0.207 1.129,0.148 1.117,0.066 h 1.113 l 1.11,0.219 1.097,-0.086 1.098,0.157 1.086,0.14 0.01,0.004 h 18.574 v -13.383 l -0.984,-0.011 -0.993,-0.211 -0.996,-0.614 -1,-0.75 -1.008,-0.297 -1.011,0.469 -1.016,0.832 -1.023,0.559 -1.032,0.312 -1.031,0.785 -1.043,1.364 -1.043,0.535 -1.051,-1.977 -1.058,-2.988 -1.063,-1.644 -1.07,0.917 -1.074,3.387 -1.082,4.539 -1.09,2.645 -1.094,-0.945 -1.101,-1.063 -1.106,0.121 -1.113,0.473 -1.121,-0.219 -1.125,-0.902 -1.133,-0.879 -1.141,-0.36 -1.148,0.301 -1.156,0.649 -1.161,0.164 -1.167,-0.93 -1.176,-1.492 -1.184,-1.156 -1.191,-0.461 -1.199,0.043 -1.204,-0.532 -1.214,-2.312 -1.223,-3.731 -1.231,-3.453 -1.234,-1.679 -1.246,0.621 -1.254,2.355 -1.266,2.172 -1.269,0.223 -1.277,-0.887 -1.289,-0.559 -1.297,0.387 -1.309,1.168 -1.312,1.629 -1.329,1.82 -1.332,1.379 -1.343,0.34 -1.352,-0.406 -1.363,-0.047 -1.371,1.402 -1.383,2.863 -1.395,1.641 -1.402,-2.445 -1.414,-3.211 -1.426,-1.235 -1.433,0.582 -1.45,0.45 -1.457,-1.164 -1.468,-1.875 -1.481,-1.141 -1.492,-0.176 -1.504,0.035 -1.516,-0.289 -1.527,-0.285 -1.539,0.442 -1.555,1.414 -1.566,1.961 -1.578,1.671 -1.594,0.696 -1.605,-0.055 -1.622,0.121 -1.632,0.383 -1.649,-0.227 -1.664,-1.371 -1.676,-1.933 -1.695,-2.067 -1.707,-2.644 -1.723,-3.59 -1.742,-3.766 -1.754,-2.672 -1.773,-1.066 -1.789,0.031 -1.805,0.207 -1.824,-0.019 -1.84,0.113 -1.859,0.777 -1.879,1.551 -1.899,2.102 -1.914,2.406 -1.937,2.211 -1.953,1.312 -1.977,-0.019 -2,-1.52 -2.016,-2.171 -2.043,-2.223 -2.062,-2.453 -2.086,-2.86 -2.109,-2.683 -2.133,-1.442 -2.156,-0.172 -2.18,-0.285 -2.207,-2.105 -2.235,-3.578 -2.261,-2.746 -2.289,-1.024 -2.313,0.203 -2.347,0.61 -2.372,0.988 -2.406,1.336 -2.433,-0.555 -2.469,-4.59 -2.5,-8.222 -2.531,-6.742 -2.571,-0.762 -2.601,5.555 -2.641,8.531 -2.676,6.191 -2.718,1.981 -2.754,0.011 -2.797,-0.578 -2.836,-0.785 -2.883,-2.512 -2.926,-3.922 -2.972,-3.636 -3.02,-2.738 -3.07,-3.626 -3.117,-5.269 -3.172,-4.992 -3.227,-4.508 -3.285,-2.875 -3.34,-0.867 -3.398,1.176 -3.465,2.933 -3.527,3.711 -3.598,3.543 -3.664,2.5 -3.738,0.652 -3.813,-2.871 -3.891,-7.386 -3.972,-12.348 -4.059,-14.453 -4.148,-14.051 -4.243,-13.055 -4.339,-12.359 -4.442,-13.176 -4.547,-14.75 -4.66,-14.949 -4.777,-13.359 -4.902,-11.36 -5.036,-8.863 -5.171,-4.441 -5.317,4.25 -5.469,13.472 -5.636,5.192 -5.809,-17.985 -5.992,-20.226 -6.188,-26.559 -6.398,-27.625 -6.621,-9.559 -6.867,13.536 -7.121,29.929 -7.403,31.575 -7.703,3.199 -8.035,-24.512 -8.391,-14.465 -8.777,-2.097 -9.211,10.847 -9.68,20.231 -10.203,28.156 -10.789,34.93 -11.441,35.461 -12.18,24.835 -13.023,10.782 -13.989,2.023 -15.105,3.238 -16.422,7.336 -17.988,11.653 -19.887,12.758 -22.231,10.199 -25.199,3.672 -29.093,-5.621 -34.415,-11.493 -42.113,-8.703 -54.297,0.75 -76.527,11.371 -130.82,17.141 h -0.004 z"
       style="fill:#edb120;fill-opacity:0.301961;fill-rule:nonzero;stroke:none"
       transform="scale(1.3333333)" />
    <path
       id="path86"
       d="m 118.56,519.254 39.891,-0.074 130.912,-21.805 76.575,-25.063 54.334,-24.851 42.145,-17.754 34.434,-15.062 29.113,-36.508 25.22,-56.692 22.242,-63.5 19.9,-43.613 18,-14.785 16.433,14.543 15.12,37.051 13.993,48.589 13.033,46.606 12.188,40.016 11.449,38.812 10.796,33.895 10.21,30.043 9.69,21.605 9.213,8.453 8.788,4.133 8.392,6.207 8.041,6.812 7.708,3.403 7.407,-1.906 7.13,-0.727 6.868,-0.785 6.626,0.058 6.402,1.543 6.196,2.93 5.996,3.027 5.809,2.375 5.64,0.887 5.473,0.68 5.32,0.18 5.175,0.281 5.039,0.144 4.905,-0.211 4.781,-0.07 4.663,-0.059 4.55,0.782 4.444,1.234 4.343,-0.055 4.245,-0.132 4.151,0.496 4.062,0.761 3.975,0.739 3.893,0.558 3.819,-0.328 3.737,-0.812 3.671,-0.403 3.596,0.524 3.53,1.183 3.467,0.981 3.401,-0.442 3.342,-0.613 3.287,-0.312 3.229,-0.442 3.174,-0.136 3.119,0.398 3.072,0.098 3.022,-0.442 2.975,-0.387 2.927,-0.019 2.885,0.363 2.838,0.473 2.799,0.309 2.759,0.355 2.717,0.203 2.678,0.016 2.642,0.039 2.603,0.172 2.572,0.07 2.533,-0.074 2.502,0.152 2.471,0.258 2.435,-0.059 2.408,-0.175 2.376,-0.051 2.346,0.117 2.318,0.129 2.286,-0.074 2.263,-0.25 2.236,-0.114 2.209,-0.082 2.181,-0.117 2.162,-0.289 2.134,-0.336 2.107,-0.062 2.087,0.074 2.064,0.308 2.044,0.536 2.021,0.5 1.998,0.214 1.978,0.02 1.954,-0.066 1.939,-0.106 1.919,-0.101 1.896,-0.098 1.88,-0.004 1.861,0.121 1.841,0.168 1.825,-0.043 1.806,-0.066 1.79,0.129 1.775,0.277 1.759,0.144 1.74,-0.031 1.723,-0.019 1.709,0.078 1.696,0.109 h 1.677 l 1.665,-0.066 1.65,-0.192 1.634,-0.121 1.622,0.035 1.606,0.133 1.595,0.086 1.579,0.02 1.568,0.035 1.556,0.09 1.54,0.093 1.532,0.082 1.517,0.079 1.504,-0.028 1.494,-0.133 1.481,-0.078 1.47,-0.031 1.458,-0.129 1.446,-0.18 1.435,-0.121 1.426,-0.007 1.415,0.078 1.404,0.121 1.395,0.129 1.384,0.039 1.372,-0.067 1.364,-0.062 1.353,0.043 1.344,0.113 1.337,0.078 1.325,0.035 1.314,-0.05 1.309,-0.137 1.298,-0.192 1.29,-0.125 1.278,0.004 1.274,0.114 1.263,0.156 1.255,0.074 1.247,-0.004 1.239,-0.047 h 1.227 l 1.224,0.082 1.215,0.102 1.208,-0.035 1.196,-0.11 1.192,-0.035 1.185,-0.051 1.176,-0.019 1.169,-0.016 1.165,-0.14 1.153,-0.121 1.149,-0.039 1.142,0.015 1.133,0.051 1.126,0.082 1.122,0.059 1.114,-0.184 1.11,-0.301 1.098,-0.269 1.095,-0.149 1.091,-0.043 1.082,-0.183 1.075,-0.129 1.071,-0.02 1.063,-0.008 1.06,-0.136 1.051,-0.106 1.048,0.039 1.04,0.172 1.035,0.281 1.029,0.325 1.024,0.289 1.016,0.203 1.012,0.062 1.009,0.043 1.001,0.082 0.996,0.129 0.993,0.172 0.985,0.129"
       style="fill:none;stroke:#0072bd;stroke-width:6.00926;stroke-linecap:butt;stroke-linejoin:round;stroke-miterlimit:10;stroke-dasharray:none;stroke-opacity:1"
       transform="scale(1.3324347,1.3333333)" />
    <path
       id="path87"
       d="m 892.871,554.277 3.817,-0.207 3.734,-0.047 3.668,0.239 3.594,0.316 3.527,-0.074 3.465,-0.234 3.398,0.394 3.34,0.246 3.285,0.184 3.227,-0.41 3.172,-0.075 1.765,0.555 h 21.629 l 0.227,-0.047 2.758,-0.269 2.714,-0.055 2.676,-0.051 2.641,-0.031 2.601,0.219 2.571,0.183 2.531,-0.148 2.5,-0.09 2.469,-0.043 2.433,-0.176 2.407,0.086 2.375,0.168 2.343,0.168 1.539,0.086 h 3.473 l 1.852,-0.148 2.234,-0.016 2.207,-0.027 2.18,0.101 2.16,-0.035 2.133,-0.187 2.105,0.046 2.086,-0.156 2.063,-0.199 2.042,0.008 2.016,0.16 2,0.101 1.977,0.11 1.953,0.105 1.937,0.063 1.914,0.031 1.899,-0.035 1.879,-0.012 1.797,0.09 h 5.375 l 0.156,-0.016 1.789,-0.113 1.773,-0.004 1.754,-0.051 1.739,-0.027 1.726,0.016 1.707,0.023 1.692,0.02 1.679,-0.02 1.559,0.172 h 2.347 l 1.04,-0.043 1.621,-0.066 1.605,-0.032 1.594,-0.054 1.578,-0.055 h 1.566 l 1.555,0.035 h 1.539 l 1.527,-0.035 1.516,0.008 1.504,-0.012 1.492,-0.043 1.481,0.047 1.468,0.113 1.457,0.016 1.45,-0.031 1.433,-0.02 1.426,0.031 1.414,0.051 1.402,0.039 1.247,0.051 h 2.14 l 0.762,-0.019 1.363,-0.028 1.356,0.016 1.343,-0.028 1.332,-0.089 1.325,0.011 1.316,-0.019 1.305,-0.094 1.297,-0.117 1.289,-0.004 1.281,0.051 1.269,0.094 1.262,0.144 1.254,0.066 1.246,0.012 1.238,-0.035 1.231,-0.023 1.219,-0.043 1.215,-0.047 1.207,-0.117 1.199,-0.032 1.187,0.168 1.184,0.071 1.164,0.062 h 2.148 l 0.196,-0.016 1.152,-0.054 1.148,0.004 1.141,-0.043 1.133,-0.055 1.129,0.098 0.371,0.066 h 1.957 l 1.012,-0.199 1.101,-0.051 1.094,0.215 0.101,0.035 h 3.672 l 0.539,-0.082 1.063,0.023 1.059,-0.007 1.05,-0.071 1.047,-0.144 1.039,-0.219 1.035,-0.187 1.028,-0.106 1.023,0.082 1.02,0.313 1.011,0.152 h 1.004 l 1.004,-0.07 0.996,-0.075 0.989,0.055 0.988,0.145 v -0.946 l -0.988,-0.113 -0.989,-0.293 -0.996,-0.324 -1.004,-0.238 -1.004,-0.086 -1.011,0.023 -1.02,-0.09 -1.023,-0.5 -1.028,-0.75 -1.035,-0.746 -1.039,-0.562 -1.047,-0.231 -1.05,0.145 -1.059,0.265 -1.063,0.043 -1.07,-0.132 -1.074,0.046 -1.082,0.328 -1.086,0.458 -1.094,0.511 -1.101,0.485 -1.106,0.386 -1.113,0.25 -1.121,0.086 -1.129,-0.07 -1.133,-0.156 -1.141,-0.067 -1.148,0.082 -1.152,0.184 -1.161,0.187 -1.171,0.11 -1.176,0.101 -1.184,0.172 -1.187,0.239 -1.199,0.187 -1.207,-0.043 -1.215,-0.254 -1.219,-0.203 -1.231,-0.027 -1.238,0.058 -1.246,0.02 -1.254,-0.082 -1.262,-0.164 -1.269,-0.137 -1.281,0.047 -1.289,0.238 -1.297,0.27 -1.305,0.179 -1.316,0.082 -1.325,-0.062 -1.332,-0.242 -1.343,-0.25 -1.356,-0.075 -1.363,0.102 -1.371,0.094 -1.383,-0.07 -1.395,-0.2 -1.402,-0.199 -1.414,-0.113 -1.422,0.051 -1.437,0.222 -1.446,0.328 -1.457,0.274 -1.468,0.179 -1.481,0.2 -1.492,0.218 -1.504,0.047 -1.516,-0.148 -1.527,-0.199 -1.543,-0.192 -1.551,-0.14 -1.566,-0.075 -1.582,-0.093 -1.59,-0.227 -1.609,-0.293 -1.618,-0.137 -1.636,0.172 -1.649,0.395 -1.66,0.32 -1.68,-0.016 -1.691,-0.203 -1.707,-0.129 -1.727,0.051 -1.738,0.039 -1.758,-0.343 -1.769,-0.559 -1.789,-0.371 -1.809,-0.055 -1.82,0.035 -1.844,-0.117 -1.859,-0.152 -1.879,0.004 -1.895,0.16 -1.918,0.234 -1.933,0.266 -1.957,0.242 -1.977,0.07 -1.996,-0.328 -2.02,-0.836 -2.039,-1.066 -2.062,-0.816 -2.086,-0.305 -2.109,0.176 -2.133,0.48 -2.156,0.543 -2.184,0.336 -2.207,0.133 -2.234,0.215 -2.258,0.316 -2.289,0.141 -2.317,-0.129 -2.343,-0.067 -2.375,0.27 -2.403,0.437 -2.437,-0.058 -2.465,-0.559 -2.5,-0.39 -2.535,-0.004 -2.567,0.047 -2.605,-0.125 -2.641,-0.11 -2.676,-0.086 -2.714,-0.457 -2.754,-0.988 -2.797,-1.207 -2.84,-1.133 -2.879,-0.75 -2.93,-0.117 -2.972,0.551 -3.02,0.871 -3.066,0.523 -3.121,0.184 -3.172,0.203 -3.227,0.473 -3.281,0.812 -3.34,1.469 -3.402,1.277 -3.465,-2.195 -3.527,-2.438 -3.594,-0.734 -3.664,1.043 -3.738,1.582 -3.813,0.449 -3.891,-0.953 -3.976,-1.699 -4.059,-1.383 -4.148,-0.027 -4.242,1.179 -4.336,-0.156 -4.442,-1.426 -4.551,-1.031 -4.66,0.422 -4.777,0.66 -4.902,-1.183 -5.032,-0.258 -5.171,0.562 -5.317,-0.648 -5.473,-1.246 -5.632,-2.539 -5.809,-4.094 -5.992,-5.18 -6.188,-4.023 -6.398,-2.129 -6.625,-0.531 -6.863,0.988 -7.125,3.394 -7.403,2.067 -7.703,-3.168 -8.031,-11.121 -8.391,-10.84 -8.781,-7.316 -9.207,-10.356 -9.68,-23.394 -10.207,-45.25 -10.785,-60.383 -11.445,-64.52 -12.18,-66.07 -13.019,-55.844 -13.989,-35.105 -15.105,-11.922 -16.426,3.34 -17.988,6.101 -19.883,21.078 -22.231,44.504 -25.203,61.863 -29.093,51.352 -34.411,36.141 -42.117,28.039 -54.293,32.07 -76.527,38.496 -130.824,35.738 -39.864,0.102 v 68.672 l 39.864,-0.043 130.824,-7.875 76.527,-11.625 54.293,-17.637 42.117,-7.465 34.411,6.012 29.093,-21.664 25.203,-51.52 22.231,-82.492 19.883,-66.152 17.988,-23.469 16.426,32.426 15.105,62.176 13.989,62.078 13.019,37.371 12.18,13.961 11.445,13.101 10.785,7.411 10.207,14.832 9.68,19.816 9.207,6.555 8.781,0.949 8.391,1.57 8.031,2.508 7.703,3.637 7.403,-1.746 7.125,1.941 6.863,-0.586 6.625,-0.41 6.398,0.953 6.188,1.84 5.992,0.875 5.809,0.652 5.632,-0.761 5.473,0.113 5.317,-0.293 5.171,1.129 5.032,0.027 4.902,-1.601 4.777,0.515 4.66,0.309 4.551,0.531 4.442,1.043 4.336,-0.266 4.242,0.911 4.148,0.968 4.059,0.137 3.976,-0.223 3.891,0.168 z"
       style="fill:#0072bd;fill-opacity:0.301961;fill-rule:nonzero;stroke:none"
       transform="scale(1.3333333)" />
    <path
       id="path88"
       d="M 118.682,555.105 V 53.332"
       style="fill:none;stroke:#262626;stroke-width:6.00926;stroke-linecap:butt;stroke-linejoin:round;stroke-miterlimit:10;stroke-dasharray:none;stroke-opacity:0.14902"
       transform="scale(1.3324347,1.3333333)" />
    <path
       id="path89"
       d="M 553.557,555.105 V 53.332"
       style="fill:none;stroke:#262626;stroke-width:6.00926;stroke-linecap:butt;stroke-linejoin:round;stroke-miterlimit:10;stroke-dasharray:none;stroke-opacity:0.14902"
       transform="scale(1.3324347,1.3333333)" />
    <path
       id="path90"
       d="M 988.432,555.105 V 53.332"
       style="fill:none;stroke:#262626;stroke-width:6.00926;stroke-linecap:butt;stroke-linejoin:round;stroke-miterlimit:10;stroke-dasharray:none;stroke-opacity:0.14902"
       transform="scale(1.3324347,1.3333333)" />
    <path
       id="path91"
       d="M 118.682,555.105 H 1153.778"
       style="fill:none;stroke:#262626;stroke-width:6.00926;stroke-linecap:butt;stroke-linejoin:round;stroke-miterlimit:10;stroke-dasharray:none;stroke-opacity:0.14902"
       transform="scale(1.3324347,1.3333333)" />
    <path
       id="path92"
       d="M 118.682,304.219 H 1153.778"
       style="fill:none;stroke:#262626;stroke-width:6.00926;stroke-linecap:butt;stroke-linejoin:round;stroke-miterlimit:10;stroke-dasharray:none;stroke-opacity:0.14902"
       transform="scale(1.3324347,1.3333333)" />
    <path
       id="path93"
       d="M 118.682,53.332 H 1153.778"
       style="fill:none;stroke:#262626;stroke-width:6.00926;stroke-linecap:butt;stroke-linejoin:round;stroke-miterlimit:10;stroke-dasharray:none;stroke-opacity:0.14902"
       transform="scale(1.3324347,1.3333333)" />
    <path
       id="path94"
       d="M 684.469,555.105 V 53.332"
       style="fill:none;stroke:#1a1a1a;stroke-width:6.00926;stroke-linecap:butt;stroke-linejoin:bevel;stroke-miterlimit:1;stroke-dasharray:6.00926, 6.00926;stroke-dashoffset:0;stroke-opacity:0.25098"
       transform="scale(1.3324347,1.3333333)" />
    <path
       id="path95"
       d="M 857.523,555.105 V 53.332"
       style="fill:none;stroke:#1a1a1a;stroke-width:6.00926;stroke-linecap:butt;stroke-linejoin:bevel;stroke-miterlimit:1;stroke-dasharray:6.00926, 6.00926;stroke-dashoffset:0;stroke-opacity:0.25098"
       transform="scale(1.3324347,1.3333333)" />
    <path
       id="path96"
       d="M 1119.344,555.105 V 53.332"
       style="fill:none;stroke:#1a1a1a;stroke-width:6.00926;stroke-linecap:butt;stroke-linejoin:bevel;stroke-miterlimit:1;stroke-dasharray:6.00926, 6.00926;stroke-dashoffset:0;stroke-opacity:0.25098"
       transform="scale(1.3324347,1.3333333)" />
    <path
       id="path97"
       d="m 992.359,61.594 h 152.383 v 147.98 H 992.359 Z"
       style="fill:#ffffff;fill-opacity:1;fill-rule:nonzero;stroke:none"
       transform="scale(1.3333333)" />
    <text
       id="text97"
       xml:space="preserve"
       transform="matrix(1.3333333,0,0,1.3342328,1370.1884,123.12388)"><tspan
         style="font-variant:normal;font-weight:normal;font-size:28.825px;font-family:Helvetica;writing-mode:lr-tb;fill:#000000;fill-opacity:1;fill-rule:nonzero;stroke:none"
         x="0 19.226051 25.630043 41.661133 57.692226 73.72332 89.75441 105.7855"
         y="0"
         id="tspan97">Elephant</tspan></text>
    <path
       id="path98"
       d="m 996.035,81.074 h 30.047"
       style="fill:none;stroke:#0072bd;stroke-width:6.00926;stroke-linecap:butt;stroke-linejoin:round;stroke-miterlimit:10;stroke-dasharray:none;stroke-opacity:1"
       transform="scale(1.3324347,1.3333333)" />
    <text
       id="text98"
       xml:space="preserve"
       transform="matrix(1.3333333,0,0,1.3342328,1370.1884,171.57577)"><tspan
         style="font-variant:normal;font-weight:normal;font-size:28.825px;font-family:Helvetica;writing-mode:lr-tb;fill:#000000;fill-opacity:1;fill-rule:nonzero;stroke:none"
         x="0 20.816492 36.847584 60.859035 76.890129"
         y="0"
         id="tspan98">Human</tspan></text>
    <path
       id="path99"
       d="m 996.035,117.414 h 30.047"
       style="fill:none;stroke:#edb120;stroke-width:6.00926;stroke-linecap:butt;stroke-linejoin:round;stroke-miterlimit:10;stroke-dasharray:none;stroke-opacity:1"
       transform="scale(1.3324347,1.3333333)" />
    <text
       id="text99"
       xml:space="preserve"
       transform="matrix(1.3333333,0,0,1.3342328,1370.1884,220.02764)"><tspan
         style="font-variant:normal;font-weight:normal;font-size:28.825px;font-family:Helvetica;writing-mode:lr-tb;fill:#000000;fill-opacity:1;fill-rule:nonzero;stroke:none"
         x="0 19.226051 35.257141 43.265652 51.274158 67.305252 73.709244"
         y="0"
         id="tspan99">Buffalo</tspan></text>
    <path
       id="path100"
       d="m 996.035,153.754 h 30.047"
       style="fill:none;stroke:#a2142f;stroke-width:6.00926;stroke-linecap:butt;stroke-linejoin:round;stroke-miterlimit:10;stroke-dasharray:none;stroke-opacity:1"
       transform="scale(1.3324347,1.3333333)" />
    <path
       id="path101"
       d="m 1029.789,201.309 c -0.156,0 -0.285,-0.055 -0.387,-0.168 -0.101,-0.114 -0.152,-0.25 -0.152,-0.407 0,-0.14 0.051,-0.269 0.152,-0.386 0.102,-0.118 0.231,-0.176 0.387,-0.176 h 8.387 v -7.793 h -8.387 c -0.156,0 -0.285,-0.063 -0.387,-0.184 -0.101,-0.121 -0.152,-0.25 -0.152,-0.39 0,-0.141 0.051,-0.274 0.152,-0.395 0.102,-0.121 0.231,-0.183 0.387,-0.183 h 8.387 v -8.415 c 0,-0.148 0.054,-0.269 0.164,-0.371 0.109,-0.097 0.242,-0.144 0.398,-0.144 0.133,0 0.262,0.047 0.387,0.144 0.125,0.102 0.187,0.223 0.187,0.371 v 8.415 h 8.387 c 0.141,0 0.262,0.062 0.363,0.183 0.102,0.121 0.153,0.254 0.153,0.395 0,0.14 -0.051,0.269 -0.153,0.39 -0.101,0.121 -0.222,0.184 -0.363,0.184 h -8.387 v 7.793 h 8.387 c 0.141,0 0.262,0.058 0.363,0.176 0.102,0.117 0.153,0.246 0.153,0.386 0,0.157 -0.051,0.293 -0.153,0.407 -0.101,0.113 -0.222,0.168 -0.363,0.168 z"
       style="fill:#000000;fill-opacity:1;fill-rule:nonzero;stroke:none"
       transform="scale(1.3333333)" />
    <text
       id="text101"
       xml:space="preserve"
       transform="matrix(1.3333333,0,0,1.3342328,1410.8989,268.41358)"><tspan
         style="font-variant:normal;font-weight:normal;font-size:28.825px;font-family:Helvetica;writing-mode:lr-tb;fill:#000000;fill-opacity:1;fill-rule:nonzero;stroke:none"
         x="0 16.031092 24.0396 38.452103 46.460609"
         y="0"
         id="tspan101">1 std</tspan></text>
    <path
       id="path102"
       d="m 995.363,181.102 h 30.027 v 17.98 h -30.027 z"
       style="fill:#0072bd;fill-opacity:0.301961;fill-rule:nonzero;stroke:none"
       transform="scale(1.3333333)" />
    <path
       id="path103"
       d="m 993.029,61.594 h 152.486 v 147.98 H 993.029 Z"
       style="fill:none;stroke:#262626;stroke-width:6.00926;stroke-linecap:butt;stroke-linejoin:miter;stroke-miterlimit:10;stroke-dasharray:none;stroke-opacity:1"
       transform="scale(1.3324347,1.3333333)" />
  </g>
</svg>
