<?xml version="1.0" encoding="UTF-8" standalone="no"?>
<!-- Created with Inkscape (http://www.inkscape.org/) -->

<svg
   version="1.1"
   id="svg1"
   width="1537.3333"
   height="865.33331"
   viewBox="0 0 1537.3333 865.33331"
   xmlns="http://www.w3.org/2000/svg"
   xmlns:svg="http://www.w3.org/2000/svg">
  <defs
     id="defs1" />
  <g
     id="g1">
    <path
       id="path1"
       d="M 0,0 H 1153 V 649 H 0 Z"
       style="fill:#ffffff;fill-opacity:1;fill-rule:nonzero;stroke:none"
       transform="scale(1.3333333)" />
    <path
       id="path2"
       d="M 118.602,53.332 H 1153 V 555.105 H 118.602 Z"
       style="fill:#ffffff;fill-opacity:1;fill-rule:nonzero;stroke:none"
       transform="scale(1.3333333)" />
    <path
       id="path3"
       d="M 249.594,555.105 V 53.332"
       style="fill:none;stroke:#1a1a1a;stroke-width:6.00926;stroke-linecap:butt;stroke-linejoin:bevel;stroke-miterlimit:1;stroke-dasharray:6.00926, 6.00926;stroke-dashoffset:0;stroke-opacity:0.25098"
       transform="scale(1.3324347,1.3333333)" />
    <path
       id="path4"
       d="M 326.173,555.105 V 53.332"
       style="fill:none;stroke:#1a1a1a;stroke-width:6.00926;stroke-linecap:butt;stroke-linejoin:bevel;stroke-miterlimit:1;stroke-dasharray:6.00926, 6.00926;stroke-dashoffset:0;stroke-opacity:0.25098"
       transform="scale(1.3324347,1.3333333)" />
    <path
       id="path5"
       d="M 380.503,555.105 V 53.332"
       style="fill:none;stroke:#1a1a1a;stroke-width:6.00926;stroke-linecap:butt;stroke-linejoin:bevel;stroke-miterlimit:1;stroke-dasharray:6.00926, 6.00926;stroke-dashoffset:0;stroke-opacity:0.25098"
       transform="scale(1.3324347,1.3333333)" />
    <path
       id="path6"
       d="M 422.648,555.105 V 53.332"
       style="fill:none;stroke:#1a1a1a;stroke-width:6.00926;stroke-linecap:butt;stroke-linejoin:bevel;stroke-miterlimit:1;stroke-dasharray:6.00926, 6.00926;stroke-dashoffset:0;stroke-opacity:0.25098"
       transform="scale(1.3324347,1.3333333)" />
    <path
       id="path7"
       d="M 457.082,555.105 V 53.332"
       style="fill:none;stroke:#1a1a1a;stroke-width:6.00926;stroke-linecap:butt;stroke-linejoin:bevel;stroke-miterlimit:1;stroke-dasharray:6.00926, 6.00926;stroke-dashoffset:0;stroke-opacity:0.25098"
       transform="scale(1.3324347,1.3333333)" />
    <path
       id="path8"
       d="M 486.195,555.105 V 53.332"
       style="fill:none;stroke:#1a1a1a;stroke-width:6.00926;stroke-linecap:butt;stroke-linejoin:bevel;stroke-miterlimit:1;stroke-dasharray:6.00926, 6.00926;stroke-dashoffset:0;stroke-opacity:0.25098"
       transform="scale(1.3324347,1.3333333)" />
    <path
       id="path9"
       d="M 511.415,555.105 V 53.332"
       style="fill:none;stroke:#1a1a1a;stroke-width:6.00926;stroke-linecap:butt;stroke-linejoin:bevel;stroke-miterlimit:1;stroke-dasharray:6.00926, 6.00926;stroke-dashoffset:0;stroke-opacity:0.25098"
       transform="scale(1.3324347,1.3333333)" />
    <path
       id="path10"
       d="M 533.661,555.105 V 53.332"
       style="fill:none;stroke:#1a1a1a;stroke-width:6.00926;stroke-linecap:butt;stroke-linejoin:bevel;stroke-miterlimit:1;stroke-dasharray:6.00926, 6.00926;stroke-dashoffset:0;stroke-opacity:0.25098"
       transform="scale(1.3324347,1.3333333)" />
    <path
       id="path11"
       d="M 761.048,555.105 V 53.332"
       style="fill:none;stroke:#1a1a1a;stroke-width:6.00926;stroke-linecap:butt;stroke-linejoin:bevel;stroke-miterlimit:1;stroke-dasharray:6.00926, 6.00926;stroke-dashoffset:0;stroke-opacity:0.25098"
       transform="scale(1.3324347,1.3333333)" />
    <path
       id="path12"
       d="M 815.378,555.105 V 53.332"
       style="fill:none;stroke:#1a1a1a;stroke-width:6.00926;stroke-linecap:butt;stroke-linejoin:bevel;stroke-miterlimit:1;stroke-dasharray:6.00926, 6.00926;stroke-dashoffset:0;stroke-opacity:0.25098"
       transform="scale(1.3324347,1.3333333)" />
    <path
       id="path13"
       d="M 891.957,555.105 V 53.332"
       style="fill:none;stroke:#1a1a1a;stroke-width:6.00926;stroke-linecap:butt;stroke-linejoin:bevel;stroke-miterlimit:1;stroke-dasharray:6.00926, 6.00926;stroke-dashoffset:0;stroke-opacity:0.25098"
       transform="scale(1.3324347,1.3333333)" />
    <path
       id="path14"
       d="M 921.07,555.105 V 53.332"
       style="fill:none;stroke:#1a1a1a;stroke-width:6.00926;stroke-linecap:butt;stroke-linejoin:bevel;stroke-miterlimit:1;stroke-dasharray:6.00926, 6.00926;stroke-dashoffset:0;stroke-opacity:0.25098"
       transform="scale(1.3324347,1.3333333)" />
    <path
       id="path15"
       d="M 946.29,555.105 V 53.332"
       style="fill:none;stroke:#1a1a1a;stroke-width:6.00926;stroke-linecap:butt;stroke-linejoin:bevel;stroke-miterlimit:1;stroke-dasharray:6.00926, 6.00926;stroke-dashoffset:0;stroke-opacity:0.25098"
       transform="scale(1.3324347,1.3333333)" />
    <path
       id="path16"
       d="M 968.536,555.105 V 53.332"
       style="fill:none;stroke:#1a1a1a;stroke-width:6.00926;stroke-linecap:butt;stroke-linejoin:bevel;stroke-miterlimit:1;stroke-dasharray:6.00926, 6.00926;stroke-dashoffset:0;stroke-opacity:0.25098"
       transform="scale(1.3324347,1.3333333)" />
    <path
       id="path17"
       d="M 118.682,555.105 H 1153.778"
       style="fill:none;stroke:#262626;stroke-width:6.00926;stroke-linecap:square;stroke-linejoin:round;stroke-miterlimit:10;stroke-dasharray:none;stroke-opacity:1"
       transform="scale(1.3324347,1.3333333)" />
    <path
       id="path18"
       d="M 118.682,53.332 H 1153.778"
       style="fill:none;stroke:#262626;stroke-width:6.00926;stroke-linecap:square;stroke-linejoin:round;stroke-miterlimit:10;stroke-dasharray:none;stroke-opacity:1"
       transform="scale(1.3324347,1.3333333)" />
    <path
       id="path19"
       d="M 118.682,555.105 V 544.754"
       style="fill:none;stroke:#262626;stroke-width:6.00926;stroke-linecap:square;stroke-linejoin:round;stroke-miterlimit:10;stroke-dasharray:none;stroke-opacity:1"
       transform="scale(1.3324347,1.3333333)" />
    <path
       id="path20"
       d="M 553.557,555.105 V 544.754"
       style="fill:none;stroke:#262626;stroke-width:6.00926;stroke-linecap:square;stroke-linejoin:round;stroke-miterlimit:10;stroke-dasharray:none;stroke-opacity:1"
       transform="scale(1.3324347,1.3333333)" />
    <path
       id="path21"
       d="M 684.469,555.105 V 544.754"
       style="fill:none;stroke:#262626;stroke-width:6.00926;stroke-linecap:square;stroke-linejoin:round;stroke-miterlimit:10;stroke-dasharray:none;stroke-opacity:1"
       transform="scale(1.3324347,1.3333333)" />
    <path
       id="path22"
       d="M 857.523,555.105 V 544.754"
       style="fill:none;stroke:#262626;stroke-width:6.00926;stroke-linecap:square;stroke-linejoin:round;stroke-miterlimit:10;stroke-dasharray:none;stroke-opacity:1"
       transform="scale(1.3324347,1.3333333)" />
    <path
       id="path23"
       d="M 988.432,555.105 V 544.754"
       style="fill:none;stroke:#262626;stroke-width:6.00926;stroke-linecap:square;stroke-linejoin:round;stroke-miterlimit:10;stroke-dasharray:none;stroke-opacity:1"
       transform="scale(1.3324347,1.3333333)" />
    <path
       id="path24"
       d="M 1119.344,555.105 V 544.754"
       style="fill:none;stroke:#262626;stroke-width:6.00926;stroke-linecap:square;stroke-linejoin:round;stroke-miterlimit:10;stroke-dasharray:none;stroke-opacity:1"
       transform="scale(1.3324347,1.3333333)" />
    <path
       id="path25"
       d="M 118.682,53.332 V 63.684"
       style="fill:none;stroke:#262626;stroke-width:6.00926;stroke-linecap:square;stroke-linejoin:round;stroke-miterlimit:10;stroke-dasharray:none;stroke-opacity:1"
       transform="scale(1.3324347,1.3333333)" />
    <path
       id="path26"
       d="M 553.557,53.332 V 63.684"
       style="fill:none;stroke:#262626;stroke-width:6.00926;stroke-linecap:square;stroke-linejoin:round;stroke-miterlimit:10;stroke-dasharray:none;stroke-opacity:1"
       transform="scale(1.3324347,1.3333333)" />
    <path
       id="path27"
       d="M 684.469,53.332 V 63.684"
       style="fill:none;stroke:#262626;stroke-width:6.00926;stroke-linecap:square;stroke-linejoin:round;stroke-miterlimit:10;stroke-dasharray:none;stroke-opacity:1"
       transform="scale(1.3324347,1.3333333)" />
    <path
       id="path28"
       d="M 857.523,53.332 V 63.684"
       style="fill:none;stroke:#262626;stroke-width:6.00926;stroke-linecap:square;stroke-linejoin:round;stroke-miterlimit:10;stroke-dasharray:none;stroke-opacity:1"
       transform="scale(1.3324347,1.3333333)" />
    <path
       id="path29"
       d="M 988.432,53.332 V 63.684"
       style="fill:none;stroke:#262626;stroke-width:6.00926;stroke-linecap:square;stroke-linejoin:round;stroke-miterlimit:10;stroke-dasharray:none;stroke-opacity:1"
       transform="scale(1.3324347,1.3333333)" />
    <path
       id="path30"
       d="M 1119.344,53.332 V 63.684"
       style="fill:none;stroke:#262626;stroke-width:6.00926;stroke-linecap:square;stroke-linejoin:round;stroke-miterlimit:10;stroke-dasharray:none;stroke-opacity:1"
       transform="scale(1.3324347,1.3333333)" />
    <path
       id="path31"
       d="M 118.682,555.105 V 549.93"
       style="fill:none;stroke:#262626;stroke-width:6.00926;stroke-linecap:square;stroke-linejoin:round;stroke-miterlimit:10;stroke-dasharray:none;stroke-opacity:1"
       transform="scale(1.3324347,1.3333333)" />
    <path
       id="path32"
       d="M 249.594,555.105 V 549.93"
       style="fill:none;stroke:#262626;stroke-width:6.00926;stroke-linecap:square;stroke-linejoin:round;stroke-miterlimit:10;stroke-dasharray:none;stroke-opacity:1"
       transform="scale(1.3324347,1.3333333)" />
    <path
       id="path33"
       d="M 326.173,555.105 V 549.93"
       style="fill:none;stroke:#262626;stroke-width:6.00926;stroke-linecap:square;stroke-linejoin:round;stroke-miterlimit:10;stroke-dasharray:none;stroke-opacity:1"
       transform="scale(1.3324347,1.3333333)" />
    <path
       id="path34"
       d="M 380.503,555.105 V 549.93"
       style="fill:none;stroke:#262626;stroke-width:6.00926;stroke-linecap:square;stroke-linejoin:round;stroke-miterlimit:10;stroke-dasharray:none;stroke-opacity:1"
       transform="scale(1.3324347,1.3333333)" />
    <path
       id="path35"
       d="M 422.648,555.105 V 549.93"
       style="fill:none;stroke:#262626;stroke-width:6.00926;stroke-linecap:square;stroke-linejoin:round;stroke-miterlimit:10;stroke-dasharray:none;stroke-opacity:1"
       transform="scale(1.3324347,1.3333333)" />
    <path
       id="path36"
       d="M 457.082,555.105 V 549.93"
       style="fill:none;stroke:#262626;stroke-width:6.00926;stroke-linecap:square;stroke-linejoin:round;stroke-miterlimit:10;stroke-dasharray:none;stroke-opacity:1"
       transform="scale(1.3324347,1.3333333)" />
    <path
       id="path37"
       d="M 486.195,555.105 V 549.93"
       style="fill:none;stroke:#262626;stroke-width:6.00926;stroke-linecap:square;stroke-linejoin:round;stroke-miterlimit:10;stroke-dasharray:none;stroke-opacity:1"
       transform="scale(1.3324347,1.3333333)" />
    <path
       id="path38"
       d="M 511.415,555.105 V 549.93"
       style="fill:none;stroke:#262626;stroke-width:6.00926;stroke-linecap:square;stroke-linejoin:round;stroke-miterlimit:10;stroke-dasharray:none;stroke-opacity:1"
       transform="scale(1.3324347,1.3333333)" />
    <path
       id="path39"
       d="M 533.661,555.105 V 549.93"
       style="fill:none;stroke:#262626;stroke-width:6.00926;stroke-linecap:square;stroke-linejoin:round;stroke-miterlimit:10;stroke-dasharray:none;stroke-opacity:1"
       transform="scale(1.3324347,1.3333333)" />
    <path
       id="path40"
       d="M 553.557,555.105 V 549.93"
       style="fill:none;stroke:#262626;stroke-width:6.00926;stroke-linecap:square;stroke-linejoin:round;stroke-miterlimit:10;stroke-dasharray:none;stroke-opacity:1"
       transform="scale(1.3324347,1.3333333)" />
    <path
       id="path41"
       d="M 684.469,555.105 V 549.93"
       style="fill:none;stroke:#262626;stroke-width:6.00926;stroke-linecap:square;stroke-linejoin:round;stroke-miterlimit:10;stroke-dasharray:none;stroke-opacity:1"
       transform="scale(1.3324347,1.3333333)" />
    <path
       id="path42"
       d="M 761.048,555.105 V 549.93"
       style="fill:none;stroke:#262626;stroke-width:6.00926;stroke-linecap:square;stroke-linejoin:round;stroke-miterlimit:10;stroke-dasharray:none;stroke-opacity:1"
       transform="scale(1.3324347,1.3333333)" />
    <path
       id="path43"
       d="M 815.378,555.105 V 549.93"
       style="fill:none;stroke:#262626;stroke-width:6.00926;stroke-linecap:square;stroke-linejoin:round;stroke-miterlimit:10;stroke-dasharray:none;stroke-opacity:1"
       transform="scale(1.3324347,1.3333333)" />
    <path
       id="path44"
       d="M 857.523,555.105 V 549.93"
       style="fill:none;stroke:#262626;stroke-width:6.00926;stroke-linecap:square;stroke-linejoin:round;stroke-miterlimit:10;stroke-dasharray:none;stroke-opacity:1"
       transform="scale(1.3324347,1.3333333)" />
    <path
       id="path45"
       d="M 891.957,555.105 V 549.93"
       style="fill:none;stroke:#262626;stroke-width:6.00926;stroke-linecap:square;stroke-linejoin:round;stroke-miterlimit:10;stroke-dasharray:none;stroke-opacity:1"
       transform="scale(1.3324347,1.3333333)" />
    <path
       id="path46"
       d="M 921.07,555.105 V 549.93"
       style="fill:none;stroke:#262626;stroke-width:6.00926;stroke-linecap:square;stroke-linejoin:round;stroke-miterlimit:10;stroke-dasharray:none;stroke-opacity:1"
       transform="scale(1.3324347,1.3333333)" />
    <path
       id="path47"
       d="M 946.29,555.105 V 549.93"
       style="fill:none;stroke:#262626;stroke-width:6.00926;stroke-linecap:square;stroke-linejoin:round;stroke-miterlimit:10;stroke-dasharray:none;stroke-opacity:1"
       transform="scale(1.3324347,1.3333333)" />
    <path
       id="path48"
       d="M 968.536,555.105 V 549.93"
       style="fill:none;stroke:#262626;stroke-width:6.00926;stroke-linecap:square;stroke-linejoin:round;stroke-miterlimit:10;stroke-dasharray:none;stroke-opacity:1"
       transform="scale(1.3324347,1.3333333)" />
    <path
       id="path49"
       d="M 988.432,555.105 V 549.93"
       style="fill:none;stroke:#262626;stroke-width:6.00926;stroke-linecap:square;stroke-linejoin:round;stroke-miterlimit:10;stroke-dasharray:none;stroke-opacity:1"
       transform="scale(1.3324347,1.3333333)" />
    <path
       id="path50"
       d="M 1119.344,555.105 V 549.93"
       style="fill:none;stroke:#262626;stroke-width:6.00926;stroke-linecap:square;stroke-linejoin:round;stroke-miterlimit:10;stroke-dasharray:none;stroke-opacity:1"
       transform="scale(1.3324347,1.3333333)" />
    <path
       id="path51"
       d="m 118.682,53.332 v 5.176"
       style="fill:none;stroke:#262626;stroke-width:6.00926;stroke-linecap:square;stroke-linejoin:round;stroke-miterlimit:10;stroke-dasharray:none;stroke-opacity:1"
       transform="scale(1.3324347,1.3333333)" />
    <path
       id="path52"
       d="m 249.594,53.332 v 5.176"
       style="fill:none;stroke:#262626;stroke-width:6.00926;stroke-linecap:square;stroke-linejoin:round;stroke-miterlimit:10;stroke-dasharray:none;stroke-opacity:1"
       transform="scale(1.3324347,1.3333333)" />
    <path
       id="path53"
       d="m 326.173,53.332 v 5.176"
       style="fill:none;stroke:#262626;stroke-width:6.00926;stroke-linecap:square;stroke-linejoin:round;stroke-miterlimit:10;stroke-dasharray:none;stroke-opacity:1"
       transform="scale(1.3324347,1.3333333)" />
    <path
       id="path54"
       d="m 380.503,53.332 v 5.176"
       style="fill:none;stroke:#262626;stroke-width:6.00926;stroke-linecap:square;stroke-linejoin:round;stroke-miterlimit:10;stroke-dasharray:none;stroke-opacity:1"
       transform="scale(1.3324347,1.3333333)" />
    <path
       id="path55"
       d="m 422.648,53.332 v 5.176"
       style="fill:none;stroke:#262626;stroke-width:6.00926;stroke-linecap:square;stroke-linejoin:round;stroke-miterlimit:10;stroke-dasharray:none;stroke-opacity:1"
       transform="scale(1.3324347,1.3333333)" />
    <path
       id="path56"
       d="m 457.082,53.332 v 5.176"
       style="fill:none;stroke:#262626;stroke-width:6.00926;stroke-linecap:square;stroke-linejoin:round;stroke-miterlimit:10;stroke-dasharray:none;stroke-opacity:1"
       transform="scale(1.3324347,1.3333333)" />
    <path
       id="path57"
       d="m 486.195,53.332 v 5.176"
       style="fill:none;stroke:#262626;stroke-width:6.00926;stroke-linecap:square;stroke-linejoin:round;stroke-miterlimit:10;stroke-dasharray:none;stroke-opacity:1"
       transform="scale(1.3324347,1.3333333)" />
    <path
       id="path58"
       d="m 511.415,53.332 v 5.176"
       style="fill:none;stroke:#262626;stroke-width:6.00926;stroke-linecap:square;stroke-linejoin:round;stroke-miterlimit:10;stroke-dasharray:none;stroke-opacity:1"
       transform="scale(1.3324347,1.3333333)" />
    <path
       id="path59"
       d="m 533.661,53.332 v 5.176"
       style="fill:none;stroke:#262626;stroke-width:6.00926;stroke-linecap:square;stroke-linejoin:round;stroke-miterlimit:10;stroke-dasharray:none;stroke-opacity:1"
       transform="scale(1.3324347,1.3333333)" />
    <path
       id="path60"
       d="m 553.557,53.332 v 5.176"
       style="fill:none;stroke:#262626;stroke-width:6.00926;stroke-linecap:square;stroke-linejoin:round;stroke-miterlimit:10;stroke-dasharray:none;stroke-opacity:1"
       transform="scale(1.3324347,1.3333333)" />
    <path
       id="path61"
       d="m 684.469,53.332 v 5.176"
       style="fill:none;stroke:#262626;stroke-width:6.00926;stroke-linecap:square;stroke-linejoin:round;stroke-miterlimit:10;stroke-dasharray:none;stroke-opacity:1"
       transform="scale(1.3324347,1.3333333)" />
    <path
       id="path62"
       d="m 761.048,53.332 v 5.176"
       style="fill:none;stroke:#262626;stroke-width:6.00926;stroke-linecap:square;stroke-linejoin:round;stroke-miterlimit:10;stroke-dasharray:none;stroke-opacity:1"
       transform="scale(1.3324347,1.3333333)" />
    <path
       id="path63"
       d="m 815.378,53.332 v 5.176"
       style="fill:none;stroke:#262626;stroke-width:6.00926;stroke-linecap:square;stroke-linejoin:round;stroke-miterlimit:10;stroke-dasharray:none;stroke-opacity:1"
       transform="scale(1.3324347,1.3333333)" />
    <path
       id="path64"
       d="m 857.523,53.332 v 5.176"
       style="fill:none;stroke:#262626;stroke-width:6.00926;stroke-linecap:square;stroke-linejoin:round;stroke-miterlimit:10;stroke-dasharray:none;stroke-opacity:1"
       transform="scale(1.3324347,1.3333333)" />
    <path
       id="path65"
       d="m 891.957,53.332 v 5.176"
       style="fill:none;stroke:#262626;stroke-width:6.00926;stroke-linecap:square;stroke-linejoin:round;stroke-miterlimit:10;stroke-dasharray:none;stroke-opacity:1"
       transform="scale(1.3324347,1.3333333)" />
    <path
       id="path66"
       d="m 921.07,53.332 v 5.176"
       style="fill:none;stroke:#262626;stroke-width:6.00926;stroke-linecap:square;stroke-linejoin:round;stroke-miterlimit:10;stroke-dasharray:none;stroke-opacity:1"
       transform="scale(1.3324347,1.3333333)" />
    <path
       id="path67"
       d="m 946.29,53.332 v 5.176"
       style="fill:none;stroke:#262626;stroke-width:6.00926;stroke-linecap:square;stroke-linejoin:round;stroke-miterlimit:10;stroke-dasharray:none;stroke-opacity:1"
       transform="scale(1.3324347,1.3333333)" />
    <path
       id="path68"
       d="m 968.536,53.332 v 5.176"
       style="fill:none;stroke:#262626;stroke-width:6.00926;stroke-linecap:square;stroke-linejoin:round;stroke-miterlimit:10;stroke-dasharray:none;stroke-opacity:1"
       transform="scale(1.3324347,1.3333333)" />
    <path
       id="path69"
       d="m 988.432,53.332 v 5.176"
       style="fill:none;stroke:#262626;stroke-width:6.00926;stroke-linecap:square;stroke-linejoin:round;stroke-miterlimit:10;stroke-dasharray:none;stroke-opacity:1"
       transform="scale(1.3324347,1.3333333)" />
    <path
       id="path70"
       d="m 1119.344,53.332 v 5.176"
       style="fill:none;stroke:#262626;stroke-width:6.00926;stroke-linecap:square;stroke-linejoin:round;stroke-miterlimit:10;stroke-dasharray:none;stroke-opacity:1"
       transform="scale(1.3324347,1.3333333)" />
    <text
       id="text70"
       xml:space="preserve"
       transform="matrix(1.3333333,0,0,1.3342328,146.12674,794.42408)"><tspan
         style="font-variant:normal;font-weight:normal;font-size:32.028px;font-family:Helvetica;writing-mode:lr-tb;fill:#262626;fill-opacity:1;fill-rule:nonzero;stroke:none"
         x="0 425.57428 443.38675 556.38647 574.19897 729.3476 747.1601 851.15997 868.97241 886.78491 981.97076 999.7832 1017.5957"
         y="0"
         id="tspan70">1102050100200</tspan></text>
    <text
       id="text71"
       xml:space="preserve"
       transform="matrix(1.3333333,0,0,1.3342328,688.09746,853.84897)"><tspan
         style="font-variant:normal;font-weight:normal;font-size:35.2303px;font-family:Helvetica;writing-mode:lr-tb;fill:#262626;fill-opacity:1;fill-rule:nonzero;stroke:none"
         x="0 21.520073 33.252041 52.845455 72.438873 92.032288 111.6257 131.21912 148.83427 166.44942 176.23753 186.02563 211.46783 229.08299"
         y="0"
         id="tspan71">Frequency [Hz]</tspan></text>
    <path
       id="path71"
       d="M 118.682,555.105 V 53.332"
       style="fill:none;stroke:#262626;stroke-width:6.00926;stroke-linecap:square;stroke-linejoin:round;stroke-miterlimit:10;stroke-dasharray:none;stroke-opacity:1"
       transform="scale(1.3324347,1.3333333)" />
    <path
       id="path72"
       d="M 1153.778,555.105 V 53.332"
       style="fill:none;stroke:#262626;stroke-width:6.00926;stroke-linecap:square;stroke-linejoin:round;stroke-miterlimit:10;stroke-dasharray:none;stroke-opacity:1"
       transform="scale(1.3324347,1.3333333)" />
    <path
       id="path73"
       d="m 118.682,555.105 h 10.35"
       style="fill:none;stroke:#262626;stroke-width:6.00926;stroke-linecap:square;stroke-linejoin:round;stroke-miterlimit:10;stroke-dasharray:none;stroke-opacity:1"
       transform="scale(1.3324347,1.3333333)" />
    <path
       id="path74"
       d="m 118.682,304.219 h 10.35"
       style="fill:none;stroke:#262626;stroke-width:6.00926;stroke-linecap:square;stroke-linejoin:round;stroke-miterlimit:10;stroke-dasharray:none;stroke-opacity:1"
       transform="scale(1.3324347,1.3333333)" />
    <path
       id="path75"
       d="m 118.682,53.332 h 10.35"
       style="fill:none;stroke:#262626;stroke-width:6.00926;stroke-linecap:square;stroke-linejoin:round;stroke-miterlimit:10;stroke-dasharray:none;stroke-opacity:1"
       transform="scale(1.3324347,1.3333333)" />
    <path
       id="path76"
       d="m 1153.778,555.105 h -10.351"
       style="fill:none;stroke:#262626;stroke-width:6.00926;stroke-linecap:square;stroke-linejoin:round;stroke-miterlimit:10;stroke-dasharray:none;stroke-opacity:1"
       transform="scale(1.3324347,1.3333333)" />
    <path
       id="path77"
       d="m 1153.778,304.219 h -10.351"
       style="fill:none;stroke:#262626;stroke-width:6.00926;stroke-linecap:square;stroke-linejoin:round;stroke-miterlimit:10;stroke-dasharray:none;stroke-opacity:1"
       transform="scale(1.3324347,1.3333333)" />
    <path
       id="path78"
       d="m 1153.778,53.332 h -10.351"
       style="fill:none;stroke:#262626;stroke-width:6.00926;stroke-linecap:square;stroke-linejoin:round;stroke-miterlimit:10;stroke-dasharray:none;stroke-opacity:1"
       transform="scale(1.3324347,1.3333333)" />
    <text
       id="text78"
       xml:space="preserve"
       transform="matrix(1.3333333,0,0,1.3342328,122.9066,756.66589)"><tspan
         style="font-variant:normal;font-weight:normal;font-size:32.028px;font-family:Helvetica;writing-mode:lr-tb;fill:#262626;fill-opacity:1;fill-rule:nonzero;stroke:none"
         x="0"
         y="0"
         id="tspan78">0</tspan><tspan
         style="font-variant:normal;font-weight:normal;font-size:32.028px;font-family:Helvetica;writing-mode:lr-tb;fill:#262626;fill-opacity:1;fill-rule:nonzero;stroke:none"
         x="-45.039062 -27.226599 -18.328188 -0.5157243"
         y="-250.71745"
         id="tspan79">0.25</tspan><tspan
         style="font-variant:normal;font-weight:normal;font-size:32.028px;font-family:Helvetica;writing-mode:lr-tb;fill:#262626;fill-opacity:1;fill-rule:nonzero;stroke:none"
         x="-27.023424 -9.2109613 -0.3125495"
         y="-501.43491"
         id="tspan80">0.5</tspan></text>
    <text
       id="text80"
       xml:space="preserve"
       transform="matrix(0,-1.3333333,1.3324345,0,47.841483,510.28595)"><tspan
         style="font-variant:normal;font-weight:normal;font-size:35.2541px;font-family:Helvetica;writing-mode:lr-tb;fill:#262626;fill-opacity:1;fill-rule:nonzero;stroke:none"
         x="0 23.514189 52.881104 72.48774 80.320061 88.15239 97.947098 117.55373 137.16037"
         y="0"
         id="tspan81">Amplitude</tspan></text>
    <text
       id="text81"
       xml:space="preserve"
       transform="matrix(1.3333333,0,0,1.3342328,413.3593,51.278983)"><tspan
         style="font-variant:normal;font-weight:700;font-size:35.2303px;font-family:Helvetica;writing-mode:lr-tb;fill:#000000;fill-opacity:1;fill-rule:nonzero;stroke:none"
         x="0 25.442198 46.962269 68.482346 78.270454 99.790527 111.52249 121.3106 146.75279 168.27287 178.06097 209.38635 228.97977 238.76788 248.55598 270.07605 291.59613 313.11621 324.84818 344.44159 356.17355 375.76697 397.28705 416.88046 426.66858 436.45667 457.97675 467.76486 493.20706 514.72711 524.51526 555.84064 575.43402 589.14429 610.66431 630.25775"
         y="0"
         id="tspan82">DFT of Animal Footsteps in Kolmården</tspan></text>
    <path
       id="path82"
       d="m 118.56,523.68 39.891,-0.043 130.912,-11.492 76.575,-7.497 54.334,-0.918 42.145,2.297 34.434,9.477 29.113,13.516 25.22,7.55 22.242,-2.886 19.9,-4.063 18,-1.488 16.433,-0.113 15.12,-0.93 13.993,-2.067 13.033,-1.332 12.188,0.68 11.449,2.691 10.796,4.293 10.21,3.641 9.69,0.848 9.213,1.304 8.788,1.622 8.392,-0.254 8.041,-1.328 7.708,0.019 7.407,1.379 7.13,1.672 6.868,1.941 6.626,1.746 6.402,0.477 6.196,-0.754 5.996,-0.918 5.809,-1.125 5.64,-0.402 5.473,-0.633 5.32,-0.113 5.175,1.082 5.039,1.316 4.905,0.52 4.781,-0.04 4.663,-1.695 4.55,-1.406 4.444,0.133 4.343,-0.36 4.245,0.008 4.151,0.988 4.062,1.649 3.975,1.789 3.893,-0.363 3.819,-1.215 3.737,-1.121 3.671,0.066 3.596,1.008 3.53,1.465 3.467,1.328 3.401,0.172 3.342,-1.051 3.287,-0.629 3.229,-0.598 3.174,-0.761 3.119,-1.11 3.072,-1.32 3.022,-1.605 2.975,-1.942 2.927,-1.683 2.885,-0.313 2.838,0.82 2.799,0.047 2.759,-1.406 2.717,-1.852 2.678,-2.484 2.642,-2.473 2.603,-0.386 2.572,2.09 2.533,2.5 2.502,1.582 2.471,0.757 2.435,0.606 2.408,-0.973 2.376,-1.746 2.346,-0.492 2.318,0.559 2.286,0.617 2.263,-0.512 2.236,-0.848 2.209,-0.773 2.181,-1.508 2.162,-4.285 2.134,-4.613 2.107,-2.954 2.087,-0.675 2.064,-0.453 2.044,-0.891 2.021,0.004 1.998,0.078 1.978,0.844 1.954,1.469 1.939,-0.993 1.919,-1.781 1.896,-0.586 1.88,-0.453 1.861,-3.711 1.841,-5.898 1.825,-5.766 1.806,-3.074 1.79,3.269 1.775,6.68 1.759,3.926 1.74,-0.946 1.723,0.36 1.709,2.191 1.696,-4.066 1.677,-4.692 1.665,-6.121 1.65,-7.988 1.634,-6.715 1.622,-1.926 1.606,4.164 1.595,6.606 1.579,5.152 1.568,-3.281 1.556,-8.969 1.54,-10.781 1.532,-9.941 1.517,-9.403 1.504,-7.605 1.494,-3.512 1.481,0.973 1.47,1.875 1.458,0.84 1.446,0.043 1.435,0.683 1.426,0.668 1.415,-1.312 1.404,-2.614 1.395,-1.968 1.384,0.043 1.372,-0.176 1.364,-3.274 1.353,-3.222 1.344,2.078 1.337,7.113 1.325,6.602 1.314,2.144 1.309,-0.289 1.298,0.516 1.29,1.109 1.278,1.379 1.274,1.957 1.263,2.664 1.255,4.344 1.247,7.844 1.239,4.285 1.227,-3.031 1.224,-4.633 1.215,-0.336 1.208,5.508 1.196,5.273 1.192,1.844 1.185,-3.028 1.176,-7.261 1.169,-6.891 1.165,-2.82 1.153,1.09 1.149,1.078 1.142,1.043 1.133,-2.934 1.126,-2.359 1.122,-1.383 1.114,2.344 1.11,9.777 1.098,13.266 1.095,-0.918 1.091,-6.598 1.082,-9.949 1.075,-9.063 1.071,-6.953 1.063,-4.972 1.06,-2.75 1.051,-0.125 1.048,3.718 1.04,8.215 1.035,4.801 1.029,1.793 1.024,0.91 1.016,2.926 1.012,2.961 1.009,-0.473 1.001,2.473 0.996,5.199 0.993,4.195 0.985,2.614"
       style="fill:none;stroke:#77ac30;stroke-width:6.00926;stroke-linecap:butt;stroke-linejoin:round;stroke-miterlimit:10;stroke-dasharray:none;stroke-opacity:1"
       transform="scale(1.3324347,1.3333333)" />
    <path
       id="path83"
       d="m 1086.926,387.816 -1.383,-2.054 -1.395,1.347 -1.402,-0.836 -1.414,-1.496 -1.426,1.785 -1.433,2.614 -1.446,0.633 -1.457,0.16 -1.468,-0.278 -1.481,0.055 -1.492,4.059 -1.504,11.461 -1.516,15.406 -1.531,15.183 -1.539,14.106 -1.555,11.953 -1.566,4.34 -1.578,-1.547 -1.594,-4.883 -1.605,-0.367 -1.621,4.41 -1.633,6.567 -1.649,4.675 -1.664,5.168 -1.676,5.344 -1.695,0.16 -1.707,-0.758 -1.723,-1.402 -1.738,-1.047 -1.758,-5.336 -1.773,-10.297 -1.789,-6.961 -1.805,1.688 -1.824,9.387 -1.84,9.902 -1.859,4.777 -1.879,0.77 -1.895,0.48 -1.918,2.59 -1.937,3.758 -1.953,2.512 -1.977,-1.922 -1.996,-2.629 -2.02,0.051 -2.042,0.804 -2.063,0.657 -2.086,1.89 -2.105,4.625 -2.133,7.219 -2.16,7.469 -2.18,6.301 -2.207,2.211 -2.234,-0.973 -2.262,-1.078 -2.285,-1.063 -2.317,-1.133 -2.343,0.641 -2.375,2.012 -2.407,1.351 -2.433,-0.117 -2.469,-0.918 -2.5,-1.265 -2.531,-2.067 -2.571,-1.359 -2.601,0.172 -2.641,2.375 -2.676,3.957 -2.714,2.707 -2.758,-0.348 -2.797,-1.684 -2.836,-1.574 -2.883,0.278 -2.926,3.156 -2.972,5.023 -3.02,4.231 -3.07,1.547 -3.117,0.468 -3.172,0.532 -3.227,0.832 -3.285,1.902 -3.34,0.98 -3.398,-1.417 -3.465,-2.477 -3.527,-1.215 -3.594,0.406 -3.668,0.977 -3.734,0.93 -3.817,1.253 -3.891,-0.781 -3.972,-1.949 -4.059,-2.465 -4.148,-1.316 -4.242,-0.496 -4.34,-0.34 -4.442,0.203 -4.547,0.586 -4.66,2.172 -4.777,1.992 -4.902,-1.309 -5.036,-2.457 -5.171,-1.734 -5.317,-0.938 -5.469,-0.019 -5.636,0.625 -5.805,0.781 -5.992,1.156 -6.192,0.95 -6.398,-0.422 -6.621,-2.801 -6.863,-4.512 -7.125,-3.804 -7.403,-1.004 -7.703,1.976 -8.035,2.43 -8.387,0.441 -8.781,-1.531 -9.207,-2.551 -9.684,-3.246 -10.203,-4.871 -10.789,-8.723 -11.441,-9.816 -12.18,-5.062 -13.023,1.558 -13.985,2.711 -15.109,-3.344 -16.422,-4.632 -17.988,4.418 -19.887,16.496 -22.227,13.535 -25.203,-18.985 -29.093,-27.609 -34.411,-18.703 -42.117,-5.699 -54.297,6.882 -76.523,16.926 -130.824,20.832 -39.864,0.067 v 57 l 39.864,-0.024 130.824,-2.144 76.523,1.926 34.704,3.226 h 127.742 l 22.675,-3.492 10.004,3.492 h 113.539 l 7.278,-2.215 11.441,-4.433 10.789,-0.133 10.203,2.406 9.684,-1.551 9.207,0.059 8.781,1.715 8.387,-0.067 8.035,-0.226 7.703,2.011 7.403,1.758 7.125,-0.465 6.863,-0.625 6.621,0.692 6.398,0.531 6.192,-0.559 5.992,-0.675 5.805,-1.473 5.636,-0.18 5.469,-1.289 5.317,-1.156 5.171,0.426 5.036,0.18 4.902,-0.27 4.777,1.91 4.66,-1.223 4.547,-2.226 4.442,0.473 4.34,-1.059 4.242,-0.484 4.148,0.664 4.059,0.832 3.972,1.633 3.891,-1.512 3.817,-1.176 3.734,-1.312 3.668,1.113 3.594,2.418 3.527,1.719 3.465,0.171 3.398,-1.074 3.34,-1.113 3.285,0.641 3.227,-0.364 3.172,-0.992 3.117,-1.75 3.07,-1.094 3.02,1.02 2.972,1.144 2.926,-0.211 2.883,-0.351 2.836,0.062 2.797,-1.589 2.758,-3.157 2.714,-0.996 2.676,-1.008 2.641,-2.574 2.601,-0.601 2.571,2.824 2.531,2.929 2.5,1.895 2.469,0.602 2.433,1.097 2.407,-0.597 2.375,-1.481 2.343,-0.344 2.317,-0.011 2.285,0.168 2.262,-2.106 2.234,-2.668 2.207,0.664 2.18,3.285 2.16,-1.101 2.133,-2.004 2.105,-1.281 2.086,0.539 2.063,-0.254 2.042,-0.973 2.02,0.059 1.996,-2.469 1.977,-0.238 1.953,5.453 1.937,1.769 1.918,-0.968 1.895,-0.7 1.879,-0.136 1.859,-2.641 1.84,-1.894 1.824,-2.149 1.805,-4.457 1.789,-0.418 1.773,3.059 1.758,2.515 1.738,-2.937 1.723,-0.684 1.707,3.621 1.695,-7.965 1.676,-4.039 1.664,-7.082 1.649,-11.293 1.633,-6.867 1.621,0.555 1.605,7.961 1.594,8.332 1.578,8.758 1.566,-2.223 1.555,-5.98 1.539,-7.461 1.531,-4.7 1.516,-3.398 1.504,-3.75 1.492,-2.969 1.481,2.004 1.468,3.477 1.457,1.84 1.446,0.718 1.433,3.977 1.426,3.121 1.414,-4.117 1.402,-6.067 1.395,-2.593 1.383,-1.961 1.371,-5.903 1.363,-6.347 1.352,-0.157 1.343,1.899 1.336,-1.281 1.325,-3.27 1.312,-1.062 1.309,0.136 1.297,3.332 1.289,4.653 1.277,1.586 1.273,-1.602 1.262,3.262 1.254,13.578 1.246,20.773 1.238,9.91 1.227,-4.507 1.223,-10.879 1.215,-9.75 1.207,1.976 1.195,6.973 1.191,3.531 1.184,-5.375 1.176,-9.222 1.168,-1.758 1.164,4.258 1.152,5.953 1.148,3.375 1.141,3.238 1.133,-10.586 1.125,-11.359 1.121,-5.77 1.113,2.098 1.11,12.879 1.097,18.902 1.094,-6.059 1.09,-6.714 1.082,-13.067 1.074,-12.07 1.07,-7.059 1.063,-3.925 1.059,0.878 1.05,6.571 1.047,12.476 1.039,18.817 1.035,7.125 1.028,-1.563 1.023,-6.98 1.016,-2.989 1.012,0.29 1.007,-8.043 1,-1.379 0.996,6.769 0.993,7.094 0.984,6.062 v -86.179 l -0.984,0.836 -0.993,-1.301 -0.996,-3.621 -1,-6.328 -1.007,-7.098 -1.012,-5.629 -1.016,-8.848 -1.023,-8.8 -1.028,-5.149 -1.035,-2.472 -1.039,2.386 -1.047,5.035 -1.05,6.825 -1.059,6.382 -1.063,6.012 -1.07,6.848 -1.074,6.062 -1.082,6.828 -1.09,6.481 -1.094,-4.223 -1.097,-7.625 -1.11,-6.675 -1.113,-2.594 -1.121,-3.008 -1.125,-6.637 -1.133,-4.719 -1.141,1.157 -1.148,1.211 -1.152,3.781 -1.164,9.891 -1.168,12.027 -1.176,5.301 -1.184,0.675 -1.191,-0.148 -1.195,-3.578 -1.207,-9.043 -1.215,-9.074 -1.223,-1.61 -1.227,1.551 -1.238,1.34 -1.246,5.09 -1.254,4.887 -1.262,-2.063 -1.273,-5.516 -1.277,-1.175 -1.289,2.433 -1.297,2.301 -1.309,0.715 -1.312,-5.352 -1.325,-16.468 -1.336,-15.516 -1.343,-2.25 -1.352,6.281 -1.363,0.203 z"
       style="fill:#77ac30;fill-opacity:0.301961;fill-rule:nonzero;stroke:none"
       transform="scale(1.3333333)" />
    <path
       id="path84"
       d="m 118.56,523.332 39.891,-0.043 130.912,-11.836 76.575,-7.914 54.334,0.141 42.145,7.625 34.434,11.316 29.113,12.176 25.22,10.562 22.242,5.887 19.9,0.75 18,0.234 16.433,0.454 15.12,-0.293 13.993,0.421 13.033,-0.109 12.188,-0.68 11.449,-0.109 10.796,0.438 10.21,0.543 9.69,0.335 9.213,-0.144 8.788,-0.344 8.392,0.293 8.041,0.102 7.708,-0.332 7.407,0.074 7.13,0.109 6.868,-0.121 6.626,-0.191 6.402,0.015 6.196,0.149 5.996,0.301 5.809,-0.141 5.64,-0.453 5.473,0.219 5.32,0.261 5.175,0.098 5.039,0.109 4.905,0.121 4.781,-0.589 4.663,-0.493 4.55,-0.16 4.444,0.215 4.343,0.367 4.245,0.282 4.151,-0.383 4.062,-0.035 3.975,0.425 3.893,0.243 3.819,-0.082 3.737,-0.157 3.671,-0.14 3.596,-0.078 3.53,-0.192 3.467,-0.254 3.401,-0.097 3.342,-0.383 3.287,-0.809 3.229,-0.965 3.174,-1.242 3.119,-1.129 3.072,-0.847 3.022,-0.61 2.975,-0.476 2.927,-0.922 2.885,-1.817 2.838,-1.789 2.799,-0.644 2.759,0.316 2.717,-0.504 2.678,-1.504 2.642,-0.785 2.603,-0.82 2.572,-2.152 2.533,-2.793 2.502,-2.825 2.471,-3.609 2.435,-4.555 2.408,-4.074 2.376,-2.234 2.346,-0.332 2.318,1.312 2.286,2.61 2.263,3.007 2.236,2.211 2.209,0.688 2.181,-0.27 2.162,-0.695 2.134,-1.402 2.107,-2.243 2.087,-2.234 2.064,-0.824 2.044,1.484 2.021,3.442 1.998,2.379 1.978,-5.075 1.954,-7.289 1.939,-5.965 1.919,-4.722 1.896,-4.075 1.88,-3.015 1.861,-0.945 1.841,0.796 1.825,1.094 1.806,1.285 1.79,1.411 1.775,-0.161 1.759,-3.152 1.74,-4.281 1.723,-1.477 1.709,1.137 1.696,1.5 1.677,-0.57 1.665,-0.704 1.65,-3.644 1.634,-4.074 1.622,-0.18 1.606,2.961 1.595,3.328 1.579,4.793 1.568,5.195 1.556,4.395 1.54,-7.68 1.532,-18.273 1.517,-18.887 1.504,-15.195 1.494,-7.871 1.481,-0.133 1.47,3.863 1.458,3.488 1.446,0.504 1.435,-3.351 1.426,-7.047 1.415,-8.34 1.404,-5.238 1.395,0.476 1.384,4.614 1.372,5.425 1.364,5.313 1.353,5.789 1.344,3.844 1.337,-0.219 1.325,-6.941 1.314,-9.504 1.309,-8.559 1.298,-5.77 1.29,-1.882 1.278,0.429 1.274,0.657 1.263,0.172 1.255,0.96 1.247,2.786 1.239,4.293 1.227,5.628 1.224,7.079 1.215,7.32 1.208,4.973 1.196,0.48 1.192,-2.582 1.185,-2.508 1.176,-2.211 1.169,-0.246 1.165,4.082 1.153,7.363 1.149,7.008 1.142,5.207 1.133,3.051 1.126,5.981 1.122,7.269 1.114,6.508 1.11,6.648 1.098,6.364 1.095,3.195 1.091,2.742 1.082,1.184 1.075,2.496 1.071,2.574 1.063,-2.48 1.06,-4.872 1.051,-5.621 1.048,-5.921 1.04,-6.333 1.035,-5.976 1.029,-4.387 1.024,-1.715 1.016,1.563 1.012,4.195 1.009,5.387 1.001,4.492 0.996,5.293 0.993,3.707 0.985,1.063"
       style="fill:none;stroke:#7e2f8e;stroke-width:6.00926;stroke-linecap:butt;stroke-linejoin:round;stroke-miterlimit:10;stroke-dasharray:none;stroke-opacity:1"
       transform="scale(1.3324347,1.3333333)" />
    <path
       id="path85"
       d="m 1104.035,364.059 -1.262,4.441 -1.273,4.922 -1.277,2.066 -1.289,1.039 -1.297,0.137 -1.309,0.461 -1.312,3.094 -1.325,7.402 -1.336,9.656 -1.343,4.235 -1.352,-3.68 -1.363,-10.812 -1.371,-11.149 -1.383,-6.09 -1.395,2.606 -1.402,11.523 -1.414,16.192 -1.426,14 -1.433,6.64 -1.446,-0.172 -1.457,-6.664 -1.468,-11.707 -1.481,-6.476 -1.492,8.695 -1.504,26.031 -1.516,32.227 -1.531,10.144 -1.539,2.258 -1.555,-0.84 -1.566,-6.609 -1.578,-9.906 -1.594,-10.446 -1.605,-5.218 -1.621,1.121 -1.633,4.804 -1.649,4.879 -1.664,2.883 -1.676,0.883 -1.695,2.891 -1.707,4.585 -1.723,7 -1.738,7.95 -1.758,5.05 -1.773,-2.183 -1.789,-2.57 -1.805,0.75 -1.824,-0.434 -1.84,-3.57 -1.859,-2.211 -1.879,1.402 -1.895,3.367 -1.918,4.578 -1.937,6.594 -1.953,7.434 -1.977,5.851 -1.996,3.719 -2.02,1.012 -2.042,-1.574 -2.063,0.035 -2.086,3.113 -2.105,3.828 -2.133,1.641 -2.16,-0.176 -2.18,-0.789 -2.207,-3.145 -2.234,-6.433 -2.262,-6.887 -2.285,-4.344 -2.317,-1.605 -2.343,0.484 -2.375,3.406 -2.407,6.883 -2.433,8.563 -2.469,7.441 -2.5,5.621 -2.531,4.133 -2.571,2.031 -2.601,0.36 -2.641,0.101 -2.676,0.559 -2.714,0.867 -2.758,1.102 -2.797,1.933 -2.836,2.625 -2.883,2.336 -2.926,1.414 -2.972,0.715 -3.02,0.676 -3.07,1.191 -3.117,1.715 -3.172,1.879 -3.227,1.703 -3.285,0.93 -3.34,0.453 -3.398,0.359 -3.465,0.309 -3.527,0.265 -3.594,0.051 -3.668,-0.051 -3.734,0.223 -3.817,0.371 -3.891,-0.183 -3.972,-0.461 -4.059,-0.039 -4.148,0.16 -4.242,-0.086 -4.34,-0.336 -4.442,0.047 -4.547,0.14 -4.66,0.618 -4.777,0.543 -4.902,-0.11 -5.036,-0.355 -5.171,-0.028 -5.317,-0.461 -5.469,-0.089 -5.636,0.343 -5.805,0.395 -5.992,-0.238 -6.192,-0.469 -6.398,-0.121 -6.621,0.285 -6.863,0.269 -7.125,-0.398 -7.403,0.012 -7.703,0.336 -8.035,-0.297 -8.387,-0.328 -8.781,0.281 -9.207,0.371 -9.684,0.035 -10.203,-0.566 -10.789,-1.215 -11.441,-0.074 -12.18,0.976 -13.023,0.032 -13.985,-0.274 -15.109,0.133 -16.422,-0.621 -17.988,-0.117 -19.887,-0.684 -22.227,-9.742 -25.203,-16.543 -29.093,-20.805 -34.411,-19.418 -42.117,-10.812 -54.297,2 -76.523,13.515 -130.824,18 -39.864,0.059 v 34.992 l 39.864,-0.031 130.824,-5.668 76.523,-2.309 54.297,2.282 42.117,4.437 34.411,3.211 29.093,3.547 25.203,4.586 22.227,2.027 19.887,0.817 17.988,0.351 16.422,0.289 15.109,-0.457 13.985,0.57 13.023,-0.191 12.18,-0.379 11.441,-0.293 10.789,-0.336 10.203,0.512 9.684,0.715 9.207,0.082 8.781,-0.41 8.387,0.254 8.035,-0.09 7.703,-0.324 7.403,0.156 7.125,-0.18 6.863,0.031 6.621,-0.101 6.398,-0.09 6.192,-0.172 5.992,0.367 5.805,0.11 5.636,-0.567 5.469,0.352 5.317,0.058 5.171,0.168 5.036,-0.132 4.902,0.128 4.777,-0.628 4.66,-0.368 4.547,-0.183 4.442,0.476 4.34,0.403 4.242,0.472 4.148,-0.609 4.059,-0.102 3.972,0.387 3.891,0.305 3.817,0.203 3.734,-0.09 3.668,-0.332 3.594,-0.105 3.527,-0.114 3.465,-0.207 3.398,0.168 3.34,-0.312 3.285,-0.688 3.227,-0.23 3.172,-0.602 3.117,-0.539 3.07,-0.504 3.02,-0.547 2.972,-0.238 2.926,-0.43 2.883,-1.293 2.836,-0.957 2.797,0.645 2.758,1.734 2.714,-0.14 2.676,-2.45 2.641,-1.472 2.601,-1.278 2.571,-2.273 2.531,-1.449 2.5,-0.031 2.469,0.222 2.433,-0.547 2.407,-1.261 2.375,-1.067 2.343,-0.183 2.317,1.023 2.285,0.875 2.262,-0.867 2.234,-2.02 2.207,-1.765 2.18,-1.328 2.16,-1.567 2.133,-1.164 2.105,-0.652 2.086,-1.36 2.063,-1.613 2.042,1.391 2.02,7.894 1.996,8.485 1.977,-4.305 1.953,-7.145 1.937,-5.332 1.918,-4.867 1.895,-4.785 1.879,-4.625 1.859,-4.102 1.84,-1.98 1.824,1.762 1.805,3.32 1.789,0.246 1.773,-2.5 1.758,-1.262 1.738,-0.613 1.723,4.055 1.707,6.859 1.695,5.883 1.676,-0.258 1.664,1.485 1.649,-2.414 1.633,-3.344 1.621,0.765 1.605,0.7 1.594,-3.789 1.578,-0.325 1.566,3.785 1.555,7.95 1.539,-13.102 1.531,-26.398 1.516,-5.547 1.504,-4.367 1.492,-7.047 1.481,-6.742 1.468,-3.981 1.457,0.313 1.446,0.839 1.433,-0.066 1.426,-0.09 1.414,-0.488 1.402,1.047 1.395,3.558 1.383,3.141 1.371,-0.305 1.363,-0.179 1.352,7.894 1.343,11.922 1.336,9.219 1.325,-6.477 1.312,-15.918 1.309,-16.656 1.297,-11.398 1.289,-2.727 1.277,2.922 1.273,6.23 1.262,4.793 1.254,1.856 1.246,2.203 1.238,5.187 1.227,6.625 1.223,5.926 1.215,6.125 1.207,5.746 1.195,-2.312 1.191,-12.688 1.184,-13.164 1.176,-8.023 1.168,-1.203 1.164,8.148 1.152,15.715 1.148,15.238 1.141,9.516 1.133,-2.801 1.125,-1.027 1.121,1.586 1.113,3.511 1.11,7.246 1.097,5.364 1.094,-4.133 1.09,3.086 1.082,1.996 1.074,5.977 1.07,5.914 1.063,-4.735 1.059,-6.336 1.05,-6.613 1.047,-8.176 1.039,-7.922 1.035,-2.961 1.028,-0.664 1.023,0.266 1.016,4.551 1.012,7.902 1.007,6.078 1,-1.043 0.996,3.356 0.993,4.465 0.984,1.394 v -47.035 l -0.984,-0.734 -0.993,-2.95 -0.996,-7.23 -1,-10.024 -1.007,-4.699 -1.012,-0.488 -1.016,1.43 -1.023,3.687 -1.028,8.117 -1.035,8.989 -1.039,4.746 -1.047,3.664 -1.05,4.633 -1.059,3.398 -1.063,0.23 -1.07,0.77 -1.074,0.977 -1.082,-0.368 -1.09,-2.398 -1.094,-10.527 -1.097,-7.36 -1.11,-6.051 -1.113,-9.5 -1.121,-12.957 -1.125,-12.984 -1.133,-8.906 -1.141,-0.903 -1.148,1.231 -1.152,0.984 -1.164,-0.015 -1.168,-0.707 -1.176,-3.602 -1.184,-8.156 -1.191,-7.52 -1.195,-3.273 -1.207,-4.203 -1.215,-8.512 -1.223,-8.23 -1.227,-4.637 -1.238,-3.399 -1.246,-3.359 z"
       style="fill:#7e2f8e;fill-opacity:0.301961;fill-rule:nonzero;stroke:none"
       transform="scale(1.3333333)" />
    <path
       id="path86"
       d="m 118.56,526.91 39.891,-0.035 130.912,-10.789 76.575,-10.574 54.334,-5.7 42.145,1.954 34.434,5.418 29.113,-1.543 25.22,-17.661 22.242,-29.906 19.9,-31.437 18,-21.68 16.433,-1.047 15.12,17.754 13.993,24.106 13.033,4.273 12.188,-16.563 11.449,-4.492 10.796,3.102 10.21,-15.09 9.69,-21.641 9.213,-9.859 8.788,4.266 8.392,11.855 8.041,9.43 7.708,2.465 7.407,-11.504 7.13,-13.707 6.868,-6.582 6.626,7.511 6.402,18.274 6.196,20.39 5.996,18.782 5.809,18.582 5.64,11.672 5.473,6.324 5.32,1.89 5.175,-1.468 5.039,-3.547 4.905,-4.91 4.781,-7.852 4.663,-11.883 4.55,-11.722 4.444,-14.696 4.343,-13.652 4.245,-4.121 4.151,7.5 4.062,13.305 3.975,11.011 3.893,2.879 3.819,-1.078 3.737,-2.012 3.671,-1.218 3.596,5.898 3.53,13.785 3.467,17.149 3.401,1.707 3.342,-3.27 3.287,-1.074 3.229,2.324 3.174,6.199 3.119,8.852 3.072,8.848 3.022,7.683 2.975,6.285 2.927,4.004 2.885,3.024 2.838,2.257 2.799,-4.687 2.759,-5.055 2.717,-3.312 2.678,-1.082 2.642,1.508 2.603,4.019 2.572,4.746 2.533,4.578 2.502,3.516 2.471,1.812 2.435,0.68 2.408,0.758 2.376,-0.664 2.346,-2.371 2.318,-1.336 2.286,0.301 2.263,1.351 2.236,1.977 2.209,1.941 2.181,1.422 2.162,0.977 2.134,-0.118 2.107,0.133 2.087,-0.367 2.064,-0.652 2.044,-0.547 2.021,-0.645 1.998,-0.41 1.978,0.535 1.954,1.282 1.939,2.261 1.919,2.383 1.896,1.883 1.88,0.469 1.861,-0.84 1.841,-1.047 1.825,-0.375 1.806,0.363 1.79,0.637 1.775,0.637 1.759,0.543 1.74,0.687 1.723,0.262 1.709,-1.914 1.696,-2.43 1.677,-2.566 1.665,-2.403 1.65,-1.414 1.634,-0.043 1.622,1.098 1.606,1.797 1.595,2.062 1.579,2.555 1.568,1.781 1.556,0.578 1.54,0.539 1.532,0.106 1.517,-1.981 1.504,-1.957 1.494,-0.765 1.481,0.5 1.47,0.863 1.458,0.34 1.446,0.633 1.435,1.703 1.426,1.988 1.415,1.094 1.404,0.219 1.395,-1.68 1.384,-1.82 1.372,-1.145 1.364,-0.367 1.353,-0.172 1.344,-0.496 1.337,-0.191 1.325,0.382 1.314,0.832 1.309,1.086 1.298,0.762 1.29,0.43 1.278,0.461 1.274,0.734 1.263,0.738 1.255,0.231 1.247,0.699 1.239,0.906 1.227,0.125 1.224,-0.301 1.215,-0.574 1.208,-0.371 1.196,0.254 1.192,0.785 1.185,0.746 1.176,0.434 1.169,0.426 1.165,0.215 1.153,0.074 1.149,-0.047 1.142,-0.008 1.133,0.25 1.126,0.547 1.122,0.586 1.114,0.453 1.11,0.07 1.098,-0.484 1.095,-0.875 1.091,-0.992 1.082,-0.996 1.075,-0.473 1.071,0.262 1.063,0.675 1.06,-0.039 1.051,0.262 1.048,0.699 1.04,0.778 1.035,0.715 1.029,0.351 1.024,-0.441 1.016,-0.055 1.012,0.539 1.009,0.785 1.001,0.356 0.996,-0.184 0.993,0.031 0.985,0.164"
       style="fill:none;stroke:#d95319;stroke-width:6.00926;stroke-linecap:butt;stroke-linejoin:round;stroke-miterlimit:10;stroke-dasharray:none;stroke-opacity:1"
       transform="scale(1.3324347,1.3333333)" />
    <path
       id="path87"
       d="m 118.48,549.148 39.864,-0.019 130.824,-3.617 76.523,-4.907 54.297,-5.207 42.117,-3.031 34.411,-1.285 29.093,1.461 25.203,-7.902 22.227,-19.176 19.887,-17.547 17.988,-11.969 16.422,-4.34 15.109,-7.468 13.985,7.656 13.023,29.937 12.18,0.879 11.441,8.133 10.789,4.414 10.203,-34.316 9.684,-38.543 9.207,-4.11 8.781,10.293 8.387,9.289 8.035,5.383 7.703,11.969 7.403,-8.648 7.125,-13.7 6.863,-12.562 6.621,3.699 6.398,17.664 6.192,18.559 5.992,16.336 5.805,17.215 5.636,2.05 5.469,1.848 5.317,6.125 5.171,4.496 5.036,1.418 4.902,-2.266 4.777,-11.597 4.66,-22.016 4.547,-9.426 4.442,-8.808 4.34,-11.2 4.242,0.047 4.148,11.075 4.059,9.777 3.972,4.312 3.891,3.075 3.817,12.48 3.734,8.215 3.668,-4.152 3.594,-2.985 3.527,6.297 3.465,14.988 3.398,-14.136 3.34,-10.391 3.285,10.074 3.227,13.676 3.172,12.246 3.117,8.485 3.07,2.015 3.02,-3.234 2.972,-5.426 2.926,-6.039 2.883,2.894 2.836,9.575 2.797,-4.442 2.758,-4.824 2.714,-1.664 2.676,0.801 2.641,2.523 2.601,3.582 2.571,1.485 2.531,-0.11 2.5,-0.66 2.469,-0.289 2.433,1.633 2.407,4.195 2.375,1.238 2.343,-3.273 2.317,-2.988 2.285,-1.887 2.262,-1.77 2.234,-0.375 2.207,1.989 2.18,2.644 2.16,1.969 2.133,-1.168 2.105,-0.418 2.086,-1.746 2.063,-2.148 2.042,0.007 2.02,0.903 1.996,1 1.977,1.59 1.953,1.089 1.937,1.883 1.918,1.367 1.895,0.61 1.879,-1.039 1.859,-2.094 1.84,-1.488 1.824,0.14 1.805,1.348 1.789,1.312 1.773,0.594 1.758,-0.23 1.738,1.09 1.723,2.148 1.707,-1.234 1.695,-1.489 1.676,-1.726 1.664,-2.289 1.649,-1.778 1.633,-0.593 1.621,0.336 1.605,0.769 1.594,0.867 1.578,3.25 1.566,2.426 1.555,0.379 1.539,0.715 1.531,0.5 1.516,-3.047 1.504,-2.313 1.492,0.196 1.481,1.859 1.468,1.379 1.457,-0.875 1.446,-1.664 1.433,-0.152 1.426,1.425 1.414,1.782 1.402,1.808 1.395,-1.851 1.383,-1.489 1.371,0.54 1.363,1.484 1.352,0.496 1.343,-1.453 1.336,-1.559 1.325,-0.668 1.312,0.043 1.309,0.559 1.297,0.055 1.289,0.238 1.277,1.332 1.273,1.847 1.262,0.907 1.254,-1.293 1.246,-0.656 1.238,0.468 1.227,-0.55 1.223,-0.418 1.215,-0.512 1.207,-0.16 1.195,0.949 1.191,1.746 1.184,1.492 1.176,0.774 1.168,0.343 1.164,-0.687 1.152,-1.309 1.148,-1.269 1.141,-0.25 1.133,0.648 1.125,0.656 1.121,0.094 1.113,0.016 1.11,0.164 1.097,-0.153 1.094,-0.476 1.09,-0.574 1.082,-1.16 1.074,-0.801 1.07,0.59 1.063,1.777 1.059,0.266 1.05,0.839 1.047,0.594 1.039,-0.555 1.035,-0.878 1.028,0.453 1.023,-0.137 1.016,0.246 1.012,0.336 1.007,0.227 1,-0.192 0.996,-0.097 0.993,0.906 0.984,0.633 v -5.571 l -0.984,0.301 -0.993,0.844 -0.996,0.277 -1,-0.902 -1.007,-1.352 -1.012,-0.734 -1.016,0.351 -1.023,0.743 -1.028,-0.246 -1.035,-2.313 -1.039,-2.105 -1.047,-0.809 -1.05,0.316 -1.059,0.348 -1.063,0.422 -1.07,0.066 -1.074,0.145 -1.082,0.832 -1.09,1.414 -1.094,1.273 -1.097,0.813 -1.11,0.031 -1.113,-0.898 -1.121,-1.075 -1.125,-0.441 -1.133,0.149 -1.141,-0.231 -1.148,-1.176 -1.152,-1.461 -1.164,-1.117 -1.168,-0.5 -1.176,-0.098 h -1.184 l -1.191,0.18 -1.195,0.438 -1.207,0.586 -1.215,0.632 -1.223,0.188 -1.227,-0.801 -1.238,-1.351 -1.246,-2.051 -1.254,-1.75 -1.262,-0.574 -1.273,0.382 -1.277,0.407 -1.289,-0.625 -1.297,-1.469 -1.309,-1.609 -1.312,-1.618 -1.325,-1.441 -1.336,-1.176 -1.343,-0.453 -1.352,0.832 -1.363,2.223 -1.371,2.832 -1.383,2.152 -1.395,1.508 -1.402,1.371 -1.414,-0.41 -1.426,-2.551 -1.433,-3.555 -1.446,-2.929 -1.457,-1.563 -1.468,-0.34 -1.481,0.856 -1.492,1.726 -1.504,1.602 -1.516,0.91 -1.531,0.297 -1.539,-0.367 -1.555,-0.774 -1.566,-1.14 -1.578,-1.864 -1.594,-3.254 -1.605,-2.824 -1.621,-1.855 -1.633,-0.516 -1.649,1.055 -1.664,2.512 -1.676,3.41 -1.695,3.371 -1.707,2.59 -1.723,1.633 -1.738,-0.29 -1.758,-1.316 -1.773,-0.684 -1.789,0.043 -1.805,0.625 -1.824,0.891 -1.84,0.602 -1.859,-0.414 -1.879,-1.973 -1.895,-3.16 -1.918,-3.399 -1.937,-2.644 -1.953,-1.469 -1.977,0.523 -1.996,1.813 -2.02,2.199 -2.042,1.098 -2.063,-0.84 -2.086,-1.016 -2.105,-0.683 -2.133,-0.93 -2.16,0.008 -2.18,-0.195 -2.207,-1.895 -2.234,-4.328 -2.262,-4.477 -2.285,-2.488 -2.317,-0.309 -2.343,1.461 -2.375,2.575 -2.407,2.675 -2.433,0.274 -2.469,-3.91 -2.5,-7.692 -2.531,-9.269 -2.571,-8.004 -2.601,-4.457 -2.641,-0.496 -2.676,2.968 -2.714,4.954 -2.758,5.285 -2.797,4.937 -2.836,5.059 -2.883,-3.149 -2.926,-14.05 -2.972,-17.996 -3.02,-18.602 -3.07,-15.684 -3.117,-9.211 -3.172,-0.156 -3.227,9.028 -3.285,12.226 -3.34,-3.855 -3.398,-17.551 -3.465,-19.313 -3.527,-21.269 -3.594,-14.781 -3.668,-1.711 -3.734,12.238 -3.817,14.633 -3.891,-2.684 -3.972,-17.711 -4.059,-16.832 -4.148,-3.922 -4.242,8.285 -4.34,16.106 -4.442,20.586 -4.547,14.012 -4.66,1.753 -4.777,4.106 -4.902,7.551 -5.036,8.519 -5.171,7.434 -5.317,2.336 -5.469,-10.797 -5.636,-21.289 -5.805,-19.953 -5.992,-21.227 -6.192,-22.219 -6.398,-18.886 -6.621,-11.325 -6.863,0.606 -7.125,13.707 -7.403,14.363 -7.703,7.043 -8.035,-13.48 -8.387,-14.426 -8.781,1.769 -9.207,15.602 -9.684,4.738 -10.203,-4.132 -10.789,-1.79 -11.441,17.122 -12.18,33.996 -13.023,21.394 -13.985,-40.551 -15.109,-42.984 -16.422,-2.238 -17.988,31.39 -19.887,45.325 -22.227,40.64 -25.203,27.418 -29.093,4.543 -34.411,-12.117 -42.117,-6.941 -54.297,6.191 -76.523,16.242 -130.824,17.961 -39.864,0.055 z"
       style="fill:#d95319;fill-opacity:0.301961;fill-rule:nonzero;stroke:none"
       transform="scale(1.3333333)" />
    <path
       id="path88"
       d="m 118.56,530.742 39.891,-0.082 130.912,-17.633 76.575,-16.086 54.334,-15.214 42.145,-15.942 34.434,-33.441 29.113,-46.633 25.22,-40.809 22.242,-27.832 19.9,-16.258 18,-5.398 16.433,4.731 15.12,12.078 13.993,-2.235 13.033,-1.367 12.188,14.34 11.449,27.703 10.796,27.414 10.21,20.723 9.69,18.773 9.213,18.668 8.788,18.262 8.392,11.207 8.041,2.723 7.708,4.019 7.407,6.625 7.13,8.899 6.868,8.675 6.626,6.231 6.402,6.281 6.196,6.703 5.996,0.403 5.809,-5.668 5.64,-4.528 5.473,-0.613 5.32,1.883 5.175,2.039 5.039,1.851 4.905,3.602 4.781,6.121 4.663,5.383 4.55,3.457 4.444,1.676 4.343,0.324 4.245,1.887 4.151,2.964 4.062,2.051 3.975,0.778 3.893,-1.563 3.819,-1.41 3.737,0.152 3.671,1.473 3.596,1.621 3.53,1.078 3.467,0.668 3.401,-0.055 3.342,0.68 3.287,1.731 3.229,2.257 3.174,2.024 3.119,1.039 3.072,-0.871 3.022,-0.813 2.975,-0.414 2.927,-0.847 2.885,-1.094 2.838,-1.215 2.799,-1.141 2.759,-0.402 2.717,0.254 2.678,0.738 2.642,0.86 2.603,0.726 2.572,0.57 2.533,0.856 2.502,1.293 2.471,0.781 2.435,0.129 2.408,0.172 2.376,-0.09 2.346,-0.965 2.318,-1.043 2.286,-0.808 2.263,-0.34 2.236,0.051 2.209,0.304 2.181,0.481 2.162,0.312 2.134,-0.242 2.107,-0.223 2.087,0.383 2.064,0.977 2.044,1.172 2.021,0.453 1.998,-0.129 1.978,0.078 1.954,-0.238 1.939,-0.367 1.919,-0.09 1.896,-0.114 1.88,-0.058 1.861,-0.492 1.841,-0.903 1.825,-1.64 1.806,-1.375 1.79,-0.493 1.775,0.422 1.759,0.817 1.74,0.457 1.723,-0.047 1.709,-0.301 1.696,0.188 1.677,0.832 1.665,1.254 1.65,0.812 1.634,0.254 1.622,0.395 1.606,0.175 1.595,-0.285 1.579,-0.558 1.568,-0.395 1.556,0.074 1.54,0.621 1.532,0.754 1.517,0.531 1.504,0.524 1.494,0.562 1.481,0.336 1.47,-0.269 1.458,-0.34 1.446,-0.027 1.435,0.175 1.426,0.012 1.415,0.102 1.404,0.336 1.395,0.195 1.384,-0.281 1.372,-0.305 1.364,0.297 1.353,0.496 1.344,-0.332 1.337,-0.902 1.325,-0.418 1.314,0.207 1.309,0.457 1.298,0.504 1.29,0.441 1.278,0.027 1.274,-0.64 1.263,-0.762 1.255,-0.172 1.247,0.535 1.239,1.02 1.227,-0.414 1.224,-1.512 1.215,-0.902 1.208,-0.176 1.196,0.566 1.192,1.246 1.185,1.563 1.176,0.695 1.169,-0.554 1.165,-0.977 1.153,-0.832 1.149,-0.41 1.142,-0.258 1.133,-0.215 1.126,-0.75 1.122,-0.601 1.114,-0.672 1.11,-0.766 1.098,-0.211 1.095,0.418 1.091,0.668 1.082,0.93 1.075,0.91 1.071,0.031 1.063,-0.031 1.06,0.68 1.051,0.425 1.048,-0.894 1.04,-0.758 1.035,-0.113 1.029,0.578 1.024,1.027 1.016,0.555 1.012,-0.379 1.009,-0.434 1.001,-0.113 0.996,0.195 0.993,0.387 0.985,0.235"
       style="fill:none;stroke:#edb120;stroke-width:6.00926;stroke-linecap:butt;stroke-linejoin:round;stroke-miterlimit:10;stroke-dasharray:none;stroke-opacity:1"
       transform="scale(1.3324347,1.3333333)" />
    <path
       id="path89"
       d="m 158.344,520.18 -39.864,0.09 v 20.945 l 39.864,-0.07 130.824,-7.266 76.523,-6.106 54.297,-12.199 42.117,1.063 34.411,-1.739 29.093,-9.039 25.203,-12.566 22.227,-29.727 19.887,-55.996 17.988,-62.277 16.422,20.664 15.109,69.02 13.985,6.253 13.023,-19.918 12.18,-7.046 11.441,15.796 10.789,16.868 10.203,9.789 9.684,15.043 9.207,17.879 8.781,20.668 8.387,9.382 8.035,-5.664 7.703,0.321 7.403,6.117 7.125,9.59 6.863,6.543 6.621,-1.157 6.398,-0.332 6.192,7.953 5.992,3.055 5.805,-5.797 5.636,-6.668 5.469,-2.629 5.317,3.625 5.171,7.352 5.036,6.012 4.902,3.707 4.777,2.074 4.66,-2.109 4.547,-2.633 4.442,0.008 4.34,-0.227 4.242,1.926 4.148,1.863 4.059,-0.906 3.972,-1.176 3.891,-2.391 3.817,-0.668 3.734,0.618 3.668,0.304 3.594,-0.906 3.527,-0.371 3.465,1.777 3.398,-0.058 3.34,-0.02 3.285,0.551 3.227,0.613 3.172,0.766 3.117,1.707 3.07,-0.301 3.02,0.836 2.972,1.59 2.418,0.578 h 6.504 l 2.52,-1.199 2.758,-1.035 2.714,-0.328 2.676,0.418 2.641,0.261 2.601,-0.551 2.571,-1.281 2.531,-0.64 2.5,0.859 2.469,0.246 2.433,0.387 2.407,2.347 0.523,0.516 h 29.133 l 1.136,-1.141 2.02,0.129 1.258,1.012 h 11.66 l 0.637,-0.289 1.859,-1.02 1.84,-0.203 1.824,-0.343 1.805,0.164 1.789,0.535 1.773,0.586 1.746,0.57 h 12.297 l 1.2,-0.543 1.621,-0.223 1.605,0.051 1.594,0.172 1.578,-0.051 1.566,-0.422 1.555,-0.664 1.539,-0.363 1.531,0.02 1.516,0.277 1.504,0.5 1.492,0.23 1.481,-0.128 1.468,-0.45 1.457,-0.058 1.446,0.07 1.433,-0.094 1.426,-0.371 1.414,0.176 1.402,0.723 1.395,0.703 1.383,0.093 1.371,-0.57 1.363,-0.574 1.352,-0.125 1.343,0.269 h 1.336 l 1.325,0.11 1.312,0.226 1.309,0.094 1.297,-0.043 1.289,-0.078 1.277,0.391 1.227,0.652 h 2.699 l 1.109,-0.894 1.238,-0.719 1.227,-0.121 1.223,0.597 1.215,1.024 0.386,0.113 h 1.66 l 0.356,-0.102 1.191,-0.585 1.184,-0.317 1.176,-0.265 1.168,0.246 1.164,-0.09 1.152,-0.52 1.148,-0.461 1.141,-0.429 1.133,0.324 1.129,-0.285 1.117,0.246 1.113,0.125 1.11,0.074 1.097,0.852 1.098,0.711 1.086,-0.516 1.082,-0.684 1.074,0.629 1.07,0.188 1.063,-0.629 1.059,-0.621 1.05,-0.223 1.047,0.52 1.039,1.324 0.938,0.488 h 0.234 l 0.891,-0.324 1.023,-0.485 1.016,-0.074 1.012,0.227 1.007,0.504 0.594,0.152 h 3.379 v -9.969 l -0.984,-0.367 -0.993,-0.762 -0.996,-0.429 -1,0.484 -1.007,1.371 -1.012,0.988 -1.016,-1.191 -1.023,-2.535 -1.028,-1.535 -1.035,0.769 -1.039,2.844 -1.047,2.305 -1.05,-1.078 -1.059,-1.981 -1.063,-0.562 -1.07,0.121 -1.074,-1.188 -1.082,-2.543 -1.086,-1.847 -1.098,-0.125 -1.097,1.273 -1.11,1.602 -1.113,1.468 -1.117,1.453 -1.129,1.211 -1.133,0.758 -1.141,0.082 -1.148,0.36 -1.152,1.144 -1.164,1.86 -1.168,1.355 -1.176,-1.652 -1.184,-3.438 -1.191,-3.082 -1.195,-1.48 -1.207,0.711 -1.215,2.828 -1.223,3.625 -1.227,0.703 -1.238,-2.762 -1.246,-2.074 -1.254,0.105 -1.262,1.844 -1.273,1.965 -1.277,0.336 -1.289,-0.957 -1.297,-1.055 -1.309,-0.82 -1.312,-0.188 -1.325,0.946 -1.336,1.8 -1.343,0.938 -1.352,-1.117 -1.363,-1.168 -1.371,0.039 -1.383,0.652 -1.395,0.317 -1.402,0.054 -1.414,-0.035 -1.426,-0.39 -1.433,-0.442 -1.446,0.121 -1.457,0.625 -1.468,0.09 -1.481,-0.805 -1.492,-0.898 -1.504,-0.539 -1.516,-0.793 -1.531,-1.484 -1.539,-1.606 -1.555,-0.812 -1.566,0.363 -1.578,1.074 -1.594,0.742 -1.605,-0.301 -1.621,-1.019 -1.633,-1.242 -1.649,-1.668 -1.664,-2.281 -1.676,-2.161 -1.695,-0.961 -1.707,0.45 -1.723,0.726 -1.738,-0.304 -1.758,-1.063 -1.769,-0.258 -1.789,1.52 -1.809,2.918 -1.824,2.937 -1.84,1.598 -1.859,-0.035 -1.879,-0.731 -1.895,-0.75 -1.918,-0.476 -1.937,0.136 -1.953,0.864 -1.977,1.656 -1.996,1.863 -2.02,-0.777 -2.042,-4.395 -2.063,-5.109 -2.082,-3.73 -2.109,-1.559 -2.133,0.211 -2.156,0.859 -2.184,0.676 -2.207,0.207 -2.234,0.352 -2.262,1.296 -2.285,2.344 -2.317,2.883 -2.343,2.887 -2.375,2.515 -2.407,2.004 -2.433,0.133 -2.469,-1.324 -2.5,-1.719 -2.531,-2.355 -2.571,-2.418 -2.601,-2.004 -2.641,-1.465 -2.676,-1.059 -2.714,-0.832 -2.758,-0.23 -2.797,0.953 -2.836,2.09 -2.883,2.531 -2.926,2.402 -2.972,2.414 -3.02,2.465 -3.07,1.438 -3.117,-0.371 -3.172,-3.278 -3.227,-3.902 -3.281,-2.918 -3.344,-1.375 -3.398,0.055 -3.465,0.437 -3.527,-2.523 -3.594,-4.149 -3.668,-2.644 -3.734,0.312 -3.813,2.153 -3.895,0.734 -3.972,-2.734 -4.059,-5.004 -4.148,-4.071 -4.242,-1.843 -4.34,-0.879 -4.438,-3.336 -4.551,-9.551 -4.66,-12.875 -4.777,-10.164 -4.902,-3.504 -5.036,2.313 -5.171,3.273 -5.317,-0.141 -5.469,-1.402 -5.636,2.387 -5.805,5.535 -5.992,2.258 -6.192,-5.461 -6.398,-12.891 -6.621,-13.613 -6.863,-10.813 -7.125,-8.207 -7.403,-7.129 -7.703,-7.722 -8.035,-11.106 -8.387,-13.039 -8.781,-15.851 -9.207,-19.453 -9.684,-22.512 -10.203,-31.652 -10.789,-37.961 -11.441,-39.61 -12.18,-35.722 -13.023,-17.192 -13.985,10.723 -15.109,44.863 -16.422,11.207 -17.988,-51.48 -19.883,-23.481 -22.231,25.942 -25.203,69.05 -29.093,84.227 -34.411,65.137 -42.117,32.953 -54.297,18.226 -76.523,26.063 z"
       style="fill:#edb120;fill-opacity:0.301961;fill-rule:nonzero;stroke:none"
       transform="scale(1.3333333)" />
    <path
       id="path90"
       d="m 118.56,524.188 39.891,-0.055 130.912,-13.973 76.575,-18.558 54.334,-38.25 42.145,-59.426 34.434,-69.551 29.113,-58.059 25.22,-24.656 22.242,19.344 19.9,49.5 18,20.797 16.433,-18.641 15.12,-19.387 13.993,3.903 13.033,25.57 12.188,37.379 11.449,28.328 10.796,9.551 10.21,7.934 9.69,15.636 9.213,22.543 8.788,24.266 8.392,21.586 8.041,16.418 7.708,11.918 7.407,10.629 7.13,9.312 6.868,6.684 6.626,3.382 6.402,1.989 6.196,1.808 5.996,1.399 5.809,0.23 5.64,0.446 5.473,0.093 5.32,-0.078 5.175,0.395 5.039,-0.035 4.905,-0.219 4.781,0.265 4.663,-0.019 4.55,-0.152 4.444,0.261 4.343,-0.015 4.245,-0.145 4.151,0.254 4.062,-0.043 3.975,-0.156 3.893,0.226 3.819,-0.035 3.737,-0.152 3.671,0.207 3.596,-0.031 3.53,-0.141 3.467,0.191 3.401,-0.027 3.342,-0.137 3.287,0.18 3.229,-0.023 3.174,-0.129 3.119,0.164 3.072,-0.02 3.022,-0.121 2.975,0.153 2.927,-0.016 2.885,-0.117 2.838,0.144 2.799,-0.015 2.759,-0.114 2.717,0.137 2.678,-0.012 2.642,-0.109 2.603,0.129 2.572,-0.012 2.533,-0.101 2.502,0.121 2.471,-0.012 2.435,-0.098 2.408,0.114 2.376,-0.008 2.346,-0.094 2.318,0.109 2.286,-0.007 2.263,-0.094 2.236,0.105 2.209,-0.004 2.181,-0.089 2.162,0.101 2.134,-0.008 2.107,-0.086 2.087,0.098 2.064,-0.004 2.044,-0.086 2.021,0.094 1.998,-0.004 1.978,-0.082 1.954,0.09 1.939,-0.004 1.919,-0.082 1.896,0.09 1.88,-0.004 1.861,-0.078 1.841,0.086 1.825,-0.004 1.806,-0.078 1.79,0.082 h 1.775 l 1.759,-0.075 1.74,0.079 h 1.723 l 1.709,-0.075 1.696,0.078 h 1.677 l 1.665,-0.074 1.65,0.078 1.634,-0.004 1.622,-0.07 1.606,0.074 h 1.595 l 1.579,-0.07 1.568,0.074 h 1.556 l 1.54,-0.07 1.532,0.07 h 1.517 l 1.504,-0.066 1.494,0.07 h 1.481 l 1.47,-0.066 1.458,0.066 h 1.446 l 1.435,-0.066 1.426,0.07 1.415,-0.004 1.404,-0.062 1.395,0.066 h 1.384 l 1.372,-0.062 1.364,0.062 h 1.353 l 1.344,-0.062 1.337,0.066 h 1.325 l 1.314,-0.062 1.309,0.062 h 1.298 l 1.29,-0.062 1.278,0.062 h 1.274 l 1.263,-0.059 1.255,0.059 h 1.247 l 1.239,-0.059 1.227,0.063 h 1.224 l 1.215,-0.063 1.208,0.063 h 1.196 l 1.192,-0.059 1.185,0.059 h 1.176 l 1.169,-0.059 1.165,0.059 h 1.153 l 1.149,-0.059 1.142,0.059 h 1.133 l 1.126,-0.055 1.122,0.055 h 1.114 l 1.11,-0.055 1.098,0.059 h 1.095 l 1.091,-0.059 1.082,0.059 h 1.075 l 1.071,-0.059 1.063,0.059 h 1.06 l 1.051,-0.059 1.048,0.059 h 1.04 l 1.035,-0.059 1.029,0.059 h 1.024 l 1.016,-0.059 1.012,0.059 h 1.009 l 1.001,-0.059 0.996,0.059 h 0.993 l 0.985,-0.059"
       style="fill:none;stroke:#0072bd;stroke-width:6.00926;stroke-linecap:butt;stroke-linejoin:round;stroke-miterlimit:10;stroke-dasharray:none;stroke-opacity:1"
       transform="scale(1.3324347,1.3333333)" />
    <path
       id="path91"
       d="m 868.219,554.473 -4.442,-0.422 -4.547,0.187 -4.66,0.035 -4.777,-0.375 -4.902,0.313 -5.036,0.105 -5.171,-0.679 -5.317,-0.227 -5.469,-0.406 -5.636,-0.598 -5.805,-0.359 -5.992,-1.313 -6.192,-2.523 -6.398,-3.402 -6.621,-6.114 -6.863,-11.297 -7.125,-17.281 -7.403,-21.035 -7.703,-21.723 -8.035,-21.312 -8.387,-23.387 -8.781,-29.375 -9.207,-31.812 -9.684,-23.969 -10.203,-12.93 -10.789,-16.691 -11.441,-36.387 -12.18,-53.375 -13.023,-34.996 -13.985,19.039 -15.109,55.816 -16.422,-2.89 -17.988,-56.797 -19.887,-44.863 -22.227,-5.836 -25.203,43.383 -29.093,77.343 -34.411,84.551 -42.117,68.981 -54.297,43.132 -76.523,27.575 -130.824,17.265 -39.864,0.043 v 28.641 l 39.864,-0.067 130.824,-10.679 76.523,-9.539 54.297,-33.371 42.117,-49.872 34.411,-54.554 29.093,-38.774 25.203,-5.925 22.227,32.851 19.887,54.141 17.988,-15.207 16.422,-40.168 15.109,17.039 13.985,26.844 13.023,16.144 12.18,21.379 11.441,20.27 10.789,2.418 10.203,2.933 9.684,7.309 9.207,13.269 8.781,19.156 8.387,19.782 8.035,11.531 7.703,2.109 7.403,0.223 7.125,1.344 6.863,2.07 6.621,0.656 6.398,0.571 6.192,1.089 5.992,1.493 5.805,0.097 1.785,0.094 h 8.844 l 0.476,-0.019 5.317,-0.383 5.171,0.105 5.036,0.039 4.902,-0.125 4.777,0.153 h 4.66 l 4.547,-0.122 4.442,0.106 4.34,0.023 4.242,-0.074 4.148,0.11 h 4.059 l 3.972,-0.082 3.891,0.093 h 3.817 l 3.734,-0.078 3.668,0.086 h 3.594 l 3.527,-0.07 3.465,0.078 3.398,-0.004 3.34,-0.062 3.285,0.066 3.227,0.004 3.172,-0.063 3.117,0.063 3.07,0.004 3.02,-0.059 2.972,0.059 2.926,0.004 2.883,-0.055 2.836,0.051 2.797,0.008 2.758,-0.051 2.714,0.047 2.676,0.007 2.641,-0.046 2.601,0.039 2.571,0.011 2.531,-0.047 2.5,0.04 2.469,0.011 2.433,-0.043 2.407,0.032 2.375,0.011 2.343,-0.039 2.317,0.031 2.285,0.012 2.262,-0.039 2.234,0.027 2.207,0.016 2.18,-0.039 2.16,0.027 2.133,0.012 2.105,-0.035 2.086,0.023 2.063,0.012 2.042,-0.031 2.02,0.023 1.996,0.012 1.977,-0.031 1.953,0.019 1.937,0.012 1.918,-0.031 1.895,0.019 1.879,0.016 1.859,-0.031 1.84,0.019 1.824,0.012 1.805,-0.027 1.789,0.015 1.773,0.012 1.758,-0.027 1.738,0.019 1.723,0.008 1.707,-0.024 1.695,0.016 1.676,0.012 1.664,-0.028 1.649,0.016 1.633,0.012 1.621,-0.024 1.605,0.016 1.594,0.008 1.578,-0.024 1.566,0.016 1.555,0.008 1.539,-0.024 1.531,0.016 1.516,0.008 1.504,-0.02 1.492,0.012 1.481,0.008 1.468,-0.02 1.457,0.016 1.446,0.008 1.433,-0.024 1.426,0.016 1.414,0.008 1.402,-0.02 1.395,0.012 1.383,0.008 1.371,-0.02 1.363,0.012 1.352,0.008 1.343,-0.02 1.336,0.016 1.325,0.004 1.312,-0.02 1.309,0.016 1.297,0.004 1.289,-0.016 1.277,0.012 1.273,0.004 1.262,-0.016 1.254,0.012 1.246,0.004 1.238,-0.016 1.227,0.012 1.223,0.004 1.215,-0.016 1.207,0.012 1.195,0.004 1.191,-0.016 1.184,0.012 1.176,0.004 1.168,-0.012 1.164,0.012 1.152,0.004 1.148,-0.016 1.141,0.012 1.133,0.004 1.125,-0.016 1.121,0.012 1.113,0.004 1.11,-0.016 1.097,0.012 1.094,0.004 1.09,-0.016 1.082,0.012 1.074,0.004 1.07,-0.016 1.063,0.012 1.059,0.004 1.05,-0.016 1.047,0.012 1.039,0.004 1.035,-0.016 1.028,0.012 1.023,0.004 1.016,-0.016 1.012,0.012 1.007,0.004 1,-0.016 0.996,0.016 h 0.993 l 0.984,-0.016 v -0.188 l -0.984,0.102 h -0.993 l -0.996,-0.102 -1,0.102 h -1.007 l -1.012,-0.102 -1.016,0.102 h -1.023 l -1.028,-0.102 -1.035,0.102 h -1.039 l -1.047,-0.102 -1.05,0.102 h -1.059 l -1.063,-0.102 -1.07,0.102 h -1.074 l -1.082,-0.102 -1.09,0.098 -1.094,0.004 -1.097,-0.105 -1.11,0.101 -1.113,0.004 -1.121,-0.105 -1.125,0.101 -1.133,0.004 -1.141,-0.105 -1.148,0.101 -1.152,0.004 -1.164,-0.109 -1.168,0.101 -1.176,0.004 -1.184,-0.105 -1.191,0.101 -1.195,0.004 -1.207,-0.109 -1.215,0.101 -1.223,0.008 -1.227,-0.109 -1.238,0.101 -1.246,0.004 -1.254,-0.109 -1.262,0.105 -1.273,0.004 -1.277,-0.113 -1.289,0.105 -1.297,0.008 -1.309,-0.113 -1.312,0.102 -1.325,0.007 -1.336,-0.113 -1.343,0.106 -1.352,0.007 -1.363,-0.117 -1.371,0.106 -1.383,0.007 -1.395,-0.117 -1.402,0.11 -1.414,0.007 -1.426,-0.121 -1.433,0.11 -1.446,0.008 -1.457,-0.122 -1.468,0.11 -1.481,0.012 -1.492,-0.126 -1.504,0.11 -1.516,0.012 -1.531,-0.129 -1.539,0.113 -1.555,0.012 -1.566,-0.129 -1.578,0.113 -1.594,0.012 -1.605,-0.133 -1.621,0.117 -1.633,0.012 -1.649,-0.133 -1.664,0.117 -1.676,0.012 -1.695,-0.137 -1.707,0.121 -1.723,0.012 -1.738,-0.141 -1.758,0.122 -1.773,0.015 -1.789,-0.144 -1.805,0.125 -1.824,0.015 -1.84,-0.148 -1.859,0.125 -1.879,0.019 -1.895,-0.156 -1.918,0.133 -1.937,0.016 -1.953,-0.157 -1.977,0.133 -1.996,0.02 -2.02,-0.164 -2.042,0.136 -2.063,0.02 -2.086,-0.168 -2.105,0.137 -2.133,0.023 -2.16,-0.176 -2.18,0.145 -2.207,0.023 -2.234,-0.179 -2.262,0.144 -2.285,0.027 -2.317,-0.191 -2.343,0.152 -2.375,0.028 -2.407,-0.196 -2.433,0.157 -2.469,0.031 -2.5,-0.207 -2.531,0.16 -2.571,0.031 -2.601,-0.215 -2.641,0.168 -2.676,0.035 -2.714,-0.226 -2.758,0.172 -2.797,0.039 -2.836,-0.238 -2.883,0.179 -2.926,0.039 -2.972,-0.25 -3.02,0.188 -3.07,0.043 -3.117,-0.266 -3.172,0.196 -3.227,0.046 -3.285,-0.285 -3.34,0.203 -3.398,0.055 -3.465,-0.305 -3.527,0.215 -3.594,0.059 -3.668,-0.328 -3.734,0.222 -3.817,0.071 -3.891,-0.36 -3.972,0.235 -4.059,0.082 -4.148,-0.399 -4.242,0.223 z"
       style="fill:#0072bd;fill-opacity:0.301961;fill-rule:nonzero;stroke:none"
       transform="scale(1.3333333)" />
    <path
       id="path92"
       d="M 118.682,555.105 V 53.332"
       style="fill:none;stroke:#262626;stroke-width:6.00926;stroke-linecap:butt;stroke-linejoin:round;stroke-miterlimit:10;stroke-dasharray:none;stroke-opacity:0.14902"
       transform="scale(1.3324347,1.3333333)" />
    <path
       id="path93"
       d="M 553.557,555.105 V 53.332"
       style="fill:none;stroke:#262626;stroke-width:6.00926;stroke-linecap:butt;stroke-linejoin:round;stroke-miterlimit:10;stroke-dasharray:none;stroke-opacity:0.14902"
       transform="scale(1.3324347,1.3333333)" />
    <path
       id="path94"
       d="M 988.432,555.105 V 53.332"
       style="fill:none;stroke:#262626;stroke-width:6.00926;stroke-linecap:butt;stroke-linejoin:round;stroke-miterlimit:10;stroke-dasharray:none;stroke-opacity:0.14902"
       transform="scale(1.3324347,1.3333333)" />
    <path
       id="path95"
       d="M 118.682,555.105 H 1153.778"
       style="fill:none;stroke:#262626;stroke-width:6.00926;stroke-linecap:butt;stroke-linejoin:round;stroke-miterlimit:10;stroke-dasharray:none;stroke-opacity:0.14902"
       transform="scale(1.3324347,1.3333333)" />
    <path
       id="path96"
       d="M 118.682,304.219 H 1153.778"
       style="fill:none;stroke:#262626;stroke-width:6.00926;stroke-linecap:butt;stroke-linejoin:round;stroke-miterlimit:10;stroke-dasharray:none;stroke-opacity:0.14902"
       transform="scale(1.3324347,1.3333333)" />
    <path
       id="path97"
       d="M 118.682,53.332 H 1153.778"
       style="fill:none;stroke:#262626;stroke-width:6.00926;stroke-linecap:butt;stroke-linejoin:round;stroke-miterlimit:10;stroke-dasharray:none;stroke-opacity:0.14902"
       transform="scale(1.3324347,1.3333333)" />
    <path
       id="path98"
       d="M 684.469,555.105 V 53.332"
       style="fill:none;stroke:#1a1a1a;stroke-width:6.00926;stroke-linecap:butt;stroke-linejoin:bevel;stroke-miterlimit:1;stroke-dasharray:6.00926, 6.00926;stroke-dashoffset:0;stroke-opacity:0.25098"
       transform="scale(1.3324347,1.3333333)" />
    <path
       id="path99"
       d="M 857.523,555.105 V 53.332"
       style="fill:none;stroke:#1a1a1a;stroke-width:6.00926;stroke-linecap:butt;stroke-linejoin:bevel;stroke-miterlimit:1;stroke-dasharray:6.00926, 6.00926;stroke-dashoffset:0;stroke-opacity:0.25098"
       transform="scale(1.3324347,1.3333333)" />
    <path
       id="path100"
       d="M 1119.344,555.105 V 53.332"
       style="fill:none;stroke:#1a1a1a;stroke-width:6.00926;stroke-linecap:butt;stroke-linejoin:bevel;stroke-miterlimit:1;stroke-dasharray:6.00926, 6.00926;stroke-dashoffset:0;stroke-opacity:0.25098"
       transform="scale(1.3324347,1.3333333)" />
    <path
       id="path101"
       d="m 992.359,61.594 h 152.383 v 220.84 H 992.359 Z"
       style="fill:#ffffff;fill-opacity:1;fill-rule:nonzero;stroke:none"
       transform="scale(1.3333333)" />
    <text
       id="text101"
       xml:space="preserve"
       transform="matrix(1.3333333,0,0,1.3342328,1370.1884,123.1456)"><tspan
         style="font-variant:normal;font-weight:normal;font-size:28.825px;font-family:Helvetica;writing-mode:lr-tb;fill:#000000;fill-opacity:1;fill-rule:nonzero;stroke:none"
         x="0 19.226051 25.630043 41.661133 57.692226 73.72332 89.75441 105.7855"
         y="0"
         id="tspan101">Elephant</tspan></text>
    <path
       id="path102"
       d="m 996.035,81.094 h 30.047"
       style="fill:none;stroke:#0072bd;stroke-width:6.00926;stroke-linecap:butt;stroke-linejoin:round;stroke-miterlimit:10;stroke-dasharray:none;stroke-opacity:1"
       transform="scale(1.3324347,1.3333333)" />
    <text
       id="text102"
       xml:space="preserve"
       transform="matrix(1.3333333,0,0,1.3342328,1370.1884,171.63797)"><tspan
         style="font-variant:normal;font-weight:normal;font-size:28.825px;font-family:Helvetica;writing-mode:lr-tb;fill:#000000;fill-opacity:1;fill-rule:nonzero;stroke:none"
         x="0 20.816492 36.847584 60.859035 76.890129"
         y="0"
         id="tspan102">Human</tspan></text>
    <path
       id="path103"
       d="m 996.035,117.461 h 30.047"
       style="fill:none;stroke:#edb120;stroke-width:6.00926;stroke-linecap:butt;stroke-linejoin:round;stroke-miterlimit:10;stroke-dasharray:none;stroke-opacity:1"
       transform="scale(1.3324347,1.3333333)" />
    <text
       id="text103"
       xml:space="preserve"
       transform="matrix(1.3333333,0,0,1.3342328,1370.1884,220.13035)"><tspan
         style="font-variant:normal;font-weight:normal;font-size:28.825px;font-family:Helvetica;writing-mode:lr-tb;fill:#000000;fill-opacity:1;fill-rule:nonzero;stroke:none"
         x="0 20.816492 36.847584 43.251575 59.282669"
         y="0"
         id="tspan103">Rhino</tspan></text>
    <path
       id="path104"
       d="m 996.035,153.832 h 30.047"
       style="fill:none;stroke:#d95319;stroke-width:6.00926;stroke-linecap:butt;stroke-linejoin:round;stroke-miterlimit:10;stroke-dasharray:none;stroke-opacity:1"
       transform="scale(1.3324347,1.3333333)" />
    <text
       id="text104"
       xml:space="preserve"
       transform="matrix(1.3333333,0,0,1.3342328,1370.1884,268.62273)"><tspan
         style="font-variant:normal;font-weight:normal;font-size:28.825px;font-family:Helvetica;writing-mode:lr-tb;fill:#000000;fill-opacity:1;fill-rule:nonzero;stroke:none"
         x="0 19.226051 35.257141 41.661133 57.692226"
         y="0"
         id="tspan104">Kulan</tspan></text>
    <path
       id="path105"
       d="m 996.035,190.199 h 30.047"
       style="fill:none;stroke:#7e2f8e;stroke-width:6.00926;stroke-linecap:butt;stroke-linejoin:round;stroke-miterlimit:10;stroke-dasharray:none;stroke-opacity:1"
       transform="scale(1.3324347,1.3333333)" />
    <text
       id="text105"
       xml:space="preserve"
       transform="matrix(1.3333333,0,0,1.3342328,1370.1884,317.11512)"><tspan
         style="font-variant:normal;font-weight:normal;font-size:28.825px;font-family:Helvetica;writing-mode:lr-tb;fill:#000000;fill-opacity:1;fill-rule:nonzero;stroke:none"
         x="0 20.816492 36.847584 60.859035 76.890129"
         y="0"
         id="tspan105">Camel</tspan></text>
    <path
       id="path106"
       d="m 996.035,226.57 h 30.047"
       style="fill:none;stroke:#77ac30;stroke-width:6.00926;stroke-linecap:butt;stroke-linejoin:round;stroke-miterlimit:10;stroke-dasharray:none;stroke-opacity:1"
       transform="scale(1.3324347,1.3333333)" />
    <path
       id="path107"
       d="m 1029.789,274.172 c -0.156,0 -0.285,-0.055 -0.387,-0.168 -0.101,-0.113 -0.152,-0.25 -0.152,-0.406 0,-0.141 0.051,-0.27 0.152,-0.387 0.102,-0.117 0.231,-0.176 0.387,-0.176 h 8.387 v -7.793 h -8.387 c -0.156,0 -0.285,-0.062 -0.387,-0.183 -0.101,-0.121 -0.152,-0.254 -0.152,-0.395 0,-0.141 0.051,-0.269 0.152,-0.391 0.102,-0.121 0.231,-0.183 0.387,-0.183 h 8.387 v -8.414 c 0,-0.149 0.054,-0.274 0.164,-0.371 0.109,-0.098 0.242,-0.145 0.398,-0.145 0.133,0 0.262,0.047 0.387,0.145 0.125,0.097 0.187,0.222 0.187,0.371 v 8.414 h 8.387 c 0.141,0 0.262,0.062 0.363,0.183 0.102,0.122 0.153,0.25 0.153,0.391 0,0.141 -0.051,0.274 -0.153,0.395 -0.101,0.121 -0.222,0.183 -0.363,0.183 h -8.387 v 7.793 h 8.387 c 0.141,0 0.262,0.059 0.363,0.176 0.102,0.117 0.153,0.246 0.153,0.387 0,0.156 -0.051,0.293 -0.153,0.406 -0.101,0.113 -0.222,0.168 -0.363,0.168 z"
       style="fill:#000000;fill-opacity:1;fill-rule:nonzero;stroke:none"
       transform="scale(1.3333333)" />
    <text
       id="text107"
       xml:space="preserve"
       transform="matrix(1.3333333,0,0,1.3342328,1410.8989,365.56327)"><tspan
         style="font-variant:normal;font-weight:normal;font-size:28.825px;font-family:Helvetica;writing-mode:lr-tb;fill:#000000;fill-opacity:1;fill-rule:nonzero;stroke:none"
         x="0 16.031092 24.0396 38.452103 46.460609"
         y="0"
         id="tspan107">1 std</tspan></text>
    <path
       id="path108"
       d="m 995.363,253.941 h 30.027 v 17.996 h -30.027 z"
       style="fill:#0072bd;fill-opacity:0.301961;fill-rule:nonzero;stroke:none"
       transform="scale(1.3333333)" />
    <path
       id="path109"
       d="m 993.029,61.594 h 152.486 v 220.84 H 993.029 Z"
       style="fill:none;stroke:#262626;stroke-width:6.00926;stroke-linecap:butt;stroke-linejoin:miter;stroke-miterlimit:10;stroke-dasharray:none;stroke-opacity:1"
       transform="scale(1.3324347,1.3333333)" />
  </g>
</svg>
