<?xml version="1.0" encoding="UTF-8" standalone="no"?>
<!-- Created with Inkscape (http://www.inkscape.org/) -->

<svg
   version="1.1"
   id="svg1"
   width="138.49068"
   height="111.30667"
   viewBox="0 0 138.49068 111.30667"
   xmlns="http://www.w3.org/2000/svg"
   xmlns:svg="http://www.w3.org/2000/svg">
  <defs
     id="defs1" />
  <g
     id="g1">
    <path
       id="path1"
       d="M 35.96693,0 H -35.96693"
       style="fill:none;stroke:#ff8000;stroke-width:1.59404;stroke-linecap:butt;stroke-linejoin:miter;stroke-miterlimit:10;stroke-dasharray:2.98883, 2.98883;stroke-dashoffset:0;stroke-opacity:1"
       transform="matrix(1.3333333,0,0,-1.3333333,68.868,101.47733)" />
    <path
       id="path2"
       d="M 37.53918,3.71913 2.14522,65.01723"
       style="fill:none;stroke:#ff8000;stroke-width:1.59404;stroke-linecap:butt;stroke-linejoin:miter;stroke-miterlimit:10;stroke-dasharray:2.98883, 2.98883;stroke-dashoffset:0;stroke-opacity:1"
       transform="matrix(1.3333333,0,0,-1.3333333,68.868,101.47733)" />
    <path
       id="path3"
       d="m -37.53918,3.71913 35.39396,61.2981"
       style="fill:none;stroke:#ff8000;stroke-width:1.59404;stroke-linecap:butt;stroke-linejoin:miter;stroke-miterlimit:10;stroke-dasharray:2.98883, 2.98883;stroke-dashoffset:0;stroke-opacity:1"
       transform="matrix(1.3333333,0,0,-1.3333333,68.868,101.47733)" />
    <path
       id="path4"
       d="m -32.71216,0 c 0,3.85161 -3.12228,6.9739 -6.97391,6.9739 -3.85162,0 -6.9739,-3.12229 -6.9739,-6.9739 0,-3.85161 3.12228,-6.9739 6.9739,-6.9739 3.85163,0 6.97391,3.12229 6.97391,6.9739 z"
       style="fill:#000000;fill-opacity:1;fill-rule:nonzero;stroke:#000000;stroke-width:0.79701;stroke-linecap:butt;stroke-linejoin:miter;stroke-miterlimit:10;stroke-dasharray:none;stroke-opacity:1"
       transform="matrix(1.3333333,0,0,-1.3333333,68.868,101.47733)" />
    <path
       id="path5"
       d="m 2.9292969,-6.3746406 c 0,-0.234375 0,-0.2578125 -0.234375,-0.2578125 -0.609375,0.6328125 -1.4882813,0.6328125 -1.80468752,0.6328125 v 0.3164062 c 0.19921872,0 0.78515622,0 1.30078122,-0.2578125 v 5.15625003 c 0,0.3515625 -0.035156,0.48046875 -0.9257812,0.48046875 H 0.94882813 V 3.59375e-4 C 1.3003906,-0.03479687 2.1558594,-0.03479687 2.5542969,-0.03479687 c 0.3984375,0 1.265625,0 1.6171875,0.035156245 V -0.30432812 H 3.8550781 c -0.9023437,0 -0.9257812,-0.1171875 -0.9257812,-0.48046875 z m 0,0"
       style="fill:#ffffff;fill-opacity:1;fill-rule:nonzero;stroke:none"
       aria-label="1"
       transform="matrix(1.3333333,0,0,1.3333333,12.633333,105.75733)" />
    <path
       id="path6"
       d="m 46.65997,0 c 0,3.85161 -3.12228,6.9739 -6.9739,6.9739 -3.85163,0 -6.97391,-3.12229 -6.97391,-6.9739 0,-3.85161 3.12228,-6.9739 6.97391,-6.9739 3.85162,0 6.9739,3.12229 6.9739,6.9739 z"
       style="fill:#000000;fill-opacity:1;fill-rule:nonzero;stroke:#000000;stroke-width:0.79701;stroke-linecap:butt;stroke-linejoin:miter;stroke-miterlimit:10;stroke-dasharray:none;stroke-opacity:1"
       transform="matrix(1.3333333,0,0,-1.3333333,68.868,101.47733)" />
    <path
       id="path7"
       d="M 1.2653281,-0.76135937 2.3200156,-1.7926094 c 1.5585938,-1.3710937 2.15625,-1.9101562 2.15625,-2.90625 0,-1.1367187 -0.9023437,-1.9335937 -2.1210937,-1.9335937 -1.125,0 -1.85156253,0.9140625 -1.85156253,1.8046875 0,0.5507812 0.4921875,0.5507812 0.52734373,0.5507812 0.1640625,0 0.515625,-0.1171875 0.515625,-0.5273437 0,-0.2578125 -0.1875,-0.515625 -0.5273437,-0.515625 -0.0820313,0 -0.10546878,0 -0.12890628,0.011719 0.22265628,-0.6445312 0.76171878,-1.0195312 1.33593748,-1.0195312 0.9140625,0 1.3359375,0.8085937 1.3359375,1.6289062 0,0.796875 -0.4921875,1.5820313 -1.0429687,2.203125 L 0.60907812,-0.36292187 C 0.50360937,-0.25745312 0.50360937,-0.23401562 0.50360937,3.59375e-4 H 4.1950156 L 4.4762656,-1.7340156 H 4.2184531 c -0.046875,0.3046875 -0.1171875,0.73828123 -0.2109375,0.89062498 -0.070312,0.0820313 -0.7265625,0.0820313 -0.9492187,0.0820313 z m 0,0"
       style="fill:#ffffff;fill-opacity:1;fill-rule:nonzero;stroke:none"
       aria-label="2"
       transform="matrix(1.3333333,0,0,1.3333333,118.46133,105.75733)" />
    <path
       id="path8"
       d="m 6.9739,68.73637 c 0,3.85163 -3.12229,6.97391 -6.9739,6.97391 -3.85161,0 -6.9739,-3.12228 -6.9739,-6.97391 0,-3.85162 3.12229,-6.9739 6.9739,-6.9739 3.85161,0 6.9739,3.12228 6.9739,6.9739 z"
       style="fill:#000000;fill-opacity:1;fill-rule:nonzero;stroke:#000000;stroke-width:0.79701;stroke-linecap:butt;stroke-linejoin:miter;stroke-miterlimit:10;stroke-dasharray:none;stroke-opacity:1"
       transform="matrix(1.3333333,0,0,-1.3333333,68.868,101.47733)" />
    <path
       id="path9"
       d="m 2.8946875,-3.503875 c 0.8085938,-0.2695313 1.3945313,-0.9726563 1.3945313,-1.7578125 0,-0.8203125 -0.8789063,-1.3710938 -1.8398438,-1.3710938 -1.0078125,0 -1.7578125,0.5976563 -1.7578125,1.3476563 0,0.3398437 0.2109375,0.5273437 0.5039063,0.5273437 0.3046875,0 0.5039062,-0.2226562 0.5039062,-0.515625 0,-0.4921875 -0.46875,-0.4921875 -0.609375,-0.4921875 0.3046875,-0.4921875 0.9609375,-0.6210937 1.3242188,-0.6210937 0.4101562,0 0.9492187,0.2226562 0.9492187,1.1132812 0,0.1289063 -0.011719,0.703125 -0.2695312,1.1367188 -0.3046875,0.4804687 -0.6445313,0.515625 -0.890625,0.515625 -0.082031,0.011719 -0.3164063,0.035156 -0.3867188,0.035156 -0.082031,0.011719 -0.1523437,0.023437 -0.1523437,0.1171875 0,0.1171875 0.070312,0.1171875 0.234375,0.1171875 h 0.4453125 c 0.8085937,0 1.1835937,0.6679688 1.1835937,1.6523438 0,1.34765625 -0.6914062,1.640625 -1.125,1.640625 -0.4335937,0 -1.171875,-0.17578125 -1.5234375,-0.76171875 0.3515625,0.0585938 0.65625,-0.1640625 0.65625,-0.53906255 0,-0.3632812 -0.2695312,-0.5625 -0.5625,-0.5625 -0.234375,0 -0.55078125,0.140625 -0.55078125,0.5742188 0,0.9140625 0.92578125,1.5703125 2.00390625,1.5703125 1.21875,0 2.1210938,-0.9140625 2.1210938,-1.921875 0,-0.8203125 -0.6210938,-1.59375 -1.6523438,-1.8046873 z m 0,0"
       style="fill:#ffffff;fill-opacity:1;fill-rule:nonzero;stroke:none"
       aria-label="3"
       transform="matrix(1.3333333,0,0,1.3333333,65.546667,14.109333)" />
    <path
       id="path10"
       d="m -50.25189,7.49274 38.47987,66.6472"
       style="fill:none;stroke:#000000;stroke-width:1.59404;stroke-linecap:butt;stroke-linejoin:miter;stroke-miterlimit:10;stroke-dasharray:none;stroke-opacity:1"
       transform="matrix(1.3333333,0,0,-1.3333333,68.868,101.47733)" />
    <path
       id="path11"
       d="M -2.27148,3.02866 C -2.0822,1.8929 0,0.18927 0.56786,0 0,-0.18927 -2.0822,-1.8929 -2.27148,-3.02866"
       style="fill:none;stroke:#000000;stroke-width:1.27522;stroke-linecap:round;stroke-linejoin:round;stroke-miterlimit:10;stroke-dasharray:none;stroke-opacity:1"
       transform="matrix(-0.66666667,1.15468,1.15468,0.66666667,1.8654933,91.487)" />
    <path
       id="path12"
       d="M -2.27148,3.02866 C -2.0822,1.8929 0,0.18927 0.56786,0 0,-0.18927 -2.0822,-1.8929 -2.27148,-3.02866"
       style="fill:none;stroke:#000000;stroke-width:1.27522;stroke-linecap:round;stroke-linejoin:round;stroke-miterlimit:10;stroke-dasharray:none;stroke-opacity:1"
       transform="matrix(0.66666667,-1.15468,-1.15468,-0.66666667,53.17196,2.6241067)" />
    <path
       id="path13"
       d="m 2.9373079,-1.6407189 -5.051e-4,0.86631248 c 1.119e-4,0.35175634 -0.029914,0.4638126 -0.7755913,0.46131699 l -0.2049645,-0.003448 0.00283,0.30959156 c 0.4025012,-0.029409 0.927206,-0.03465123 1.3371352,-0.02775433 0.4200779,0.0010376 0.9447827,-0.0042046 1.3722899,0.03313837 l -0.00283,-0.30959156 -0.2151133,0.002411 C 3.7150287,-0.31709744 3.6927408,-0.4260138 3.6926289,-0.77777014 l 5.052e-4,-0.86631246 0.9928068,0.00866 -0.00869,-0.3197403 -0.9928069,-0.00866 0.00169,-4.5205189 c 0.00345,-0.2049646 3.085e-4,-0.2572781 -0.1464832,-0.2537177 -0.094478,4.204e-4 -0.1206351,0.00199 -0.2029742,0.1171865 l -3.05930475,4.6620382 0.008691,0.3197402 z m 0.043623,-0.3228802 -2.42012964,0.0035 2.42831824,-3.7158821 z m 4.761131,-1.4565603 -0.00267,2.667259 c 5.324e-4,0.44623461 -0.1099539,0.4423657 -0.7873099,0.44101958 l 0.00283,0.30959156 C 7.300809,-0.01254989 7.8137952,-0.03808953 8.0812219,-0.0436403 8.3385,-0.04333175 8.8706341,-0.01226852 9.2020931,-6.617773e-4 L 9.199268,-0.31025334 c -0.6613479,0.002943 -0.7718342,-9.2565e-4 -0.7723666,-0.44716026 l 5.899e-4,-1.8271032 c -0.00463,-1.039261 0.7022241,-1.5962058 1.3374153,-1.5975791 0.6250424,0.00449 0.7466304,0.5432085 0.7432934,1.0999294 l 0.0031,2.32565136 c 5.32e-4,0.44623462 -0.120103,0.44822503 -0.7713021,0.44530896 l 0.00283,0.30959156 c 0.3298891,-0.01455 0.8428751,-0.04008964 1.1161621,-0.03549171 0.257278,3.0855e-4 0.773404,0.0270824 1.115011,0.03282982 l -0.0028,-0.30959156 c -0.661348,0.002943 -0.781983,0.004934 -0.782515,-0.44130094 l 5.9e-4,-1.82710319 c -0.0046,-1.039261 0.712372,-1.6020651 1.347564,-1.6034384 0.625042,0.00449 0.736481,0.5490678 0.733145,1.1057887 l 0.0031,2.32565136 c 5.32e-4,0.44623461 -0.109954,0.44236569 -0.771302,0.44530895 l 0.0028,0.30959156022 C 12.850446,-0.00963065 13.347425,-0.03945967 13.620711,-0.03486174 c 0.257278,3.0855e-4 0.773404,0.0270824 1.115012,0.03282982 l -0.0028,-0.30959156 c -0.514556,-6.1711e-4 -0.755826,0.003364 -0.768806,-0.30036851 l 0.0017,-1.89542471 c -0.0096,-0.8604532 -0.0023,-1.1759041 -0.312029,-1.5248291 -0.141774,-0.1752474 -0.474073,-0.3758107 -1.046802,-0.3834367 -0.834297,0.00807 -1.280728,0.6176404 -1.441846,0.9948245 -0.136138,-0.8686115 -0.883806,-0.9917421 -1.3300404,-0.9912097 -0.7195207,-0.00407 -1.197239,0.4341227 -1.4750111,1.0545672 l -3.358e-4,-1.055269 -1.4050349,0.1210826 0.00283,0.3095916 c 0.7035127,-2.238e-4 0.7866928,0.073536 0.7845057,0.5619359 z m 0,0"
       style="fill:#000000;fill-opacity:1;fill-rule:nonzero;stroke:none"
       aria-label="4m"
       transform="matrix(0.66666667,-1.1547067,1.1547067,0.66666667,17.784,52.938667)" />
    <path
       id="path14"
       d="m 3.48695,22.9126 c 0,1.9258 -1.56115,3.48695 -3.48695,3.48695 -1.9258,0 -3.48695,-1.56115 -3.48695,-3.48695 0,-1.9258 1.56115,-3.48696 3.48695,-3.48696 1.9258,0 3.48695,1.56116 3.48695,3.48696 z"
       style="fill:#808080;fill-opacity:1;fill-rule:nonzero;stroke:#808080;stroke-width:0.79701;stroke-linecap:butt;stroke-linejoin:miter;stroke-miterlimit:10;stroke-dasharray:none;stroke-opacity:1"
       transform="matrix(1.3333333,0,0,-1.3333333,68.868,101.47733)" />
    <path
       id="path15"
       d="m 3.71913,22.9126 35.96622,-4.1e-4"
       style="fill:none;stroke:#808080;stroke-width:1.59404;stroke-linecap:butt;stroke-linejoin:miter;stroke-miterlimit:10;stroke-dasharray:none;stroke-opacity:1"
       transform="matrix(1.3333333,0,0,-1.3333333,68.868,101.47733)" />
    <path
       id="path16"
       d="m 3.71855,26.63174 35.9668,35.96582"
       style="fill:none;stroke:#808080;stroke-width:1.59404;stroke-linecap:butt;stroke-linejoin:miter;stroke-miterlimit:10;stroke-dasharray:1.59404, 1.99255;stroke-dashoffset:0;stroke-opacity:1"
       transform="matrix(1.3333333,0,0,-1.3333333,68.868,101.47733)" />
    <path
       id="path17"
       d="m 29.764,22.91219 c 0,7.89242 -3.13686,15.46557 -7.86524,20.19395"
       style="fill:none;stroke:#808080;stroke-width:1.59404;stroke-linecap:butt;stroke-linejoin:miter;stroke-miterlimit:10;stroke-dasharray:none;stroke-opacity:1"
       transform="matrix(1.3333333,0,0,-1.3333333,68.868,101.47733)" />
    <path
       id="path18"
       d="M -2.27148,3.02866 C -2.0822,1.8929 0,0.18927 0.56786,0 0,-0.18927 -2.0822,-1.8929 -2.27148,-3.02866"
       style="fill:none;stroke:#808080;stroke-width:1.27522;stroke-linecap:round;stroke-linejoin:round;stroke-miterlimit:10;stroke-dasharray:none;stroke-opacity:1"
       transform="matrix(-0.9428,-0.9428,-0.9428,0.9428,98.06636,44.002507)" />
    <g
       id="g18"
       aria-label="ϕ(t)"
       transform="matrix(1.3333333,0,0,1.3333333,111.02,59.062667)">
      <path
         id="path19"
         d="m 4.3473047,-6.6798125 c 0,-0.011719 0.035156,-0.1289063 0.035156,-0.1289063 0,-0.011719 0,-0.1054687 -0.1171875,-0.1054687 -0.1054687,0 -0.1171875,0.035156 -0.1523437,0.1992187 l -0.5742188,2.296875 c -1.582031,0.058594 -3.04687476,1.3828125 -3.04687476,2.7304688 0,0.94921875 0.69140626,1.734375 1.91015626,1.8046875 -0.082031,0.31640625 -0.1523438,0.6328125 -0.234375,0.9375 -0.1171875,0.46875 -0.2109375,0.84375 -0.2109375,0.8789062 0,0.09375 0.070312,0.1054688 0.1171875,0.1054688 0.046875,0 0.070312,-0.011719 0.09375,-0.035156 0.023437,-0.023438 0.082031,-0.2578125 0.1171875,-0.3984375 l 0.375,-1.4882812 c 1.6054687,-0.046875 3.046875,-1.3945313 3.046875,-2.7304688 0,-0.7851562 -0.5273438,-1.6992187 -1.9101563,-1.8046875 z m -1.8984375,6.57421875 c -0.5976563,-0.0234375 -1.3125,-0.375 -1.3125,-1.37109375 0,-1.1953125 0.8554687,-2.5898438 2.34375,-2.71875 z M 3.7379297,-4.1954375 c 0.75,0.046875 1.3242187,0.5039062 1.3242187,1.3710937 0,1.1835938 -0.8554687,2.60156255 -2.3554687,2.71875005 z m 0,0"
         style="fill:#808080;fill-opacity:1;fill-rule:nonzero;stroke:none" />
      <path
         id="path20"
         d="m 9.2310938,2.3905 c 0,-0.035156 0,-0.046875 -0.1640625,-0.2226563 -1.2421876,-1.2539062 -1.5703126,-3.1289062 -1.5703126,-4.6640625 0,-1.7226562 0.3867188,-3.4570312 1.6054688,-4.7109375 0.1289063,-0.1171875 0.1289063,-0.1289062 0.1289063,-0.1640625 0,-0.070312 -0.035156,-0.1054687 -0.09375,-0.1054687 C 9.031875,-7.4766875 8.14125,-6.797 7.5553125,-5.531375 7.0396875,-4.4298125 6.9225,-3.32825 6.9225,-2.4962188 c 0,0.7851563 0.1171875,1.99218755 0.65625,3.11718755 0.5976563,1.21874995 1.453125,1.87499995 1.5585938,1.87499995 0.058594,0 0.09375,-0.035156 0.09375,-0.1054687 z m 0,0"
         style="fill:#808080;fill-opacity:1;fill-rule:nonzero;stroke:none" />
      <path
         id="path21"
         d="m 11.861953,-3.9845 h 0.9375 c 0.199219,0 0.304688,0 0.304688,-0.1992188 0,-0.1054687 -0.105469,-0.1054687 -0.28125,-0.1054687 h -0.878907 c 0.363282,-1.4179688 0.410157,-1.6171875 0.410157,-1.6757813 0,-0.1757812 -0.117188,-0.2695312 -0.292969,-0.2695312 -0.02344,0 -0.304688,0.011719 -0.398438,0.3515625 l -0.386718,1.59375 h -0.9375 c -0.199219,0 -0.292969,0 -0.292969,0.1875 0,0.1171875 0.07031,0.1171875 0.269531,0.1171875 h 0.878906 c -0.714843,2.8242187 -0.75,3 -0.75,3.17578125 0,0.5390625 0.375,0.9140625 0.914063,0.9140625 1.007812,0 1.582031,-1.45312505 1.582031,-1.53515625 0,-0.09375 -0.08203,-0.09375 -0.117187,-0.09375 -0.09375,0 -0.105469,0.023437 -0.152344,0.140625 -0.433594,1.03125 -0.960938,1.27734375 -1.300781,1.27734375 -0.199219,0 -0.304688,-0.12890625 -0.304688,-0.45703125 0,-0.24609375 0.02344,-0.31640625 0.05859,-0.4804688 z m 0,0"
         style="fill:#808080;fill-opacity:1;fill-rule:nonzero;stroke:none" />
      <path
         id="path22"
         d="m 16.291641,-2.4962188 c 0,-0.7734375 -0.117188,-1.9804687 -0.65625,-3.1054687 -0.597657,-1.21875 -1.464844,-1.875 -1.558594,-1.875 -0.05859,0 -0.105469,0.046875 -0.105469,0.1054687 0,0.035156 0,0.046875 0.199219,0.234375 0.972656,0.984375 1.535156,2.5664063 1.535156,4.640625 0,1.71093755 -0.363281,3.4570313 -1.59375,4.7226563 -0.140625,0.1171875 -0.140625,0.1289062 -0.140625,0.1640625 0,0.058594 0.04687,0.1054687 0.105469,0.1054687 0.09375,0 0.996094,-0.6796875 1.582031,-1.94531245 0.503906,-1.1015625 0.632813,-2.20312505 0.632813,-3.04687505 z m 0,0"
         style="fill:#808080;fill-opacity:1;fill-rule:nonzero;stroke:none" />
    </g>
  </g>
</svg>
