<?xml version="1.0" encoding="UTF-8" standalone="no"?>
<!-- Created with Inkscape (http://www.inkscape.org/) -->

<svg
   version="1.1"
   id="svg1"
   width="1537.3333"
   height="865.33331"
   viewBox="0 0 1537.3333 865.33331"
   sodipodi:docname="Kurtosis_emb.pdf"
   xmlns:inkscape="http://www.inkscape.org/namespaces/inkscape"
   xmlns:sodipodi="http://sodipodi.sourceforge.net/DTD/sodipodi-0.dtd"
   xmlns="http://www.w3.org/2000/svg"
   xmlns:svg="http://www.w3.org/2000/svg">
  <defs
     id="defs1" />
  <sodipodi:namedview
     id="namedview1"
     pagecolor="#ffffff"
     bordercolor="#999999"
     borderopacity="1"
     inkscape:showpageshadow="0"
     inkscape:pageopacity="0"
     inkscape:pagecheckerboard="0"
     inkscape:deskcolor="#d1d1d1">
    <inkscape:page
       x="0"
       y="0"
       id="page1"
       width="1537.3333"
       height="865.33331"
       margin="0"
       bleed="0" />
  </sodipodi:namedview>
  <g
     id="g1"
     inkscape:groupmode="layer"
     inkscape:label="">
    <path
       id="path1"
       d="M 0,0 H 1153 V 649 H 0 Z"
       style="fill:#ffffff;fill-opacity:1;fill-rule:nonzero;stroke:none"
       transform="scale(1.3333333)" />
    <path
       id="path2"
       d="m 149.531,55.887 h 893.574 V 270.418 H 149.531 Z"
       style="fill:#ffffff;fill-opacity:1;fill-rule:nonzero;stroke:none"
       transform="scale(1.3333333)" />
    <path
       id="path3"
       d="m 149.632,270.418 h 894.177"
       style="fill:none;stroke:#262626;stroke-width:4.00618;stroke-linecap:square;stroke-linejoin:round;stroke-miterlimit:10;stroke-dasharray:none;stroke-opacity:1"
       transform="scale(1.3324347,1.3333333)" />
    <path
       id="path4"
       d="m 149.632,55.887 h 894.177"
       style="fill:none;stroke:#262626;stroke-width:4.00618;stroke-linecap:square;stroke-linejoin:round;stroke-miterlimit:10;stroke-dasharray:none;stroke-opacity:1"
       transform="scale(1.3324347,1.3333333)" />
    <path
       id="path5"
       d="m 286.111,270.418 v -8.941"
       style="fill:none;stroke:#262626;stroke-width:4.00618;stroke-linecap:square;stroke-linejoin:round;stroke-miterlimit:10;stroke-dasharray:none;stroke-opacity:1"
       transform="scale(1.3324347,1.3333333)" />
    <path
       id="path6"
       d="m 423.907,270.418 v -8.941"
       style="fill:none;stroke:#262626;stroke-width:4.00618;stroke-linecap:square;stroke-linejoin:round;stroke-miterlimit:10;stroke-dasharray:none;stroke-opacity:1"
       transform="scale(1.3324347,1.3333333)" />
    <path
       id="path7"
       d="m 561.703,270.418 v -8.941"
       style="fill:none;stroke:#262626;stroke-width:4.00618;stroke-linecap:square;stroke-linejoin:round;stroke-miterlimit:10;stroke-dasharray:none;stroke-opacity:1"
       transform="scale(1.3324347,1.3333333)" />
    <path
       id="path8"
       d="m 699.495,270.418 v -8.941"
       style="fill:none;stroke:#262626;stroke-width:4.00618;stroke-linecap:square;stroke-linejoin:round;stroke-miterlimit:10;stroke-dasharray:none;stroke-opacity:1"
       transform="scale(1.3324347,1.3333333)" />
    <path
       id="path9"
       d="m 837.291,270.418 v -8.941"
       style="fill:none;stroke:#262626;stroke-width:4.00618;stroke-linecap:square;stroke-linejoin:round;stroke-miterlimit:10;stroke-dasharray:none;stroke-opacity:1"
       transform="scale(1.3324347,1.3333333)" />
    <path
       id="path10"
       d="m 975.087,270.418 v -8.941"
       style="fill:none;stroke:#262626;stroke-width:4.00618;stroke-linecap:square;stroke-linejoin:round;stroke-miterlimit:10;stroke-dasharray:none;stroke-opacity:1"
       transform="scale(1.3324347,1.3333333)" />
    <path
       id="path11"
       d="m 286.111,55.887 v 8.941"
       style="fill:none;stroke:#262626;stroke-width:4.00618;stroke-linecap:square;stroke-linejoin:round;stroke-miterlimit:10;stroke-dasharray:none;stroke-opacity:1"
       transform="scale(1.3324347,1.3333333)" />
    <path
       id="path12"
       d="m 423.907,55.887 v 8.941"
       style="fill:none;stroke:#262626;stroke-width:4.00618;stroke-linecap:square;stroke-linejoin:round;stroke-miterlimit:10;stroke-dasharray:none;stroke-opacity:1"
       transform="scale(1.3324347,1.3333333)" />
    <path
       id="path13"
       d="m 561.703,55.887 v 8.941"
       style="fill:none;stroke:#262626;stroke-width:4.00618;stroke-linecap:square;stroke-linejoin:round;stroke-miterlimit:10;stroke-dasharray:none;stroke-opacity:1"
       transform="scale(1.3324347,1.3333333)" />
    <path
       id="path14"
       d="m 699.495,55.887 v 8.941"
       style="fill:none;stroke:#262626;stroke-width:4.00618;stroke-linecap:square;stroke-linejoin:round;stroke-miterlimit:10;stroke-dasharray:none;stroke-opacity:1"
       transform="scale(1.3324347,1.3333333)" />
    <path
       id="path15"
       d="m 837.291,55.887 v 8.941"
       style="fill:none;stroke:#262626;stroke-width:4.00618;stroke-linecap:square;stroke-linejoin:round;stroke-miterlimit:10;stroke-dasharray:none;stroke-opacity:1"
       transform="scale(1.3324347,1.3333333)" />
    <path
       id="path16"
       d="m 975.087,55.887 v 8.941"
       style="fill:none;stroke:#262626;stroke-width:4.00618;stroke-linecap:square;stroke-linejoin:round;stroke-miterlimit:10;stroke-dasharray:none;stroke-opacity:1"
       transform="scale(1.3324347,1.3333333)" />
    <path
       id="path17"
       d="M 149.632,270.418 V 55.887"
       style="fill:none;stroke:#262626;stroke-width:4.00618;stroke-linecap:square;stroke-linejoin:round;stroke-miterlimit:10;stroke-dasharray:none;stroke-opacity:1"
       transform="scale(1.3324347,1.3333333)" />
    <path
       id="path18"
       d="M 1043.809,270.418 V 55.887"
       style="fill:none;stroke:#262626;stroke-width:4.00618;stroke-linecap:square;stroke-linejoin:round;stroke-miterlimit:10;stroke-dasharray:none;stroke-opacity:1"
       transform="scale(1.3324347,1.3333333)" />
    <path
       id="path19"
       d="m 149.632,270.418 h 8.94"
       style="fill:none;stroke:#262626;stroke-width:4.00618;stroke-linecap:square;stroke-linejoin:round;stroke-miterlimit:10;stroke-dasharray:none;stroke-opacity:1"
       transform="scale(1.3324347,1.3333333)" />
    <path
       id="path20"
       d="m 149.632,198.906 h 8.94"
       style="fill:none;stroke:#262626;stroke-width:4.00618;stroke-linecap:square;stroke-linejoin:round;stroke-miterlimit:10;stroke-dasharray:none;stroke-opacity:1"
       transform="scale(1.3324347,1.3333333)" />
    <path
       id="path21"
       d="m 149.632,127.395 h 8.94"
       style="fill:none;stroke:#262626;stroke-width:4.00618;stroke-linecap:square;stroke-linejoin:round;stroke-miterlimit:10;stroke-dasharray:none;stroke-opacity:1"
       transform="scale(1.3324347,1.3333333)" />
    <path
       id="path22"
       d="m 149.632,55.887 h 8.94"
       style="fill:none;stroke:#262626;stroke-width:4.00618;stroke-linecap:square;stroke-linejoin:round;stroke-miterlimit:10;stroke-dasharray:none;stroke-opacity:1"
       transform="scale(1.3324347,1.3333333)" />
    <path
       id="path23"
       d="m 1043.809,270.418 h -8.943"
       style="fill:none;stroke:#262626;stroke-width:4.00618;stroke-linecap:square;stroke-linejoin:round;stroke-miterlimit:10;stroke-dasharray:none;stroke-opacity:1"
       transform="scale(1.3324347,1.3333333)" />
    <path
       id="path24"
       d="m 1043.809,198.906 h -8.943"
       style="fill:none;stroke:#262626;stroke-width:4.00618;stroke-linecap:square;stroke-linejoin:round;stroke-miterlimit:10;stroke-dasharray:none;stroke-opacity:1"
       transform="scale(1.3324347,1.3333333)" />
    <path
       id="path25"
       d="m 1043.809,127.395 h -8.943"
       style="fill:none;stroke:#262626;stroke-width:4.00618;stroke-linecap:square;stroke-linejoin:round;stroke-miterlimit:10;stroke-dasharray:none;stroke-opacity:1"
       transform="scale(1.3324347,1.3333333)" />
    <path
       id="path26"
       d="m 1043.809,55.887 h -8.943"
       style="fill:none;stroke:#262626;stroke-width:4.00618;stroke-linecap:square;stroke-linejoin:round;stroke-miterlimit:10;stroke-dasharray:none;stroke-opacity:1"
       transform="scale(1.3324347,1.3333333)" />
    <text
       id="text26"
       xml:space="preserve"
       transform="matrix(1.3333333,0,0,1.3342328,83.912799,377.98241)"><tspan
         style="font-variant:normal;font-weight:normal;font-size:33.6289px;font-family:Helvetica;writing-mode:lr-tb;fill:#262626;fill-opacity:1;fill-rule:nonzero;stroke:none"
         x="0 11.198675 29.901449 39.244625 57.947399"
         y="0"
         sodipodi:role="line"
         id="tspan26">-0.04</tspan><tspan
         style="font-variant:normal;font-weight:normal;font-size:33.6289px;font-family:Helvetica;writing-mode:lr-tb;fill:#262626;fill-opacity:1;fill-rule:nonzero;stroke:none"
         x="0 11.198675 29.901449 39.244625 57.947399"
         y="-71.461983"
         sodipodi:role="line"
         id="tspan27">-0.02</tspan><tspan
         style="font-variant:normal;font-weight:normal;font-size:33.6289px;font-family:Helvetica;writing-mode:lr-tb;fill:#262626;fill-opacity:1;fill-rule:nonzero;stroke:none"
         x="58.550785"
         y="-142.92397"
         id="tspan28">0</tspan><tspan
         style="font-variant:normal;font-weight:normal;font-size:33.6289px;font-family:Helvetica;writing-mode:lr-tb;fill:#262626;fill-opacity:1;fill-rule:nonzero;stroke:none"
         x="11.710143 30.412916 39.756092 58.458866"
         y="-214.38594"
         sodipodi:role="line"
         id="tspan29">0.02</tspan></text>
    <text
       id="text29"
       xml:space="preserve"
       transform="matrix(-5.7368791e-8,-1.3333333,1.3324345,-5.7407332e-8,67.098201,327.50448)"><tspan
         style="font-variant:normal;font-weight:normal;font-size:37.0173px;font-family:Helvetica;writing-mode:lr-tb;fill:#262626;fill-opacity:1;fill-rule:nonzero;stroke:none"
         x="0 24.690275 55.526009 76.113289 84.337357 92.561424 102.84602 123.4333 144.02058"
         y="0"
         sodipodi:role="line"
         id="tspan30">Amplitude</tspan></text>
    <text
       id="text30"
       xml:space="preserve"
       transform="matrix(1.3333333,0,0,1.3342328,474.41219,53.242041)"><tspan
         style="font-variant:normal;font-weight:700;font-size:36.9924px;font-family:Helvetica;writing-mode:lr-tb;fill:#000000;fill-opacity:1;fill-rule:nonzero;stroke:none"
         x="0 24.673632 47.270054 80.162209 113.05437 133.62776 156.22418 166.50186 189.09828 209.67168 232.26811 254.86453 277.46094 300.05737 322.65381 343.2272 353.50485 374.07828 384.35593 406.95236 429.5488 450.12219 460.39984"
         y="0"
         sodipodi:role="line"
         id="tspan31">Summed geophone signals</tspan></text>
    <path
       id="path31"
       d="m 149.632,172.48 1.454,-0.042 1.462,0.3 1.458,-0.922 1.454,-0.734 1.458,-1.812 1.454,-2.122 1.462,-2.511 1.454,-0.903 1.458,-0.957 1.455,-0.683 1.458,-1.231 1.458,0.559 1.454,-1.609 1.458,0.734 1.454,-0.871 1.458,1.015 1.458,0.196 1.458,-0.317 1.454,0.516 1.458,0.965 1.458,2.875 1.458,1.828 1.454,2.144 1.458,0.379 1.458,3.231 1.454,0.355 1.458,-0.011 1.454,2.109 1.458,2.477 1.454,0.656 1.458,2.039 1.458,0.472 1.458,-0.07 1.455,0.028 1.454,-1.208 1.458,0.836 1.458,-1.14 1.454,-1.098 1.458,-3.082 1.454,-2.129 1.458,-2.433 1.462,-1.254 1.458,-3.844 1.454,-1.535 1.458,-2.856 1.454,-1.91 1.458,-1.152 1.458,1.754 1.458,0.48 1.454,0.199 1.458,1.164 1.454,-0.187 1.458,-0.02 1.455,-1.543 1.458,-1.417 1.454,-1.477 1.462,-0.574 1.458,0.769 1.454,1.934 1.458,2.043 1.458,2.273 1.454,1.004 1.458,1.832 1.454,0.133 1.458,0.109 1.458,-0.019 1.454,1.449 1.462,1.613 1.45,0.637 1.458,1.828 1.454,1.778 1.462,1.007 1.454,0.766 1.454,-0.836 1.455,-0.09 1.454,-0.64 1.458,0.07 1.45,0.336 1.454,0.144 1.454,-0.023 1.454,-0.914 1.454,-0.871 1.454,-0.985 1.454,0.09 1.459,-0.386 1.454,1.941 1.454,-1.238 1.454,0.332 1.454,-1.883 1.458,-0.332 1.45,-0.867 1.458,-0.657 1.454,1.379 1.454,-1.09 1.458,-0.14 1.451,-1.102 1.454,1.184 1.454,-0.426 1.462,-0.449 1.458,-3.348 1.454,-1.336 1.458,-2.043 1.458,-0.738 1.462,-1.613 1.454,0.367 1.458,0.269 1.454,2.43 1.454,3.039 1.458,2.469 1.462,3.227 1.458,1.218 1.454,2.633 1.458,2.172 1.458,0.875 1.454,0.633 1.458,0.652 1.454,-0.082 1.458,0.473 1.458,-1.188 1.455,-1.629 1.461,-1.515 1.451,-1.266 1.458,-1.832 1.458,-2.668 1.458,-2.293 1.458,-2.16 1.454,-1.121 1.458,-1.789 1.458,-1.477 1.458,-0.996 1.454,-0.887 1.458,-0.671 1.454,-0.825 1.458,-0.215 1.454,-1.507 1.458,0.05 1.458,-0.48 1.454,1.656 1.458,0.965 1.458,1.672 1.458,0.988 1.454,3.946 1.459,-2.133 1.454,6.73 1.462,1.024 1.458,-0.414 1.454,0.843 1.454,0.188 1.458,1.937 1.458,-0.468 1.454,1.839 1.458,1.563 1.454,1.785 1.458,0.957 1.458,0.402 1.458,0.231 1.454,-1.25 1.458,-1.719 1.458,-1.375 1.458,-0.117 1.458,-1.07 1.458,-0.18 1.454,0.566 1.458,1.883 1.462,0.328 1.458,1.078 1.454,-0.785 1.458,-0.812 1.455,-0.828 1.458,-0.719 1.454,-1.422 1.458,-1.383 1.454,-0.355 1.458,-1.223 1.458,-0.613 1.458,-0.867 1.458,-0.676 1.454,0.098 1.458,-0.719 1.458,0.754 1.458,0.66 1.458,0.41 1.458,-0.836 1.454,-1.199 1.458,-1.149 1.458,-0.621 1.454,-0.707 1.458,0.532 1.458,0.984 1.454,1.512 1.462,0.836 1.454,-1.457 1.458,-1.235 1.455,-0.762 1.458,-1.605 1.458,-1.492 1.454,-1.024 1.458,-1.543 1.454,-0.851 1.458,-2.078 1.454,0.543 1.454,-1.2 1.454,-3.117 1.454,-1.551 1.454,-1.32 1.454,1.883 1.455,4.523 1.454,7.715 1.462,6.606 1.454,4.347 1.454,1.114 1.454,-2.75 1.454,-1.696 1.454,0.914 1.454,2.559 1.454,2.156 1.454,2.094 1.458,0.625 1.455,1.777 1.454,-1.679 1.454,-2.258 1.454,-4.547 1.454,-3.727 1.454,-2.136 1.454,1.695 1.458,3.141 1.458,3.554 1.454,2.504 1.458,-0.871 1.458,-5.531 1.454,-7.285 1.458,-6.024 1.458,-2.984 1.455,3.754 1.458,11.469 1.458,18.214 1.458,19.204 1.454,16.351 1.454,9.57 1.458,1.098 1.454,-7.18 1.458,-12.058 1.458,-14.68 1.458,-14.82 1.454,-10.578 1.454,-6.239 1.458,-1.718 1.458,-0.973 1.458,-3.938 1.454,-8.035 1.458,-11.304 1.458,-10.235 1.458,-7.527 1.454,-0.141 1.455,5.106 1.458,9.304 1.454,8.766 1.458,3.898 1.458,-2.05 1.454,-8.649 1.458,-9.226 1.458,-9.645 1.454,-5.469 1.458,-3.621 1.458,-0.019 1.454,3.215 1.458,4.539 1.462,6.672 1.458,9.48 1.454,10.863 1.458,11.688 1.458,12.109 1.454,12.832 1.458,8.207 1.454,4.676 1.458,1.281 1.458,-0.144 1.455,-1.035 1.458,-2.329 1.454,-1.906 1.458,-3.168 1.454,-1.668 1.458,-2.039 1.458,2.289 1.458,2.95 1.454,7.132 1.458,9.391 1.458,10.129 1.454,9.371 1.454,8.727 1.458,5.816 1.454,1.34 1.458,-3.082 1.458,-7.75 1.454,-11.434 1.458,-14.66 1.458,-13.273 1.455,-14.645 1.458,-11.098 1.458,-12.187 1.454,-9.828 1.458,-7.871 1.458,-6.067 1.458,-5.172 1.458,-7.218 1.454,-6.793 1.458,-5.75 1.458,-4.5 1.454,-4.754 1.458,-2.934 1.458,-0.973 1.458,2.047 1.454,2.422 1.458,4.735 1.454,5.89 1.454,7.219 1.458,8.535 1.462,9.34 1.454,10.441 1.458,9.536 1.454,8.808 1.459,7.059 1.458,8.047 1.454,6.839 1.458,7.18 1.454,6.129 1.458,5.258 1.458,5.754 2.908,8.523 1.454,2.813 1.458,3.121 1.454,2.683 1.454,3.387 1.454,-0.387 1.451,1.469 1.454,-1.832 1.454,-2.875 1.454,-6.566 1.454,-3.992 1.458,-10.586 1.45,-10.457 1.454,-9.954 1.458,-9.296 1.454,-7.465 1.455,-8.094 1.458,-4.059 1.45,-4.781 1.458,-1.18 1.458,-3.324 1.454,-1.785 1.454,-2.008 1.454,0.84 1.454,-1.961 1.458,-1.582 1.45,-2.375 1.458,-1.215 1.455,-1.883 1.458,-1.25 1.454,-1.078 1.454,-1.148 1.458,0.379 1.454,0.828 1.458,3.875 1.454,2.734 1.458,2.891 1.458,2.168 1.454,3.801 1.458,4.367 1.458,5.351 1.454,5.661 1.458,5.539 1.454,6.183 1.462,7.102 1.454,7.824 1.458,6.715 1.458,5.051 1.455,2.058 1.458,2.27 1.458,1.351 1.458,0.762 1.454,-0.855 1.458,-0.547 1.458,-1.821 1.458,-2.55 1.454,-3.692 1.458,-2.07 1.454,-2.621 1.458,-4.977 1.454,-5.363 1.454,-5.566 1.458,-5.536 1.458,-3.562 1.462,-4.25 1.454,-4.57 1.458,-4.407 1.458,-3.941 1.454,-2.82 1.458,-1.973 1.458,-2.391 1.458,-2.16 1.455,-1.234 1.458,-1.465 1.458,0.332 1.454,0.324 1.458,1.985 1.458,3.214 1.454,4.512 1.458,4.43 1.454,5.055 1.462,4.062 1.454,4.352 1.454,3.574 1.458,3.687 1.458,2.688 1.458,3.324 1.454,3.27 1.458,2.32 1.454,1.527 1.458,-0.332 1.454,0.137 1.455,-0.949 1.458,-0.309 1.458,-1.328 1.454,-1.586 1.458,-3.277 1.454,-3.02 1.458,-4.121 1.458,-3.324 1.458,-3.813 1.454,-2.496 1.458,-2.25 1.458,-1.531 1.454,-1.387 1.458,-0.039 1.458,-0.238 1.454,0.32 1.454,1.442 1.454,-1.075 1.458,0.348 1.455,1.274 1.458,2.14 1.454,1.227 1.462,0.183 1.458,-1.859 1.458,0.84 1.454,1.054 1.458,0.942 1.454,0.859 1.462,2.235 1.454,1.386 1.458,4.176 1.458,2.609 1.458,2.586 1.458,1.817 1.454,0.285 1.454,0.836 1.454,-0.309 1.458,-1.035 1.454,-2.398 1.454,-1.953 1.455,-3.227 1.454,-2.187 1.458,-2.997 1.454,-1.714 1.454,-2.664 1.454,-0.934 1.454,-1.445 1.454,-0.868 h 1.454 l 1.454,0.02 1.455,0.645 1.458,1.347 1.45,-0.207 1.454,-0.109 1.454,-0.262 1.458,1.648 1.454,1.391 1.454,1.742 1.454,1.028 1.454,3.457 1.462,3.011 1.454,3.047 1.455,2.602 1.458,1.933 1.454,1.754 1.458,-0.351 1.454,-0.926 1.458,-1.316 1.458,-0.715 1.458,-1.078 1.458,-0.7 1.454,-2.343 1.458,-1.766 1.454,-3.254 1.458,-2.332 1.462,-1.812 1.458,-2.567 1.454,-1.367 1.458,-1.348 1.454,-0.156 1.458,-0.617 1.454,0.055 1.458,-0.684 1.454,0.344 1.458,0.566 1.455,2.317 1.458,0.468 1.454,1.555 1.458,0.957 1.454,1.766 1.462,0.597 1.458,-0.175 1.458,-0.629 1.454,-0.559 1.458,-0.148 1.458,-0.461 1.458,0.273 1.454,-0.984 1.458,2.203 1.454,-0.66 1.458,0.613 1.458,-0.582 1.454,-0.309 1.458,-1.871 1.458,-1.261 1.454,-1.571 1.458,0.11 1.458,-0.497 1.458,1.211 1.455,0.727 1.461,2.492 1.459,1.086 1.458,0.586 1.454,-0.629 1.458,2.453 1.458,1.606 1.458,1.562 1.458,1.059 1.458,1.976 1.454,1.778 1.458,0.742 1.458,2.039 1.454,0.34 1.454,0.922 1.458,0.484 1.458,0.977 1.454,-0.899 1.458,0.328 1.454,-1.48 1.458,-2.262 1.458,-0.996 1.458,-0.648 1.454,-0.692 1.455,-2.004 1.458,-0.586 1.458,-1.418 1.458,-0.683 1.454,-2.18 1.458,-1.301 1.458,-2.797 1.454,-1.175 1.458,-2.008 1.458,-0.586 1.454,-2.141 1.458,-2.011 1.458,-1.485 1.458,-1.097 1.454,0.453 1.458,0.191 1.454,-2.371 1.458,-1.93 1.462,-1.949 1.454,-1.859 1.458,-0.59 1.458,-1.719 1.454,0.879 1.462,1.629 1.451,3.047 1.458,3.336 1.454,2.453 1.454,2.707 1.458,2.402 1.458,0.223 1.454,3.23 1.454,7.098 1.458,2.266 1.454,3.234 1.45,1.43 1.458,2.679 1.451,2.707 1.454,1.493 1.454,-0.454 1.454,0.497 1.454,2.964 1.462,2.301 1.454,2.438 1.458,2.293 1.454,1.168 1.454,-1.246 1.454,-0.852 1.454,-3.941 1.455,-2.266 1.454,-4.145 1.458,-4.957 1.454,-3.773 1.454,-1.629 1.458,-1.152 1.454,-2.391 1.458,-2.945 1.454,-2.43 1.458,-3.324 1.458,-4.512 1.458,-4.023"
       style="fill:none;stroke:#0072bd;stroke-width:4.00618;stroke-linecap:butt;stroke-linejoin:round;stroke-miterlimit:10;stroke-dasharray:none;stroke-opacity:1"
       transform="scale(1.3324347,1.3333333)" />
    <path
       id="path32"
       d="M 455.184,55.887 H 642.907 V 270.418 H 455.184 Z"
       style="fill:#0000ff;fill-opacity:0.101961;fill-rule:nonzero;stroke:none"
       transform="scale(1.3333333)" />
    <path
       id="path33"
       d="m 335.992,336.219 h 707.113 V 539.031 H 335.992 Z"
       style="fill:#ffffff;fill-opacity:1;fill-rule:nonzero;stroke:none"
       transform="scale(1.3333333)" />
    <path
       id="path34"
       d="m 336.219,539.031 h 707.59"
       style="fill:none;stroke:#262626;stroke-width:4.00618;stroke-linecap:square;stroke-linejoin:round;stroke-miterlimit:10;stroke-dasharray:none;stroke-opacity:1"
       transform="scale(1.3324347,1.3333333)" />
    <path
       id="path35"
       d="m 336.219,336.219 h 707.59"
       style="fill:none;stroke:#262626;stroke-width:4.00618;stroke-linecap:square;stroke-linejoin:round;stroke-miterlimit:10;stroke-dasharray:none;stroke-opacity:1"
       transform="scale(1.3324347,1.3333333)" />
    <path
       id="path36"
       d="m 424.055,539.031 v -7.078"
       style="fill:none;stroke:#262626;stroke-width:4.00618;stroke-linecap:square;stroke-linejoin:round;stroke-miterlimit:10;stroke-dasharray:none;stroke-opacity:1"
       transform="scale(1.3324347,1.3333333)" />
    <path
       id="path37"
       d="m 561.816,539.031 v -7.078"
       style="fill:none;stroke:#262626;stroke-width:4.00618;stroke-linecap:square;stroke-linejoin:round;stroke-miterlimit:10;stroke-dasharray:none;stroke-opacity:1"
       transform="scale(1.3324347,1.3333333)" />
    <path
       id="path38"
       d="m 699.581,539.031 v -7.078"
       style="fill:none;stroke:#262626;stroke-width:4.00618;stroke-linecap:square;stroke-linejoin:round;stroke-miterlimit:10;stroke-dasharray:none;stroke-opacity:1"
       transform="scale(1.3324347,1.3333333)" />
    <path
       id="path39"
       d="m 837.342,539.031 v -7.078"
       style="fill:none;stroke:#262626;stroke-width:4.00618;stroke-linecap:square;stroke-linejoin:round;stroke-miterlimit:10;stroke-dasharray:none;stroke-opacity:1"
       transform="scale(1.3324347,1.3333333)" />
    <path
       id="path40"
       d="m 975.103,539.031 v -7.078"
       style="fill:none;stroke:#262626;stroke-width:4.00618;stroke-linecap:square;stroke-linejoin:round;stroke-miterlimit:10;stroke-dasharray:none;stroke-opacity:1"
       transform="scale(1.3324347,1.3333333)" />
    <path
       id="path41"
       d="m 424.055,336.219 v 7.074"
       style="fill:none;stroke:#262626;stroke-width:4.00618;stroke-linecap:square;stroke-linejoin:round;stroke-miterlimit:10;stroke-dasharray:none;stroke-opacity:1"
       transform="scale(1.3324347,1.3333333)" />
    <path
       id="path42"
       d="m 561.816,336.219 v 7.074"
       style="fill:none;stroke:#262626;stroke-width:4.00618;stroke-linecap:square;stroke-linejoin:round;stroke-miterlimit:10;stroke-dasharray:none;stroke-opacity:1"
       transform="scale(1.3324347,1.3333333)" />
    <path
       id="path43"
       d="m 699.581,336.219 v 7.074"
       style="fill:none;stroke:#262626;stroke-width:4.00618;stroke-linecap:square;stroke-linejoin:round;stroke-miterlimit:10;stroke-dasharray:none;stroke-opacity:1"
       transform="scale(1.3324347,1.3333333)" />
    <path
       id="path44"
       d="m 837.342,336.219 v 7.074"
       style="fill:none;stroke:#262626;stroke-width:4.00618;stroke-linecap:square;stroke-linejoin:round;stroke-miterlimit:10;stroke-dasharray:none;stroke-opacity:1"
       transform="scale(1.3324347,1.3333333)" />
    <path
       id="path45"
       d="m 975.103,336.219 v 7.074"
       style="fill:none;stroke:#262626;stroke-width:4.00618;stroke-linecap:square;stroke-linejoin:round;stroke-miterlimit:10;stroke-dasharray:none;stroke-opacity:1"
       transform="scale(1.3324347,1.3333333)" />
    <text
       id="text45"
       xml:space="preserve"
       transform="matrix(1.3333333,0,0,1.3342328,533.79995,776.55657)"><tspan
         style="font-variant:normal;font-weight:normal;font-size:33.6289px;font-family:Helvetica;writing-mode:lr-tb;fill:#262626;fill-opacity:1;fill-rule:nonzero;stroke:none"
         x="0 18.702774 28.04595 151.63716 275.32925 294.03204 303.37521 413.01044 431.7132 441.0564 550.67426 569.37701 578.72021"
         y="0"
         sodipodi:role="line"
         id="tspan45">0.811.21.41.6</tspan></text>
    <text
       id="text46"
       xml:space="preserve"
       transform="matrix(1.3333333,0,0,1.3342328,831.12127,839.45347)"><tspan
         style="font-variant:normal;font-weight:normal;font-size:36.9924px;font-family:Helvetica;writing-mode:lr-tb;fill:#262626;fill-opacity:1;fill-rule:nonzero;stroke:none"
         x="0 22.596422 30.814945 61.62989 82.203293 92.480965 102.75863 121.25482"
         y="0"
         sodipodi:role="line"
         id="tspan46">Time [s]</tspan></text>
    <path
       id="path46"
       d="M 336.219,539.031 V 336.219"
       style="fill:none;stroke:#262626;stroke-width:4.00618;stroke-linecap:square;stroke-linejoin:round;stroke-miterlimit:10;stroke-dasharray:none;stroke-opacity:1"
       transform="scale(1.3324347,1.3333333)" />
    <path
       id="path47"
       d="M 1043.809,539.031 V 336.219"
       style="fill:none;stroke:#262626;stroke-width:4.00618;stroke-linecap:square;stroke-linejoin:round;stroke-miterlimit:10;stroke-dasharray:none;stroke-opacity:1"
       transform="scale(1.3324347,1.3333333)" />
    <path
       id="path48"
       d="m 336.219,539.031 h 7.075"
       style="fill:none;stroke:#262626;stroke-width:4.00618;stroke-linecap:square;stroke-linejoin:round;stroke-miterlimit:10;stroke-dasharray:none;stroke-opacity:1"
       transform="scale(1.3324347,1.3333333)" />
    <path
       id="path49"
       d="m 336.219,471.426 h 7.075"
       style="fill:none;stroke:#262626;stroke-width:4.00618;stroke-linecap:square;stroke-linejoin:round;stroke-miterlimit:10;stroke-dasharray:none;stroke-opacity:1"
       transform="scale(1.3324347,1.3333333)" />
    <path
       id="path50"
       d="m 336.219,403.82 h 7.075"
       style="fill:none;stroke:#262626;stroke-width:4.00618;stroke-linecap:square;stroke-linejoin:round;stroke-miterlimit:10;stroke-dasharray:none;stroke-opacity:1"
       transform="scale(1.3324347,1.3333333)" />
    <path
       id="path51"
       d="m 336.219,336.219 h 7.075"
       style="fill:none;stroke:#262626;stroke-width:4.00618;stroke-linecap:square;stroke-linejoin:round;stroke-miterlimit:10;stroke-dasharray:none;stroke-opacity:1"
       transform="scale(1.3324347,1.3333333)" />
    <path
       id="path52"
       d="m 1043.809,539.031 h -7.075"
       style="fill:none;stroke:#262626;stroke-width:4.00618;stroke-linecap:square;stroke-linejoin:round;stroke-miterlimit:10;stroke-dasharray:none;stroke-opacity:1"
       transform="scale(1.3324347,1.3333333)" />
    <path
       id="path53"
       d="m 1043.809,471.426 h -7.075"
       style="fill:none;stroke:#262626;stroke-width:4.00618;stroke-linecap:square;stroke-linejoin:round;stroke-miterlimit:10;stroke-dasharray:none;stroke-opacity:1"
       transform="scale(1.3324347,1.3333333)" />
    <path
       id="path54"
       d="m 1043.809,403.82 h -7.075"
       style="fill:none;stroke:#262626;stroke-width:4.00618;stroke-linecap:square;stroke-linejoin:round;stroke-miterlimit:10;stroke-dasharray:none;stroke-opacity:1"
       transform="scale(1.3324347,1.3333333)" />
    <path
       id="path55"
       d="m 1043.809,336.219 h -7.075"
       style="fill:none;stroke:#262626;stroke-width:4.00618;stroke-linecap:square;stroke-linejoin:round;stroke-miterlimit:10;stroke-dasharray:none;stroke-opacity:1"
       transform="scale(1.3324347,1.3333333)" />
    <text
       id="text55"
       xml:space="preserve"
       transform="matrix(1.3333333,0,0,1.3342328,410.59611,736.13426)"><tspan
         style="font-variant:normal;font-weight:normal;font-size:33.6289px;font-family:Helvetica;writing-mode:lr-tb;fill:#262626;fill-opacity:1;fill-rule:nonzero;stroke:none"
         x="0"
         y="0"
         id="tspan55">0</tspan><tspan
         style="font-variant:normal;font-weight:normal;font-size:33.6289px;font-family:Helvetica;writing-mode:lr-tb;fill:#262626;fill-opacity:1;fill-rule:nonzero;stroke:none"
         x="0"
         y="-67.558578"
         id="tspan56">5</tspan><tspan
         style="font-variant:normal;font-weight:normal;font-size:33.6289px;font-family:Helvetica;writing-mode:lr-tb;fill:#262626;fill-opacity:1;fill-rule:nonzero;stroke:none"
         x="-18.916407 -0.21363261"
         y="-135.11716"
         sodipodi:role="line"
         id="tspan57">10</tspan><tspan
         style="font-variant:normal;font-weight:normal;font-size:33.6289px;font-family:Helvetica;writing-mode:lr-tb;fill:#262626;fill-opacity:1;fill-rule:nonzero;stroke:none"
         x="-18.916407 -0.21363261"
         y="-202.67574"
         sodipodi:role="line"
         id="tspan58">15</tspan></text>
    <text
       id="text58"
       xml:space="preserve"
       transform="matrix(-5.7368791e-8,-1.3333333,1.3324345,-5.7407332e-8,368.55969,693.46837)"><tspan
         style="font-variant:normal;font-weight:normal;font-size:37.0173px;font-family:Helvetica;writing-mode:lr-tb;fill:#262626;fill-opacity:1;fill-rule:nonzero;stroke:none"
         x="0 24.690275 55.526009 76.113289 84.337357 92.561424 102.84602 123.4333 144.02058"
         y="0"
         sodipodi:role="line"
         id="tspan59">Amplitude</tspan></text>
    <text
       id="text59"
       xml:space="preserve"
       transform="matrix(1.3333333,0,0,1.3342328,819.1113,427.01795)"><tspan
         style="font-variant:normal;font-weight:700;font-size:36.9924px;font-family:Helvetica;writing-mode:lr-tb;fill:#000000;fill-opacity:1;fill-rule:nonzero;stroke:none"
         x="0 26.714716 49.311138 63.7071 76.025856 98.622276 119.19568 129.47334"
         y="0"
         sodipodi:role="line"
         id="tspan60">Kurtosis</tspan></text>
    <path
       id="path60"
       d="m 336.219,512.992 1.454,-0.008 1.458,0.168 1.454,0.2 1.458,0.16 1.458,0.179 1.454,0.172 1.454,0.188 1.458,0.195 1.454,-0.023 1.458,-0.008 1.458,-0.078 1.458,0.101 1.455,0.082 1.458,0.106 1.454,-0.004 1.458,-0.172 1.458,-0.102 1.458,-0.25 1.454,-0.242 1.454,-0.285 1.458,-0.258 1.454,-0.215 1.458,0.024 1.454,0.055 1.458,0.164 1.458,0.234 1.454,0.191 1.458,0.188 1.454,0.184 1.458,0.078 1.458,-0.004 1.458,-0.063 1.458,-0.027 1.455,0.051 1.458,0.023 1.454,0.067 1.462,-0.02 1.458,0.191 1.454,0.086 1.458,0.032 1.454,0.023 1.458,0.086 1.454,0.137 1.458,0.117 1.454,-0.055 1.458,-0.215 1.454,-0.449 1.458,-0.582 1.458,-0.605 1.454,-0.59 1.458,-0.559 1.458,-0.574 1.458,-0.453 1.455,-0.535 1.458,-0.602 1.458,-0.769 1.454,-0.801 1.458,-0.629 1.458,-0.387 1.454,-0.406 1.458,-0.434 1.454,-0.406 1.462,-0.254 1.454,-0.297 1.454,-0.14 1.458,0.023 1.458,0.188 1.454,0.289 1.458,0.629 1.454,0.843 1.454,0.871 1.458,0.801 1.455,0.617 1.454,0.211 1.454,0.321 1.454,0.136 1.454,-0.972 1.454,-1.45 1.454,-1.75 1.454,-0.156 1.458,0.735 1.454,0.07 1.454,-0.18 1.455,0.082 1.454,0.196 1.454,0.027 1.454,-0.027 1.454,-0.098 1.454,0.117 1.454,0.211 1.454,0.328 1.454,0.32 1.455,0.231 1.454,0.348 1.454,0.3 1.454,0.079 h 1.454 l 1.454,0.042 1.458,0.004 1.458,0.039 1.454,0.192 1.458,0.129 1.458,-0.028 1.454,-0.468 1.458,-0.289 1.458,0.093 1.454,0.157 1.458,0.101 1.455,-0.433 1.458,-1.797 1.454,-33.934 1.454,-69.918 1.458,-42.605 1.454,-1.383 1.458,16.844 1.458,15.992 1.454,8.597 1.454,1.903 1.458,-0.738 1.458,-1.422 1.454,-1.196 1.458,-0.871 1.458,-0.367 1.454,1.164 1.458,4.352 1.455,6.675 1.458,6.907 1.454,6.332 1.454,5.347 1.458,3.352 1.458,1.523 1.454,0.817 1.454,1.027 1.458,2.363 1.458,3.555 1.458,3.938 1.454,3.421 1.454,3.067 1.458,3.121 1.462,3.379 1.458,3.219 1.454,2.699 1.458,1.723 1.454,0.73 1.458,0.051 1.458,0.086 1.455,0.875 1.454,1.613 1.458,1.945 1.454,1.946 1.458,1.781 1.454,1.625 1.458,1.32 1.454,1.078 1.458,0.758 1.458,0.586 1.454,0.43 1.454,0.558 1.458,0.782 1.458,1.269 1.454,1.695 1.455,1.653 1.458,1.07 1.454,0.113 1.458,-0.402 1.454,0.039 1.458,0.977 1.454,1.668 1.458,1.707 1.458,1.132 1.454,0.524 1.458,0.078 1.454,-0.012 1.458,0.133 1.458,0.375 1.458,0.586 1.458,0.703 1.454,0.758 1.454,0.762 1.458,0.648 1.458,0.488 1.455,0.348 1.458,0.18 1.458,0.16 1.454,0.281 1.458,0.535 1.45,0.692 1.458,0.804 1.458,0.817 1.458,0.722 1.454,0.551 1.458,0.344 1.454,0.145 1.458,0.031 1.458,-0.004 1.454,0.023 1.458,0.098 1.454,0.195 1.458,0.313 1.458,0.41 2.905,0.484 1.454,0.535 1.458,0.606 1.454,0.57 1.454,0.512 1.454,0.457 1.45,0.395 1.454,0.394 1.455,0.414 1.454,0.457 1.454,0.461 1.454,0.406 1.454,0.356 1.454,0.222 1.454,0.094 1.454,0.02 h 1.458 l 1.45,0.019 1.455,0.063 1.454,0.097 1.462,0.137 1.454,0.149 1.454,0.183 1.454,0.199 1.454,0.215 1.454,0.192 1.454,0.215 1.454,0.222 1.454,0.231 1.458,0.222 1.455,0.231 1.454,0.246 1.458,0.238 1.454,0.227 1.454,0.199 1.458,0.203 1.458,0.168 1.454,0.016 1.454,-0.246 1.458,-0.411 1.458,-0.414 1.454,-0.437 1.454,-0.551 1.458,-0.57 1.458,-0.391 1.458,-0.133 1.455,0.075 1.458,0.222 1.454,0.328 1.458,0.391 1.458,0.414 1.458,0.406 1.454,0.324 1.458,0.204 1.454,0.089 1.462,0.043 1.45,0.032 1.458,0.066 1.454,0.09 1.458,0.078 1.454,0.02 1.454,-0.129 1.458,-0.297 1.458,-0.434 1.462,-0.496 1.454,-0.516 1.458,-0.515 1.455,-0.496 1.458,-0.449 1.454,-0.344 1.458,-0.176 1.458,0.023 1.458,0.211 1.454,0.309 1.458,0.293 1.454,0.223 1.458,0.136 1.454,0.09 1.458,0.035 1.458,-0.023 1.454,-0.07 1.458,-0.106 1.454,-0.117 1.454,-0.121 1.458,-0.113 1.458,-0.137 1.458,-0.164 1.455,-0.254 1.454,-0.379 1.458,-0.469 1.458,-0.461 1.45,-0.297 1.458,-0.015 1.454,0.195 1.458,0.145 1.454,-0.129 1.454,-0.371 1.458,-0.356 1.458,-0.199 1.458,-0.016 1.454,0.024 1.458,-0.032 1.455,-0.156 1.458,-0.297 1.454,-0.418 1.458,-0.515 1.458,-0.629 1.454,-0.684 1.454,-0.64 1.454,-0.5 1.454,-0.176 1.458,0.289 1.454,0.754 1.458,0.922 1.462,1.054 1.454,0.868 1.458,0.535 1.454,0.14 1.458,-0.175 1.454,-0.29 1.459,-0.218 1.458,-0.094 1.458,-0.008 h 1.454 l 1.458,-0.058 1.462,-0.168 1.45,-0.329 1.454,-0.496 1.454,-0.664 1.458,-0.804 1.454,-0.875 1.454,-0.856 1.454,-0.758 1.454,-0.515 1.455,0.066 1.454,0.363 1.454,1.254 1.454,1.621 1.454,1.739 1.454,0.863 1.454,0.539 1.454,-0.465 1.454,-0.668 1.458,-0.441 1.451,-0.149 1.454,-0.019 1.454,-0.016 1.454,-0.078 1.454,-0.191 1.454,-0.235 1.454,-0.34 1.454,-0.402 1.462,-0.469 1.454,-0.437 1.454,-0.457 1.455,-0.434 1.458,-0.406 1.454,-0.352 1.454,-0.253 1.458,-0.196 1.458,-0.113 1.458,0.059 1.454,0.148 1.458,0.187 1.458,-0.14 1.454,-0.363 1.458,-0.532 1.458,-0.632 1.458,-0.649 1.454,-0.531 1.458,-0.258 1.454,0.012 1.458,0.172 1.454,0.125 1.458,-0.157 1.455,-0.668 1.454,-1.023 1.458,-1.094 1.454,-1.015 1.458,-0.75 1.454,-0.262 1.458,0.387 1.458,0.73 1.458,1.332 1.454,1.457 1.458,1.203 1.458,0.473 1.458,0.258 1.458,-0.094 1.454,-0.609 1.454,-0.657 1.458,-0.359 1.454,-0.09 h 1.458 l 1.455,-0.062 1.458,-0.321 1.458,-0.699 1.454,-1.027 1.458,-1.184 1.458,-1.156 1.454,-1.035 1.458,-0.524 1.462,0.075 1.458,1.437 1.454,2.277 1.458,3.614 1.454,3.648 1.454,2.481 1.462,0.886 1.458,0.16 1.454,0.106 1.458,0.308 1.454,0.547 1.462,0.582 1.45,0.348 1.458,0.246 h 1.455 l 1.458,0.02 1.454,0.324 1.458,0.777 1.454,0.789 1.454,0.942 1.462,0.758 1.454,0.718 1.458,0.407 1.454,0.113 1.454,-0.156 1.458,-0.207 1.458,0.062 1.454,0.145 1.458,0.136 1.454,-0.031 1.458,-0.129 1.458,-0.137 1.454,-0.074 1.459,0.004 1.454,0.043 1.458,0.043 1.458,-0.094 1.454,-0.234 1.458,-0.414 1.454,-0.289 1.458,-0.153 1.458,-0.503 1.458,-0.934 1.454,-1.547 1.458,-2 1.458,-1.621 1.458,-1.883 1.45,-0.711 1.458,0.235 1.454,0.785 1.454,0.668 1.458,0.347 1.459,-0.05 1.454,-0.332 1.454,-0.395 1.454,-0.59 1.454,-0.5 1.454,-0.344 1.454,-0.007 1.45,0.203 1.454,0.472 1.455,0.438 1.454,0.359 1.454,0.446 1.462,0.32 1.454,-0.145 1.454,-0.629 1.454,-1.168 1.454,-1.582 1.454,-1.414 1.454,-0.363 1.454,0.199 1.455,0.762 1.454,0.766 1.454,0.55 1.458,0.254 1.454,0.059 1.454,0.035 1.458,0.016 1.458,0.004 1.454,-0.043 1.458,-0.118 1.458,-0.156"
       style="fill:none;stroke:#0072bd;stroke-width:4.00618;stroke-linecap:butt;stroke-linejoin:round;stroke-miterlimit:10;stroke-dasharray:none;stroke-opacity:1"
       transform="scale(1.3324347,1.3333333)" />
    <path
       id="path61"
       d="m 455.324,336.219 h 187.68 v 202.812 h -187.68 z"
       style="fill:#0000ff;fill-opacity:0.101961;fill-rule:nonzero;stroke:none"
       transform="scale(1.3333333)" />
    <path
       id="path62"
       d="m 336.219,480.891 h 707.59"
       style="fill:none;stroke:#262626;stroke-width:0.500772;stroke-linecap:butt;stroke-linejoin:round;stroke-miterlimit:10;stroke-dasharray:none;stroke-opacity:0.701961"
       transform="scale(1.3324347,1.3333333)" />
    <path
       id="path63"
       d="M 496.702,538.672 V 48.676"
       style="fill:none;stroke:#000000;stroke-width:4.00618;stroke-linecap:butt;stroke-linejoin:bevel;stroke-miterlimit:1;stroke-dasharray:3.60556, 3.60556;stroke-dashoffset:0;stroke-opacity:1"
       transform="scale(1.3324347,1.3333333)" />
  </g>
</svg>
