<?xml version="1.0" encoding="UTF-8" standalone="no"?>
<!-- Created with Inkscape (http://www.inkscape.org/) -->

<svg
   version="1.1"
   id="svg1"
   viewBox="0 0 412.04266 62.729332"
   xmlns:inkscape="http://www.inkscape.org/namespaces/inkscape"
   xmlns="http://www.w3.org/2000/svg">
   <g
      id="y-sig">
   <path
      id="start"
      d="m 27.17049,18.27806 c 0,0 10.86819,0.01554 10.86819,0.01554"
      style="fill:none;stroke:#ffffff;"
      transform="matrix(1.3333333,0,0,-1.3333333,9.12,53.609333)"
      clip-path="url(#clipPath2)"
      inkscape:label="start" />
   <path
      id="z1"
      d="m 38.03868,18.2936 c 0,0 0.31409,0.0099 0.43472,0.01403 0.12062,0.0041 0.31409,0.01117 0.43471,0.01567 0.12064,0.0045 0.31412,0.01209 0.43474,0.01677 0.12062,0.0047 0.31409,0.01244 0.43472,0.01709 0.12063,0.0046 0.3141,0.01215 0.43473,0.01645 0.12062,0.0043 0.31408,0.01102 0.43472,0.01463 0.12062,0.0036 0.3141,0.009 0.43472,0.01153 0.12064,0.0026 0.31409,0.0059 0.43472,0.007 0.12062,0.0011 0.31409,0.0017 0.43471,9.6e-4 0.12064,-7.6e-4 0.3141,-0.0035 0.43474,-0.0065 0.12062,-0.003 0.31409,-0.0097 0.43471,-0.01524 0.12063,-0.0056 0.31408,-0.01666 0.43472,-0.02507 0.12062,-0.0084 0.3141,-0.02422 0.43472,-0.03557 0.12064,-0.01134 0.31409,-0.03202 0.43473,-0.04627 0.12061,-0.01426 0.3141,-0.03962 0.43472,-0.05659 0.12064,-0.01699 0.31409,-0.04654 0.43472,-0.06583 0.12062,-0.0193 0.3141,-0.05228 0.43473,-0.07324 0.12063,-0.02097 0.31408,-0.05617 0.43472,-0.07796 0.12062,-0.0218 0.3141,-0.05766 0.43472,-0.07922 0.12064,-0.02156 0.3141,-0.05617 0.43472,-0.07622 0.12062,-0.02005 0.31409,-0.05124 0.43473,-0.06834 0.12062,-0.01712 0.3141,-0.04241 0.43472,-0.05507 0.12063,-0.01267 0.31409,-0.02959 0.43473,-0.03621 0.12061,-0.0066 0.31408,-0.01253 0.4347,-0.01164 0.12064,8.8e-4 0.3141,0.0083 0.43474,0.01803 0.12062,0.0098 0.3141,0.03263 0.43472,0.05239 0.12064,0.01974 0.31409,0.05954 0.43472,0.08998 0.12062,0.03045 0.31409,0.08813 0.43471,0.12954 0.12064,0.04142 0.31411,0.11695 0.43474,0.16901 0.12062,0.05208 0.31409,0.14452 0.43471,0.20627 0.12063,0.06175 0.31408,0.16902 0.43472,0.2388 0.12062,0.06978 0.3141,0.1887 0.43472,0.26415 0.12064,0.07542 0.31409,0.20155 0.43472,0.27953 0.12063,0.07799 0.31411,0.20575 0.43473,0.28261 0.12064,0.07686 0.3141,0.19989 0.43472,0.27141 0.12062,0.0715 0.3141,0.18254 0.43474,0.244 0.12062,0.06147 0.31409,0.15227 0.43471,0.19907 0.12062,0.0468 0.3141,0.11079 0.43474,0.13823 0.12062,0.02743 0.31408,0.05582 0.4347,0.05963 0.12064,0.0038 0.31409,-0.0086 0.43473,-0.03215 0.12062,-0.02351 0.3141,-0.08369 0.43472,-0.13737 0.12064,-0.05368 0.31409,-0.16428 0.43472,-0.24953 0.12062,-0.08525 0.31409,-0.24791 0.43471,-0.36492 0.12064,-0.11701 0.3141,-0.33129 0.43474,-0.47841 0.12062,-0.1471 0.3141,-0.40812 0.43472,-0.58187 0.12064,-0.17374 0.31409,-0.47521 0.43472,-0.67037 0.12062,-0.19514 0.31409,-0.52658 0.43471,-0.73622 0.12064,-0.20965 0.3141,-0.55931 0.43474,-0.77481 0.12062,-0.21548 0.31409,-0.56708 0.43471,-0.77838 0.12064,-0.2113 0.31408,-0.54849 0.43472,-0.74458 0.12062,-0.19609 0.3141,-0.49939 0.43472,-0.66881 0.12064,-0.1694 0.3141,-0.42092 0.43473,-0.55223 0.12062,-0.13133 0.3141,-0.31194 0.43473,-0.39437 0.12062,-0.08242 0.31409,-0.17567 0.43471,-0.19981 0.12064,-0.02414 0.3141,-0.01578 0.43474,0.02577 0.12062,0.04155 0.31409,0.16148 0.43471,0.27368 0.12063,0.11219 0.3141,0.35003 0.43474,0.53499 0.12062,0.18495 0.31408,0.54186 0.4347,0.7981 0.12064,0.25624 0.31409,0.72665 0.43473,1.04883 0.12061,0.32217 0.3141,0.89433 0.43472,1.27328 0.12064,0.37897 0.31409,1.03499 0.43472,1.45798 0.12062,0.423 0.31409,1.1396 0.43471,1.59076 0.12064,0.45114 0.3141,1.20048 0.43474,1.66083 0.12062,0.46033 0.31408,1.20851 0.43471,1.65704 0.12063,0.44853 0.3141,1.16112 0.43473,1.57576 0.12062,0.41466 0.31409,1.0543 0.43471,1.41276 0.12064,0.35848 0.31412,0.88964 0.43474,1.1709 0.12062,0.28125 0.31409,0.67128 0.43473,0.85623 0.12061,0.18496 0.31408,0.40422 0.4347,0.47683 0.12064,0.0726 0.3141,0.09747 0.43474,0.04652 0.12062,-0.05096 0.31409,-0.23329 0.43471,-0.41383 0.12063,-0.18055 0.3141,-0.57672 0.43473,-0.88748 0.12062,-0.31077 0.31409,-0.917 0.43471,-1.35232 0.12064,-0.43533 0.31409,-1.23783 0.43472,-1.78528 0.12063,-0.54743 0.31411,-1.51927 0.43473,-2.16032 0.12063,-0.64105 0.3141,-1.74902 0.43474,-2.45994 0.12062,-0.71093 0.31408,-1.91158 0.4347,-2.6639 0.12064,-0.75232 0.31409,-1.99663 0.43472,-2.75833 0.12063,-0.76169 0.31411,-1.99445 0.43473,-2.73146 0.12064,-0.737 0.31409,-1.90266 0.43472,-2.5804 0.12062,-0.67773 0.31409,-1.71913 0.43471,-2.30423 0.12064,-0.58511 0.3141,-1.4507 0.43474,-1.9129 0.12062,-0.46221 0.31408,-1.10489 0.4347,-1.41842 0.12064,-0.3135 0.31411,-0.69636 0.43473,-0.84115 0.12062,-0.1448 0.3141,-0.23905 0.43474,-0.2025 0.12062,0.03655 0.3141,0.24362 0.43472,0.46591 0.12064,0.22229 0.31409,0.73203 0.43472,1.13627 0.12062,0.40423 0.31409,1.20394 0.43471,1.77728 0.12064,0.57335 0.3141,1.63357 0.43474,2.35507 0.12062,0.72148 0.31409,2.00331 0.43471,2.84497 0.12063,0.84166 0.3141,2.29398 0.43473,3.22121 0.12062,0.92723 0.31409,2.48834 0.43471,3.46165 0.12064,0.97333 0.31409,2.57602 0.43472,3.55345 0.12063,0.97742 0.31411,2.55254 0.43473,3.49117 0.12064,0.93863 0.31408,2.41603 0.43472,3.27392 0.12062,0.8579 0.3141,2.17083 0.43472,2.90925 0.12064,0.7384 0.31409,1.82704 0.43473,2.4127 0.12062,0.58565 0.3141,1.40228 0.43472,1.80836 0.12063,0.40607 0.3141,0.91098 0.43472,1.11835 0.12063,0.20737 0.31409,0.37607 0.43473,0.37634 0.12062,2.8e-4 0.3141,-0.16754 0.43472,-0.37434 0.12063,-0.20679 0.31408,-0.7106 0.43472,-1.11615 0.12062,-0.40556 0.31409,-1.22163 0.43471,-1.80693 0.12063,-0.58528 0.3141,-1.67342 0.43474,-2.41145 0.12061,-0.73804 0.31408,-2.05024 0.43471,-2.90784 0.12063,-0.85761 0.3141,-2.33478 0.43473,-3.27325 0.12062,-0.93848 0.31409,-2.51339 0.43471,-3.49069 0.12064,-0.97733 0.31409,-2.57984 0.43472,-3.55318 0.12062,-0.97336 0.3141,-2.53472 0.43473,-3.46212 0.12063,-0.9274 0.31408,-2.37994 0.43472,-3.222 0.12062,-0.84205 0.31409,-2.125 0.43471,-2.84701 0.12063,-0.72202 0.3141,-1.78322 0.43473,-2.35683 0.12063,-0.57359 0.31409,-1.37282 0.43471,-1.7773 0.12064,-0.40448 0.3141,-0.91519 0.43472,-1.13795 0.12062,-0.22275 0.31411,-0.43053 0.43473,-0.46756 0.12063,-0.03703 0.3141,0.05652 0.43472,0.20058 0.12062,0.14404 0.3141,0.52484 0.43474,0.83769 0.12062,0.31286 0.31409,0.95535 0.43471,1.41723 0.12063,0.4619 0.31408,1.32685 0.43472,1.91182 0.12062,0.58498 0.3141,1.6268 0.43472,2.30436 0.12064,0.67755 0.31409,1.8422 0.43473,2.57905 0.12062,0.73686 0.31408,1.96999 0.4347,2.73171 0.12064,0.76173 0.3141,2.00599 0.43474,2.75837 0.12062,0.75237 0.31409,1.95314 0.43471,2.66428 0.12063,0.71114 0.31409,1.81975 0.43472,2.46107 0.12062,0.64133 0.3141,1.61368 0.43472,2.16126 0.12064,0.54758 0.31409,1.34985 0.43473,1.78531 0.12062,0.43544 0.3141,1.04185 0.43472,1.35315 0.12064,0.31131 0.31409,0.70942 0.43472,0.89055 0.12062,0.18113 0.31409,0.3639 0.43471,0.41497 0.12064,0.05106 0.31412,0.02565 0.43474,-0.04687 0.12062,-0.07253 0.31409,-0.29152 0.43472,-0.47591 0.12062,-0.1844 0.31409,-0.57223 0.43471,-0.85321 0.12064,-0.28099 0.3141,-0.81344 0.43474,-1.17198 0.12062,-0.35855 0.31408,-0.99766 0.43471,-1.41217 0.12063,-0.41449 0.31408,-1.12686 0.43472,-1.57529 0.12062,-0.44842 0.3141,-1.1965 0.43472,-1.6567 0.12064,-0.46021 0.31409,-1.2091 0.43472,-1.66022 0.12062,-0.45114 0.3141,-1.16815 0.43473,-1.59133 0.12063,-0.42315 0.31408,-1.07959 0.43472,-1.45861 0.12062,-0.37905 0.31409,-0.95096 0.43471,-1.27323 0.12064,-0.32225 0.3141,-0.79297 0.43474,-1.04939 0.12062,-0.25641 0.31408,-0.61328 0.4347,-0.79864 0.12064,-0.18537 0.31409,-0.42464 0.43473,-0.53728 0.12062,-0.11266 0.3141,-0.23285 0.43472,-0.27463 0.12063,-0.04178 0.3141,-0.05054 0.43472,-0.02654 0.12063,0.02402 0.31409,0.11702 0.43473,0.19957 0.12062,0.08254 0.3141,0.26406 0.43472,0.39548 0.12062,0.13141 0.31408,0.38246 0.43472,0.55177 0.12062,0.1693 0.3141,0.47248 0.43472,0.66851 0.12064,0.19602 0.31409,0.53309 0.43473,0.74435 0.12061,0.21124 0.31408,0.56284 0.43471,0.7782 0.12063,0.21537 0.3141,0.56444 0.43473,0.77407 0.12062,0.20963 0.31409,0.54165 0.43471,0.7369 0.12064,0.19525 0.31409,0.49663 0.43472,0.67041 0.12062,0.17377 0.3141,0.43491 0.43473,0.58206 0.12063,0.14716 0.31408,0.36154 0.43472,0.47861 0.12062,0.11707 0.31409,0.27986 0.43471,0.36519 0.12063,0.08534 0.3141,0.19604 0.43473,0.2498 0.12063,0.05376 0.31409,0.11409 0.43471,0.13768 0.12064,0.02358 0.3141,0.0361 0.43474,0.03236 0.12062,-0.0037 0.31409,-0.03201 0.43471,-0.05938 0.12063,-0.02738 0.3141,-0.09133 0.43472,-0.13802 0.12062,-0.04669 0.3141,-0.13714 0.43474,-0.19851 0.12062,-0.06138 0.31409,-0.17243 0.43471,-0.24392 0.12063,-0.07147 0.31408,-0.1945 0.43472,-0.27134 0.12062,-0.07684 0.3141,-0.20461 0.43472,-0.28261 0.12064,-0.07801 0.31409,-0.20415 0.43473,-0.27959 0.12062,-0.07542 0.31408,-0.19437 0.4347,-0.26416 0.12064,-0.06979 0.31411,-0.17715 0.43474,-0.23892 0.12062,-0.06177 0.31409,-0.15426 0.43471,-0.20633 0.12063,-0.05208 0.3141,-0.12769 0.43474,-0.16914 0.12062,-0.04146 0.31408,-0.09917 0.4347,-0.12966 0.12064,-0.03047 0.31409,-0.0703 0.43473,-0.09009 0.12062,-0.01977 0.3141,-0.04269 0.43472,-0.05249 0.12064,-0.0098 0.31409,-0.01722 0.43472,-0.01812 0.12062,-9e-4 0.31409,0.005 0.43471,0.01157 0.12064,0.0066 0.31412,0.02349 0.43474,0.03613 0.12062,0.01263 0.31409,0.03793 0.43472,0.05503 0.12062,0.01709 0.31409,0.04828 0.43471,0.06834 0.12064,0.02004 0.3141,0.05462 0.43474,0.07618 0.12062,0.02156 0.31408,0.05742 0.43471,0.07922 0.12063,0.0218 0.3141,0.057 0.43473,0.07798 0.12063,0.02098 0.31409,0.05395 0.43471,0.07324 0.12064,0.01928 0.31409,0.04887 0.43472,0.06587 0.12062,0.01698 0.3141,0.04234 0.43473,0.05663 0.12063,0.01426 0.31408,0.03494 0.43472,0.04629 0.12062,0.01137 0.31409,0.02719 0.43471,0.0356 0.12064,0.0084 0.3141,0.0195 0.43474,0.0251 0.12062,0.0056 0.31408,0.01227 0.4347,0.01527 0.12064,0.003 0.31409,0.0058 0.43473,0.0065 0.12062,7.6e-4 0.3141,1.5e-4 0.43472,-9.5e-4 0.12064,-0.0011 0.31409,-0.0044 0.43472,-0.0069 0.12063,-0.0025 0.3141,-0.0079 0.43473,-0.01151 0.12063,-0.0036 0.3141,-0.01033 0.43472,-0.01463 0.12062,-0.0043 0.31408,-0.01181 0.43472,-0.01645 0.12062,-0.0047 0.3141,-0.01241 0.43472,-0.01709 0.12064,-0.0047 0.31409,-0.01227 0.43473,-0.01677 0.12061,-0.0045 0.31408,-0.01157 0.43471,-0.01569 0.12063,-0.0041 0.43473,-0.01402 0.43473,-0.01402"
      style="fill:none;"
      transform="matrix(1.3333333,0,0,-1.3333333,9.12,53.609333)"
      clip-path="url(#clipPath4)"
      inkscape:label="z1" />
   <path
      id="mid"
      d="m 124.98427,18.2936 c 0,0 48.90689,0 48.90689,0"
      style="fill:none;stroke:#ffffff;"
      transform="matrix(1.3333333,0,0,-1.3333333,9.12,53.609333)"
      clip-path="url(#clipPath6)"
      inkscape:label="mid" />
   <path
      id="z2"
      d="m 173.89116,18.2936 c 0,0 0.3141,0.0099 0.43472,0.01403 0.12062,0.0041 0.31409,0.01117 0.43472,0.01567 0.12063,0.0045 0.3141,0.01209 0.43473,0.01677 0.12063,0.0047 0.31408,0.01244 0.43472,0.01709 0.12062,0.0046 0.31409,0.01215 0.43471,0.01645 0.12064,0.0043 0.3141,0.01102 0.43474,0.01463 0.12062,0.0036 0.31408,0.009 0.4347,0.01153 0.12064,0.0026 0.31409,0.0059 0.43473,0.007 0.12062,0.0011 0.3141,0.0017 0.43472,9.6e-4 0.12064,-7.6e-4 0.31409,-0.0035 0.43472,-0.0065 0.12063,-0.003 0.3141,-0.0097 0.43473,-0.01525 0.12063,-0.0056 0.31408,-0.01665 0.43472,-0.02506 0.12062,-0.0084 0.31408,-0.02421 0.43471,-0.03558 0.12063,-0.01136 0.3141,-0.03202 0.43473,-0.04627 0.12063,-0.01426 0.31409,-0.03962 0.43471,-0.05659 0.12064,-0.01699 0.3141,-0.04654 0.43473,-0.06583 0.12062,-0.0193 0.3141,-0.05228 0.43473,-0.07324 0.12062,-0.02097 0.31409,-0.05617 0.43471,-0.07796 0.12064,-0.0218 0.31409,-0.05766 0.43472,-0.07922 0.12062,-0.02156 0.31411,-0.05615 0.43473,-0.07621 0.12063,-0.02004 0.31408,-0.05125 0.43472,-0.06835 0.12062,-0.01712 0.3141,-0.04241 0.43472,-0.05507 0.12064,-0.01267 0.31409,-0.02959 0.43473,-0.03621 0.12062,-0.0066 0.31408,-0.01253 0.4347,-0.01164 0.12064,8.8e-4 0.31411,0.0083 0.43474,0.01803 0.12062,0.0098 0.31409,0.03261 0.43471,0.05237 0.12063,0.01975 0.31409,0.05954 0.43472,0.08998 0.12062,0.03046 0.3141,0.08814 0.43472,0.12956 0.12064,0.04143 0.31409,0.11696 0.43473,0.16901 0.12062,0.05206 0.31408,0.14449 0.43471,0.20624 0.12063,0.06175 0.31411,0.16905 0.43473,0.23883 0.12062,0.06978 0.31409,0.18869 0.43473,0.26411 0.12062,0.07541 0.3141,0.20153 0.43472,0.27953 0.12062,0.078 0.31409,0.20582 0.43472,0.28268 0.12062,0.07686 0.31409,0.19988 0.43471,0.27138 0.12064,0.07149 0.3141,0.18254 0.43474,0.244 0.12062,0.06147 0.31408,0.15225 0.43471,0.19905 0.12063,0.0468 0.31408,0.1108 0.43472,0.13825 0.12062,0.02745 0.3141,0.05582 0.43472,0.05965 0.12064,0.0038 0.31409,-0.0086 0.43472,-0.03211 0.12062,-0.02351 0.31409,-0.08377 0.43471,-0.13745 0.12064,-0.05368 0.3141,-0.16428 0.43474,-0.24951 0.12062,-0.08523 0.31409,-0.2479 0.43471,-0.36488 0.12063,-0.11701 0.3141,-0.33126 0.43473,-0.47838 0.12063,-0.14713 0.3141,-0.40828 0.43471,-0.58203 0.12064,-0.17374 0.31409,-0.47507 0.43473,-0.67023 0.12062,-0.19515 0.3141,-0.52664 0.43472,-0.73627 0.12064,-0.20964 0.3141,-0.55924 0.43472,-0.77474 0.12062,-0.21548 0.31409,-0.5671 0.43472,-0.7784 0.12063,-0.21131 0.3141,-0.54845 0.43473,-0.74456 0.12063,-0.1961 0.31408,-0.49949 0.43472,-0.66893 0.12062,-0.16941 0.31409,-0.42087 0.43471,-0.55218 0.12064,-0.13133 0.3141,-0.31194 0.43474,-0.39437 0.12062,-0.08242 0.31408,-0.17567 0.4347,-0.19981 0.12064,-0.02414 0.3141,-0.01575 0.43474,0.02577 0.12062,0.04152 0.31409,0.16132 0.43471,0.27352 0.12064,0.11218 0.31409,0.35009 0.43472,0.53508 0.12063,0.18496 0.31411,0.54185 0.43473,0.79811 0.12063,0.25625 0.31408,0.72667 0.43472,1.04882 0.12062,0.32216 0.31408,0.8942 0.43471,1.27314 0.12063,0.37892 0.3141,1.03496 0.43473,1.45796 0.12063,0.42302 0.31409,1.13977 0.43471,1.59082 0.12064,0.45103 0.3141,1.19975 0.43473,1.66008 0.12062,0.46034 0.3141,1.20906 0.43473,1.6577 0.12062,0.44864 0.31409,1.16118 0.43471,1.57584 0.12064,0.41467 0.3141,1.05436 0.43474,1.41285 0.12062,0.35851 0.31409,0.88971 0.43471,1.17099 0.12063,0.28127 0.31408,0.67128 0.43472,0.85623 0.12062,0.18496 0.3141,0.40422 0.43472,0.47683 0.12064,0.0726 0.31409,0.09744 0.43473,0.04652 0.12062,-0.05093 0.31408,-0.23306 0.4347,-0.41361 0.12064,-0.18054 0.31411,-0.57685 0.43474,-0.8876 0.12062,-0.31074 0.31409,-0.91676 0.43471,-1.35206 0.12063,-0.43529 0.31409,-1.23783 0.43472,-1.78527 0.12062,-0.54744 0.3141,-1.51927 0.43472,-2.16031 0.12064,-0.64103 0.31409,-1.74897 0.43473,-2.45993 0.12062,-0.71095 0.3141,-1.91183 0.43472,-2.66415 0.12064,-0.75232 0.3141,-1.9964 0.43472,-2.75806 0.12062,-0.76164 0.31409,-1.99443 0.43471,-2.73142 0.12064,-0.73699 0.31412,-1.90261 0.43474,-2.5804 0.12062,-0.6778 0.31409,-1.71958 0.43472,-2.30468 0.12062,-0.58511 0.31409,-1.45024 0.43471,-1.91244 0.12064,-0.46221 0.3141,-1.10529 0.43474,-1.41888 0.12062,-0.31356 0.31408,-0.69636 0.43471,-0.84115 0.12063,-0.1448 0.31408,-0.23905 0.43472,-0.2025 0.12062,0.03655 0.3141,0.24364 0.43472,0.46591 0.12064,0.22228 0.31409,0.73192 0.43472,1.1361 0.12062,0.40417 0.31411,1.20366 0.43473,1.77696 0.12063,0.57328 0.31408,1.63356 0.43472,2.35506 0.12062,0.72148 0.31409,2.00323 0.43471,2.84495 0.12063,0.84172 0.3141,2.29436 0.43473,3.22159 0.12063,0.92723 0.3141,2.48799 0.43471,3.46126 0.12064,0.97328 0.31409,2.57605 0.43473,3.55345 0.12062,0.9774 0.3141,2.55235 0.43472,3.49098 0.12064,0.93863 0.3141,2.41617 0.43472,3.27409 0.12062,0.85793 0.31409,2.1708 0.43472,2.90925 0.12063,0.73845 0.3141,1.82733 0.43473,2.41307 0.12063,0.58572 0.31408,1.40245 0.43472,1.80854 0.12062,0.40609 0.3141,0.91098 0.43472,1.11835 0.12064,0.20737 0.31409,0.37607 0.43473,0.37634 0.12062,2.8e-4 0.31408,-0.16755 0.4347,-0.37434 0.12064,-0.20677 0.3141,-0.71049 0.43474,-1.11597 0.12062,-0.40548 0.31409,-1.22133 0.43471,-1.80656 0.12064,-0.58524 0.31409,-1.67342 0.43472,-2.41145 0.12063,-0.73806 0.31411,-2.05025 0.43473,-2.90786 0.12063,-0.8576 0.31408,-2.33482 0.43472,-3.27325 0.12062,-0.93845 0.31408,-2.51303 0.43471,-3.49036 0.12063,-0.97731 0.3141,-2.58014 0.43473,-3.55352 0.12063,-0.97341 0.31409,-2.53474 0.43471,-3.46212 0.12064,-0.9274 0.31412,-2.37992 0.43474,-3.222 0.12062,-0.84208 0.31409,-2.12517 0.43472,-2.8472 0.12062,-0.72202 0.31409,-1.78318 0.43471,-2.35681 0.12062,-0.57361 0.3141,-1.37298 0.43474,-1.77748 0.12062,-0.40451 0.31409,-0.9149 0.43471,-1.13797 0.12063,-0.22305 0.31408,-0.43265 0.43472,-0.46971 0.12062,-0.03706 0.3141,0.05825 0.43472,0.20258 0.12064,0.14431 0.31409,0.52487 0.43473,0.83769 0.12062,0.31283 0.31408,0.95509 0.4347,1.41693 0.12064,0.46185 0.31411,1.32685 0.43474,1.91183 0.12062,0.58501 0.31409,1.62696 0.43471,2.30449 0.12063,0.67754 0.3141,1.84198 0.43474,2.57878 0.12062,0.73682 0.31408,1.97001 0.4347,2.73171 0.12064,0.76172 0.31409,2.0059 0.43473,2.75827 0.12062,0.75235 0.3141,1.95317 0.43472,2.66429 0.12064,0.71112 0.31409,1.81961 0.43472,2.46095 0.12062,0.64136 0.31409,1.61393 0.43471,2.16153 0.12064,0.54761 0.31412,1.34983 0.43474,1.78531 0.12062,0.43549 0.31409,1.0421 0.43472,1.35341 0.12062,0.31133 0.31409,0.70929 0.43471,0.89043 0.12064,0.18115 0.3141,0.3641 0.43474,0.4152 0.12062,0.05109 0.31408,0.02564 0.43471,-0.04687 0.12063,-0.07251 0.3141,-0.29143 0.43473,-0.4758 0.12062,-0.18438 0.31409,-0.57245 0.43471,-0.85321 0.12064,-0.28078 0.31409,-0.81186 0.43472,-1.17037 0.12062,-0.3585 0.31411,-0.99882 0.43473,-1.41352 0.12063,-0.41469 0.31408,-1.12697 0.43472,-1.5754 0.12062,-0.44842 0.31409,-1.19642 0.43471,-1.65663 0.12063,-0.4602 0.3141,-1.20918 0.43473,-1.66031 0.12063,-0.45114 0.3141,-1.16809 0.43471,-1.59126 0.12064,-0.42316 0.31409,-1.0795 0.43473,-1.45863 0.12062,-0.37915 0.3141,-0.95168 0.43472,-1.27393 0.12064,-0.32227 0.3141,-0.79232 0.43472,-1.04866 0.12062,-0.25632 0.3141,-0.61339 0.43474,-0.79876 0.12062,-0.18539 0.31408,-0.42464 0.43471,-0.5373 0.12063,-0.11267 0.31408,-0.23296 0.43472,-0.27475 0.12062,-0.04179 0.3141,-0.05054 0.43472,-0.02655 0.12064,0.024 0.31409,0.11697 0.43473,0.19952 0.12062,0.08254 0.31408,0.26403 0.4347,0.39544 0.12064,0.1314 0.3141,0.38243 0.43474,0.55172 0.12062,0.16928 0.31409,0.47246 0.43471,0.66848 0.12064,0.19601 0.31409,0.53304 0.43472,0.7443 0.12063,0.21124 0.31411,0.56287 0.43473,0.77825 0.12063,0.21538 0.31408,0.56445 0.43472,0.77408 0.12062,0.20964 0.3141,0.54165 0.43472,0.73691 0.12064,0.19525 0.31409,0.49664 0.43472,0.67042 0.12063,0.17377 0.31409,0.43488 0.43471,0.58203 0.12064,0.14715 0.3141,0.36157 0.43474,0.47864 0.12062,0.11706 0.31409,0.27989 0.43471,0.36521 0.12063,0.08532 0.3141,0.19599 0.43472,0.24975 0.12062,0.05375 0.3141,0.11413 0.43474,0.13774 0.12062,0.02359 0.31409,0.03613 0.43471,0.03239 0.12063,-0.0037 0.31408,-0.03198 0.43472,-0.05935 0.12062,-0.02738 0.3141,-0.09133 0.43472,-0.13802 0.12064,-0.04669 0.31409,-0.13711 0.43473,-0.19848 0.12062,-0.06138 0.3141,-0.17243 0.43472,-0.24392 0.12063,-0.07147 0.31409,-0.19445 0.43472,-0.2713 0.12062,-0.07684 0.31409,-0.20463 0.43471,-0.28264 0.12063,-0.078 0.3141,-0.20414 0.43474,-0.27958 0.12062,-0.07543 0.31408,-0.19439 0.4347,-0.26418 0.12064,-0.06979 0.31409,-0.17712 0.43473,-0.23889 0.12062,-0.06177 0.3141,-0.15427 0.43472,-0.20636 0.12064,-0.05209 0.31409,-0.12769 0.43472,-0.16913 0.12062,-0.04146 0.31409,-0.0992 0.43471,-0.12968 0.12064,-0.03047 0.31412,-0.07032 0.43474,-0.09011 0.12062,-0.01977 0.31409,-0.04267 0.43472,-0.05247 0.12062,-0.0098 0.31411,-0.01726 0.43472,-0.01816 0.12064,-9e-4 0.31409,0.005 0.43473,0.01159 0.12062,0.0066 0.31408,0.02349 0.43471,0.03613 0.12063,0.01263 0.3141,0.03791 0.43473,0.05502 0.12062,0.01709 0.31409,0.04828 0.43471,0.06833 0.12064,0.02005 0.31409,0.05462 0.43472,0.07618 0.12062,0.02157 0.31411,0.05742 0.43473,0.07923 0.12063,0.02179 0.31408,0.05697 0.43472,0.07796 0.12062,0.02098 0.31409,0.05397 0.43471,0.07325 0.12063,0.01929 0.3141,0.04888 0.43473,0.06587 0.12063,0.01699 0.3141,0.04235 0.43471,0.05663 0.12064,0.01427 0.31411,0.03494 0.43474,0.0463 0.12062,0.01136 0.31409,0.02719 0.43471,0.0356 0.12064,0.0084 0.3141,0.0195 0.43472,0.0251 0.12062,0.0056 0.3141,0.01225 0.43472,0.01527 0.12064,0.003 0.3141,0.0057 0.43473,0.0065 0.12062,7.8e-4 0.31408,1.5e-4 0.43472,-9.5e-4 0.12062,-0.0011 0.3141,-0.0044 0.43472,-0.0069 0.12064,-0.0025 0.31409,-0.0079 0.43473,-0.01151 0.12062,-0.0036 0.31408,-0.01033 0.4347,-0.01463 0.12064,-0.0043 0.3141,-0.01181 0.43474,-0.01645 0.12062,-0.0047 0.31409,-0.01241 0.43471,-0.01709 0.12064,-0.0047 0.3141,-0.01227 0.43474,-0.01677 0.12062,-0.0045 0.31409,-0.01155 0.43471,-0.01567 0.12063,-0.0041 0.43472,-0.01404 0.43472,-0.01404"
      style="fill:none;"
      transform="matrix(1.3333333,0,0,-1.3333333,9.12,53.609333)"
      clip-path="url(#clipPath8)"
      inkscape:label="z2" />
   <path
      id="end"
      d="m 260.83675,18.2936 c 0,0 38.03869,-0.01778 38.03869,-0.01778"
      style="fill:none;stroke:#ffffff;"
      transform="matrix(1.3333333,0,0,-1.3333333,9.12,53.609333)"
      clip-path="url(#clipPath10)"
      inkscape:label="end" />
   </g>
   <g
      id="z1-text"
      aria-label="z&#10;1&#10;i&#10;(t)"
      transform="matrix(1.3333333,0,0,1.3333333,147.348,10.988)"
      clip-path="url(#clipPath17)"
      inkscape:label="z1-text">
   <path
      id="path11"
      d="M 1.3239609,-0.83182031 C 1.8630234,-1.4060391 2.1559922,-1.6521328 2.5075547,-1.9568203 c 0,-0.011719 0.6210937,-0.5390625 0.984375,-0.9023438 0.9375,-0.9257812 1.1601562,-1.40625 1.1601562,-1.4414062 0,-0.1054688 -0.09375,-0.1054688 -0.1054687,-0.1054688 -0.070312,0 -0.1054688,0.023437 -0.1523438,0.1171875 -0.3046875,0.46875 -0.5039062,0.6328125 -0.75,0.6328125 -0.234375,0 -0.3515625,-0.1523437 -0.5039062,-0.3164062 -0.1875,-0.234375 -0.3632813,-0.4335938 -0.6914063,-0.4335938 -0.75,0 -1.2070312,0.9257813 -1.2070312,1.1367188 0,0.046875 0.035156,0.1171875 0.1171875,0.1171875 0.09375,0 0.1171875,-0.058594 0.140625,-0.1171875 0.1875,-0.4570313 0.7617187,-0.46875 0.84375,-0.46875 0.2109375,0 0.3984375,0.070312 0.6210937,0.1523437 0.3984375,0.1523438 0.515625,0.1523438 0.7734375,0.1523438 -0.3632812,0.421875 -1.1953125,1.1367187 -1.3828125,1.3007812 l -0.9023437,0.8320313 c -0.67968751,0.66796874 -1.01953126,1.24218749 -1.01953126,1.31249999 0,0.09375 0.09375,0.09375 0.1171875,0.09375 0.0820313,0 0.09375,-0.01171875 0.15234375,-0.12890625 0.234375,-0.33984375 0.52734371,-0.609375 0.85546871,-0.609375 0.2226563,0 0.328125,0.0820313 0.5742188,0.375 0.1640625,0.2109375 0.3515625,0.36328125 0.6328125,0.36328125 0.984375,0 1.5703125,-1.26562499 1.5703125,-1.53515629 0,-0.046875 -0.046875,-0.09375 -0.1171875,-0.09375 -0.09375,0 -0.1171875,0.058594 -0.140625,0.1289063 -0.234375,0.64453124 -0.8671875,0.83203124 -1.1953125,0.83203124 -0.1992188,0 -0.3867188,-0.0585938 -0.5859375,-0.12890625 -0.3398438,-0.12890625 -0.4921875,-0.1640625 -0.703125,-0.1640625 -0.023437,0 -0.1757813,0 -0.2695313,0.0234375 z m 0,0"
      style="fill:#ff8000;fill-opacity:1;fill-rule:nonzero;stroke:none" />
   <path
      id="path12"
      d="m 7.4030625,-8.0447109 c 0,-0.1875 -0.011719,-0.1992188 -0.2109375,-0.1992188 C 6.7468125,-7.8103359 6.114,-7.7986172 5.83275,-7.7986172 v 0.2460938 c 0.1640625,0 0.6210938,0 1.0078125,-0.1875 v 3.5507812 c 0,0.234375 0,0.328125 -0.6914062,0.328125 H 5.879625 v 0.2460938 c 0.1289063,-0.011719 0.984375,-0.023437 1.2421875,-0.023437 0.2109375,0 1.0898438,0.011719 1.2421875,0.023437 V -3.8611172 H 8.1061875 c -0.703125,0 -0.703125,-0.09375 -0.703125,-0.328125 z m 0,0"
      style="fill:#ff8000;fill-opacity:1;fill-rule:nonzero;stroke:none" />
   <path
      id="path13"
      d="m 6.8932969,-1.7663906 c 0,-0.1054688 -0.082031,-0.2578125 -0.28125,-0.2578125 -0.1875,0 -0.3867188,0.1757812 -0.3867188,0.375 0,0.1171875 0.082031,0.2695312 0.2695313,0.2695312 0.2109375,0 0.3984375,-0.1992187 0.3984375,-0.3867187 z M 5.4636094,1.7726719 c -0.023437,0.09375 -0.058594,0.1757812 -0.058594,0.2929687 0,0.328125 0.28125,0.5976563 0.6679688,0.5976563 0.6914062,0 0.9960937,-0.9609375 0.9960937,-1.0664063 0,-0.09375 -0.082031,-0.09375 -0.1054687,-0.09375 -0.1054688,0 -0.1054688,0.046875 -0.140625,0.1171875 -0.1523438,0.5625 -0.4570313,0.84375 -0.7382813,0.84375 -0.140625,0 -0.1757812,-0.082031 -0.1757812,-0.2460937 0,-0.1523438 0.058594,-0.2929688 0.1171875,-0.4453125 0.070312,-0.1875 0.140625,-0.375 0.2226562,-0.5507813 0.058594,-0.1640625 0.3164063,-0.80859373 0.3398438,-0.89062498 0.023437,-0.0703125 0.046875,-0.15234375 0.046875,-0.22265625 0,-0.328125 -0.28125,-0.5859375 -0.6679688,-0.5859375 -0.6914062,0 -1.0078125,0.94921875 -1.0078125,1.06640625 0,0.0820313 0.09375,0.0820313 0.1171875,0.0820313 0.09375,0 0.1054688,-0.0351563 0.1289063,-0.10546875 0.1757812,-0.59765625 0.4804687,-0.85546875 0.7382812,-0.85546875 0.1171875,0 0.1757813,0.0585938 0.1757813,0.24609375 0,0.1640625 -0.035156,0.26953125 -0.2109375,0.703125 z m 0,0"
      style="fill:#ff8000;fill-opacity:1;fill-rule:nonzero;stroke:none" />
   <path
      id="path14"
      d="m 12.834703,2.3908359 c 0,-0.035156 0,-0.046875 -0.164062,-0.2226562 -1.242188,-1.25390626 -1.570313,-3.12890626 -1.570313,-4.6640625 0,-1.7226563 0.386719,-3.4570313 1.605469,-4.7109375 0.128906,-0.1171875 0.128906,-0.1289063 0.128906,-0.1640625 0,-0.070312 -0.03516,-0.1054688 -0.09375,-0.1054688 -0.105469,0 -0.996094,0.6796875 -1.582031,1.9453125 -0.515625,1.1015625 -0.632813,2.203125 -0.632813,3.0351563 0,0.7851562 0.117188,1.99218749 0.65625,3.11718749 0.597657,1.21875001 1.453125,1.87500001 1.558594,1.87500001 0.05859,0 0.09375,-0.035156 0.09375,-0.1054688 z m 0,0"
      style="fill:#ff8000;fill-opacity:1;fill-rule:nonzero;stroke:none" />
   <path
      id="path15"
      d="m 15.465563,-3.9841641 h 0.9375 c 0.199218,0 0.304687,0 0.304687,-0.1992187 0,-0.1054688 -0.105469,-0.1054688 -0.28125,-0.1054688 h -0.878906 c 0.363281,-1.4179687 0.410156,-1.6171875 0.410156,-1.6757812 0,-0.1757813 -0.117187,-0.2695313 -0.292969,-0.2695313 -0.02344,0 -0.304687,0.011719 -0.398437,0.3515625 l -0.386719,1.59375 h -0.9375 c -0.199219,0 -0.292969,0 -0.292969,0.1875 0,0.1171875 0.07031,0.1171875 0.269532,0.1171875 h 0.878906 c -0.714844,2.8242188 -0.75,3.00000004 -0.75,3.17578129 0,0.5390625 0.375,0.9140625 0.914062,0.9140625 1.007813,0 1.582032,-1.45312499 1.582032,-1.53515629 0,-0.09375 -0.08203,-0.09375 -0.117188,-0.09375 -0.09375,0 -0.105469,0.023437 -0.152344,0.140625 -0.433593,1.03125004 -0.960937,1.27734379 -1.300781,1.27734379 -0.199219,0 -0.304687,-0.12890625 -0.304687,-0.45703125 0,-0.24609375 0.02344,-0.31640625 0.05859,-0.48046874 z m 0,0"
      style="fill:#ff8000;fill-opacity:1;fill-rule:nonzero;stroke:none" />
   <path
      id="path16"
      d="m 19.89525,-2.4958828 c 0,-0.7734375 -0.117187,-1.9804688 -0.65625,-3.1054688 -0.597656,-1.21875 -1.464844,-1.875 -1.558594,-1.875 -0.05859,0 -0.105468,0.046875 -0.105468,0.1054688 0,0.035156 0,0.046875 0.199218,0.234375 0.972657,0.984375 1.535157,2.5664062 1.535157,4.640625 0,1.71093749 -0.363282,3.45703124 -1.59375,4.7226562 -0.140625,0.1171875 -0.140625,0.1289063 -0.140625,0.1640625 0,0.058594 0.04687,0.1054688 0.105468,0.1054688 0.09375,0 0.996094,-0.6796875 1.582032,-1.94531251 0.503906,-1.1015625 0.632812,-2.20312499 0.632812,-3.04687499 z m 0,0"
      style="fill:#ff8000;fill-opacity:1;fill-rule:nonzero;stroke:none" />
   </g>
   <g
      id="z2-text"
      aria-label="z&#10;2&#10;i&#10;(t)"
      transform="matrix(1.3333333,0,0,1.3333333,328.48267,10.988)"
      clip-path="url(#clipPath24)"
      inkscape:label="z2-text">
   <path
      id="path18"
      d="M 1.3255,-0.83182031 C 1.8645625,-1.4060391 2.1575313,-1.6521328 2.5090938,-1.9568203 c 0,-0.011719 0.6210937,-0.5390625 0.984375,-0.9023438 0.9375,-0.9257812 1.1601562,-1.40625 1.1601562,-1.4414062 0,-0.1054688 -0.09375,-0.1054688 -0.1054687,-0.1054688 -0.070312,0 -0.1054688,0.023437 -0.1523438,0.1171875 -0.3046875,0.46875 -0.5039062,0.6328125 -0.75,0.6328125 -0.234375,0 -0.3515625,-0.1523437 -0.5039062,-0.3164062 -0.1875,-0.234375 -0.3632813,-0.4335938 -0.6914063,-0.4335938 -0.75,0 -1.2070312,0.9257813 -1.2070312,1.1367188 0,0.046875 0.035156,0.1171875 0.1171875,0.1171875 0.09375,0 0.1171875,-0.058594 0.140625,-0.1171875 0.1875,-0.4570313 0.7617187,-0.46875 0.84375,-0.46875 0.2109375,0 0.3984375,0.070312 0.6210937,0.1523437 0.3984375,0.1523438 0.515625,0.1523438 0.7734375,0.1523438 C 3.3762813,-3.0115078 2.54425,-2.2966641 2.35675,-2.1326016 L 1.4544063,-1.3005703 C 0.77471875,-0.63260156 0.434875,-0.05838281 0.434875,0.01192969 c 0,0.09375 0.09375,0.09375 0.1171875,0.09375 0.0820313,0 0.09375,-0.01171875 0.15234375,-0.12890625 0.234375,-0.33984375 0.52734375,-0.609375 0.85546875,-0.609375 0.2226563,0 0.328125,0.0820313 0.5742188,0.375 0.1640625,0.2109375 0.3515625,0.36328125 0.6328125,0.36328125 0.984375,0 1.5703125,-1.26562499 1.5703125,-1.53515629 0,-0.046875 -0.046875,-0.09375 -0.1171875,-0.09375 -0.09375,0 -0.1171875,0.058594 -0.140625,0.1289063 -0.234375,0.64453124 -0.8671875,0.83203124 -1.1953125,0.83203124 -0.1992188,0 -0.3867188,-0.0585938 -0.5859375,-0.12890625 -0.3398438,-0.12890625 -0.4921875,-0.1640625 -0.703125,-0.1640625 -0.023437,0 -0.1757813,0 -0.2695313,0.0234375 z m 0,0"
      style="fill:#ff8000;fill-opacity:1;fill-rule:nonzero;stroke:none" />
   <path
      id="path19"
      d="m 8.5852656,-4.8806484 h -0.234375 c -0.023437,0.1523437 -0.082031,0.5625 -0.1757812,0.6328125 -0.058594,0.035156 -0.5976563,0.035156 -0.6914063,0.035156 H 6.1946406 c 0.7382813,-0.6445312 0.984375,-0.84375 1.3945313,-1.171875 0.515625,-0.4101562 0.9960937,-0.84375 0.9960937,-1.5 0,-0.84375 -0.7382812,-1.359375 -1.6289062,-1.359375 -0.8671875,0 -1.453125,0.609375 -1.453125,1.2421875 0,0.3632813 0.3046875,0.3984375 0.375,0.3984375 0.1640625,0 0.375,-0.1171875 0.375,-0.375 0,-0.1289062 -0.058594,-0.3632812 -0.421875,-0.3632812 0.2226562,-0.5039063 0.6914062,-0.65625 1.0195312,-0.65625 0.703125,0 1.0664063,0.5507812 1.0664063,1.1132812 0,0.609375 -0.4335938,1.0898438 -0.65625,1.3359375 l -1.6875,1.6640625 c -0.070312,0.058594 -0.070312,0.070312 -0.070312,0.2695313 h 2.8828125 z m 0,0"
      style="fill:#ff8000;fill-opacity:1;fill-rule:nonzero;stroke:none" />
   <path
      id="path20"
      d="m 6.8948359,-1.7663906 c 0,-0.1054688 -0.082031,-0.2578125 -0.28125,-0.2578125 -0.1875,0 -0.3867187,0.1757812 -0.3867187,0.375 0,0.1171875 0.082031,0.2695312 0.2695312,0.2695312 0.2109375,0 0.3984375,-0.1992187 0.3984375,-0.3867187 z M 5.4651484,1.7726719 c -0.023437,0.09375 -0.058594,0.1757812 -0.058594,0.2929687 0,0.328125 0.28125,0.5976563 0.6679687,0.5976563 0.6914063,0 0.9960938,-0.9609375 0.9960938,-1.0664063 0,-0.09375 -0.082031,-0.09375 -0.1054688,-0.09375 -0.1054687,0 -0.1054687,0.046875 -0.140625,0.1171875 -0.1523437,0.5625 -0.4570312,0.84375 -0.7382812,0.84375 -0.140625,0 -0.1757813,-0.082031 -0.1757813,-0.2460937 0,-0.1523438 0.058594,-0.2929688 0.1171875,-0.4453125 0.070312,-0.1875 0.140625,-0.375 0.2226563,-0.5507813 0.058594,-0.1640625 0.3164062,-0.80859373 0.3398437,-0.89062498 0.023437,-0.0703125 0.046875,-0.15234375 0.046875,-0.22265625 0,-0.328125 -0.28125,-0.5859375 -0.6679687,-0.5859375 -0.6914063,0 -1.0078125,0.94921875 -1.0078125,1.06640625 0,0.0820313 0.09375,0.0820313 0.1171875,0.0820313 0.09375,0 0.1054687,-0.0351563 0.1289062,-0.10546875 0.1757813,-0.59765625 0.4804688,-0.85546875 0.7382813,-0.85546875 0.1171875,0 0.1757812,0.0585938 0.1757812,0.24609375 0,0.1640625 -0.035156,0.26953125 -0.2109375,0.703125 z m 0,0"
      style="fill:#ff8000;fill-opacity:1;fill-rule:nonzero;stroke:none" />
   <path
      id="path21"
      d="m 12.833313,2.3908359 c 0,-0.035156 0,-0.046875 -0.164063,-0.2226562 -1.242187,-1.25390626 -1.570312,-3.12890626 -1.570312,-4.6640625 0,-1.7226563 0.386718,-3.4570313 1.605468,-4.7109375 0.128907,-0.1171875 0.128907,-0.1289063 0.128907,-0.1640625 0,-0.070312 -0.03516,-0.1054688 -0.09375,-0.1054688 -0.105469,0 -0.996094,0.6796875 -1.582032,1.9453125 -0.515625,1.1015625 -0.632812,2.203125 -0.632812,3.0351563 0,0.7851562 0.117187,1.99218749 0.65625,3.11718749 0.597656,1.21875001 1.453125,1.87500001 1.558594,1.87500001 0.05859,0 0.09375,-0.035156 0.09375,-0.1054688 z m 0,0"
      style="fill:#ff8000;fill-opacity:1;fill-rule:nonzero;stroke:none" />
   <path
      id="path22"
      d="m 15.467102,-3.9841641 h 0.9375 c 0.199218,0 0.304687,0 0.304687,-0.1992187 0,-0.1054688 -0.105469,-0.1054688 -0.28125,-0.1054688 h -0.878906 c 0.363281,-1.4179687 0.410156,-1.6171875 0.410156,-1.6757812 0,-0.1757813 -0.117187,-0.2695313 -0.292969,-0.2695313 -0.02344,0 -0.304687,0.011719 -0.398437,0.3515625 l -0.386719,1.59375 h -0.9375 c -0.199219,0 -0.292969,0 -0.292969,0.1875 0,0.1171875 0.07031,0.1171875 0.269532,0.1171875 h 0.878906 c -0.714844,2.8242188 -0.75,3.00000004 -0.75,3.17578129 0,0.5390625 0.375,0.9140625 0.914062,0.9140625 1.007813,0 1.582032,-1.45312499 1.582032,-1.53515629 0,-0.09375 -0.08203,-0.09375 -0.117188,-0.09375 -0.09375,0 -0.105469,0.023437 -0.152344,0.140625 -0.433593,1.03125004 -0.960937,1.27734379 -1.300781,1.27734379 -0.199219,0 -0.304687,-0.12890625 -0.304687,-0.45703125 0,-0.24609375 0.02344,-0.31640625 0.05859,-0.48046874 z m 0,0"
      style="fill:#ff8000;fill-opacity:1;fill-rule:nonzero;stroke:none" />
   <path
      id="path23"
      d="m 19.896789,-2.4958828 c 0,-0.7734375 -0.117187,-1.9804688 -0.65625,-3.1054688 -0.597656,-1.21875 -1.464844,-1.875 -1.558594,-1.875 -0.05859,0 -0.105468,0.046875 -0.105468,0.1054688 0,0.035156 0,0.046875 0.199218,0.234375 0.972657,0.984375 1.535157,2.5664062 1.535157,4.640625 0,1.71093749 -0.363282,3.45703124 -1.59375,4.7226562 -0.140625,0.1171875 -0.140625,0.1289063 -0.140625,0.1640625 0,0.058594 0.04687,0.1054688 0.105468,0.1054688 0.09375,0 0.996094,-0.6796875 1.582032,-1.94531251 0.503906,-1.1015625 0.632812,-2.20312499 0.632812,-3.04687499 z m 0,0"
      style="fill:#ff8000;fill-opacity:1;fill-rule:nonzero;stroke:none" />
   </g>
   <g
      id="y-text"
      aria-label="y&#10;i&#10;(t)"
      transform="matrix(1.3333333,0,0,1.3333333,25.069333,22.816)"
      clip-path="url(#clipPath30)"
      inkscape:label="y-text">
   <path
      id="path25"
      d="m 4.8405781,-3.7965703 c 0.046875,-0.140625 0.046875,-0.1523438 0.046875,-0.2226563 0,-0.1875 -0.140625,-0.2695312 -0.2929687,-0.2695312 -0.1054688,0 -0.2578125,0.058594 -0.3515625,0.1992187 -0.023437,0.058594 -0.09375,0.3632813 -0.140625,0.5390625 -0.070312,0.2578125 -0.140625,0.5273438 -0.1992188,0.796875 l -0.4453125,1.79296879 c -0.035156,0.15234375 -0.46875,0.85546875 -1.125,0.85546875 -0.5039062,0 -0.6210937,-0.4453125 -0.6210937,-0.80859375 0,-0.45703129 0.1757812,-1.07812499 0.515625,-1.95703129 0.1523437,-0.4101562 0.1992187,-0.515625 0.1992187,-0.7148437 0,-0.4453125 -0.328125,-0.8203125 -0.8203125,-0.8203125 -0.94921872,0 -1.31249997,1.453125 -1.31249997,1.5351562 0,0.1054688 0.09375,0.1054688 0.1171875,0.1054688 0.09375,0 0.10546875,-0.023437 0.15234375,-0.1875 0.26953125,-0.9375 0.66796872,-1.2304688 1.00781252,-1.2304688 0.082031,0 0.2578125,0 0.2578125,0.3164063 0,0.2460937 -0.1054688,0.515625 -0.1757813,0.703125 -0.3984375,1.0546875 -0.5742187,1.6171875 -0.5742187,2.0859375 0,0.89062499 0.6210937,1.18359374 1.21875,1.18359374 0.3867187,0 0.7265625,-0.1640625 0.9960937,-0.4453125 -0.1289062,0.515625 -0.2460937,1.0078125 -0.6445312,1.53515626 -0.2578125,0.3398437 -0.6328125,0.6328125 -1.0898438,0.6328125 -0.140625,0 -0.59765622,-0.035156 -0.76171872,-0.421875 0.1640625,0 0.29296872,0 0.43359372,-0.1171875 0.09375,-0.09375 0.1992188,-0.2226563 0.1992188,-0.41015626 0,-0.31640625 -0.2695313,-0.3515625 -0.375,-0.3515625 -0.22265627,0 -0.55078127,0.1640625 -0.55078127,0.64453126 0,0.5039062 0.43359375,0.8671875 1.05468747,0.8671875 1.0195313,0 2.0507813,-0.9023438 2.3320313,-2.02734376 z m 0,0"
      style="fill:#ffffff;fill-opacity:1;fill-rule:nonzero;stroke:none" />
   <path
      id="path26"
      d="m 7.1462422,-2.8649297 c 0,-0.1054687 -0.082031,-0.2578125 -0.28125,-0.2578125 -0.1875,0 -0.3867188,0.1757813 -0.3867188,0.375 0,0.1171875 0.082031,0.2695313 0.2695313,0.2695313 0.2109375,0 0.3984375,-0.1992188 0.3984375,-0.3867188 z M 5.7165547,0.67413281 c -0.023437,0.09375 -0.058594,0.17578125 -0.058594,0.29296875 0,0.32812504 0.28125,0.59765624 0.6679688,0.59765624 0.6914062,0 0.9960937,-0.96093749 0.9960937,-1.06640624 0,-0.09375 -0.082031,-0.09375 -0.1054687,-0.09375 -0.1054688,0 -0.1054688,0.046875 -0.140625,0.1171875 C 6.9235859,1.0842891 6.6188984,1.3655391 6.3376484,1.3655391 c -0.140625,0 -0.1757812,-0.082031 -0.1757812,-0.2460938 0,-0.15234374 0.058594,-0.29296874 0.1171875,-0.44531249 0.070312,-0.1875 0.140625,-0.375 0.2226562,-0.55078125 0.058594,-0.1640625 0.3164063,-0.80859375 0.3398438,-0.890625 0.023437,-0.0703125 0.046875,-0.15234375 0.046875,-0.22265625 0,-0.32812501 -0.28125,-0.58593751 -0.6679688,-0.58593751 -0.6914062,0 -1.0078125,0.94921876 -1.0078125,1.06640626 0,0.0820313 0.09375,0.0820313 0.1171875,0.0820313 0.09375,0 0.1054688,-0.0351563 0.1289063,-0.10546875 0.1757812,-0.59765631 0.4804687,-0.85546881 0.7382812,-0.85546881 0.1171875,0 0.1757813,0.058594 0.1757813,0.2460938 0,0.16406251 -0.035156,0.26953126 -0.2109375,0.70312501 z m 0,0"
      style="fill:#ffffff;fill-opacity:1;fill-rule:nonzero;stroke:none" />
   <path
      id="path27"
      d="m 11.493898,2.3909297 c 0,-0.035156 0,-0.046875 -0.164062,-0.2226563 -1.242188,-1.25390621 -1.5703126,-3.12890621 -1.5703126,-4.6640625 0,-1.7226562 0.3867186,-3.4570312 1.6054686,-4.7109375 0.128906,-0.1171875 0.128906,-0.1289062 0.128906,-0.1640625 0,-0.070312 -0.03516,-0.1054687 -0.09375,-0.1054687 -0.105468,0 -0.996093,0.6796875 -1.5820308,1.9453125 -0.515625,1.1015625 -0.6328125,2.203125 -0.6328125,3.0351562 0,0.7851563 0.1171875,1.99218754 0.65625,3.11718754 0.5976563,1.21874996 1.4531253,1.87499996 1.5585933,1.87499996 0.05859,0 0.09375,-0.035156 0.09375,-0.1054687 z m 0,0"
      style="fill:#ffffff;fill-opacity:1;fill-rule:nonzero;stroke:none" />
   <path
      id="path28"
      d="m 14.127688,-3.9840703 h 0.9375 c 0.199218,0 0.304687,0 0.304687,-0.1992188 0,-0.1054687 -0.105469,-0.1054687 -0.28125,-0.1054687 h -0.878906 c 0.363281,-1.4179688 0.410156,-1.6171875 0.410156,-1.6757813 0,-0.1757812 -0.117187,-0.2695312 -0.292969,-0.2695312 -0.02344,0 -0.304687,0.011719 -0.398437,0.3515625 l -0.386719,1.59375 h -0.9375 c -0.199219,0 -0.292969,0 -0.292969,0.1875 0,0.1171875 0.07031,0.1171875 0.269532,0.1171875 h 0.878906 c -0.714844,2.8242187 -0.75,2.99999999 -0.75,3.17578124 0,0.5390625 0.375,0.9140625 0.914062,0.9140625 1.007813,0 1.582032,-1.45312504 1.582032,-1.53515624 0,-0.09375 -0.08203,-0.09375 -0.117188,-0.09375 -0.09375,0 -0.105469,0.023437 -0.152344,0.140625 -0.433593,1.03124999 -0.960937,1.27734374 -1.300781,1.27734374 -0.199219,0 -0.304687,-0.12890625 -0.304687,-0.45703125 0,-0.24609375 0.02344,-0.31640625 0.05859,-0.48046879 z m 0,0"
      style="fill:#ffffff;fill-opacity:1;fill-rule:nonzero;stroke:none" />
   <path
      id="path29"
      d="m 18.557375,-2.4957891 c 0,-0.7734375 -0.117188,-1.9804687 -0.65625,-3.1054687 -0.597656,-1.21875 -1.464844,-1.875 -1.558594,-1.875 -0.05859,0 -0.105469,0.046875 -0.105469,0.1054687 0,0.035156 0,0.046875 0.199219,0.234375 0.972656,0.984375 1.535156,2.5664063 1.535156,4.640625 0,1.71093754 -0.363281,3.45703129 -1.59375,4.7226563 -0.140625,0.1171875 -0.140625,0.1289062 -0.140625,0.1640625 0,0.058594 0.04687,0.1054687 0.105469,0.1054687 0.09375,0 0.996094,-0.6796875 1.582031,-1.94531246 0.503907,-1.1015625 0.632813,-2.20312504 0.632813,-3.04687504 z m 0,0"
      style="fill:#ffffff;fill-opacity:1;fill-rule:nonzero;stroke:none" />
   </g>
    <g
      id="hide">
      <path
         id="rect1"
         d="M 24.425624,3.5117273 H 402.83453 c 3.15581,0 5.69641,2.5406 5.69641,5.6964126 V 54.002952 c 0,3.155813 -2.5406,5.696413 -5.69641,5.696413 H 24.425624 c -3.155812,0 -5.696412,-2.5406 -5.696412,-5.696413 V 9.2081399 c 0,-3.1558126 2.5406,-5.6964126 5.696412,-5.6964126 z" />
   </g>
</svg>
